<svg width="760" height="428" viewBox="0 0 760 428" fill="none" xmlns="http://www.w3.org/2000/svg">
<g clip-path="url(#clip0)">
<rect width="760" height="428" fill="#ECF0F1"/>
<path d="M166.429 166.781L165.867 161.44C165.867 160.596 166.429 160.034 166.991 160.034L199.883 156.379C200.727 156.379 201.289 156.942 201.289 157.504L201.851 162.845C201.851 163.689 201.289 164.251 200.727 164.251L167.835 167.906C166.991 167.906 166.429 167.343 166.429 166.781Z" fill="#FAF9F8"/>
<path d="M209.442 181.681L169.803 185.898C168.96 185.898 168.397 185.335 168.116 184.492L167.554 179.432C167.554 178.588 168.116 178.026 168.96 177.745L208.599 173.528C209.442 173.528 210.004 174.09 210.285 174.934L210.848 179.994C210.848 181.119 210.285 181.681 209.442 181.681Z" fill="#FAF9F8"/>
<path d="M213.377 204.733L177.955 209.794C159.401 212.324 141.971 199.392 139.441 180.837L138.316 173.528C135.786 154.974 148.718 137.544 167.272 135.014L202.695 129.953C221.249 127.423 238.679 140.355 241.209 158.909L242.334 166.219C245.145 184.773 232.213 202.203 213.377 204.733Z" fill="#FAF9F8"/>
<path d="M206.068 205.014C208.879 211.48 215.626 215.978 223.217 215.135C224.622 214.854 226.028 214.573 227.152 214.292C223.217 212.043 220.405 208.107 219.281 203.328C217.594 203.89 215.626 204.171 213.658 204.452L206.068 205.014Z" fill="#FAF9F8"/>
<path d="M210.004 174.934L210.566 179.994C210.566 180.837 210.004 181.4 209.161 181.681L169.522 185.898C168.678 185.898 168.116 185.335 167.835 184.492L167.273 179.432C167.273 178.588 167.835 178.026 168.678 177.745L208.317 173.528C209.442 173.809 210.004 174.371 210.004 174.934Z" fill="#E1DFDD"/>
<path d="M201.289 157.504L201.851 162.845C201.851 163.689 201.289 164.251 200.727 164.251L167.835 167.906C166.991 167.906 166.429 167.343 166.429 166.781L165.867 161.44C165.867 160.596 166.429 160.034 166.991 160.034L199.883 156.379C200.446 156.098 201.289 156.66 201.289 157.504Z" fill="#E1DFDD"/>
<path d="M523.972 155.256L509.68 244.926L606.567 260.369L620.86 170.7L523.972 155.256Z" fill="#C8C6C4"/>
<path d="M524.113 155.218L521.015 174.651L617.902 190.094L621 170.661L524.113 155.218Z" fill="#EE8F94"/>
<path d="M597.68 176.621C595.712 176.339 594.587 174.653 594.868 172.685L596.836 160.596C597.117 158.628 598.804 157.504 600.772 157.785C602.74 158.066 603.865 159.753 603.583 161.721L601.616 173.809C601.334 175.496 599.366 176.902 597.68 176.621Z" fill="#C8C6C4"/>
<path d="M579.687 173.528C577.719 173.247 576.595 171.56 576.876 169.592L578.844 157.504C579.125 155.536 580.812 154.411 582.78 154.693C584.747 154.974 585.872 156.66 585.591 158.628L583.623 170.717C583.342 172.685 581.655 173.809 579.687 173.528Z" fill="#C8C6C4"/>
<path d="M561.975 170.717C560.007 170.436 558.883 168.749 559.164 166.781L561.132 154.693C561.413 152.725 563.1 151.6 565.068 151.881C567.036 152.162 568.16 153.849 567.879 155.817L565.911 167.906C565.349 169.873 563.662 170.998 561.975 170.717Z" fill="#C8C6C4"/>
<path d="M543.984 167.906C542.016 167.624 540.891 165.938 541.172 163.97L543.14 151.881C543.421 149.913 545.108 148.789 547.076 149.07C549.044 149.351 550.168 151.038 549.887 153.006L547.919 165.094C547.638 167.062 545.952 168.187 543.984 167.906Z" fill="#C8C6C4"/>
<path d="M617.92 189.834C617.92 189.834 609.768 241.561 593.462 253.65C593.462 253.65 579.406 244.372 561.133 245.216C523.18 246.621 506.031 237.907 495.067 230.316C495.067 230.316 515.027 213.729 521.212 174.372L617.92 189.834Z" fill="white"/>
<path d="M602.458 167.343L601.334 173.528C601.053 175.496 599.366 176.621 597.398 176.339C595.711 176.058 594.306 174.372 594.587 172.404L595.711 166.219L602.458 167.343Z" fill="#E3646A"/>
<path d="M584.747 164.532L583.623 170.717C583.342 172.404 581.655 173.809 579.687 173.528C577.719 173.247 576.595 171.56 576.876 169.592L578 163.408L584.747 164.532Z" fill="#E3646A"/>
<path d="M566.754 161.721L565.63 167.906C565.349 169.873 563.662 170.998 561.694 170.717C559.726 170.436 558.602 168.749 558.883 166.781L559.726 160.596L566.754 161.721Z" fill="#E3646A"/>
<path d="M548.763 158.909L547.638 165.094C547.357 167.062 545.67 168.187 543.703 167.906C541.735 167.624 540.61 165.938 540.891 163.97L542.016 157.785L548.763 158.909Z" fill="#E3646A"/>
<path d="M439.123 117.584H331.17L323.299 113.086L331.17 108.587H439.123C441.091 108.587 442.497 110.555 442.497 113.086C442.778 115.616 441.091 117.584 439.123 117.584Z" fill="#F7B548"/>
<path d="M386.27 137.544C405.367 137.544 420.849 122.062 420.849 102.965C420.849 83.8676 405.367 68.3861 386.27 68.3861C367.173 68.3861 351.691 83.8676 351.691 102.965C351.691 122.062 367.173 137.544 386.27 137.544Z" fill="#594539"/>
<path d="M386.27 137.544C405.367 137.544 420.849 122.062 420.849 102.965C420.849 83.8676 405.367 68.3861 386.27 68.3861C367.173 68.3861 351.691 83.8676 351.691 102.965C351.691 122.062 367.173 137.544 386.27 137.544Z" fill="url(#paint0_radial)"/>
<path d="M404.544 209.794H363.218V312.405H404.544V209.794Z" fill="#E0BB95"/>
<path d="M404.262 249.152V254.212C404.262 260.678 408.76 266.3 415.226 267.425L394.142 276.983L404.262 249.152Z" fill="#E0BB95"/>
<path d="M352.536 267.706C358.72 266.3 362.937 260.959 362.937 254.774V246.621L376.994 280.357L352.536 267.706Z" fill="#E0BB95"/>
<path d="M404.544 209.794H363.218V312.405H404.544V209.794Z" fill="url(#paint1_radial)"/>
<path d="M386.27 245.497C423.689 245.497 454.022 215.163 454.022 177.745C454.022 140.327 423.689 109.993 386.27 109.993C348.852 109.993 318.518 140.327 318.518 177.745C318.518 215.163 348.852 245.497 386.27 245.497Z" fill="#594539"/>
<path d="M386.271 246.621C415.149 246.621 438.56 223.21 438.56 194.332C438.56 165.453 415.149 142.042 386.271 142.042C357.392 142.042 333.981 165.453 333.981 194.332C333.981 223.21 357.392 246.621 386.271 246.621Z" fill="#E0BB95"/>
<path d="M386.271 148.789V246.621C357.595 246.621 333.981 223.288 333.981 194.332C333.981 174.653 344.664 157.785 360.688 148.789H386.271Z" fill="url(#paint2_linear)"/>
<path d="M454.023 286.542C451.212 284.574 448.682 282.606 445.871 280.919L321.893 281.2C317.676 283.73 313.74 286.823 309.804 289.915C285.909 309.875 270.447 340.237 270.447 374.254V433.01C302.214 449.877 338.198 459.154 376.713 459.154C421.131 459.154 462.457 446.504 497.598 424.576V374.254C497.598 338.269 480.449 306.502 454.023 286.542Z" fill="#85D3E7"/>
<path d="M445.871 280.919H321.612C338.48 270.236 358.721 264.051 380.087 264.051H387.396C408.762 264.051 428.722 270.236 445.871 280.919Z" fill="#E0BB95"/>
<path d="M270.728 360.76C270.728 360.76 270.728 360.76 270.728 361.041C270.447 362.727 266.23 391.684 256.671 425.138C285.065 442.568 317.395 454.375 352.255 458.03V267.706C308.961 279.232 276.35 315.498 270.728 360.76Z" fill="#C6E8ED"/>
<path d="M414.946 267.425V455.781C449.525 449.877 481.293 436.383 508.843 416.985C500.972 386.905 497.317 362.165 496.755 360.76V360.478C491.132 315.217 458.24 278.67 414.946 267.425Z" fill="url(#paint3_linear)"/>
<path d="M364.906 222.726C353.661 222.726 344.383 213.448 344.383 202.203C344.383 190.958 353.661 181.681 364.906 181.681C376.151 181.681 385.428 190.958 385.428 202.203C385.428 213.448 376.151 222.726 364.906 222.726ZM364.906 186.741C356.472 186.741 349.444 193.769 349.444 202.203C349.444 210.637 356.472 217.665 364.906 217.665C373.34 217.665 380.368 210.637 380.368 202.203C380.368 193.769 373.34 186.741 364.906 186.741Z" fill="#E3646A"/>
<path d="M407.356 222.726C396.111 222.726 386.834 213.448 386.834 202.203C386.834 190.958 396.111 181.681 407.356 181.681C418.601 181.681 427.878 190.958 427.878 202.203C427.878 213.448 418.601 222.726 407.356 222.726ZM407.356 186.741C398.922 186.741 391.894 193.769 391.894 202.203C391.894 210.637 398.922 217.665 407.356 217.665C415.79 217.665 422.818 210.637 422.818 202.203C422.818 193.769 415.79 186.741 407.356 186.741Z" fill="#E3646A"/>
<path d="M390.207 194.332H382.054V199.392H390.207V194.332Z" fill="#E3646A"/>
<path d="M315.989 217.946C333.137 218.228 346.913 211.48 346.913 211.48C348.318 210.356 347.475 208.95 345.507 208.669C343.539 208.388 337.073 207.545 337.073 207.545L346.632 193.207C348.037 192.083 346.913 187.585 343.258 189.552C339.603 191.52 337.073 193.207 330.607 196.299C324.141 199.392 312.615 212.324 312.615 212.324L315.989 217.946Z" fill="#E0BB95"/>
<path d="M352.535 267.706H294.904C289.281 267.706 287.032 260.678 291.53 257.304L326.109 232.284L313.739 210.075L229.963 236.501C187.232 249.995 182.453 308.47 222.092 328.992L320.487 379.314L352.535 267.706Z" fill="#C6E8ED"/>
<g opacity="0.5">
<g opacity="0.5">
<path opacity="0.5" d="M376.712 221.882C377.837 223.288 378.961 223.85 380.086 224.412C381.21 224.975 382.335 225.256 383.741 225.537C384.865 225.818 386.271 226.099 387.676 226.099C389.082 226.099 390.206 226.099 391.893 225.537H392.174C392.737 225.256 393.58 225.818 393.58 226.38C393.58 226.661 393.58 226.942 393.58 227.224C392.737 229.473 390.769 230.878 388.801 231.722C386.833 232.565 384.584 232.565 382.335 232.284C380.086 231.722 378.118 230.597 376.712 228.91C375.307 227.224 374.463 224.693 374.744 222.726C374.744 222.163 375.588 221.601 376.15 221.601C376.15 221.32 376.431 221.601 376.712 221.882Z" fill="#9B643D"/>
</g>
</g>
<path d="M364.905 209.794C367.234 209.794 369.122 206.773 369.122 203.047C369.122 199.32 367.234 196.299 364.905 196.299C362.576 196.299 360.688 199.32 360.688 203.047C360.688 206.773 362.576 209.794 364.905 209.794Z" fill="#33312D"/>
<path d="M406.793 209.794C409.122 209.794 411.01 206.773 411.01 203.047C411.01 199.32 409.122 196.299 406.793 196.299C404.464 196.299 402.576 199.32 402.576 203.047C402.576 206.773 404.464 209.794 406.793 209.794Z" fill="#33312D"/>
<path d="M415.508 116.459C410.447 113.929 405.106 112.242 399.483 111.118C395.266 110.274 390.768 109.712 386.27 109.712C349.443 109.712 319.643 138.949 318.518 175.215C328.92 183.93 342.133 188.99 356.752 188.99C377.837 188.99 396.11 178.307 406.793 162.002C416.913 177.183 433.781 187.585 453.179 188.709C453.741 185.054 454.303 181.119 454.303 177.464C454.022 150.757 438.279 127.423 415.508 116.459Z" fill="#594539"/>
<path d="M436.794 457.476L359.109 472.892C356.567 473.453 354.025 471.771 353.46 469.248L330.86 357.411C330.295 354.888 331.99 352.366 334.533 351.805L412.217 336.389C414.76 335.828 417.302 337.51 417.867 340.033L440.466 451.87C441.031 454.393 439.336 456.915 436.794 457.476Z" fill="white"/>
<path d="M411.932 404.481C390.711 397.842 382.394 400.332 376.372 402.268C376.372 402.268 376.372 402.268 376.085 402.268C373.791 403.098 374.651 406.141 376.946 406.141L386.122 405.865L367.195 412.781C365.188 413.611 364.901 416.101 366.622 417.207C370.636 419.697 380.96 422.464 389.851 421.08C399.027 419.697 414.8 411.398 414.8 411.398L411.932 404.481Z" fill="#E0BB95"/>
<path d="M444.061 397.3L410.318 404.099V434.978C410.318 434.978 541.667 478.889 539.157 400.416C536.647 319.11 437.647 275.766 437.647 275.766L428.166 351.406C461.351 368.687 469.996 385.968 444.061 397.3Z" fill="#C6E8ED"/>
<circle cx="520.141" cy="48.274" r="11.2065" fill="#6BB700"/>
<path d="M523.129 45.062C523.282 45.062 523.424 45.0912 523.556 45.1496C523.691 45.2043 523.808 45.2809 523.906 45.3794C524.005 45.4779 524.081 45.5946 524.136 45.7296C524.194 45.8609 524.223 46.0032 524.223 46.1564C524.223 46.3023 524.196 46.4428 524.141 46.5777C524.087 46.7127 524.008 46.8313 523.906 46.9334L519.561 51.2836C519.459 51.3857 519.341 51.466 519.206 51.5243C519.071 51.5791 518.93 51.6064 518.784 51.6064C518.638 51.6064 518.498 51.5791 518.363 51.5243C518.228 51.466 518.109 51.3857 518.007 51.2836L516.026 49.3027C515.924 49.2006 515.844 49.082 515.786 48.9471C515.731 48.8121 515.704 48.6717 515.704 48.5257C515.704 48.3725 515.733 48.2303 515.791 48.0989C515.85 47.964 515.928 47.8472 516.026 47.7487C516.125 47.6502 516.24 47.5736 516.371 47.5189C516.506 47.4605 516.65 47.4314 516.803 47.4314C516.949 47.4314 517.09 47.4587 517.225 47.5134C517.36 47.5682 517.478 47.6466 517.58 47.7487L518.784 48.9525L522.352 45.3794C522.454 45.2772 522.573 45.1988 522.708 45.1441C522.843 45.0894 522.983 45.062 523.129 45.062Z" fill="white"/>
<circle cx="199" cy="67" r="11" fill="#FFAA44"/>
<path d="M202.237 70.3252C202.328 70.4163 202.398 70.5238 202.447 70.6475C202.496 70.7679 202.521 70.8916 202.521 71.0186C202.521 71.1553 202.494 71.2839 202.442 71.4043C202.394 71.5215 202.325 71.624 202.237 71.7119C202.149 71.7998 202.045 71.8698 201.925 71.9219C201.808 71.974 201.681 72 201.544 72C201.274 72 201.043 71.904 200.851 71.7119L197.95 68.8164C197.859 68.7253 197.789 68.6195 197.74 68.499C197.691 68.3753 197.667 68.25 197.667 68.123V62.9814C197.667 62.8447 197.691 62.7178 197.74 62.6006C197.792 62.4801 197.862 62.376 197.95 62.2881C198.038 62.2002 198.141 62.1302 198.258 62.0781C198.378 62.026 198.507 62 198.644 62C198.78 62 198.907 62.026 199.024 62.0781C199.145 62.1302 199.249 62.2002 199.337 62.2881C199.425 62.376 199.495 62.4801 199.547 62.6006C199.599 62.7178 199.625 62.8447 199.625 62.9814V67.7178L202.237 70.3252Z" fill="white"/>
<circle cx="498.336" cy="130.488" r="11" transform="rotate(-36.8815 498.336 130.488)" fill="#C50F1F"/>
<path d="M499.961 128.041C500.071 127.959 500.188 127.904 500.313 127.875C500.44 127.844 500.566 127.838 500.689 127.855C500.812 127.873 500.93 127.914 501.044 127.979C501.156 128.042 501.253 128.128 501.335 128.237C501.417 128.347 501.474 128.465 501.504 128.593C501.533 128.718 501.539 128.842 501.521 128.965C501.504 129.088 501.462 129.206 501.397 129.32C501.335 129.432 501.249 129.529 501.139 129.611L496.468 133.116C496.359 133.198 496.24 133.255 496.113 133.285C495.988 133.314 495.864 133.319 495.741 133.302C495.618 133.284 495.5 133.244 495.388 133.182C495.277 133.115 495.18 133.027 495.098 132.917C495.016 132.808 494.959 132.692 494.928 132.569C494.897 132.441 494.891 132.316 494.908 132.193C494.926 132.07 494.966 131.952 495.029 131.84C495.094 131.726 495.181 131.628 495.29 131.546L499.961 128.041Z" fill="white"/>
<circle cx="323" cy="28" r="11" fill="#C50F1F"/>
<path d="M263.582 152.71C262.63 152.302 261.77 151.79 261.001 151.175C260.233 150.56 259.559 149.863 258.981 149.083C258.402 148.303 257.938 147.47 257.588 146.582C257.238 145.694 257 144.766 256.875 143.8C256.749 142.833 256.756 141.864 256.894 140.891C257.033 139.919 257.3 138.954 257.694 137.995C258.099 137.05 258.611 136.19 259.229 135.414C259.847 134.639 260.544 133.966 261.321 133.394C262.098 132.822 262.931 132.357 263.822 132.001C264.713 131.644 265.641 131.407 266.604 131.288C267.568 131.169 268.537 131.175 269.513 131.308C270.488 131.44 271.453 131.706 272.408 132.108C273.354 132.513 274.214 133.024 274.989 133.642C275.765 134.26 276.438 134.957 277.01 135.734C277.582 136.511 278.046 137.345 278.403 138.236C278.759 139.126 278.997 140.054 279.116 141.017C279.235 141.981 279.228 142.951 279.096 143.926C278.964 144.901 278.698 145.866 278.296 146.822C277.888 147.774 277.377 148.634 276.762 149.403C276.147 150.171 275.45 150.845 274.67 151.423C273.89 152.002 273.056 152.466 272.168 152.816C271.28 153.166 270.353 153.404 269.386 153.529C268.42 153.655 267.45 153.648 266.478 153.51C265.506 153.371 264.54 153.104 263.582 152.71ZM271.857 133.395C271.032 133.042 270.191 132.809 269.335 132.696C268.478 132.583 267.631 132.577 266.794 132.679C265.957 132.78 265.144 132.992 264.356 133.313C263.567 133.634 262.838 134.04 262.167 134.53C261.497 135.021 260.884 135.608 260.33 136.291C259.775 136.974 259.326 137.726 258.982 138.547C258.629 139.372 258.395 140.213 258.283 141.069C258.17 141.926 258.164 142.772 258.266 143.61C258.367 144.447 258.579 145.26 258.9 146.048C259.221 146.837 259.627 147.566 260.117 148.237C260.608 148.907 261.195 149.52 261.878 150.074C262.561 150.629 263.313 151.078 264.134 151.422C264.959 151.775 265.8 152.008 266.656 152.121C267.512 152.234 268.359 152.24 269.197 152.138C270.034 152.037 270.847 151.825 271.635 151.504C272.423 151.183 273.153 150.777 273.823 150.287C274.494 149.796 275.107 149.209 275.661 148.526C276.216 147.843 276.665 147.091 277.009 146.27C277.362 145.445 277.595 144.604 277.708 143.748C277.821 142.891 277.827 142.045 277.725 141.207C277.623 140.37 277.412 139.557 277.091 138.769C276.77 137.98 276.364 137.251 275.874 136.58C275.383 135.91 274.796 135.297 274.113 134.743C273.43 134.188 272.678 133.739 271.857 133.395ZM267.995 142.409L270.754 135.97L269.466 135.419L266.156 143.145L271.307 145.351L271.858 144.063L267.995 142.409Z" fill="#252423"/>
</g>
<defs>
<radialGradient id="paint0_radial" cx="0" cy="0" r="1" gradientUnits="userSpaceOnUse" gradientTransform="translate(387.992 135.342) scale(57.484)">
<stop offset="0.3127" stop-color="#231F20"/>
<stop offset="0.8031" stop-color="#493931" stop-opacity="0.2865"/>
<stop offset="1" stop-color="#594539" stop-opacity="0"/>
</radialGradient>
<radialGradient id="paint1_radial" cx="0" cy="0" r="1" gradientUnits="userSpaceOnUse" gradientTransform="translate(384.539 229.516) scale(39.0549)">
<stop offset="0.0013" stop-color="#9B643D"/>
<stop offset="0.4556" stop-color="#B98963" stop-opacity="0.545"/>
<stop offset="0.9997" stop-color="#E0BB95" stop-opacity="0"/>
</radialGradient>
<linearGradient id="paint2_linear" x1="343.411" y1="160.157" x2="381.953" y2="207.75" gradientUnits="userSpaceOnUse">
<stop offset="0.0013" stop-color="#9B643D"/>
<stop offset="0.4556" stop-color="#B98963" stop-opacity="0.545"/>
<stop offset="0.9997" stop-color="#E0BB95" stop-opacity="0"/>
</linearGradient>
<linearGradient id="paint3_linear" x1="431.404" y1="365.877" x2="527.411" y2="390.81" gradientUnits="userSpaceOnUse">
<stop offset="0.0226" stop-color="#C6E8ED"/>
<stop offset="1" stop-color="#009EA6"/>
</linearGradient>
<clipPath id="clip0">
<rect width="760" height="428" fill="white"/>
</clipPath>
</defs>
</svg>
