<svg width="760" height="428" viewBox="0 0 760 428" fill="none" xmlns="http://www.w3.org/2000/svg">
<g clip-path="url(#clip0)">
<rect width="760" height="428" fill="#ECF0F1"/>
<g clip-path="url(#clip1)">
<path d="M552.769 169.207H549.311C545.997 169.207 543.259 170.359 540.809 172.807C538.504 175.255 537.351 177.992 537.351 181.304C537.351 184.616 538.504 187.496 540.954 189.945C543.259 192.249 546.141 193.401 549.455 193.401H552.769V169.207V169.207Z" fill="#BE906B"/>
<path d="M469.339 408.414C469.339 408.414 465.88 429.728 467.177 439.089C468.762 450.898 469.915 456.659 475.535 456.803C475.679 457.091 476.543 458.675 477.408 459.827C478.705 461.411 481.731 463.427 481.731 458.243C481.731 451.618 481.731 438.801 481.731 438.801C481.731 438.801 485.045 443.265 486.63 445.714C488.071 448.162 493.402 450.898 490.376 441.537C486.342 429.008 478.849 407.406 478.849 407.406L469.339 408.414Z" fill="#BE906B"/>
<path d="M474.238 328.486C481.443 299.251 511.846 225.948 569.34 225.948C589.081 274.049 547.15 314.229 530.002 333.095C512.855 351.961 499.887 391.996 490.232 420.511L467.465 419.071C467.609 419.071 462.854 374.283 474.238 328.486Z" fill="url(#paint0_radial)"/>
<path d="M672.08 328.198C662.137 246.542 616.603 224.94 602.194 225.372H570.061C555.795 224.796 510.261 246.542 500.175 328.198C491.097 402.221 503.489 463.139 503.489 463.139L586.055 462.995L668.621 463.139C668.765 463.139 681.158 402.221 672.08 328.198Z" fill="url(#paint1_radial)"/>
<path d="M703.204 408.414C703.204 408.414 706.662 429.728 705.365 439.089C703.78 450.898 702.627 456.659 697.008 456.803C696.864 457.091 695.999 458.675 695.135 459.827C693.838 461.411 690.812 463.427 690.812 458.243C690.812 451.618 690.812 438.801 690.812 438.801C690.812 438.801 687.498 443.265 685.913 445.714C684.472 448.162 679.14 450.898 682.166 441.537C686.201 429.008 693.694 407.406 693.694 407.406L703.204 408.414Z" fill="#BE906B"/>
<path d="M698.305 328.486C691.1 299.251 660.696 225.948 603.202 225.948C583.461 274.049 625.393 314.229 642.54 333.095C659.687 351.961 672.656 391.996 682.31 420.511L705.077 419.071C704.933 419.071 709.688 374.283 698.305 328.486Z" fill="#ED9583"/>
<path d="M599.744 215.003H575.68C552.337 215.003 533.461 196.137 533.461 172.807V161.718C533.461 135.939 554.354 115.057 580.147 115.057H595.133C620.926 115.057 641.82 135.939 641.82 161.718V172.807C641.964 196.137 623.087 215.003 599.744 215.003Z" fill="#9A643D"/>
<path d="M608.39 219.612V197.145H564.873V215.147C564.729 220.908 560.406 226.668 554.643 227.532H554.787C553.202 227.964 551.472 228.396 549.887 228.829C551.04 232.573 559.974 244.526 586.055 244.526C612.136 244.526 622.079 232.717 622.799 228.973C621.358 228.541 609.831 231.853 608.39 219.612Z" fill="url(#paint2_radial)"/>
<path d="M616.459 191.673C619.053 189.657 621.935 188.937 624.961 189.513C627.987 190.233 630.292 191.961 631.877 194.985C633.462 198.01 634.039 201.178 633.318 204.778C632.598 208.379 631.013 211.115 628.419 213.275C625.825 215.291 622.943 216.011 619.917 215.435C616.891 214.859 614.586 212.987 612.857 209.963C611.272 206.938 610.695 203.77 611.416 200.17C612.28 196.569 613.865 193.689 616.459 191.673Z" fill="#9A643D"/>
<path d="M605.364 216.155C606.516 213.419 608.246 211.403 610.839 210.107C613.433 208.811 616.027 208.667 618.62 209.675C621.214 210.539 622.943 212.411 623.952 215.003C624.961 217.595 624.816 220.188 623.664 222.924C622.511 225.66 620.638 227.676 618.044 228.973C615.45 230.269 613.001 230.413 610.407 229.405C607.813 228.396 606.084 226.668 605.076 224.076C604.211 221.484 604.355 218.892 605.364 216.155Z" fill="#9A643D"/>
<path d="M601.185 233.869C601.617 230.845 602.914 228.252 604.932 226.38C606.949 224.364 609.11 223.5 611.56 223.644C614.01 223.788 615.883 224.796 617.324 226.956C618.765 229.117 619.197 231.709 618.765 234.733C618.188 237.613 617.035 240.062 614.874 242.078C612.857 244.094 610.551 245.102 608.102 244.958C605.652 244.814 603.779 243.662 602.338 241.502C601.041 239.486 600.609 236.893 601.185 233.869Z" fill="#9A643D"/>
<path d="M603.923 240.206C606.084 239.63 607.957 239.918 609.831 241.214C611.56 242.51 612.713 244.526 613.289 247.118C613.721 249.711 613.433 252.159 612.28 254.463C611.128 256.767 609.543 258.207 607.381 258.927C605.22 259.504 603.346 259.215 601.473 258.063C599.6 256.623 598.447 254.607 598.015 252.159C597.583 249.567 597.871 247.118 599.024 244.814C600.176 242.51 601.906 240.926 603.923 240.206Z" fill="#9A643D"/>
<path d="M605.652 256.767C610.407 257.055 613.145 259.792 614.009 265.12C614.874 270.449 613.577 274.769 609.975 278.369C608.246 280.098 607.525 281.97 607.669 283.986C607.813 284.994 608.102 285.858 608.534 286.578L605.652 285.138C603.779 283.842 602.914 281.97 602.914 279.665C602.914 277.937 602.338 276.497 601.041 275.489C599.312 274.049 598.159 272.753 597.583 271.457C596.286 268.72 596.142 265.696 597.294 262.384C598.735 258.495 601.473 256.623 605.652 256.767Z" fill="#9A643D"/>
<path d="M550.896 168.919H547.438C544.124 168.919 541.386 170.071 538.936 172.519C536.631 174.967 535.478 177.848 535.478 181.16C535.478 184.616 536.631 187.496 539.08 189.945C541.386 192.249 544.268 193.401 547.582 193.401H550.896V168.919V168.919Z" fill="url(#paint3_radial)"/>
<path d="M589.658 215.435H572.078C556.228 215.435 543.259 202.618 543.259 186.632V165.894C543.259 150.053 556.083 137.092 572.078 137.092H589.658C605.508 137.092 618.476 149.909 618.476 165.894V186.632C618.476 202.618 605.508 215.435 589.658 215.435Z" fill="#F9DDBF"/>
<path d="M629.428 157.974L626.834 145.588C624.24 133.491 611.848 125.282 597.727 126.435L584.038 127.587C584.038 127.587 585.046 139.684 589.225 147.317C592.251 152.789 598.591 155.525 604.499 156.965C604.499 156.965 604.499 157.11 604.499 157.254C606.372 165.174 612.857 167.19 617.035 168.199C621.935 169.351 628.851 169.351 628.851 169.351L628.563 158.262C628.995 157.974 629.428 157.974 629.428 157.974Z" fill="#9A643D"/>
<path d="M549.887 168.919V198.009H573.807V168.919H549.887Z" fill="url(#paint4_radial)"/>
<path d="M560.118 179.864C561.869 179.864 563.288 177.414 563.288 174.391C563.288 171.369 561.869 168.919 560.118 168.919C558.367 168.919 556.948 171.369 556.948 174.391C556.948 177.414 558.367 179.864 560.118 179.864Z" fill="#33312D"/>
<path d="M590.09 179.864C591.841 179.864 593.26 177.414 593.26 174.391C593.26 171.369 591.841 168.919 590.09 168.919C588.339 168.919 586.92 171.369 586.92 174.391C586.92 177.414 588.339 179.864 590.09 179.864Z" fill="#33312D"/>
<path d="M615.018 168.919H618.476C621.791 168.919 624.528 170.071 626.978 172.519C629.283 174.967 630.436 177.848 630.436 181.16C630.436 184.616 629.283 187.496 626.834 189.945C624.528 192.249 621.646 193.401 618.332 193.401H615.018V168.919V168.919Z" fill="#F9DDBF"/>
<path opacity="0.5" d="M570.061 198.154C571.357 198.01 572.654 198.01 573.807 197.866C574.96 197.721 576.113 197.721 577.121 197.433C578.13 197.289 579.139 197.001 580.147 196.713C581.156 196.425 582.165 195.849 583.461 195.417H583.605C584.038 195.273 584.47 195.417 584.758 195.849C584.902 195.993 584.902 196.281 584.758 196.425C584.326 197.866 583.461 199.162 582.165 200.17C580.868 201.178 579.427 201.754 577.842 202.042C576.257 202.33 574.816 202.186 573.375 201.754C571.934 201.322 570.637 200.746 569.484 199.738C569.196 199.45 569.052 198.874 569.484 198.586C569.628 198.298 569.772 198.298 570.061 198.154Z" fill="#9A6541"/>
<path d="M579.571 182.168C579.571 185.48 576.689 194.841 573.807 195.561C573.807 195.561 573.663 194.553 573.519 193.257C573.231 191.097 571.934 189.225 569.917 188.073C568.187 187.208 565.882 185.48 565.882 182.168C565.882 178.856 568.476 177.127 570.205 176.119C571.934 175.255 573.087 173.527 573.375 171.511C573.663 169.495 573.807 167.479 573.807 167.479C575.824 168.775 579.571 179.576 579.571 182.168Z" fill="#F9DDBF"/>
<path d="M530.002 123.122C516.313 130.035 518.763 161.43 514.584 162.15C510.405 162.87 507.379 160.134 507.379 160.134C507.379 160.134 508.1 168.775 519.051 171.367C519.051 171.367 508.388 170.215 506.227 167.479C506.227 167.479 506.227 179.864 521.501 179.864C551.761 179.864 545.709 163.014 551.761 151.205C557.813 139.396 574.528 137.092 574.528 137.092C574.528 137.092 553.202 111.313 530.002 123.122Z" fill="#9A643D"/>
<path d="M557.236 187.785C553.49 187.785 549.887 186.344 547.294 183.752C544.556 181.016 542.971 177.56 542.971 173.671C542.971 169.783 544.412 166.182 547.006 163.446C549.743 160.71 553.202 159.126 557.092 159.126H557.236C565.017 159.126 571.502 165.462 571.502 173.239C571.646 181.16 565.306 187.641 557.38 187.785C557.38 187.785 557.38 187.785 557.236 187.785ZM557.236 162.726C554.21 162.726 551.472 163.878 549.455 166.038C547.438 168.055 546.285 170.791 546.429 173.815C546.429 176.695 547.582 179.432 549.743 181.448C551.761 183.464 554.498 184.616 557.524 184.472C563.576 184.328 568.331 179.432 568.187 173.527C568.187 170.647 567.035 167.911 564.873 165.894C562.856 163.734 560.118 162.726 557.236 162.726Z" fill="#E86E59"/>
<path d="M588.505 187.785C584.758 187.785 581.156 186.344 578.562 183.752C575.824 181.016 574.239 177.56 574.239 173.671C574.095 165.75 580.435 159.27 588.361 159.126H588.505C592.251 159.126 595.853 160.566 598.447 163.158C601.185 165.894 602.77 169.351 602.77 173.239C602.77 177.127 601.329 180.728 598.735 183.464C595.998 186.2 592.539 187.785 588.649 187.785H588.505ZM588.505 162.726C588.361 162.726 588.361 162.726 588.505 162.726C585.479 162.726 582.741 163.878 580.724 166.038C578.706 168.055 577.554 170.791 577.698 173.815C577.698 176.695 578.85 179.432 581.012 181.448C583.029 183.464 585.911 184.616 588.793 184.472C591.675 184.472 594.413 183.32 596.43 181.16C598.447 179.144 599.6 176.407 599.456 173.383C599.456 170.503 598.303 167.767 596.142 165.75C593.98 163.734 591.387 162.726 588.505 162.726Z" fill="#E86E59"/>
<path d="M569.916 171.943C568.908 171.943 568.187 171.223 568.187 170.215C568.187 169.207 568.908 168.487 569.916 168.487L575.824 168.343C576.833 168.343 577.554 169.063 577.554 170.071C577.554 171.079 576.833 171.799 575.824 171.799L569.916 171.943Z" fill="#E86E59"/>
<path d="M601.185 171.943C600.176 171.943 599.456 171.223 599.456 170.215C599.456 169.207 600.176 168.487 601.185 168.487H619.053C619.053 168.487 624.528 169.639 626.402 171.943H601.185Z" fill="#E86E59"/>
<path d="M405.793 320.277C403.776 339.431 408.963 356.569 421.067 371.546C433.171 386.524 449.021 395.021 468.186 397.037C487.494 399.053 504.642 393.869 519.628 381.627C534.613 369.386 543.115 353.689 545.132 334.535C546.429 321.574 544.556 309.476 539.513 298.531C537.783 294.787 537.928 290.323 539.801 286.578L550.32 266.56L528.273 272.897C524.527 274.049 520.348 273.329 517.178 270.881C507.38 263.392 495.852 259.071 482.595 257.631C463.287 255.615 446.283 260.656 431.154 272.897C416.312 285.282 407.81 300.98 405.793 320.277Z" fill="white"/>
<path d="M446.572 335.975C450.551 335.975 453.776 332.751 453.776 328.774C453.776 324.797 450.551 321.574 446.572 321.574C442.593 321.574 439.367 324.797 439.367 328.774C439.367 332.751 442.593 335.975 446.572 335.975Z" fill="#C7C5C3"/>
<path d="M474.238 335.975C478.217 335.975 481.443 332.751 481.443 328.774C481.443 324.797 478.217 321.574 474.238 321.574C470.259 321.574 467.033 324.797 467.033 328.774C467.033 332.751 470.259 335.975 474.238 335.975Z" fill="#C7C5C3"/>
<path d="M502.048 335.975C506.027 335.975 509.253 332.751 509.253 328.774C509.253 324.797 506.027 321.574 502.048 321.574C498.069 321.574 494.843 324.797 494.843 328.774C494.843 332.751 498.069 335.975 502.048 335.975Z" fill="#C7C5C3"/>
<path d="M411.268 25.3366C363.429 15.8317 315.878 41.3222 305.071 82.2222C298.587 106.417 308.097 129.027 323.947 148.325C335.763 162.726 321.498 187.352 321.498 187.352C321.498 187.352 345.994 175.255 351.469 172.951C355.936 171.079 360.691 170.647 365.158 171.943C367.464 172.519 369.769 173.095 372.075 173.527C419.914 183.032 467.465 157.542 478.272 116.642C489.079 75.7416 459.108 34.8416 411.268 25.3366Z" fill="#FBC9B6"/>
<path d="M360.547 106.129C365.322 106.129 369.193 102.26 369.193 97.4877C369.193 92.7155 365.322 88.8468 360.547 88.8468C355.772 88.8468 351.902 92.7155 351.902 97.4877C351.902 102.26 355.772 106.129 360.547 106.129Z" fill="#ED9583"/>
<path d="M393.545 106.129C398.32 106.129 402.191 102.26 402.191 97.4877C402.191 92.7155 398.32 88.8468 393.545 88.8468C388.77 88.8468 384.899 92.7155 384.899 97.4877C384.899 102.26 388.77 106.129 393.545 106.129Z" fill="#ED9583"/>
<path d="M426.687 106.129C431.461 106.129 435.332 102.26 435.332 97.4877C435.332 92.7155 431.461 88.8468 426.687 88.8468C421.912 88.8468 418.041 92.7155 418.041 97.4877C418.041 102.26 421.912 106.129 426.687 106.129Z" fill="#ED9583"/>
<path d="M258.528 182.312C255.07 182.6 250.891 182.888 246.424 183.032C246.424 183.032 246.424 183.032 246.28 183.032H246.136C245.992 183.032 245.992 183.032 245.848 183.032C245.704 183.032 245.56 183.032 245.56 182.888C245.272 182.888 244.983 182.744 244.695 182.6C244.551 182.6 244.407 182.456 244.263 182.456C244.119 182.456 243.975 182.312 243.831 182.168C243.687 182.024 243.543 182.024 243.398 181.88C243.398 181.88 243.398 181.88 243.254 181.88C243.11 181.736 242.966 181.736 242.822 181.592C242.822 181.592 242.678 181.592 242.678 181.448C242.534 181.304 242.39 181.16 242.246 181.16C242.246 181.16 242.102 181.16 242.102 181.016C241.957 180.872 241.813 180.728 241.669 180.584L241.525 180.44C241.381 180.296 241.237 180.152 241.237 180.008L241.093 179.864C240.949 179.72 240.805 179.432 240.805 179.288C240.805 179.288 240.805 179.144 240.661 179.144C240.517 178.856 240.372 178.568 240.228 178.28C239.94 177.56 239.796 176.983 239.508 176.119C236.194 164.886 236.338 142.708 241.525 117.65C243.398 108.577 237.779 105.408 229.133 105.264C226.539 105.264 223.657 105.408 220.631 105.84C216.597 106.417 212.274 107.425 208.095 108.433C206.51 108.865 204.925 109.297 203.34 109.729C202.764 109.873 202.331 110.017 201.755 110.161C188.21 114.193 176.394 119.378 176.394 119.378C176.394 119.378 176.539 129.027 176.539 140.116C176.539 143.572 176.539 147.173 176.539 150.773C176.539 158.55 176.394 165.75 176.106 169.783C175.818 173.959 174.521 177.271 173.224 179.72C171.495 182.888 169.766 184.472 169.766 184.472L166.452 189.225C166.452 189.225 168.902 192.249 172.504 196.137L179.132 224.076L195.559 214.139C207.231 217.451 257.087 208.667 261.698 202.906C266.309 197.145 258.528 182.312 258.528 182.312Z" fill="url(#paint5_radial)"/>
<path d="M399.453 238.766L385.332 229.117C385.332 229.117 370.346 244.094 338.357 277.073C330.287 257.055 321.642 234.733 315.878 216.731C316.022 216.587 253.053 202.33 263.716 244.382L298.587 335.399C306.368 355.705 325.1 367.226 340.662 361.321L342.968 360.457C346.426 359.161 349.02 356.857 351.181 353.977C377.839 328.918 399.453 238.766 399.453 238.766Z" fill="url(#paint6_radial)"/>
<path d="M321.209 245.966C321.209 181.592 258.528 182.168 258.528 182.168C248.73 192.681 232.735 199.738 214.579 200.17C196.279 200.602 179.997 194.409 169.766 184.328L137.921 180.872C106.941 181.736 88.3527 213.995 89.0732 247.982C89.0732 247.982 125.817 348.36 131.005 377.451C137.489 413.599 137.057 429.296 137.057 429.296C137.057 429.296 312.42 428.576 312.996 428.864C294.984 350.52 321.209 280.242 321.209 245.966Z" fill="url(#paint7_radial)"/>
<path d="M19.1874 268.864C11.4063 277.793 7.37165 310.917 51.0323 357.433C70.3409 378.027 89.6496 391.132 105.068 399.485C124.232 409.71 137.345 412.59 137.345 412.59L137.489 412.158L135.039 391.276C135.039 391.276 82.1567 325.606 84.174 305.444C84.4622 304.868 64.5772 281.25 64.5772 281.25C46.9976 260.656 31.8677 254.319 19.1874 268.864Z" fill="#85D3E7"/>
<path d="M224.234 119.378L170.198 119.666L170.054 88.2708C170.054 79.3419 177.259 71.9972 186.193 71.8532L223.946 71.7091C236.194 71.7091 246.28 81.5021 246.28 93.8873V97.0556C246.424 109.297 236.482 119.234 224.234 119.378Z" fill="#594539"/>
<path d="M181.582 132.051C189.142 132.051 195.271 125.926 195.271 118.37C195.271 110.814 189.142 104.688 181.582 104.688C174.022 104.688 167.893 110.814 167.893 118.37C167.893 125.926 174.022 132.051 181.582 132.051Z" fill="#BE8E68"/>
<path d="M229.709 172.663H224.378C200.602 172.807 181.294 153.653 181.15 130.035V102.24C181.15 92.5912 188.931 84.6704 198.585 84.6704L261.843 84.3824L262.131 140.26C262.131 157.974 247.577 172.663 229.709 172.663Z" fill="#BE8E68"/>
<path d="M244.119 137.092L216.453 137.236C203.052 137.38 192.245 126.579 192.245 113.185L192.101 87.2627C192.101 83.8063 194.839 80.9261 198.297 80.9261L247.145 80.638C254.494 80.638 260.546 86.5426 260.546 93.8873L260.69 120.242C260.834 129.459 253.341 136.948 244.119 137.092Z" fill="#BE8E68"/>
<path d="M245.704 86.9747C234.32 84.0944 225.098 82.9423 213.427 82.5102C195.271 81.7901 180.429 84.8144 180.429 84.8144L180.573 79.3419C181.006 67.1007 188.498 55.7236 203.484 57.8838C226.395 61.1961 221.496 54.5715 231.294 53.9954C240.661 53.4194 242.678 62.6363 246.569 62.7803C256.079 63.0683 254.35 50.5391 268.615 53.9954C280.719 57.0197 287.491 97.3437 245.704 86.9747Z" fill="#594539"/>
<path d="M215.621 122.404C217.212 122.395 218.489 120.002 218.473 117.059C218.457 114.117 217.153 111.738 215.562 111.747C213.97 111.756 212.693 114.148 212.709 117.091C212.726 120.034 214.029 122.413 215.621 122.404Z" fill="#594539"/>
<path d="M234.032 169.783H229.421V141.268C229.421 139.828 230.142 138.388 231.439 137.524L237.923 133.347C239.364 132.483 239.652 130.611 238.787 129.171L233.168 120.53C231.871 118.514 231.583 86.2546 231.583 86.2546L260.978 91.1511L261.698 141.844C261.698 157.11 249.306 169.639 234.032 169.783Z" fill="url(#paint8_radial)"/>
<path d="M178.412 79.1979C178.412 79.1979 202.332 74.7334 200.602 91.8711C199.594 101.52 196.856 103.248 190.516 103.68C185.905 103.968 177.691 105.408 177.691 105.408L178.412 79.1979Z" fill="#594539"/>
<path d="M244.872 122.259C246.464 122.25 247.741 119.858 247.725 116.915C247.708 113.972 246.405 111.593 244.813 111.602C243.222 111.611 241.945 114.004 241.961 116.947C241.977 119.89 243.281 122.268 244.872 122.259Z" fill="#594539"/>
<path d="M30.4268 251.295L111.12 190.809C128.987 177.415 153.628 180.008 166.02 196.713C178.556 213.275 174.089 237.613 156.221 251.151L75.5284 311.637C58.0929 324.742 34.0291 322.15 21.9252 305.876C21.9252 305.732 -0.697639 281.538 30.4268 251.295Z" fill="#85D3E7"/>
<path d="M149.593 367.946C149.881 367.946 150.025 367.802 150.313 367.802C152.331 366.218 155.213 365.498 158.959 365.93C164.579 366.362 176.827 374.139 180.285 377.451C187.057 383.932 191.524 393.005 186.049 393.725C184.464 393.869 173.368 383.932 170.631 382.492C173.801 385.516 179.276 393.149 179.853 397.757C180.141 399.773 178.844 402.077 177.115 404.094C175.818 405.678 173.945 404.958 172.792 404.814C172.792 405.534 168.613 411.006 163.858 411.006C162.417 411.006 150.169 409.278 149.305 408.27C141.812 412.302 138.498 413.887 133.166 411.582C123.944 407.406 127.546 393.869 130.284 392.429C136.768 386.092 139.794 377.307 149.593 367.946Z" fill="#BE8E68"/>
<path d="M399.453 238.765C399.453 238.765 404.064 229.549 411.701 227.82C417.176 226.524 427.407 225.084 432.883 224.22C435.332 223.932 438.07 222.492 440.087 220.908C440.087 220.908 453.632 210.539 454.209 209.963C454.785 209.387 465.736 192.681 465.304 192.537C463.719 191.961 459.684 194.121 457.667 196.137L451.327 202.762C448.733 205.498 440.952 209.099 435.765 211.691C431.442 213.851 424.381 212.843 424.381 212.843C424.381 212.843 446.572 201.466 444.843 198.298C443.113 195.129 430.289 202.042 411.124 205.354C399.309 207.37 390.375 215.003 385.332 229.117L399.453 238.765Z" fill="#BE8E68"/>
<path d="M238.067 146.308C237.779 145.732 237.346 145.444 236.626 145.3L236.05 145.156L216.741 141.268H216.309C215.732 141.268 215.3 141.412 215.012 141.7C214.58 142.132 214.435 142.564 214.435 143.284C214.435 146.164 215.444 148.757 217.317 150.917C219.191 153.221 221.496 154.661 224.522 155.237C227.404 155.813 230.142 155.381 232.735 154.085C235.329 152.645 237.202 150.629 238.355 148.037C238.355 147.461 238.355 146.884 238.067 146.308Z" fill="#594539"/>
<path d="M238.067 147.893C238.355 147.461 238.355 146.884 238.067 146.308C237.779 145.732 237.346 145.444 236.626 145.3L236.05 145.156L216.741 141.268H216.309C215.732 141.268 215.3 141.412 215.012 141.7C214.58 142.132 214.435 142.564 214.435 143.284C217.894 144.436 221.928 145.444 226.251 146.308C230.718 147.461 234.753 147.893 238.067 147.893Z" fill="#F8F8F8"/>
</g>
</g>
<defs>
<radialGradient id="paint0_radial" cx="0" cy="0" r="1" gradientUnits="userSpaceOnUse" gradientTransform="translate(527.193 370.675) scale(78.6936 78.6497)">
<stop stop-color="#E86E59"/>
<stop offset="1" stop-color="#ED9583"/>
</radialGradient>
<radialGradient id="paint1_radial" cx="0" cy="0" r="1" gradientUnits="userSpaceOnUse" gradientTransform="translate(691.001 389.993) scale(117.832 117.766)">
<stop stop-color="#E86E59"/>
<stop offset="1" stop-color="#ED9583"/>
</radialGradient>
<radialGradient id="paint2_radial" cx="0" cy="0" r="1" gradientUnits="userSpaceOnUse" gradientTransform="translate(570.231 205.449) scale(35.2489 35.2292)">
<stop stop-color="#D1AA84"/>
<stop offset="1" stop-color="#F9DDBF"/>
</radialGradient>
<radialGradient id="paint3_radial" cx="0" cy="0" r="1" gradientUnits="userSpaceOnUse" gradientTransform="translate(551.904 187.019) scale(12.8888 12.8816)">
<stop stop-color="#D1AA84"/>
<stop offset="1" stop-color="#F9DDBF"/>
</radialGradient>
<radialGradient id="paint4_radial" cx="0" cy="0" r="1" gradientUnits="userSpaceOnUse" gradientTransform="translate(572.476 183.028) scale(14.7796 14.7714)">
<stop stop-color="#D1AA84"/>
<stop offset="1" stop-color="#F9DDBF"/>
</radialGradient>
<radialGradient id="paint5_radial" cx="0" cy="0" r="1" gradientUnits="userSpaceOnUse" gradientTransform="translate(229.12 150.486) scale(44.9137 44.8886)">
<stop stop-color="#A37755"/>
<stop offset="1" stop-color="#BE8E68"/>
</radialGradient>
<radialGradient id="paint6_radial" cx="0" cy="0" r="1" gradientUnits="userSpaceOnUse" gradientTransform="translate(278.864 354.295) rotate(12.3146) scale(79.5726 79.5322)">
<stop stop-color="#6DBDC9"/>
<stop offset="1" stop-color="#85D3E7"/>
</radialGradient>
<radialGradient id="paint7_radial" cx="0" cy="0" r="1" gradientUnits="userSpaceOnUse" gradientTransform="translate(100.762 339.806) scale(120.61 120.543)">
<stop stop-color="#6DBDC9"/>
<stop offset="1" stop-color="#85D3E7"/>
</radialGradient>
<radialGradient id="paint8_radial" cx="0" cy="0" r="1" gradientUnits="userSpaceOnUse" gradientTransform="translate(229.668 132.41) scale(31.7259 31.7082)">
<stop stop-color="#A37755"/>
<stop offset="1" stop-color="#BE8E68"/>
</radialGradient>
<clipPath id="clip0">
<rect width="760" height="428" fill="white"/>
</clipPath>
<clipPath id="clip1">
<rect width="732" height="409" fill="white" transform="translate(14 19)"/>
</clipPath>
</defs>
</svg>
