<svg width="760" height="428" viewBox="0 0 760 428" fill="none" xmlns="http://www.w3.org/2000/svg">
<g clip-path="url(#clip0)">
<rect width="760" height="428" fill="#ECF0F1"/>
<path d="M92.0888 362.583C95.8622 348.88 107.381 341.73 107.778 327.629C108.175 313.529 88.3154 305.188 95.0678 284.93C100.43 268.645 121.68 268.844 126.447 253.949C131.213 239.054 119.297 228.528 127.44 214.626C135.384 200.724 149.087 199.135 160.01 186.027C170.933 172.919 175.104 143.725 175.104 143.725H279.568C279.568 143.725 282.944 173.118 292.676 186.424C302.407 199.731 315.117 198.34 321.87 212.441C328.821 226.542 316.905 240.245 320.48 255.339C324.054 270.432 340.141 270.035 345.901 288.108C351.66 305.982 333.984 315.316 333.389 329.417C332.793 343.517 342.524 338.751 351.064 359.207C364.966 392.572 325.842 417.397 299.825 408.857C262.091 396.345 251.168 410.843 228.925 411.638C190.396 413.028 171.132 391.182 151.073 402.502C121.283 419.383 84.1448 390.784 92.0888 362.583Z" fill="#BF8F68"/>
<path d="M366.357 253.75L368.741 262.687C368.741 262.687 377.678 264.077 387.409 262.29C394.956 260.9 401.907 256.729 405.283 254.544C407.468 253.154 409.454 250.97 408.461 249.381C413.426 246.6 411.837 242.827 410.05 243.224L390.19 247.395C390.19 247.395 397.141 242.628 398.134 241.635C399.325 240.444 399.325 237.663 396.346 238.656C393.764 239.649 388.998 241.635 385.622 242.827C372.713 247.792 366.357 253.75 366.357 253.75Z" fill="#F9DDBF"/>
<path d="M229.521 258.318L270.433 238.259C270.433 238.259 295.854 285.923 313.728 290.491C329.814 294.86 328.225 297.641 366.555 253.353L373.109 262.687C373.109 262.687 342.723 319.487 316.707 320.877C282.944 322.863 229.521 258.318 229.521 258.318Z" fill="url(#paint0_radial)"/>
<path d="M304.394 437.058C298.833 407.268 285.725 386.217 276.788 374.499H276.987L276.391 373.506C267.057 356.427 264.674 336.368 269.837 317.501L277.781 288.505C279.966 282.746 281.157 276.39 281.157 269.837C281.157 240.841 257.325 217.406 228.131 217.406C198.937 217.406 175.105 240.841 175.105 269.837C175.105 276.39 176.296 282.746 178.679 288.505L186.623 317.501C191.787 336.368 189.404 356.427 180.07 373.506L179.474 374.499H179.672C170.537 386.217 157.628 407.268 152.067 437.058C150.081 447.981 147.896 457.514 145.712 469.828C145.513 469.629 310.352 469.43 310.55 469.828C308.366 457.713 306.38 447.386 304.394 437.058Z" fill="url(#paint1_radial)"/>
<path d="M230.514 94.6708H224.159C214.03 94.6708 204.498 97.8484 196.752 103.012C183.645 111.75 175.105 126.844 175.105 143.725V152.265C175.105 158.819 176.296 164.975 178.679 170.536C186.028 188.609 203.505 201.319 224.159 201.319H230.514C250.374 201.319 267.255 189.602 275.001 172.721C277.781 166.564 279.569 159.613 279.569 152.265V143.725C279.569 129.029 273.213 115.921 262.886 106.984C254.346 99.4372 243.026 94.6708 230.514 94.6708Z" fill="#BF8F68"/>
<path d="M165.592 423.467L156.378 424.583C156.378 424.583 153.878 433.387 154.227 443.077C154.648 450.599 157.857 458.338 159.613 462.025C160.577 464.435 162.673 466.673 164.364 465.978C166.609 471.307 170.357 470.221 170.331 468.468L168.743 448.225C168.743 448.225 172.669 455.696 173.462 456.973C174.461 458.299 177.2 458.723 176.589 455.741C176.088 453.222 174.671 448.086 173.791 444.386C170.492 430.511 165.592 423.467 165.592 423.467Z" fill="#F9DDBF"/>
<path d="M221.974 260.304L195.957 228.131C195.957 228.131 164.181 248.388 149.087 318.494C138.164 369.336 154.449 410.247 155.442 425.142L166.365 424.745C166.365 424.745 160.606 373.903 177.884 335.971C186.424 316.706 221.974 260.304 221.974 260.304Z" fill="#6ECFC3"/>
<path d="M201.916 224.357C201.916 224.357 214.626 217.803 215.023 206.086C215.222 200.724 215.023 188.609 215.023 188.609H241.04C241.04 188.609 240.841 200.724 241.04 206.086C241.437 217.803 254.148 224.357 254.148 224.357C254.148 224.357 244.416 235.28 227.932 235.28C211.449 235.28 201.916 224.357 201.916 224.357Z" fill="url(#paint2_radial)"/>
<path d="M237.664 119.496H237.068C218.598 119.496 203.504 134.59 203.504 153.059V166.961C203.504 185.431 218.598 200.525 237.068 200.525H237.664C256.133 200.525 271.227 185.431 271.227 166.961V153.059C271.426 134.391 256.332 119.496 237.664 119.496Z" fill="#F9DDBF"/>
<path d="M201.716 174.508H210.852V157.23H201.716C196.95 157.23 192.978 161.004 192.978 165.969C193.176 170.735 196.95 174.508 201.716 174.508Z" fill="#F9DDBF"/>
<path d="M243.026 146.108V187.02H257.723C262.092 187.02 265.667 183.445 265.667 179.076V146.108H243.026Z" fill="url(#paint3_radial)"/>
<path d="M256.729 166.564C258.374 166.564 259.708 164.075 259.708 161.003C259.708 157.932 258.374 155.443 256.729 155.443C255.083 155.443 253.75 157.932 253.75 161.003C253.75 164.075 255.083 166.564 256.729 166.564Z" fill="#605D5A"/>
<path d="M227.932 166.564C229.577 166.564 230.911 164.075 230.911 161.003C230.911 157.932 229.577 155.443 227.932 155.443C226.287 155.443 224.953 157.932 224.953 161.003C224.953 164.075 226.287 166.564 227.932 166.564Z" fill="#605D5A"/>
<path d="M243.026 178.679C243.026 178.48 243.622 176.296 244.813 175.303C246.204 174.31 248.785 172.522 248.785 169.345C248.785 165.969 244.019 163.784 243.423 159.812L243.026 156.634C241.636 160.209 241.239 164.777 241.636 170.139C242.033 172.721 242.43 176.693 243.026 178.679Z" fill="#F9DDBF"/>
<path d="M262.885 117.51H208.667C199.532 139.157 194.368 154.847 194.566 156.038C198.141 157.826 202.511 157.429 206.483 157.429C213.036 157.429 218.597 155.244 223.165 150.875C227.733 146.506 230.315 138.363 230.712 132.008H251.764C252.161 138.363 254.544 146.506 259.31 150.875C263.878 155.244 269.638 157.429 275.993 157.429C280.362 157.23 262.885 117.51 262.885 117.51Z" fill="#BF8F68"/>
<path d="M258.716 103.806C258.716 103.806 251.169 97.8483 241.04 95.8623L241.239 132.008H259.113L258.716 103.806Z" fill="url(#paint4_linear)"/>
<path d="M241.239 132.206H251.765C251.765 129.426 249.58 127.043 246.601 127.043H246.204C243.424 127.043 241.239 129.227 241.239 132.206Z" fill="#9B643D"/>
<path d="M230.712 132.206H241.238C241.238 129.426 239.054 127.043 236.075 127.043H235.677C232.897 127.043 230.712 129.227 230.712 132.206Z" fill="#9B643D"/>
<path d="M247.792 183.843C247.593 183.445 247.196 183.247 246.799 183.048H246.402L232.103 180.069H231.705C231.308 180.069 230.911 180.268 230.712 180.466C230.315 180.864 230.315 181.062 230.315 181.658C230.315 183.843 231.11 185.63 232.5 187.417C233.89 189.205 235.677 190.198 237.862 190.595C240.047 190.992 242.033 190.794 244.019 189.602C246.005 188.609 247.395 187.02 248.189 185.034C247.792 184.836 247.991 184.438 247.792 183.843Z" fill="#605D5A"/>
<path d="M247.792 185.034C247.991 184.637 247.991 184.24 247.792 183.843C247.593 183.445 247.196 183.247 246.799 183.048H246.402L232.103 180.069H231.705C231.308 180.069 230.911 180.268 230.712 180.466C230.315 180.864 230.315 181.062 230.315 181.658C232.897 182.651 235.876 183.247 239.054 184.041C242.231 184.637 245.21 185.034 247.792 185.034Z" fill="#F8F8F8"/>
<path d="M430.19 126.068V130.037C430.19 179.187 463.008 220.552 507.884 233.679C510.326 234.442 512.768 235.053 515.21 235.511C516.431 235.816 517.653 235.969 518.874 236.274C520.247 236.579 521.621 236.732 522.995 236.884C524.063 237.037 524.979 237.19 526.048 237.19C530.016 237.648 533.985 237.8 538.106 237.8H560.697C586.34 237.8 609.999 228.795 628.621 213.836C636.558 207.425 643.58 199.793 649.533 191.398C661.591 173.997 668.765 152.78 668.765 129.884V125.916C668.765 102.104 660.981 79.9715 648.006 62.2653C628.316 35.4009 596.567 18 560.849 18H538.259C478.424 18.1526 430.19 66.5392 430.19 126.068Z" fill="url(#paint5_radial)"/>
<path d="M522.384 82.5664H519.637C517.042 82.5664 514.905 83.4822 513.073 85.3139C511.242 87.1456 510.326 89.4352 510.326 91.8774C510.326 94.4723 511.242 96.7618 513.073 98.5935C514.905 100.425 517.042 101.341 519.637 101.341H522.232V82.5664H522.384Z" fill="#BE906B"/>
<path d="M461.939 206.509C469.724 187.582 489.872 126.832 535.358 126.984C550.775 164.534 517.958 196.13 504.525 210.783C500.709 215.057 500.099 231.695 493.688 228.642C480.866 222.842 468.197 214.141 461.939 206.509Z" fill="url(#paint6_radial)"/>
<path d="M561.002 126.526H535.816C524.674 126.069 488.956 143.011 481.171 206.967C480.714 211.089 480.408 216.889 479.95 221.01C496.588 231.39 513.073 239.174 549.859 238.564C578.097 238.106 596.109 235.358 617.326 221.773C608.472 172.776 572.297 126.221 561.002 126.526Z" fill="url(#paint7_radial)"/>
<path d="M636.1 207.12C630.453 184.224 606.641 126.832 561.612 126.832C546.196 164.381 579.013 195.977 592.446 210.631C596.414 214.904 600.841 222.078 604.199 228.642C620.073 221.468 626.026 216.278 636.1 207.12Z" fill="#E86E58"/>
<path d="M559.17 118.284H540.395C522.231 118.284 507.425 103.478 507.425 85.3139V76.6135C507.425 56.4651 523.757 39.9801 544.058 39.9801H555.811C575.96 39.9801 592.445 56.3125 592.445 76.6135V85.3139C592.14 103.478 577.334 118.284 559.17 118.284Z" fill="#DFBC97"/>
<path d="M565.886 121.947V104.394H531.847V118.437C531.695 123.016 528.337 127.442 523.91 128.205C522.689 128.511 521.315 128.816 520.094 129.274C521.01 132.174 528.031 141.638 548.485 141.638C568.939 141.638 576.723 132.479 577.334 129.427C575.96 128.969 567.107 131.564 565.886 121.947Z" fill="url(#paint8_radial)"/>
<path d="M572.144 100.12C574.128 98.4408 576.418 97.9829 578.708 98.4408C580.997 98.8988 582.829 100.425 584.05 102.715C585.271 105.004 585.729 107.599 585.118 110.347C584.66 113.094 583.287 115.384 581.302 117.063C579.318 118.742 577.028 119.2 574.739 118.742C572.449 118.284 570.618 116.91 569.244 114.468C568.023 112.178 567.565 109.583 568.175 106.836C568.939 103.936 570.16 101.646 572.144 100.12Z" fill="#DFBC97"/>
<path d="M563.597 119.2C564.513 117.063 565.887 115.536 567.871 114.468C569.855 113.399 571.992 113.247 573.977 114.01C575.961 114.773 577.335 116.147 578.098 118.131C578.861 120.116 578.708 122.253 577.945 124.39C577.029 126.526 575.656 128.053 573.519 129.121C571.534 130.037 569.55 130.19 567.566 129.427C565.581 128.663 564.208 127.29 563.445 125.305C562.681 123.474 562.681 121.337 563.597 119.2Z" fill="#DFBC97"/>
<path d="M560.239 133.09C560.545 130.648 561.613 128.663 563.14 127.137C564.666 125.611 566.498 124.847 568.329 125C570.161 125 571.687 125.916 572.756 127.595C573.824 129.274 574.13 131.258 573.824 133.7C573.366 135.99 572.451 137.822 570.772 139.501C569.093 141.027 567.413 141.79 565.582 141.79C563.598 141.638 562.224 140.722 561.155 139.043C560.087 137.516 559.782 135.532 560.239 133.09Z" fill="#DFBC97"/>
<path d="M562.376 138.127C564.055 137.669 565.581 137.974 566.955 138.89C568.329 139.959 569.244 141.485 569.702 143.622C570.008 145.606 569.855 147.591 568.939 149.422C568.023 151.254 566.802 152.322 565.123 152.933C563.444 153.391 561.918 153.238 560.544 152.17C559.17 151.101 558.254 149.575 557.796 147.438C557.491 145.454 557.644 143.469 558.56 141.638C559.475 139.959 560.697 138.738 562.376 138.127Z" fill="#DFBC97"/>
<path d="M563.749 151.101C567.413 151.254 569.55 153.544 570.313 157.665C571.076 161.786 570.008 165.297 567.107 168.044C565.734 169.418 565.123 170.792 565.276 172.471C565.428 173.234 565.581 173.997 565.886 174.608L563.597 173.387C562.223 172.318 561.46 170.944 561.46 169.113C561.46 167.739 561.002 166.67 560.086 165.907C558.712 164.839 557.796 163.77 557.338 162.702C556.27 160.565 556.27 158.123 557.033 155.528C558.407 152.475 560.391 150.949 563.749 151.101Z" fill="#DFBC97"/>
<path d="M520.858 82.2611H518.11C515.516 82.2611 513.379 83.177 511.547 85.1613C509.715 86.993 508.799 89.2825 508.799 91.8774C508.799 94.4723 509.715 96.7618 511.547 98.7462C513.379 100.578 515.516 101.494 518.11 101.494H520.705V82.2611H520.858Z" fill="url(#paint9_linear)"/>
<path d="M551.233 118.742H537.495C524.979 118.742 514.905 108.668 514.905 96.1513V79.9715C514.905 67.4551 524.979 57.381 537.495 57.381H551.233C563.749 57.381 573.823 67.4551 573.823 79.9715V96.1513C573.671 108.668 563.597 118.742 551.233 118.742Z" fill="#BE906B"/>
<path d="M582.219 73.7133C582.219 73.7133 573.671 74.1712 567.566 73.7133C562.376 73.2554 553.981 71.4237 550.775 65.4708C547.417 59.5179 546.654 50.0543 546.654 50.0543L557.339 49.1384C568.329 48.2226 578.098 54.6334 580.082 64.0971L582.219 73.7133Z" fill="#DFBC97"/>
<path d="M581.761 82.4138C581.761 82.4138 576.266 82.4138 572.45 81.4979C569.244 80.7347 564.054 79.0557 562.681 72.9501C561.154 66.6919 561.765 57.2283 561.765 57.2283L568.634 56.923C575.655 56.6178 581.15 63.6391 581.455 73.2554L581.761 82.4138Z" fill="#DFBC97"/>
<path d="M520.094 82.2611V105.004L538.716 105.157L538.869 82.2611H520.094Z" fill="url(#paint10_radial)"/>
<path d="M528.033 90.8089C529.381 90.8089 530.475 88.8954 530.475 86.535C530.475 84.1746 529.381 82.2611 528.033 82.2611C526.684 82.2611 525.59 84.1746 525.59 86.535C525.59 88.8954 526.684 90.8089 528.033 90.8089Z" fill="#33312D"/>
<path d="M551.539 90.8089C552.887 90.8089 553.981 88.8954 553.981 86.535C553.981 84.1746 552.887 82.2611 551.539 82.2611C550.19 82.2611 549.096 84.1746 549.096 86.535C549.096 88.8954 550.19 90.8089 551.539 90.8089Z" fill="#33312D"/>
<path d="M571.076 82.2611H573.824C576.418 82.2611 578.555 83.177 580.387 85.1613C582.219 86.993 583.135 89.2825 583.135 91.8774C583.135 94.4723 582.219 96.7618 580.387 98.7462C578.555 100.578 576.418 101.494 573.824 101.494H571.229V82.2611H571.076Z" fill="#BE906B"/>
<g opacity="0.5">
<path opacity="0.5" d="M535.969 105.157C537.953 105.004 539.785 105.004 541.464 104.699C542.227 104.546 542.99 104.394 543.906 104.089C544.669 103.783 545.432 103.478 546.501 103.02H546.654C546.959 102.867 547.417 103.02 547.569 103.325C547.569 103.478 547.569 103.631 547.569 103.783C547.264 104.852 546.501 105.92 545.585 106.683C544.669 107.447 543.448 107.905 542.227 108.057C541.006 108.21 539.785 108.21 538.716 107.905C537.648 107.599 536.579 107.141 535.664 106.378C535.358 106.073 535.358 105.768 535.664 105.462C535.511 105.31 535.664 105.31 535.969 105.157Z" fill="#9A6541"/>
</g>
<path d="M543.296 92.6406C543.296 95.2354 541.159 102.562 538.87 103.02C538.87 103.02 538.717 102.257 538.564 101.188C538.259 99.5093 537.343 97.9829 535.664 97.2197C534.29 96.4565 532.611 95.0828 532.611 92.6406C532.611 90.0457 534.596 88.6719 535.969 87.9087C537.343 87.2982 538.259 85.7718 538.412 84.2454C538.564 82.719 538.717 81.1926 538.717 81.1926C540.396 82.1085 543.296 90.6562 543.296 92.6406Z" fill="#BE906B"/>
<path d="M504.526 46.3909C493.841 51.7333 495.673 76.4608 492.467 76.9188C489.262 77.5293 486.82 75.3924 486.82 75.3924C486.82 75.3924 487.43 82.2611 495.978 84.2454C495.978 84.2454 487.583 83.3296 485.904 81.1926C485.904 81.1926 485.904 90.8089 497.81 90.8089C521.469 90.8089 516.737 77.5293 521.469 68.371C526.201 59.2126 539.328 57.381 539.328 57.381C539.328 57.381 522.69 37.2326 504.526 46.3909Z" fill="#DFBC97"/>
<path d="M349.85 18.138C380.353 16.1768 406.374 35.3529 408.014 60.9575C408.56 69.565 406.264 77.8456 401.891 85.0366C394.238 97.5665 380.135 107.046 363.079 109.987C360.783 110.423 358.378 110.75 355.863 110.859C349.632 111.295 343.509 110.75 337.824 109.552C335.856 110.859 333.56 112.167 330.936 113.256C329.515 113.91 327.984 114.455 326.454 114.89C315.958 118.159 315.739 115.544 318.691 110.314C319.784 108.462 321.206 106.392 322.736 103.995C308.523 96.4769 298.684 83.4023 297.7 68.0396C295.951 42.435 319.347 20.0992 349.85 18.138Z" fill="#8B8CC7"/>
<path d="M355.785 77.0217C356.771 77.6667 357.976 78.0968 359.4 78.0968C362.577 78.0968 365.645 76.6991 368.603 73.7963C373.533 68.9583 376.052 63.3677 376.052 57.132C376.052 51.4339 374.081 46.8109 370.137 43.263C366.193 39.7151 361.044 37.8874 354.799 37.8874C346.473 37.8874 339.352 40.7902 333.217 46.5958C327.192 52.4015 324.124 59.2822 324.124 67.1306C324.124 73.5813 326.315 79.0644 330.807 83.3649C335.299 87.6653 340.886 89.8156 347.678 89.8156C354.142 89.8156 360.277 87.7728 365.974 83.5799C367.507 82.5048 368.274 81.4296 368.274 80.5695C368.274 79.6019 367.726 79.1719 366.631 79.1719C365.864 79.1719 364.988 79.6019 363.783 80.3545C360.715 82.3972 358.195 83.9024 356.114 84.5475C354.032 85.3001 351.513 85.6226 348.336 85.6226C342.967 85.6226 338.585 83.9024 335.08 80.3545C331.574 76.8066 329.821 72.5062 329.821 67.2381C329.821 60.5724 332.231 54.6592 337.052 49.6062C341.872 44.5531 347.569 42.0803 354.142 42.0803C358.743 42.0803 362.687 43.5855 365.645 46.4883C368.712 49.3911 370.246 53.1541 370.246 57.562C370.246 62.4001 368.932 66.593 366.412 70.0334C364.549 72.6137 362.577 73.9038 360.496 73.9038C359.4 73.9038 358.853 73.4738 358.853 72.5062C358.853 72.1836 358.962 71.6461 359.072 71.001L363.892 53.9066L364.33 52.4015C364.44 52.1865 364.44 51.8639 364.44 51.5414C364.44 50.8963 364.002 50.4663 363.125 50.4663C362.797 50.4663 362.139 50.6813 361.263 51.0038C360.715 51.2188 360.277 51.4339 359.839 51.4339C359.4 51.4339 359.181 51.4339 358.962 51.3264L357.319 50.8963C356.223 50.5738 355.018 50.4663 353.594 50.4663C348.774 50.4663 344.392 52.294 340.776 56.0569C337.052 59.8198 335.189 64.1203 335.189 68.9583C335.189 71.7536 336.066 74.0113 337.709 75.7315C339.352 77.4517 341.543 78.3118 344.173 78.3118C348.555 78.3118 351.951 76.8066 354.142 73.6888C354.032 74.2264 353.923 74.5489 353.923 74.7639C354.361 75.409 354.799 76.2691 355.785 77.0217ZM345.816 73.5813C342.42 73.5813 340.776 71.7536 340.776 67.9907C340.776 64.3353 341.981 61.1099 344.392 58.4221C346.802 55.7343 349.65 54.3367 352.827 54.3367C354.361 54.3367 356.004 54.7667 357.757 55.5193L355.457 63.5827C353.704 70.2484 350.417 73.5813 345.816 73.5813Z" fill="white"/>
</g>
<defs>
<radialGradient id="paint0_radial" cx="0" cy="0" r="1" gradientUnits="userSpaceOnUse" gradientTransform="translate(261.598 324.325) scale(58.5834)">
<stop stop-color="#55B8AB"/>
<stop offset="1" stop-color="#6ECFC3"/>
</radialGradient>
<radialGradient id="paint1_radial" cx="0" cy="0" r="1" gradientUnits="userSpaceOnUse" gradientTransform="translate(160.743 359.277) scale(106.54)">
<stop stop-color="#55B8AB"/>
<stop offset="1" stop-color="#6ECFC3"/>
</radialGradient>
<radialGradient id="paint2_radial" cx="0" cy="0" r="1" gradientUnits="userSpaceOnUse" gradientTransform="translate(253.511 184.786) scale(39.0954)">
<stop stop-color="#A64E15" stop-opacity="0.8471"/>
<stop offset="0.1562" stop-color="#BA713F" stop-opacity="0.871"/>
<stop offset="0.3525" stop-color="#D1976C" stop-opacity="0.901"/>
<stop offset="0.5408" stop-color="#E2B690" stop-opacity="0.9298"/>
<stop offset="0.7164" stop-color="#EFCBAA" stop-opacity="0.9566"/>
<stop offset="0.8745" stop-color="#F6D8BA" stop-opacity="0.9808"/>
<stop offset="1" stop-color="#F9DDBF"/>
</radialGradient>
<radialGradient id="paint3_radial" cx="0" cy="0" r="1" gradientUnits="userSpaceOnUse" gradientTransform="translate(243.29 169.471) scale(14.2506)">
<stop stop-color="#D4AA7C"/>
<stop offset="1" stop-color="#F9DDBF"/>
</radialGradient>
<linearGradient id="paint4_linear" x1="235.481" y1="114.037" x2="256.285" y2="114.037" gradientUnits="userSpaceOnUse">
<stop offset="0.00784317" stop-color="#B08058"/>
<stop offset="1" stop-color="#BF8F68"/>
</linearGradient>
<radialGradient id="paint5_radial" cx="0" cy="0" r="1" gradientUnits="userSpaceOnUse" gradientTransform="translate(407.557 34.5084) scale(114.642)">
<stop stop-color="#77C9C1"/>
<stop offset="0.709" stop-color="#BBE5E0"/>
</radialGradient>
<radialGradient id="paint6_radial" cx="0" cy="0" r="1" gradientUnits="userSpaceOnUse" gradientTransform="translate(514.071 200.615) scale(52.4451)">
<stop stop-color="#CF5A44"/>
<stop offset="1" stop-color="#E86E58"/>
</radialGradient>
<radialGradient id="paint7_radial" cx="0" cy="0" r="1" gradientUnits="userSpaceOnUse" gradientTransform="translate(638.571 199.854) scale(62.031)">
<stop stop-color="#CF5A44"/>
<stop offset="1" stop-color="#E86E58"/>
</radialGradient>
<radialGradient id="paint8_radial" cx="0" cy="0" r="1" gradientUnits="userSpaceOnUse" gradientTransform="translate(535.232 116.821) scale(27.5779)">
<stop offset="0.00784317" stop-color="#9F7757"/>
<stop offset="1" stop-color="#BE906B"/>
</radialGradient>
<linearGradient id="paint9_linear" x1="508.885" y1="91.8457" x2="520.928" y2="91.8457" gradientUnits="userSpaceOnUse">
<stop stop-color="#BE906B"/>
<stop offset="0.9922" stop-color="#9F7757"/>
</linearGradient>
<radialGradient id="paint10_radial" cx="0" cy="0" r="1" gradientUnits="userSpaceOnUse" gradientTransform="translate(534.65 92.9673) scale(13.1753)">
<stop stop-color="#A17652"/>
<stop offset="1" stop-color="#BE906B"/>
</radialGradient>
<clipPath id="clip0">
<rect width="760" height="428" fill="white"/>
</clipPath>
</defs>
</svg>
