<svg width="760" height="428" viewBox="0 0 760 428" fill="none" xmlns="http://www.w3.org/2000/svg">
<g clip-path="url(#clip0)">
<rect width="760" height="428" fill="#ECF0F1"/>
<path d="M384.849 194.746C406.756 238.285 419.233 246.043 451.158 254.548C483.083 263.053 495.566 214.981 495.566 214.981L508.399 225.93C508.399 225.93 496.953 343.311 422.236 332.73C346.512 322.006 292.638 270.863 298.215 213.832C302.98 165.091 362.681 150.688 384.849 194.746Z" fill="#74BACB"/>
<path d="M454.169 244.68L286.758 407.427L319.725 449.204C319.725 449.204 376.797 455.7 402.558 429.939L497.231 331.734C497.23 331.734 478.466 221.06 454.169 244.68Z" fill="url(#paint0_linear)"/>
<path d="M639.311 442.5L619.177 432.088C615.705 430.293 612.781 427.044 610.554 422.074L532.929 258.901C518.372 228.302 478.058 221.059 453.762 244.679L496.822 331.734L586.479 438.215C586.699 444.271 591.658 449.073 597.718 449.097L637.305 449.259C640.976 449.275 642.395 444.49 639.311 442.5Z" fill="url(#paint1_linear)"/>
<path d="M320.392 394.869H208.597L195.922 247.139C189 185.844 225.959 128.222 275.599 128.222H297.513C347.153 128.222 390.734 167.145 394.853 215.159L402.813 307.934C406.933 355.947 370.032 394.869 320.392 394.869Z" fill="url(#paint2_radial)"/>
<path d="M331.74 134.506C320.982 130.431 309.432 128.135 297.512 128.135H275.598C270.809 128.135 262.424 128.902 254.67 131.773C268.113 136.313 281.924 154.36 300.966 154.36C317.556 154.361 329.942 145.881 331.74 134.506Z" fill="#E0BB95"/>
<path d="M508.369 225.93C507.293 225.618 481.485 216.295 482.037 214.971L498.098 176.388C498.649 175.063 499.969 174.242 501.044 174.554L519.37 174.542C524.294 175.682 527.638 182.216 523.335 193.688L508.369 225.93Z" fill="#E0BB95"/>
<path d="M399.37 175.724L417.191 143.507C418.869 140.474 421.989 138.518 425.449 138.33L440.05 137.535C441.741 137.443 443.424 137.834 444.902 138.663L455.482 144.593C457.5 145.724 457.639 148.576 455.742 149.899L452.622 152.074C451.966 152.531 451.161 152.72 450.371 152.604L436.825 150.605C436.825 150.605 432.928 164.236 426.639 171.47C420.35 178.704 411.567 185.358 411.567 185.358L399.37 175.724Z" fill="#E0BB95"/>
<path d="M503.585 232.437H423.652C419.872 232.437 417.117 229.737 417.498 226.408L428.59 129.46C428.972 126.13 432.344 123.431 436.123 123.431H516.057C519.836 123.431 522.591 126.131 522.209 129.46L511.117 226.408C510.737 229.737 507.364 232.437 503.585 232.437Z" fill="#C4C4C4"/>
<path d="M287.508 185.566C301.044 218.072 307.471 235.292 332.099 239.994C364.552 246.189 399.371 175.724 399.371 175.724L411.569 185.358C411.569 185.358 406.3 313.112 317.944 313.107C248.848 312.288 196.525 261.104 200.672 203.951C204.216 155.106 271.344 138.968 287.508 185.566Z" fill="#85D3E7"/>
<path d="M310.26 147.804L285.833 146.673C276.906 146.259 270.003 138.686 270.416 129.759L272.523 84.2439L328.027 86.8132L325.862 133.582C325.482 141.817 318.496 148.185 310.26 147.804Z" fill="url(#paint3_radial)"/>
<path d="M320.788 74.5302L270.4 71.6036L272.085 42.5913C272.622 33.3419 280.557 26.2791 289.806 26.8163L323.447 28.7697C336.083 29.504 345.732 40.3422 344.998 52.9785C344.263 65.6148 333.425 75.2636 320.788 74.5302Z" fill="#F8F8F8"/>
<path d="M274.229 90.5382C281.485 90.5382 287.367 84.6562 287.367 77.4004C287.367 70.1445 281.485 64.2625 274.229 64.2625C266.973 64.2625 261.091 70.1445 261.091 77.4004C261.091 84.6562 266.973 90.5382 274.229 90.5382Z" fill="#E0BB95"/>
<path d="M315.083 130.096C290.707 128.615 272.095 106.744 273.51 81.2448L274.988 54.6427C275.565 44.2365 284.098 36.2902 294.046 36.8944L353.578 40.5112L350.431 97.1786C349.359 116.479 333.533 131.217 315.083 130.096Z" fill="#E0BB95"/>
<path d="M342.196 50.6784C332.143 47.24 324.02 41.5633 313.659 40.4392C297.481 38.6834 284.038 40.619 284.038 40.619L284.504 35.4392C285.561 23.7006 292.971 13.2701 306.213 16.2401C326.535 20.7973 322.493 14.1065 331.347 14.1456C339.751 14.1834 341.039 23.2041 344.534 23.5401C353.029 24.3571 352.171 12.3133 364.703 16.4614C376.358 19.863 379.062 63.2873 342.196 50.6784Z" fill="#F8F8F8"/>
<path d="M310.298 73.4324C310.476 70.3626 309.173 67.7899 307.388 67.6861C305.602 67.5824 304.01 69.9869 303.832 73.0567C303.653 76.1266 304.956 78.6993 306.742 78.803C308.527 78.9068 310.12 76.5023 310.298 73.4324Z" fill="#594539"/>
<path d="M344.273 118.273L317.943 125.007L319.68 97.5364C319.771 96.0912 320.583 94.7884 321.841 94.0699L328.277 90.392C329.678 89.5913 330.173 87.813 329.388 86.4041L324.544 77.7138C323.389 75.6425 322.85 73.2838 322.992 70.9162L323.16 51.7475L350.806 54.6584L344.273 118.273Z" fill="url(#paint4_radial)"/>
<path d="M338.576 74.4434C338.754 71.3732 337.451 68.8002 335.665 68.6964C333.879 68.5927 332.287 70.9974 332.108 74.0676C331.93 77.1378 333.233 79.7108 335.019 79.8146C336.805 79.9183 338.397 77.5135 338.576 74.4434Z" fill="#594539"/>
<path d="M275.157 38.5978C275.157 38.5978 294.618 33.6855 294.434 49.369C294.324 58.6859 287.367 63.0072 281.401 63.9117C276.051 64.7232 272.039 64.4509 272.039 64.4509L275.157 38.5978Z" fill="#F8F8F8"/>
<path d="M305.876 98.9392C309.019 101.293 311.004 102.348 313.281 103.142C315.581 103.937 317.929 104.518 321.776 104.871L321.895 104.882C322.522 104.939 323.062 105.395 323.1 105.899C323.11 106.041 323.078 106.176 323.014 106.289C321.264 109.381 315.885 110.175 311.311 108.462C309.023 107.6 306.896 106.182 305.579 104.459C304.197 102.771 303.694 100.857 303.996 99.2109C304.083 98.7339 304.652 98.4734 305.268 98.6289C305.465 98.6787 305.643 98.7652 305.791 98.8749L305.876 98.9392Z" fill="#BF8F68"/>
<path d="M334.92 449.933H278.448C242.479 449.933 210.901 421.731 207.916 386.94L204.374 345.654H325.973L334.92 449.933Z" fill="#E36D58"/>
<path d="M588.679 443.174L568.544 432.762C565.072 430.967 562.149 427.719 559.921 422.748L482.296 259.575C467.74 228.976 427.426 221.733 403.129 245.353L219.335 391.539L258.229 430.612C283.99 456.373 325.757 456.373 351.518 430.612L446.189 332.407L535.846 438.889C536.066 444.944 541.026 449.746 547.085 449.771L586.673 449.932C590.343 449.948 591.763 445.164 588.679 443.174Z" fill="#E36D58"/>
<path d="M518.086 181.999L508.621 180.368C506.561 180.014 505.18 178.056 505.534 175.997C505.889 173.937 507.846 172.556 509.905 172.91L519.37 174.541C521.43 174.895 522.811 176.853 522.457 178.912C522.103 180.972 520.145 182.354 518.086 181.999Z" fill="#E0BB95"/>
<path d="M515.294 192.398L505.829 190.767C503.769 190.413 502.388 188.456 502.742 186.396C503.097 184.336 505.054 182.955 507.113 183.309L516.578 184.94C518.638 185.294 520.02 187.251 519.665 189.311C519.31 191.371 517.353 192.752 515.294 192.398Z" fill="#E0BB95"/>
<path d="M515.357 199.784L505.892 198.154C503.832 197.799 502.451 195.842 502.805 193.783C503.159 191.723 505.116 190.342 507.176 190.696L516.641 192.327C518.7 192.681 520.082 194.638 519.727 196.698C519.373 198.757 517.416 200.14 515.357 199.784Z" fill="#E0BB95"/>
<path d="M513.63 206.763L508.735 205.92C506.675 205.566 505.294 203.609 505.648 201.549C506.003 199.49 507.96 198.108 510.02 198.463L514.915 199.306C516.975 199.66 518.356 201.617 518.002 203.677C517.647 205.736 515.69 207.118 513.63 206.763Z" fill="#E0BB95"/>
<path d="M266.348 123.05C262.402 128.886 254.67 131.773 254.67 131.773L275.156 132.847L271.405 108.377C271.405 108.377 272.138 114.486 266.348 123.05Z" fill="#E0BB95"/>
<path d="M203.461 376.787C186.839 373.359 176.144 357.105 179.572 340.483C196.194 343.91 206.889 360.165 203.461 376.787Z" fill="#ADD2BB"/>
<path d="M204.302 381.474L204.198 382.277L204.094 381.474C189.292 369.894 168.314 381.201 172.555 399.811C175.792 414.015 185.625 431.242 197.881 431.242C200.589 431.242 202.522 431.218 204.198 431.19C205.874 431.218 207.806 431.242 210.515 431.242C222.771 431.242 232.604 414.015 235.841 399.811C240.082 381.2 219.105 369.894 204.302 381.474Z" fill="#E3646A"/>
<path d="M221.224 396.906C224.938 396.906 227.949 393.895 227.949 390.181C227.949 386.466 224.938 383.456 221.224 383.456C217.51 383.456 214.499 386.466 214.499 390.181C214.499 393.895 217.51 396.906 221.224 396.906Z" fill="#EE8F94"/>
<path d="M441.899 142.669C444.677 142.669 446.929 140.417 446.929 137.64C446.929 134.862 444.677 132.611 441.899 132.611C439.122 132.611 436.87 134.862 436.87 137.64C436.87 140.417 439.122 142.669 441.899 142.669Z" fill="#B3AFAB"/>
<path fill-rule="evenodd" clip-rule="evenodd" d="M470.848 198.821L472.473 186.615H459.179L457.554 198.821H470.848ZM473.848 198.821H487.142L488.767 186.615H475.473L473.848 198.821ZM489.162 183.641L491.045 169.491H477.751L475.868 183.641H489.162ZM474.751 169.491H461.457L459.574 183.641H472.868L474.751 169.491Z" fill="#B3AFAB"/>
</g>
<defs>
<linearGradient id="paint0_linear" x1="489.137" y1="311.844" x2="316.81" y2="387.973" gradientUnits="userSpaceOnUse">
<stop stop-color="#C86958"/>
<stop offset="1" stop-color="#E36D58"/>
</linearGradient>
<linearGradient id="paint1_linear" x1="505.231" y1="410.638" x2="585.9" y2="286.312" gradientUnits="userSpaceOnUse">
<stop stop-color="#C86958"/>
<stop offset="1" stop-color="#E36D58"/>
</linearGradient>
<radialGradient id="paint2_radial" cx="0" cy="0" r="1" gradientUnits="userSpaceOnUse" gradientTransform="translate(372.4 318.104) scale(181.938 175.973)">
<stop stop-color="#65A8B9"/>
<stop offset="0.7462" stop-color="#85D3E7"/>
</radialGradient>
<radialGradient id="paint3_radial" cx="0" cy="0" r="1" gradientUnits="userSpaceOnUse" gradientTransform="translate(315 116.457) rotate(2.65219) scale(32.2391 27.3218)">
<stop stop-color="#9B643D"/>
<stop offset="0.2729" stop-color="#B6865F"/>
<stop offset="0.5661" stop-color="#CDA37C"/>
<stop offset="0.8188" stop-color="#DBB58F"/>
<stop offset="1" stop-color="#E0BB95"/>
</radialGradient>
<radialGradient id="paint4_radial" cx="0" cy="0" r="1" gradientUnits="userSpaceOnUse" gradientTransform="translate(315.626 87.8574) rotate(-177.082) scale(22.4568 16.6102)">
<stop stop-color="#BF8F68"/>
<stop offset="1" stop-color="#BF8F68" stop-opacity="0"/>
</radialGradient>
<clipPath id="clip0">
<rect width="760" height="428" fill="white"/>
</clipPath>
</defs>
</svg>
