<svg width="760" height="428" viewBox="0 0 760 428" fill="none" xmlns="http://www.w3.org/2000/svg">
<g clip-path="url(#clip0)">
<rect width="760" height="428" fill="#ECF0F1"/>
<path d="M353.751 455.026C605.455 455.026 809.501 438.707 809.501 418.575C809.501 398.444 605.455 382.124 353.751 382.124C102.047 382.124 -102 398.444 -102 418.575C-102 438.707 102.047 455.026 353.751 455.026Z" fill="#F5F4F4"/>
<path d="M489.393 123.266C490.997 130.143 494.436 142.523 504.294 154.214C517.82 170.491 534.555 176.681 541.662 178.744C544.642 155.131 539.828 149.171 534.555 145.044C529.282 140.689 522.405 137.25 509.567 129.914C503.835 126.475 499.48 123.266 496.729 120.973C493.978 121.661 491.914 122.349 489.393 123.266Z" fill="#BE8E69"/>
<path d="M496.727 121.202C497.644 124.182 497.186 126.246 495.352 126.933C493.518 127.85 491.684 127.163 489.85 124.87L485.952 120.056C483.66 115.929 484.577 113.637 483.431 111.574C482.284 109.74 479.763 106.989 479.763 105.613C479.763 104.238 480.45 103.321 482.055 104.008C483.66 104.696 486.182 108.593 487.099 109.51C488.016 110.198 489.62 108.364 489.85 106.301C489.85 104.238 489.85 99.1941 489.85 99.1941V94.8383C489.85 94.8383 492.601 96.4431 493.288 98.7356C493.747 100.111 493.976 101.487 494.205 103.55C494.435 105.613 496.957 106.53 496.957 110.657C496.498 115.012 496.727 121.202 496.727 121.202Z" fill="#BE8E69"/>
<path d="M509.336 129.914C509.336 129.914 527.218 137.708 537.993 145.044C537.993 145.044 547.851 109.51 589.116 96.2139L570.776 174.618C570.776 174.618 536.847 181.495 519.194 178.744C519.194 178.744 501.313 164.531 495.123 142.064L509.336 129.914Z" fill="url(#paint0_radial)"/>
<path d="M501.084 158.799L493.977 142.064L510.483 128.08L523.092 135.416L501.084 158.799Z" fill="#BBE3E6"/>
<path d="M306.679 418.999H294.528L307.366 365.584H329.375L306.679 418.999Z" fill="#C49871"/>
<path d="M698.697 418.999H710.848L698.239 365.584H676.001L698.697 418.999Z" fill="#C49871"/>
<path d="M710.159 374.525H295.215C279.397 374.525 266.559 361.686 266.559 345.868V254.626C266.559 249.583 270.456 245.686 275.5 245.686H729.875C734.918 245.686 738.816 249.583 738.816 254.626V345.868C738.816 361.686 725.978 374.525 710.159 374.525Z" fill="#FDD899"/>
<path d="M701.677 245.686V315.378C701.677 333.03 688.381 347.473 672.333 347.473H334.188C317.911 347.473 304.844 333.03 304.844 315.378V245.686" fill="#F7B350"/>
<path d="M663.392 327.757H340.378C325.935 327.757 314.243 316.066 314.243 301.623V190.665C314.243 179.432 323.413 170.262 334.646 170.262H669.352C680.586 170.262 689.756 179.432 689.756 190.665V301.623C689.527 316.066 677.835 327.757 663.392 327.757Z" fill="#FDD899"/>
<path d="M486.411 340.595H319.745C310.805 340.595 303.469 333.259 303.469 324.319V294.745C303.469 285.804 310.805 278.468 319.745 278.468H486.411C495.352 278.468 502.688 285.804 502.688 294.745V324.319C502.688 333.259 495.352 340.595 486.411 340.595Z" fill="#FFE4BB"/>
<g opacity="0.55">
<g opacity="0.55">
<path opacity="0.55" d="M378.434 208.547C380.839 208.547 382.79 206.597 382.79 204.191C382.79 201.786 380.839 199.836 378.434 199.836C376.028 199.836 374.078 201.786 374.078 204.191C374.078 206.597 376.028 208.547 378.434 208.547Z" fill="#F7B350"/>
<path opacity="0.55" d="M378.433 244.998C380.839 244.998 382.789 243.048 382.789 240.642C382.789 238.237 380.839 236.286 378.433 236.286C376.028 236.286 374.077 238.237 374.077 240.642C374.077 243.048 376.028 244.998 378.433 244.998Z" fill="#F7B350"/>
<path opacity="0.55" d="M446.978 208.547C449.384 208.547 451.334 206.597 451.334 204.191C451.334 201.786 449.384 199.836 446.978 199.836C444.573 199.836 442.623 201.786 442.623 204.191C442.623 206.597 444.573 208.547 446.978 208.547Z" fill="#F7B350"/>
<path opacity="0.55" d="M446.978 244.998C449.384 244.998 451.334 243.048 451.334 240.642C451.334 238.237 449.384 236.286 446.978 236.286C444.573 236.286 442.623 238.237 442.623 240.642C442.623 243.048 444.573 244.998 446.978 244.998Z" fill="#F7B350"/>
</g>
<g opacity="0.55">
<path opacity="0.55" d="M558.396 208.547C560.801 208.547 562.751 206.597 562.751 204.191C562.751 201.786 560.801 199.836 558.396 199.836C555.99 199.836 554.04 201.786 554.04 204.191C554.04 206.597 555.99 208.547 558.396 208.547Z" fill="#4A7AAF"/>
<path opacity="0.55" d="M558.395 244.998C560.8 244.998 562.75 243.048 562.75 240.642C562.75 238.237 560.8 236.286 558.395 236.286C555.989 236.286 554.039 238.237 554.039 240.642C554.039 243.048 555.989 244.998 558.395 244.998Z" fill="#4A7AAF"/>
<path opacity="0.55" d="M626.94 208.547C629.346 208.547 631.296 206.597 631.296 204.191C631.296 201.786 629.346 199.836 626.94 199.836C624.535 199.836 622.585 201.786 622.585 204.191C622.585 206.597 624.535 208.547 626.94 208.547Z" fill="#4A7AAF"/>
<path opacity="0.55" d="M626.94 244.998C629.346 244.998 631.296 243.048 631.296 240.642C631.296 238.237 629.346 236.286 626.94 236.286C624.535 236.286 622.585 238.237 622.585 240.642C622.585 243.048 624.535 244.998 626.94 244.998Z" fill="#4A7AAF"/>
</g>
</g>
<path d="M685.63 340.595H518.964C510.024 340.595 502.688 333.259 502.688 324.319V294.745C502.688 285.804 510.024 278.468 518.964 278.468H685.63C694.57 278.468 701.906 285.804 701.906 294.745V324.319C701.677 333.259 694.57 340.595 685.63 340.595Z" fill="#FFE4BB"/>
<path d="M685.63 278.468H599.432L601.954 340.366H685.63C694.571 340.366 701.907 333.03 701.907 324.089V294.516C701.678 285.804 694.571 278.468 685.63 278.468Z" fill="#FFE4BB"/>
<path d="M595.534 24C595.534 24 596.451 28.1265 598.514 28.3558C600.577 28.8143 621.439 27.668 621.439 27.668L632.443 36.3795L597.826 37.9843C597.826 37.9843 591.178 38.2136 590.49 32.9408C590.032 27.8973 595.534 24 595.534 24Z" fill="#986443"/>
<path d="M642.302 97.3603L617.314 107.447L601.724 97.3603V58.3877H642.302V97.3603Z" fill="#BE8E69"/>
<path d="M642.76 62.0557C639.092 62.2849 636.112 59.5339 635.883 55.8659V55.1781C635.653 51.5101 638.404 48.5299 642.072 48.3006C645.74 48.0714 648.721 50.8224 648.95 54.4904V55.1781C648.95 58.8461 646.199 62.0557 642.76 62.0557Z" fill="#BE8E69"/>
<path d="M596.68 64.3481C593.012 64.5773 590.032 61.8263 589.802 58.1583V57.4706C589.573 53.8025 592.324 50.8223 595.992 50.593C599.66 50.3638 602.64 53.1148 602.87 56.7828V57.4706C603.099 61.1386 600.348 64.1188 596.68 64.3481Z" fill="#BE8E69"/>
<path d="M632.673 73.0598L606.309 74.4353C600.348 74.6645 595.305 70.0795 595.076 64.3482L594.159 45.5497C593.7 36.6089 600.578 28.8143 609.748 28.3558L624.878 27.6681C633.819 27.2096 641.614 34.0871 642.072 43.2571L642.989 62.0557C642.989 67.787 638.633 72.8305 632.673 73.0598Z" fill="#986443"/>
<path d="M626.941 84.7515L608.371 85.6685C598.972 86.127 591.177 79.0202 590.719 69.621C590.26 60.2217 597.367 52.4271 606.766 51.9686L642.3 50.1346L643.217 67.0992C643.447 76.2692 636.34 84.293 626.941 84.7515Z" fill="#986443"/>
<path d="M611.123 67.5577C612.498 67.3284 613.644 67.0992 614.791 66.8699C615.937 66.6407 617.083 66.4114 618.459 65.7237C618.688 65.7237 618.917 65.7237 619.146 65.9529V66.1822C618.688 67.7869 617.083 68.9332 615.478 69.3917C613.874 69.6209 612.04 69.6209 610.893 68.2454C610.664 68.0162 610.664 67.7869 610.893 67.5577C610.893 67.5577 610.893 67.5577 611.123 67.5577Z" fill="#3A3833"/>
<path d="M626.254 61.8264L601.724 62.9726C598.744 63.2019 596.222 60.9094 595.993 57.9291L595.534 47.3836C595.076 40.2768 600.807 34.0871 607.914 33.8578L621.21 33.17C628.317 32.7115 634.507 38.4428 634.736 45.5496L634.965 52.4271C635.194 57.2414 631.297 61.5971 626.254 61.8264Z" fill="#BE8E69"/>
<path d="M611.123 42.5695L612.269 71.455L598.973 71.9136L597.826 43.028L611.123 42.5695Z" fill="url(#paint1_radial)"/>
<path d="M602.183 63.8897C599.89 63.8897 597.827 62.9727 596.222 61.5972C594.388 59.9924 593.471 57.6999 593.242 55.4074C593.013 53.1149 593.93 50.5931 595.535 48.9884C597.139 47.1544 599.432 46.2374 601.724 46.0081C606.768 45.7789 610.894 49.6761 611.124 54.4904C611.353 59.5339 607.456 63.6604 602.641 63.8897C602.412 63.8897 602.183 63.8897 602.183 63.8897ZM602.183 48.3006H601.954C600.12 48.3006 598.515 49.2176 597.369 50.3639C596.222 51.7394 595.535 53.3442 595.764 55.1782C595.764 57.0122 596.681 58.6169 597.827 59.7632C599.203 60.9094 600.807 61.5972 602.641 61.3679C606.309 61.1387 609.06 58.1584 608.831 54.4904C608.373 51.0516 605.622 48.3006 602.183 48.3006Z" fill="#E8AA99"/>
<path d="M613.565 51.177L609.444 51.3779L609.567 53.8966L613.688 53.6958L613.565 51.177Z" fill="#E8AA99"/>
<path d="M616.625 58.1584C616.625 58.1584 615.478 52.8857 611.81 53.8027C610.435 54.0319 607.455 55.4074 607.225 58.1584C606.996 61.1387 609.289 62.5142 611.81 62.5142C614.561 62.285 616.854 60.4509 616.625 58.1584Z" fill="#BE8E69"/>
<path d="M620.423 57.9189C621.308 57.8739 621.963 56.6074 621.886 55.09C621.809 53.5726 621.029 52.379 620.144 52.424C619.259 52.469 618.604 53.7356 618.681 55.253C618.758 56.7703 619.538 57.9639 620.423 57.9189Z" fill="#33312D"/>
<path d="M602.775 58.8364C603.66 58.7914 604.315 57.5248 604.238 56.0074C604.16 54.4901 603.38 53.2965 602.495 53.3415C601.61 53.3865 600.955 54.653 601.032 56.1704C601.109 57.6878 601.889 58.8814 602.775 58.8364Z" fill="#33312D"/>
<path d="M620.752 62.9726C618.46 62.9726 616.396 62.0556 614.792 60.6801C612.958 59.0753 612.041 56.7828 611.811 54.4903C611.582 52.1978 612.499 49.676 614.104 48.0713C615.709 46.2373 618.001 45.3203 620.294 45.091C625.337 44.8618 629.464 48.759 629.693 53.5733C629.922 58.6168 626.025 62.7433 621.211 62.9726C620.982 62.9726 620.752 62.9726 620.752 62.9726ZM620.752 47.3836H620.523C618.689 47.3836 617.084 48.3006 615.938 49.4468C614.792 50.8223 614.104 52.4271 614.333 54.2611C614.333 56.0951 615.25 57.6998 616.396 58.8461C617.772 59.9923 619.377 60.6801 621.211 60.4508C624.879 60.2216 627.63 57.2413 627.4 53.5733C627.171 50.1346 624.191 47.3836 620.752 47.3836Z" fill="#E8AA99"/>
<path d="M642.222 51.4249L629.399 52.0499L629.522 54.5686L642.344 53.9436L642.222 51.4249Z" fill="#E8AA99"/>
<path d="M622.128 168.886C656.186 168.886 683.796 151.13 683.796 129.226C683.796 107.322 656.186 89.5657 622.128 89.5657C588.069 89.5657 560.459 107.322 560.459 129.226C560.459 151.13 588.069 168.886 622.128 168.886Z" fill="#4CABAA"/>
<path d="M683.567 124.641H560.689L549.455 172.325H694.801L683.567 124.641Z" fill="#4CABAA"/>
<path d="M642.303 87.7316L620.753 91.6288L617.314 107.447H648.263L642.303 87.7316Z" fill="#4CABAA"/>
<path d="M624.421 103.321L620.753 91.6288L646.2 85.8976C646.2 85.8976 646.888 90.9411 651.244 94.1506L624.421 103.321Z" fill="#BBE3E6"/>
<path d="M601.724 87.7316L613.645 91.6289L617.313 107.447H595.764L601.724 87.7316Z" fill="#4CABAA"/>
<path d="M609.977 103.321L613.645 91.6292L597.827 85.8979C597.827 85.8979 597.139 90.9414 592.784 94.1509C592.784 94.1509 609.977 103.321 609.977 103.321Z" fill="#BBE3E6"/>
<path d="M699.156 188.602C693.883 147.337 671.187 106.301 633.59 106.301C602.871 106.53 562.523 137.938 550.372 169.116C550.143 169.116 550.143 169.345 549.914 169.345C545.787 178.515 540.514 192.728 539.597 210.381C537.993 242.705 551.06 267.006 557.021 276.634C573.756 276.634 590.72 276.864 607.456 276.864C610.665 276.864 613.875 276.864 617.084 276.864C640.239 276.864 663.393 277.093 686.547 277.093C692.049 264.713 698.01 246.373 699.844 223.677C701.219 210.381 700.532 198.46 699.156 188.602Z" fill="url(#paint2_radial)"/>
<path d="M582.204 222.685C592.631 223.365 599.687 225.522 599.687 225.522L600.803 232.589C600.803 232.589 594.834 235.475 587.289 236.48C581.584 237.16 575.611 235.76 572.8 234.849C570.888 234.401 569.145 233.236 569.481 231.802C565.419 230.851 565.613 227.871 566.92 227.673L580.199 228.013" fill="#BE8E69"/>
<path d="M597.369 233.535C604.476 234.452 617.085 234.911 631.757 229.867C651.702 222.76 663.164 209.234 667.52 203.274C646.429 192.27 635.654 194.104 629.923 197.543C623.962 200.981 621.899 206.942 610.666 216.341C605.393 220.697 600.808 223.448 597.828 225.282C597.598 228.033 597.598 230.784 597.369 233.535Z" fill="#BE8E69"/>
<path d="M626.255 200.523C629.006 203.045 628.319 210.61 632.445 213.361C637.03 216.341 637.489 225.741 641.386 227.116C661.331 218.405 683.797 208.088 692.05 189.29C694.114 184.705 701.22 144.586 682.422 116.846C672.564 102.174 658.351 95.9846 651.702 93.6921C642.532 101.487 639.781 106.759 639.552 122.578C639.323 134.499 648.493 156.965 648.493 165.906C648.493 176.681 629.694 191.124 626.255 200.523Z" fill="#4CABAA"/>
<path d="M656.975 219.322L640.239 227.804L621.67 204.879L630.611 192.958L656.975 219.322Z" fill="#BBE3E6"/>
<path d="M523.206 376.702L514.494 372.805L511.514 382.663C511.055 384.267 509.451 385.414 507.617 385.414C504.178 385.414 498.905 385.414 496.613 385.414C493.174 385.184 493.403 388.623 495.466 389.54C497.53 390.457 512.202 396.418 512.202 396.418C512.889 396.647 513.577 396.647 514.265 396.418C514.953 396.189 515.411 395.73 515.64 395.042L523.206 376.702Z" fill="#986443"/>
<path d="M517.36 391.26L515.755 395.157C515.526 395.845 515.067 396.303 514.38 396.532C513.692 396.762 513.004 396.762 512.316 396.532C512.316 396.532 497.644 390.343 495.581 389.655C493.518 388.738 493.289 385.299 496.727 385.528C499.02 385.758 504.293 385.528 507.731 385.528C508.419 385.528 509.107 385.299 509.795 385.07L511.629 385.758C514.38 386.904 513.692 389.655 515.297 390.343C516.672 391.03 517.36 391.26 517.36 391.26Z" fill="#3A3833"/>
<path d="M697.78 242.705C665.685 236.745 638.404 235.14 618.001 234.911C589.115 234.681 570.546 236.515 556.332 249.124C552.664 252.334 549.913 255.772 547.392 259.44C526.3 289.931 515.067 351.599 511.17 372.461L526.988 378.88C526.988 378.88 575.36 293.599 581.091 280.302C581.321 279.844 581.321 279.614 581.55 279.156C580.862 280.761 595.993 280.99 597.368 280.761C613.874 278.239 630.38 279.844 646.886 280.302C655.369 280.531 663.622 279.614 672.104 279.614C678.752 279.844 683.567 281.219 688.839 276.176C691.132 273.654 699.614 263.338 697.78 242.705Z" fill="url(#paint3_radial)"/>
<path d="M593.586 403.525H583.957L584.645 412.695C584.874 414.529 583.728 416.133 582.123 416.821C579.143 418.197 574.1 420.26 572.036 421.177C568.827 422.323 570.431 425.303 572.495 425.303C574.787 425.303 590.606 425.074 590.606 425.074C591.293 425.074 591.981 424.845 592.44 424.386C592.898 423.928 593.127 423.24 593.127 422.552L593.586 403.525Z" fill="#986443"/>
<path d="M593.47 418.082V422.438C593.47 423.126 593.241 423.814 592.783 424.272C592.324 424.731 591.636 424.96 590.949 424.96C590.949 424.96 575.13 425.189 572.838 425.189C570.545 425.189 569.17 422.209 572.379 421.063C574.443 420.375 579.486 418.082 582.466 416.707C583.154 416.478 583.613 416.019 584.071 415.331H585.905C588.885 415.331 589.344 418.082 591.178 418.082C592.783 418.082 593.47 418.082 593.47 418.082Z" fill="#3A3833"/>
<path d="M560.688 275.947C557.937 281.449 557.479 288.556 557.937 295.892C558.854 307.813 560.459 319.504 562.064 331.196C566.19 359.165 571.692 387.363 579.945 414.414H596.91C596.91 414.414 597.369 391.718 597.369 390.343C597.827 366.73 598.285 343.117 598.744 319.734C598.973 310.105 598.973 300.477 598.973 290.619C598.973 280.073 595.534 272.049 585.447 267.694C576.965 264.026 565.044 266.777 560.688 275.947Z" fill="#605D5B"/>
<path d="M625.565 249.353H535.011C533.635 249.353 532.718 248.436 532.26 247.29L516.671 192.958C516.212 191.124 517.588 189.29 519.422 189.29H609.976C611.351 189.29 612.268 190.207 612.727 191.353L628.316 245.685C629.004 247.519 627.628 249.353 625.565 249.353Z" fill="#E5E3E1"/>
<path d="M643.676 256.919H536.158C534.094 256.919 532.26 255.085 532.26 253.021C532.26 250.958 534.094 249.124 536.158 249.124H643.676C645.74 249.124 647.574 250.958 647.574 253.021C647.574 255.314 645.74 256.919 643.676 256.919Z" fill="url(#paint4_linear)"/>
<path d="M579.485 227.116H566.647L562.979 214.049H575.817L579.485 227.116Z" fill="#C8C6C4"/>
<path d="M193.256 402.472C183.857 402.702 172.624 404.536 164.6 398.346C157.264 392.614 157.264 382.986 163.454 376.108C166.663 372.67 171.936 377.713 168.726 381.152C164.6 385.508 165.975 390.78 171.019 393.531C173.999 395.136 177.438 395.136 180.877 395.136C185.003 395.136 189.13 394.907 193.256 394.907C198.071 394.907 198.071 402.243 193.256 402.472Z" fill="url(#paint5_linear)"/>
<path d="M235.667 351.808C234.062 341.721 234.292 335.531 232.916 325.903L230.394 311.001L222.6 314.44C220.766 313.981 218.932 313.752 216.639 313.981C215.493 314.211 212.971 314.898 212.971 314.898L205.406 312.606C205.406 312.606 206.094 320.63 205.865 326.82C205.635 337.594 202.655 345.389 199.675 352.496C195.319 363.041 185.461 371.294 183.627 379.089C181.564 387.8 185.003 400.638 193.714 402.931C198.299 404.306 210.22 404.306 217.098 404.077C224.892 403.848 229.477 403.389 234.521 403.16C239.335 402.931 247.13 393.302 243.003 378.63C241.628 371.982 237.73 364.875 235.667 351.808Z" fill="#BE8E69"/>
<path d="M215.878 325.004C216.761 324.933 217.411 324.057 217.33 323.047C217.248 322.038 216.466 321.277 215.583 321.348C214.699 321.419 214.049 322.296 214.131 323.305C214.212 324.315 214.994 325.076 215.878 325.004Z" fill="#3A3833"/>
<path d="M227.802 324.077C228.685 324.006 229.336 323.129 229.254 322.12C229.173 321.11 228.391 320.349 227.507 320.42C226.624 320.492 225.974 321.368 226.055 322.378C226.136 323.387 226.919 324.148 227.802 324.077Z" fill="#3A3833"/>
<path d="M223.059 331.175C222.6 331.175 222.371 330.946 222.371 330.487L222.142 327.278C222.142 326.819 222.371 326.59 222.83 326.59C223.288 326.59 223.517 326.819 223.517 327.278L223.747 330.487C223.747 330.946 223.517 331.175 223.059 331.175Z" fill="#3A3833"/>
<path d="M220.078 325.673C220.078 324.756 221.225 324.527 222.371 324.527C223.517 324.527 224.663 324.527 224.663 325.444C224.663 326.361 223.746 327.736 222.6 327.736C221.454 327.736 220.078 326.59 220.078 325.673Z" fill="#3A3833"/>
<path d="M219.62 405.682C217.556 405.911 215.722 404.306 215.493 402.472L209.074 378.86C208.845 376.796 214.118 373.587 216.181 373.358V374.275C218.244 374.045 222.371 375.192 222.6 377.026V401.555C223.058 403.619 221.454 405.453 219.62 405.682Z" fill="url(#paint6_linear)"/>
<path d="M229.935 405.682C231.999 405.911 233.833 404.306 233.833 402.243L239.564 378.63C239.793 376.567 234.291 373.587 232.228 373.357V374.274C230.165 374.045 226.038 375.191 225.809 377.255L226.497 401.784C226.267 403.618 227.872 405.452 229.935 405.682Z" fill="url(#paint7_linear)"/>
<path d="M235.666 191.332C239.793 189.269 248.963 192.479 255.84 195.459C259.737 197.293 265.01 194.313 265.469 190.415C265.469 189.957 265.239 189.498 264.781 189.269C255.611 183.996 240.022 181.933 229.706 181.016C227.413 180.787 228.33 177.806 230.623 177.806C238.417 178.036 248.275 179.87 252.172 180.787C253.318 181.016 254.465 180.328 254.694 179.411C254.923 178.265 254.923 177.119 254.923 175.972C254.235 171.846 250.797 168.636 245.982 167.719C237.042 165.885 224.891 167.719 217.785 169.324C215.721 169.783 215.034 167.719 216.868 166.573C226.267 160.842 235.666 162.905 239.105 164.051C240.022 164.281 240.939 163.822 241.627 163.134C243.69 160.154 243.231 157.632 241.856 155.569C238.646 151.213 231.54 150.296 225.35 153.277C214.575 158.549 209.302 160.383 207.01 160.842C205.863 161.071 204.946 160.154 205.176 159.237C208.156 149.379 219.16 149.15 224.204 149.609C225.35 149.609 226.496 148.692 226.496 147.775V147.545C226.496 147.087 226.038 146.628 225.35 146.399C197.152 139.751 182.48 155.798 179.729 159.466C179.5 159.925 179.27 160.383 179.5 160.842L183.626 173.451C184.085 174.597 182.48 175.972 181.104 175.743C160.013 171.617 156.575 181.474 161.847 182.85C164.14 183.538 165.057 186.289 165.745 189.498C147.634 206.692 137.088 232.597 131.128 255.293C130.211 254.147 129.294 252.771 128.377 251.625C132.732 228.012 140.985 165.656 110.495 134.937C110.954 130.581 112.1 124.391 114.851 123.245C119.207 121.411 117.143 112.241 99.4911 117.972C98.3448 118.431 97.1986 117.284 97.6571 116.138L102.013 103.758C102.242 103.3 102.013 102.841 101.784 102.383C99.7203 99.1735 88.9456 84.7306 65.1035 93.4422C64.645 93.6714 64.1865 94.1299 64.1865 94.5884V94.8177C63.9572 95.7347 64.8742 96.6517 66.0205 96.4224C70.147 95.5054 79.317 94.8177 80.9218 104.217C81.151 105.134 80.234 106.051 79.317 105.822C77.2538 105.592 73.3565 104.446 64.645 100.09C59.8307 97.5687 53.8702 98.9442 50.8899 103.529C49.5144 105.592 49.0559 108.114 50.4314 110.865C50.8899 111.553 51.5777 111.782 52.2654 111.553C55.2457 110.178 63.0402 107.426 70.3762 112.241C71.7517 113.158 70.8347 115.221 69.4592 114.992C63.4987 114.075 53.8702 113.158 46.3049 115.68C42.4076 117.055 39.1981 120.265 38.2811 124.391C38.0519 125.308 38.0519 126.454 38.0519 127.601C38.2811 128.518 39.1981 129.205 39.8859 128.747C43.3246 127.601 51.3484 125.079 57.9967 124.162C59.8307 123.933 60.2892 126.684 58.4552 127.142C49.9729 128.747 36.9056 131.956 28.8818 137.917C28.4233 138.146 28.1941 138.605 28.1941 139.063C28.1941 142.96 32.5498 145.253 35.7594 143.19C41.4906 139.751 49.2852 135.854 52.4947 137.458C53.4117 137.917 53.6409 139.292 52.4947 139.98C48.1389 142.731 34.1546 151.443 28.6526 152.36C27.7356 152.589 27.2771 153.277 27.2771 153.964C27.7356 156.486 29.1111 161.53 32.7791 164.51C35.9886 167.032 40.8029 166.115 43.0954 162.676C47.2219 156.486 55.4749 145.253 58.6844 146.858C61.6647 148.462 55.9334 158.091 51.1192 164.281C49.2852 166.573 50.6607 170.241 53.6409 170.7C55.0164 170.929 56.3919 170.241 57.0797 169.095C60.5185 164.281 69.9177 151.443 70.147 144.107C70.3762 134.937 75.1905 137.688 74.9613 140.668C74.732 142.96 70.6055 158.32 64.8742 166.802C63.728 168.636 65.1035 170.929 67.396 170.47H67.8545C74.0442 169.095 79.0878 164.739 81.151 159.008C83.6728 152.13 86.4238 142.96 86.4238 136.312C86.4238 136.083 86.4238 135.624 86.653 135.395C87.1115 134.707 88.4871 133.561 90.3211 137.229C91.9258 140.209 90.0918 148.692 87.7993 155.111C86.653 158.32 90.3211 161.3 93.0721 159.466C97.8863 156.486 104.076 150.984 108.89 140.439C121.499 156.945 131.357 187.664 123.104 245.206C116.456 236.724 108.89 227.554 101.325 219.759C101.784 219.072 102.013 218.384 102.471 217.467C102.471 217.238 102.471 217.238 102.471 217.008C102.242 215.404 101.784 204.4 105.91 203.253C110.266 202.107 107.286 193.854 89.8626 197.293C88.7163 197.522 87.57 196.376 87.7993 195.459L91.2381 185.142C91.4673 184.684 91.2381 184.455 91.0088 183.996C88.7163 181.016 76.566 167.719 52.9532 173.221C52.4947 173.451 52.0362 173.68 52.0362 174.138V174.368C52.0362 175.285 52.9532 175.972 53.8702 175.972C57.9967 175.514 67.1667 175.743 69.6885 183.996C69.9177 184.913 69.23 185.601 68.0837 185.372C66.0205 184.913 61.894 183.538 52.7239 179.182C47.6804 176.66 41.7199 177.348 38.9689 181.016C37.8226 182.621 37.3641 184.684 39.1981 187.206C39.6566 187.894 40.5736 188.123 41.2614 187.894C44.0124 186.977 52.0362 185.372 59.8307 189.957C61.2062 190.874 60.7477 192.479 58.9137 192.249C52.9532 190.874 42.8661 189.498 35.3009 190.874C31.4036 191.562 28.4233 194.083 27.7356 197.751C27.5063 198.668 27.5063 199.585 27.9648 200.502C28.1941 201.419 29.1111 201.878 30.0281 201.649C33.4668 200.961 41.4906 199.356 47.9097 199.127C49.7437 199.127 50.4314 201.649 48.5974 201.649C40.1151 202.336 27.0478 204.17 19.4825 208.526C19.024 208.755 19.024 209.214 19.024 209.443C19.4825 212.882 23.8383 215.174 27.0478 213.799C32.7791 211.277 40.3444 208.526 43.7831 210.36C44.9294 210.819 44.9294 212.194 44.0124 212.653C39.8859 214.716 26.3601 221.135 20.8581 221.593C19.941 221.593 19.4825 222.281 19.7118 222.969C20.3996 225.261 22.0043 229.617 26.1308 232.597C29.5696 235.119 34.3839 234.661 36.4471 231.91C40.1151 226.866 47.6804 217.696 51.1192 219.53C54.3287 221.135 49.2852 228.929 44.7001 233.973C42.8661 235.807 44.7001 239.016 47.9097 239.704C49.2852 239.933 50.6607 239.475 51.3484 238.558C54.5579 234.661 62.811 224.344 62.5817 217.925C62.1232 210.131 67.1667 212.653 67.1667 215.404C67.1667 217.467 64.1865 230.305 59.1429 237.182C57.9967 238.558 59.8307 240.85 61.894 240.621H62.3525C68.5422 239.933 73.3565 236.724 74.9613 231.68C77.0245 225.949 79.0878 218.384 78.4 212.653C78.4 212.194 78.6293 211.736 78.8585 211.506C79.5463 211.048 80.6925 211.048 82.5265 213.799C84.3605 216.55 83.2143 223.886 81.3803 229.159C80.4633 231.91 84.3605 234.661 87.1115 233.285C90.5503 231.68 94.6768 228.929 98.1156 224.115C104.305 230.534 111.871 239.475 121.499 251.854C121.27 253.918 120.811 255.752 120.582 257.815L125.167 260.337C125.167 260.337 125.396 259.42 125.855 257.586C126.772 258.732 127.46 259.878 128.377 261.025C123.333 282.574 122.416 299.539 122.416 299.539L127.689 298.163C129.064 286.93 130.898 276.614 132.962 267.214C134.796 269.736 136.859 272.487 138.922 275.467L142.132 271.57C142.132 271.57 139.151 267.214 134.566 260.795C142.59 228.7 153.824 208.297 165.286 195.459C165.286 197.064 165.286 198.439 165.057 198.898C165.057 199.127 165.057 199.356 165.057 199.356C169.871 210.36 176.978 215.633 182.938 218.384C186.377 219.989 190.962 216.55 190.045 213.34C187.982 206.921 186.377 198.21 188.899 194.771C190.962 191.562 192.338 191.562 193.255 192.02C193.713 192.249 193.942 192.937 193.942 193.625C193.255 200.502 195.776 209.672 198.069 216.55C200.132 222.51 205.863 226.637 213.2 227.325H213.658C216.18 227.554 218.243 225.032 217.097 223.198C210.907 214.945 207.468 199.356 207.239 197.064C207.01 193.854 213.2 190.645 212.741 200.044C212.283 207.609 222.37 220.218 226.267 224.803C227.184 225.949 228.789 226.408 230.393 225.949C234.061 225.261 236.354 221.364 234.061 219.072C228.559 213.111 222.599 203.712 226.267 201.649C230.393 199.585 239.334 210.36 243.919 216.55C246.441 219.759 251.943 220.218 256.299 217.238C261.113 213.799 263.176 208.526 264.093 205.775C264.322 204.858 263.635 204.17 262.718 204.17C256.299 203.712 240.022 195.917 234.749 193.625C234.291 193.625 234.291 192.02 235.666 191.332ZM101.554 140.897C97.8863 138.146 96.7401 130.81 96.5108 126.684C96.2816 124.85 98.3448 123.703 99.9496 124.85C102.701 126.913 103.618 132.186 103.618 132.186C105.91 144.107 101.554 140.897 101.554 140.897Z" fill="url(#paint8_linear)"/>
<path d="M178.354 246.811H69.689V355.476H178.354V246.811Z" fill="#E5E3E1"/>
<path d="M76.5649 404.306H63.2684V312.835H76.5649V404.306ZM184.771 312.835H171.475V404.306H184.771V312.835ZM173.538 368.543V355.017H76.5649V368.314H173.538V368.543Z" fill="url(#paint9_linear)"/>
</g>
<defs>
<radialGradient id="paint0_radial" cx="0" cy="0" r="1" gradientUnits="userSpaceOnUse" gradientTransform="translate(583.134 171.586) scale(43.4357)">
<stop stop-color="#0E8286"/>
<stop offset="0.1853" stop-color="#218E91"/>
<stop offset="0.4865" stop-color="#389E9F"/>
<stop offset="0.7659" stop-color="#47A8A7"/>
<stop offset="1" stop-color="#4CABAA"/>
</radialGradient>
<radialGradient id="paint1_radial" cx="0" cy="0" r="1" gradientUnits="userSpaceOnUse" gradientTransform="translate(611.968 58.138) rotate(178.321) scale(10.3405 7.79879)">
<stop offset="0.00136409" stop-color="#3A3833"/>
<stop offset="1" stop-color="#986443" stop-opacity="0"/>
</radialGradient>
<radialGradient id="paint2_radial" cx="0" cy="0" r="1" gradientUnits="userSpaceOnUse" gradientTransform="translate(660.78 167.893) rotate(100.085) scale(64.5204 48.3587)">
<stop stop-color="#0E8286"/>
<stop offset="0.1853" stop-color="#218E91"/>
<stop offset="0.4865" stop-color="#389E9F"/>
<stop offset="0.7659" stop-color="#47A8A7"/>
<stop offset="1" stop-color="#4CABAA"/>
</radialGradient>
<radialGradient id="paint3_radial" cx="0" cy="0" r="1" gradientUnits="userSpaceOnUse" gradientTransform="translate(631.081 316.457) scale(80.2891)">
<stop stop-color="#3A3833"/>
<stop offset="1" stop-color="#605D5B"/>
</radialGradient>
<linearGradient id="paint4_linear" x1="589.858" y1="244.247" x2="589.858" y2="254.406" gradientUnits="userSpaceOnUse">
<stop stop-color="#C8C6C4"/>
<stop offset="1" stop-color="#E5E3E1"/>
</linearGradient>
<linearGradient id="paint5_linear" x1="152.938" y1="388.521" x2="205.203" y2="389.438" gradientUnits="userSpaceOnUse">
<stop stop-color="#C49871"/>
<stop offset="1" stop-color="#E2C19E"/>
</linearGradient>
<linearGradient id="paint6_linear" x1="215.967" y1="373.765" x2="215.967" y2="418.964" gradientUnits="userSpaceOnUse">
<stop stop-color="#BE8E69"/>
<stop offset="1" stop-color="#E2C19E"/>
</linearGradient>
<linearGradient id="paint7_linear" x1="232.611" y1="373.765" x2="232.611" y2="418.964" gradientUnits="userSpaceOnUse">
<stop stop-color="#BE8E69"/>
<stop offset="1" stop-color="#E2C19E"/>
</linearGradient>
<linearGradient id="paint8_linear" x1="19.5002" y1="194.852" x2="265.476" y2="194.852" gradientUnits="userSpaceOnUse">
<stop offset="0.00317996" stop-color="#63ACA5"/>
<stop offset="0.9997" stop-color="#71CFC3"/>
</linearGradient>
<linearGradient id="paint9_linear" x1="123.942" y1="307.961" x2="123.942" y2="460.661" gradientUnits="userSpaceOnUse">
<stop stop-color="#9C9C9C"/>
<stop offset="0.1245" stop-color="#AFAFAE"/>
<stop offset="0.35" stop-color="#CDCBCA"/>
<stop offset="0.5449" stop-color="#DEDDDB"/>
<stop offset="0.6856" stop-color="#E5E3E1"/>
</linearGradient>
<clipPath id="clip0">
<rect width="760" height="428" fill="white"/>
</clipPath>
</defs>
</svg>
