<svg width="760" height="428" viewBox="0 0 760 428" fill="none" xmlns="http://www.w3.org/2000/svg">
<g clip-path="url(#clip0)">
<rect width="760" height="428" fill="#ECF0F1"/>
<path d="M296.726 50.8965H91.5142C87.1318 50.8965 83.5791 54.4492 83.5791 58.8316V224.654C83.5791 229.036 87.1318 232.589 91.5142 232.589H296.726C301.109 232.589 304.661 229.036 304.661 224.654V58.8314C304.661 54.4491 301.109 50.8965 296.726 50.8965Z" fill="#FCFCFB"/>
<path opacity="0.6" d="M295.221 232.589H93.0199C87.8059 232.589 83.5791 228.362 83.5791 223.148V75.175H304.661V223.148C304.661 228.362 300.435 232.589 295.221 232.589Z" fill="#B3B0AD"/>
<path opacity="0.5" d="M304.661 75.1751H83.5791V60.3373C83.5791 55.1233 87.8059 50.8965 93.0199 50.8965H295.221C300.435 50.8965 304.661 55.1233 304.661 60.3373V75.1751Z" fill="#C8C6C4"/>
<path opacity="0.5" d="M141.397 97.7795H119.318V119.859H141.397V97.7795Z" fill="#B3B0AD"/>
<path opacity="0.5" d="M173.278 97.7795H151.198V119.859H173.278V97.7795Z" fill="#B3B0AD"/>
<path opacity="0.5" d="M205.16 97.7795H183.08V119.859H205.16V97.7795Z" fill="#B3B0AD"/>
<path opacity="0.5" d="M237.042 97.7795H214.962V119.859H237.042V97.7795Z" fill="#B3B0AD"/>
<path opacity="0.5" d="M268.924 97.7795H246.844V119.859H268.924V97.7795Z" fill="#B3B0AD"/>
<path opacity="0.5" d="M141.396 125.824H119.317V147.903H141.396V125.824Z" fill="#B3B0AD"/>
<path opacity="0.5" d="M173.278 125.824H151.198V147.903H173.278V125.824Z" fill="#B3B0AD"/>
<path opacity="0.5" d="M205.16 125.824H183.08V147.903H205.16V125.824Z" fill="#B3B0AD"/>
<path opacity="0.5" d="M237.042 125.824H214.962V147.903H237.042V125.824Z" fill="#B3B0AD"/>
<path opacity="0.5" d="M268.924 125.824H246.844V147.903H268.924V125.824Z" fill="#B3B0AD"/>
<path opacity="0.5" d="M141.396 153.868H119.317V175.948H141.396V153.868Z" fill="#B3B0AD"/>
<path d="M162.158 177.97C154.944 177.97 149.096 172.122 149.096 164.908C149.096 157.694 154.944 151.845 162.158 151.845C169.372 151.845 175.22 157.694 175.22 164.908C175.22 172.122 169.372 177.97 162.158 177.97Z" fill="#FCFCFB"/>
<path d="M159.383 172.829C158.676 172.829 157.969 172.559 157.429 172.02L152.759 167.351C151.68 166.272 151.68 164.523 152.759 163.444C153.838 162.365 155.587 162.365 156.666 163.444L159.383 166.159L167.411 158.131C168.49 157.052 170.24 157.052 171.318 158.131C172.398 159.21 172.398 160.959 171.318 162.038L161.336 172.02C160.797 172.559 160.09 172.829 159.383 172.829Z" fill="#8B8CC7"/>
<path opacity="0.5" d="M205.16 153.868H183.081V175.948H205.16V153.868Z" fill="#B3B0AD"/>
<path opacity="0.5" d="M237.042 153.868H214.962V175.948H237.042V153.868Z" fill="#B3B0AD"/>
<path opacity="0.5" d="M268.925 153.868H246.845V175.948H268.925V153.868Z" fill="#B3B0AD"/>
<path opacity="0.5" d="M141.396 181.912H119.317V203.992H141.396V181.912Z" fill="#B3B0AD"/>
<path opacity="0.5" d="M173.278 181.912H151.198V203.992H173.278V181.912Z" fill="#B3B0AD"/>
<path opacity="0.5" d="M205.16 181.912H183.08V203.992H205.16V181.912Z" fill="#B3B0AD"/>
<path opacity="0.5" d="M237.042 181.912H214.962V203.992H237.042V181.912Z" fill="#B3B0AD"/>
<path opacity="0.5" d="M268.924 181.912H246.844V203.992H268.924V181.912Z" fill="#B3B0AD"/>
<path d="M114.533 68.6629C117.641 68.6629 120.16 66.1436 120.16 63.0359C120.16 59.9282 117.641 57.4089 114.533 57.4089C111.426 57.4089 108.906 59.9282 108.906 63.0359C108.906 66.1436 111.426 68.6629 114.533 68.6629Z" fill="#979593"/>
<path d="M114.542 65.702C112.985 65.702 111.723 64.44 111.723 62.8832V43.9027C111.723 42.3459 112.985 41.0839 114.542 41.0839C116.099 41.0839 117.361 42.3459 117.361 43.9027V62.8832C117.361 64.44 116.099 65.702 114.542 65.702Z" fill="#C8C6C4"/>
<path d="M146.369 68.6629C149.476 68.6629 151.996 66.1436 151.996 63.0359C151.996 59.9282 149.476 57.4089 146.369 57.4089C143.261 57.4089 140.742 59.9282 140.742 63.0359C140.742 66.1436 143.261 68.6629 146.369 68.6629Z" fill="#979593"/>
<path d="M146.377 65.702C144.821 65.702 143.559 64.44 143.559 62.8832V43.9027C143.559 42.3459 144.821 41.0839 146.377 41.0839C147.934 41.0839 149.196 42.3459 149.196 43.9027V62.8832C149.196 64.44 147.934 65.702 146.377 65.702Z" fill="#C8C6C4"/>
<path d="M178.203 68.6629C181.311 68.6629 183.83 66.1436 183.83 63.0359C183.83 59.9282 181.311 57.4089 178.203 57.4089C175.096 57.4089 172.576 59.9282 172.576 63.0359C172.576 66.1436 175.096 68.6629 178.203 68.6629Z" fill="#979593"/>
<path d="M178.212 65.702C176.655 65.702 175.393 64.44 175.393 62.8832V43.9027C175.393 42.3459 176.655 41.0839 178.212 41.0839C179.769 41.0839 181.031 42.3459 181.031 43.9027V62.8832C181.031 64.44 179.769 65.702 178.212 65.702Z" fill="#C8C6C4"/>
<path d="M210.039 68.663C213.146 68.663 215.666 66.1437 215.666 63.036C215.666 59.9283 213.146 57.409 210.039 57.409C206.931 57.409 204.412 59.9283 204.412 63.036C204.412 66.1437 206.931 68.663 210.039 68.663Z" fill="#979593"/>
<path d="M210.047 65.7021C208.491 65.7021 207.229 64.4401 207.229 62.8833V43.9027C207.229 42.346 208.491 41.084 210.047 41.084C211.604 41.084 212.866 42.346 212.866 43.9027V62.8833C212.866 64.4401 211.604 65.7021 210.047 65.7021Z" fill="#C8C6C4"/>
<path d="M241.873 68.6629C244.981 68.6629 247.5 66.1436 247.5 63.0359C247.5 59.9282 244.981 57.4089 241.873 57.4089C238.766 57.4089 236.246 59.9282 236.246 63.0359C236.246 66.1436 238.766 68.6629 241.873 68.6629Z" fill="#979593"/>
<path d="M241.882 65.702C240.325 65.702 239.063 64.44 239.063 62.8832V43.9027C239.063 42.3459 240.325 41.0839 241.882 41.0839C243.439 41.0839 244.701 42.3459 244.701 43.9027V62.8832C244.701 64.44 243.439 65.702 241.882 65.702Z" fill="#C8C6C4"/>
<path d="M273.708 68.6629C276.816 68.6629 279.335 66.1436 279.335 63.0359C279.335 59.9282 276.816 57.4089 273.708 57.4089C270.6 57.4089 268.081 59.9282 268.081 63.0359C268.081 66.1436 270.6 68.6629 273.708 68.6629Z" fill="#979593"/>
<path d="M273.717 65.702C272.16 65.702 270.898 64.44 270.898 62.8832V43.9027C270.898 42.3459 272.16 41.0839 273.717 41.0839C275.274 41.0839 276.536 42.3459 276.536 43.9027V62.8832C276.536 64.44 275.273 65.702 273.717 65.702Z" fill="#C8C6C4"/>
<path d="M436.579 390.792H242.345C236.535 390.792 231.826 386.083 231.826 380.273V95.6673C231.826 89.8579 236.535 85.1486 242.345 85.1486H436.579C442.388 85.1486 447.097 89.8579 447.097 95.6673V380.273C447.097 386.083 442.388 390.792 436.579 390.792Z" fill="#FCFCFB"/>
<path d="M415.127 152.764H263.461C257.652 152.764 252.942 148.055 252.942 142.245V124.164C252.942 118.355 257.652 113.645 263.461 113.645H415.127C420.936 113.645 425.645 118.355 425.645 124.164V142.245C425.645 148.055 420.936 152.764 415.127 152.764Z" fill="#C6E8ED"/>
<path d="M274.69 141.054H270.313C267.187 141.054 264.652 138.52 264.652 135.393V131.016C264.652 127.89 267.187 125.356 270.313 125.356H274.69C277.816 125.356 280.351 127.89 280.351 131.016V135.393C280.351 138.52 277.816 141.054 274.69 141.054Z" fill="#28C2D1"/>
<path d="M406.813 129.253H294.339V137.156H406.813V129.253Z" fill="#28C2D1"/>
<path d="M415.127 302.139H263.461C257.652 302.139 252.942 297.429 252.942 291.62V273.538C252.942 267.729 257.652 263.02 263.461 263.02H415.127C420.936 263.02 425.645 267.729 425.645 273.538V291.62C425.645 297.429 420.936 302.139 415.127 302.139Z" fill="#C6E8ED"/>
<path d="M274.69 290.428H270.313C267.187 290.428 264.652 287.894 264.652 284.767V280.391C264.652 277.264 267.187 274.73 270.313 274.73H274.69C277.816 274.73 280.351 277.264 280.351 280.391V284.767C280.351 287.894 277.816 290.428 274.69 290.428Z" fill="#28C2D1"/>
<path d="M406.813 278.628H294.339V286.531H406.813V278.628Z" fill="#28C2D1"/>
<path d="M415.127 362.295H263.461C257.652 362.295 252.942 357.586 252.942 351.776V333.695C252.942 327.885 257.652 323.176 263.461 323.176H415.127C420.936 323.176 425.645 327.885 425.645 333.695V351.776C425.645 357.586 420.936 362.295 415.127 362.295Z" fill="#C6E8ED"/>
<path d="M274.69 350.585H270.313C267.187 350.585 264.652 348.05 264.652 344.924V340.547C264.652 337.421 267.187 334.886 270.313 334.886H274.69C277.816 334.886 280.351 337.421 280.351 340.547V344.924C280.351 348.051 277.816 350.585 274.69 350.585Z" fill="#28C2D1"/>
<path d="M406.813 338.784H294.339V346.687H406.813V338.784Z" fill="#28C2D1"/>
<path opacity="0.12" d="M445.607 247.242H262.49C255.765 247.242 250.313 241.79 250.313 235.064V191.239C250.313 184.513 255.765 179.061 262.49 179.061H445.607C452.332 179.061 457.784 184.513 457.784 191.239V235.064C457.784 241.79 452.332 247.242 445.607 247.242Z" fill="#464775"/>
<path d="M452.525 241.982H266.091C260.281 241.982 255.572 237.273 255.572 231.463V184.321C255.572 178.511 260.281 173.802 266.091 173.802H452.525C458.334 173.802 463.044 178.511 463.044 184.321V231.463C463.044 237.273 458.334 241.982 452.525 241.982Z" fill="#F7C6C8"/>
<path d="M300.365 200.043H284.667V215.741H300.365V200.043Z" fill="#28C2D1"/>
<path d="M415.216 210.236H339.462V218.139H415.216V210.236Z" fill="#EE8F94"/>
<path d="M405.756 195H339.462V202.903H405.756V195Z" fill="#EE8F94"/>
<path opacity="0.22" d="M302.215 232.804H279.283C273.518 232.804 268.845 228.13 268.845 222.365V199.433C268.845 193.668 273.518 188.995 279.283 188.995H302.215C307.98 188.995 312.653 193.668 312.653 199.433V222.365C312.653 228.13 307.98 232.804 302.215 232.804Z" fill="#464775"/>
<path d="M304.719 230.479H281.786C276.022 230.479 271.348 225.805 271.348 220.041V197.108C271.348 191.343 276.022 186.67 281.786 186.67H304.719C310.484 186.67 315.157 191.344 315.157 197.108V220.041C315.157 225.805 310.484 230.479 304.719 230.479Z" fill="white"/>
<path d="M306.521 205.262H299.86L297.873 206.692V213.76C297.97 216.473 300.243 218.598 302.957 218.511C305.674 218.601 307.951 216.476 308.048 213.76V206.692C308.021 205.875 307.337 205.235 306.521 205.262Z" fill="#5059C8"/>
<path d="M304.845 203.606C306.674 203.606 308.157 202.123 308.157 200.294C308.157 198.465 306.674 196.982 304.845 196.982C303.016 196.982 301.533 198.465 301.533 200.294C301.533 202.123 303.016 203.606 304.845 203.606Z" fill="#5059C8"/>
<path d="M287.986 205.262H300.174C300.924 205.262 301.532 205.87 301.532 206.62V216.027C301.532 220.143 298.196 223.479 294.08 223.479C289.964 223.479 286.628 220.143 286.628 216.027V206.62C286.628 205.87 287.236 205.262 287.986 205.262Z" fill="#7B82EA"/>
<path d="M299.861 198.638C299.861 201.382 297.636 203.606 294.892 203.606C292.148 203.606 289.924 201.382 289.924 198.638C289.924 195.894 292.149 193.67 294.893 193.67C294.898 193.67 294.904 193.67 294.909 193.67C297.645 193.671 299.862 195.889 299.861 198.625C299.861 198.629 299.861 198.634 299.861 198.638Z" fill="#7B82EA"/>
<path opacity="0.5" d="M286.628 206.62V216.027C286.627 216.873 286.772 217.714 287.057 218.511H293.237C295.07 218.514 296.559 217.032 296.564 215.199V205.262H287.986C287.236 205.262 286.628 205.87 286.628 206.62Z" fill="black"/>
<path opacity="0.5" d="M291.23 201.95C292.528 203.444 294.607 203.991 296.472 203.33C296.296 202.54 295.605 201.971 294.796 201.95H291.23Z" fill="black"/>
<path opacity="0.1" d="M286.628 206.62V216.027C286.622 216.873 286.762 217.713 287.042 218.511H293.237C295.07 218.514 296.559 217.032 296.564 215.199V205.262H287.986C287.236 205.262 286.628 205.87 286.628 206.62Z" fill="black"/>
<path opacity="0.1" d="M291.23 201.95C292.528 203.444 294.607 203.991 296.472 203.33C296.296 202.54 295.605 201.971 294.796 201.95H291.23Z" fill="black"/>
<path d="M280.004 200.294H293.253C294.167 200.294 294.909 201.036 294.909 201.95V215.199C294.909 216.113 294.167 216.855 293.253 216.855H280.004C279.089 216.855 278.348 216.113 278.348 215.199V201.95C278.348 201.036 279.089 200.294 280.004 200.294Z" fill="#4B53BB"/>
<path d="M290.975 205.262H287.663V213.543H286.007V205.262H282.695V203.606H290.975V205.262H290.975Z" fill="white"/>
<path d="M709.423 396.203L709.424 395.895C702.459 345.259 682.323 280.369 618.922 258.15C605.003 253.272 589.439 257.374 572.967 261.386C564.412 263.712 559.443 326.296 604.313 349.269C619.95 355.16 637.916 394.026 650.975 428H677.484C695.068 428 709.345 413.787 709.423 396.203Z" fill="url(#paint0_radial)"/>
<path d="M580.407 244.962L538.248 249.802L531.274 275.007L580.864 260.772L580.407 244.962Z" fill="#F9F9F8"/>
<path d="M541.238 269.257L538.418 249.78L589.657 243.097C589.657 243.097 590.978 256.21 597.291 261.099L541.238 269.257Z" fill="#C8C6C4"/>
<path d="M545.634 197.983C545.634 197.983 547.834 246.514 547.672 250.674C546.122 271.051 544.174 273.368 544.174 273.368C544.174 273.368 557.051 261.305 607.724 258.316C604.296 255.634 602.451 246.562 602.324 242.35C601.979 230.888 600.64 196.513 600.64 196.513L545.634 197.983Z" fill="url(#paint1_radial)"/>
<path d="M348.104 268.418C348.104 268.418 338.125 275.596 336.482 276.648C341.02 288.961 354.63 322.851 365.451 344.063C365.451 344.063 383.154 325.824 390.163 318.321C370.444 305.017 348.104 268.418 348.104 268.418Z" fill="#594539"/>
<path d="M658.671 350.17C662.309 297.784 619.691 265.119 576.811 261.969C533.932 258.818 496.466 293.087 493.128 338.511C491.651 358.619 494.633 394.381 498.414 428H665.756C660.316 394.655 657.671 364.572 658.671 350.17Z" fill="url(#paint2_radial)"/>
<path d="M548.875 268.286C548.875 268.286 546.382 416.889 434.638 399.326C401.243 394.078 382.249 368.829 359.541 338.706L385.316 314.066C385.316 314.066 395.253 324.214 408.939 324.517C440.581 325.364 457.032 309.434 478.331 292.83C509.345 268.772 548.875 268.286 548.875 268.286Z" fill="#EE8F94"/>
<path d="M342.001 327.747L359.541 338.706L385.316 314.066L374.347 297.169L342.001 327.747Z" fill="#E7E7F0"/>
<path d="M348.829 269.583C347.048 262.359 343.768 226.654 343.768 226.654C343.588 224.94 342.78 223.354 341.5 222.201L330.041 211.887C329.71 211.589 329.312 211.375 328.88 211.264L314.308 207.528C312.473 207.057 310.72 208.533 310.871 210.421C310.956 211.494 311.658 212.42 312.668 212.792L322.869 216.548C323.325 216.716 323.728 217.001 324.039 217.375L330.825 225.549L320.685 225.124C319.462 225.072 318.352 225.832 317.957 226.989L312.905 241.785C312.641 242.557 312.733 243.406 313.155 244.104L315.26 247.589C315.946 248.725 317.343 249.212 318.587 248.748L322.084 247.444L326.814 267.524C327.629 270.982 329.462 274.117 332.076 276.524L338.692 282.613C342.45 278.04 347.551 273.695 348.829 269.583Z" fill="#594539"/>
<path d="M547.5 249.316L606.802 239.635L617.6 258.124L543.719 268.424L547.5 249.316Z" fill="#F5F5F8"/>
<path d="M534.195 164.936C539.044 164.32 571.364 158.754 580.95 158.083C592.714 157.318 596.049 163.464 596.049 163.464C596.049 163.464 602.244 152.399 599.378 141.993C597.147 133.891 588.017 125.657 575.301 126.793C566.816 127.506 545.384 135.231 536.445 133.813C514.097 130.266 516.117 118.878 516.117 118.878C516.117 118.878 498.66 135.147 509.903 154.702C514.838 163.382 527.192 165.826 534.195 164.936Z" fill="#3A312E"/>
<path d="M601.231 216.1C600.009 195.058 613.768 184.685 611.501 165.483C608.591 153.688 599.063 151.525 591.339 151.816L539.749 153.024C532.004 153.146 525.926 159.61 526.048 167.356C526.048 167.356 562.947 184.917 584.116 200.855C587.7 210.058 594.081 216.836 601.231 216.1Z" fill="#3A312E"/>
<path d="M576.558 212.348C582.932 211.538 587.443 205.715 586.633 199.341C585.824 192.967 580 188.456 573.626 189.265C567.252 190.075 562.741 195.899 563.551 202.273C564.36 208.647 570.184 213.158 576.558 212.348Z" fill="#594539"/>
<path d="M539.878 247.697C558.107 247.278 572.571 232.16 572.152 213.931L571.447 179.87C571.325 172.124 564.839 165.877 556.924 166.02L531.649 166.644C525.792 166.699 528.724 176.294 528.8 182.321L521.966 217.366L522.251 231.137C522.567 240.411 530.413 247.865 539.878 247.697Z" fill="#3A312E"/>
<path d="M522.053 217.365L547.689 216.867C554.225 216.726 559.244 211.432 559.103 204.895L558.492 175.652C558.392 168.076 552.324 160.248 544.748 160.348L532.885 160.648C525.557 161.905 521.005 167.099 521.189 178.691L522.053 217.365Z" fill="#594539"/>
<path d="M543.356 215.348C542.505 214.076 541.187 213.209 539.595 212.893C538.003 212.578 536.497 212.942 535.225 213.794C533.317 215.071 532.364 215.709 531.367 216.009C530.222 216.499 528.864 216.672 526.509 217.143C525.321 217.294 524.367 217.933 523.605 218.72C521.296 220.91 521.24 224.539 523.6 226.827C525.982 229.284 529.571 230.38 532.987 230.118C534.175 229.967 535.194 229.838 536.339 229.347C540.94 227.555 544.178 223.177 544.105 218.529C544.485 217.446 543.995 216.301 543.356 215.348Z" fill="#3A312E"/>
<path d="M540.01 218.877C539.685 220.25 538.457 223.803 534.929 225.042C532.11 226.032 528.034 224.787 527.032 223.975C525.791 222.971 525.838 221.555 527.918 221.448C529.999 221.342 531.049 221.507 533.189 220.703C534.666 220.148 537.779 217.608 537.779 217.608C539.456 216.158 540.314 217.594 540.01 218.877Z" fill="#EE8F94" fill-opacity="0.3"/>
<path d="M527.439 214.955C527.42 216.165 526.149 217.016 524.726 216.68C523.643 216.3 522.581 216.09 521.838 215.667L515.166 212.03C512.383 210.487 511.655 207.475 513.242 205.031L519.083 196.7C520.691 194.426 521.386 191.75 521.38 188.991L525.858 188.94L527.439 214.955Z" fill="#594539"/>
<path d="M531.303 197.892C532.532 197.865 533.479 195.622 533.419 192.882C533.359 190.142 532.314 187.943 531.086 187.97C529.858 187.997 528.911 190.24 528.971 192.98C529.031 195.719 530.075 197.919 531.303 197.892Z" fill="#33312D"/>
<path d="M571.544 186.067L558.844 191.993C558.352 179.982 537.139 181.452 541.035 160.25L549.851 158.887L585.328 160.169L571.544 186.067Z" fill="#3A312E"/>
<path d="M454.209 208.148C467.408 208.148 478.109 197.447 478.109 184.247C478.109 171.048 467.408 160.347 454.209 160.347C441.009 160.347 430.308 171.048 430.308 184.247C430.308 197.447 441.009 208.148 454.209 208.148Z" fill="#FCFCFB"/>
<path d="M454.209 211.435C439.218 211.435 427.021 199.239 427.021 184.248C427.021 169.257 439.218 157.061 454.209 157.061C469.2 157.061 481.396 169.257 481.396 184.248C481.396 199.239 469.2 211.435 454.209 211.435ZM454.209 163.635C442.843 163.635 433.595 172.882 433.595 184.248C433.595 195.613 442.843 204.86 454.209 204.86C465.575 204.86 474.821 195.613 474.821 184.248C474.821 172.882 465.575 163.635 454.209 163.635Z" fill="#F7B548"/>
<path d="M454.209 170.832V184.248H444.019" fill="#FCFCFB"/>
<path d="M454.209 187.535H444.019C442.203 187.535 440.732 186.063 440.732 184.248C440.732 182.432 442.203 180.961 444.019 180.961H450.922V170.832C450.922 169.017 452.393 167.545 454.209 167.545C456.025 167.545 457.496 169.017 457.496 170.832V184.248C457.496 186.063 456.025 187.535 454.209 187.535Z" fill="#F7B548"/>
</g>
<defs>
<radialGradient id="paint0_radial" cx="0" cy="0" r="1" gradientUnits="userSpaceOnUse" gradientTransform="translate(632.084 406.5) scale(78.9095)">
<stop offset="0.0006" stop-color="#E3646A"/>
<stop offset="0.3027" stop-color="#E8767C"/>
<stop offset="0.7102" stop-color="#EC888E"/>
<stop offset="1" stop-color="#EE8F94"/>
</radialGradient>
<radialGradient id="paint1_radial" cx="0" cy="0" r="1" gradientUnits="userSpaceOnUse" gradientTransform="translate(576.343 206.597) rotate(1.39816) scale(17.0653)">
<stop stop-color="#41342C"/>
<stop offset="1" stop-color="#594539"/>
</radialGradient>
<radialGradient id="paint2_radial" cx="0" cy="0" r="1" gradientUnits="userSpaceOnUse" gradientTransform="translate(466.39 373.065) scale(84.8283)">
<stop offset="0.0006" stop-color="#E3646A"/>
<stop offset="0.3027" stop-color="#E8767C"/>
<stop offset="0.7102" stop-color="#EC888E"/>
<stop offset="1" stop-color="#EE8F94"/>
</radialGradient>
<clipPath id="clip0">
<rect width="760" height="428" fill="white"/>
</clipPath>
</defs>
</svg>
