<svg width="760" height="428" viewBox="0 0 760 428" fill="none" xmlns="http://www.w3.org/2000/svg">
<g clip-path="url(#clip0)">
<rect width="760" height="428" fill="#ECF0F1"/>
<path d="M339.809 101.086C340.198 70.3325 365.498 45.4181 397.025 45.4181C408.702 45.4181 419.6 48.9217 428.553 54.761C430.499 50.4788 433.223 46.1966 435.948 42.3038C447.625 27.1215 466.308 17 487.326 17C508.344 17 527.027 26.7322 539.093 42.3038C547.656 53.2038 552.327 66.8289 552.327 81.2326C552.327 82.7898 552.327 83.9576 551.937 85.5148C553.105 85.5148 554.662 85.5148 555.83 85.5148C585.8 85.5148 609.932 109.261 609.932 138.847C609.932 168.433 585.8 192.18 555.83 192.18H350.707C325.018 192.18 304 171.548 304 146.244C304 124.054 319.18 105.758 339.809 101.086Z" fill="#F8F8F8"/>
<path d="M364.719 134.176C365.108 114.711 381.066 99.1399 400.528 99.1399C407.923 99.1399 414.54 101.476 420.378 104.979C421.546 102.254 423.103 99.5292 425.049 97.1934C432.444 87.4612 444.121 81.2326 457.355 81.2326C470.589 81.2326 482.265 87.4612 489.661 97.1934C495.11 104.201 498.224 112.376 498.224 121.719C498.224 122.497 498.224 123.276 498.224 124.444C499.002 124.444 499.781 124.444 500.559 124.444C519.242 124.444 534.422 139.626 534.422 157.922C534.422 176.608 519.242 191.401 500.559 191.401H371.336C354.988 191.401 342.144 178.555 342.144 162.594C342.144 148.58 351.874 137.29 364.719 134.176Z" fill="#F8F8F8"/>
<path d="M507.444 61.771C499.356 58.6691 491.268 55.4121 483.102 52.2326C482.324 51.9225 481.313 51.9225 480.613 52.2326C472.37 55.4896 464.204 58.8242 456.038 62.0812C454.483 62.7015 453.861 63.7872 453.939 65.4932C454.016 69.2931 454.016 73.1704 454.016 76.9702C454.016 79.917 454.094 82.9414 454.016 85.8882C453.861 92.8675 455.805 98.9937 459.616 104.5C465.215 112.72 472.681 118.381 481.002 122.801C481.702 123.188 482.946 122.956 483.802 122.568C490.723 118.846 496.945 114.038 502.078 107.757C506.821 101.863 509.932 95.1939 509.932 87.129C509.932 79.917 509.854 72.7051 509.854 65.4157C509.777 63.477 509.155 62.3913 507.444 61.771Z" fill="url(#paint0_linear)"/>
<path d="M480.536 52.2325C472.317 55.488 464.175 58.821 456.032 62.0764C454.481 62.6965 453.861 64.0142 453.939 65.7194C454.016 69.5175 454.016 73.393 454.016 77.191C454.016 80.1365 454.094 83.1594 454.016 86.1048C453.861 93.0808 455.8 99.2041 459.599 104.707C465.183 112.924 472.627 118.349 480.924 122.767C481.234 122.922 481.545 123 481.932 123L481.622 52C481.234 52 480.847 52.0775 480.536 52.2325Z" fill="#E2E2E2"/>
<path d="M427.456 125.445L422.797 129.224C421.788 130.072 421.633 131.692 422.487 132.694L443.531 158.141C444.385 159.143 445.86 159.298 446.87 158.449L476.067 134.622C477.077 133.774 477.232 132.231 476.378 131.229L455.489 105.859C454.635 104.857 453.082 104.702 452.072 105.551L447.879 108.944L427.456 125.445ZM442.055 113.647L433.358 120.742L442.055 113.647ZM454.169 132.694C454.091 132.848 454.091 133.08 454.247 133.234L456.266 135.624C457.431 137.012 456.965 139.249 455.101 140.02C453.936 140.482 452.616 140.02 451.839 139.094L449.898 136.781C449.743 136.627 449.588 136.55 449.355 136.627C446.947 137.089 444.462 136.241 442.832 134.159C440.813 131.537 441.279 127.373 443.841 125.214C446.637 122.824 450.83 123.209 453.16 126.062C454.79 127.99 455.101 130.535 454.169 132.694Z" fill="url(#paint1_linear)"/>
<path d="M531.664 114.906C531.587 114.906 531.587 114.906 531.664 114.906C531.587 114.829 531.587 114.829 531.587 114.829C531.433 114.598 531.279 114.368 531.125 114.214C531.125 114.214 531.125 114.138 531.048 114.138C530.894 113.907 530.74 113.754 530.586 113.523C530.201 113.062 529.816 112.678 529.431 112.217C529.354 112.14 529.277 112.064 529.2 111.987C528.815 111.68 528.43 111.295 528.045 110.988L527.737 110.681C527.044 110.22 526.275 109.759 525.505 109.375C525.351 109.298 525.274 109.221 525.12 109.221C517.652 105.995 508.952 109.375 505.719 116.826C504.179 120.436 504.102 124.431 505.488 128.041L484.932 148.858L485.24 156.846H485.317L492.169 157C493.093 157 493.94 156.385 494.171 155.464L494.864 152.545L498.097 151.7C498.867 151.546 499.406 150.932 499.56 150.164L500.176 146.707L503.64 146.016C504.41 145.862 505.026 145.324 505.18 144.556L505.95 141.33L510.415 140.178L514.111 136.414C514.265 136.491 514.341 136.491 514.495 136.567C514.572 136.567 514.572 136.567 514.649 136.644C514.803 136.721 514.957 136.721 515.111 136.798H515.188C515.342 136.875 515.496 136.875 515.65 136.951C515.881 137.028 515.958 137.028 516.112 137.028C516.189 137.028 516.266 137.028 516.343 137.105C516.42 137.105 516.497 137.182 516.651 137.182C516.805 137.182 516.959 137.259 517.19 137.259H517.267H517.344L517.729 137.336C517.883 137.336 518.037 137.336 518.268 137.412C518.422 137.412 518.653 137.412 518.807 137.412C518.884 137.412 518.884 137.412 518.961 137.412C520.039 137.412 521.116 137.336 522.194 137.105H522.271H522.348C522.887 137.028 523.426 136.875 523.965 136.644C524.119 136.567 524.273 136.567 524.427 136.491C526.506 135.722 528.353 134.57 529.893 132.88C534.589 127.964 535.205 120.513 531.664 114.906ZM519.423 116.826C520.962 115.29 523.426 115.213 524.966 116.749C524.966 116.749 524.966 116.749 525.043 116.826C525.813 117.594 526.198 118.593 526.198 119.591C526.198 120.59 525.813 121.589 525.043 122.434C524.889 122.587 524.735 122.741 524.581 122.818C523.58 123.509 522.348 123.739 521.116 123.355C520.654 123.278 520.193 123.048 519.808 122.741C519.731 122.664 519.654 122.664 519.654 122.587C519.577 122.51 519.5 122.434 519.423 122.357C517.96 120.82 517.96 118.362 519.423 116.826Z" fill="#28C2D1"/>
<path d="M425.529 102.971C419.85 107.736 419.376 116.55 424.425 122.665L427.186 126L433.102 121.156L430.341 117.821C428.211 115.2 428.369 111.389 430.814 109.403C433.26 107.339 436.967 107.815 439.176 110.436L442.016 113.93L447.932 109.086L445.014 105.592C439.965 99.2387 431.209 98.2064 425.529 102.971Z" fill="url(#paint2_linear)"/>
<path d="M583.565 242.397L476.861 213.071L439.055 350.63L545.759 379.956L583.565 242.397Z" fill="white"/>
<path d="M491.366 277.669L477.745 273.921L465.628 317.954L479.249 321.702L491.366 277.669Z" fill="#E1DFDD"/>
<path d="M527.611 302.198L513.991 298.45L505.621 328.864L519.242 332.612L527.611 302.198Z" fill="#E1DFDD"/>
<path d="M515.418 270.077L501.797 266.329L486.058 323.527L499.678 327.275L515.418 270.077Z" fill="#8B8CC4"/>
<path d="M559.047 265.875L545.426 262.127L525.44 334.759L539.06 338.507L559.047 265.875Z" fill="#2C2C54"/>
<path d="M179.254 109.4C179.254 148.478 201.857 181.436 232.936 194.148C233.407 194.148 233.407 194.619 233.878 194.619C242.354 197.914 251.301 199.798 260.719 199.798C263.544 199.798 266.369 199.798 269.195 199.327C272.962 198.856 276.258 198.385 279.554 197.444C284.734 196.031 289.443 194.148 294.152 192.265C321.464 178.611 341.242 148.949 342.654 114.108C342.654 112.695 342.654 111.283 342.654 109.871C342.654 93.3917 338.416 77.3837 331.353 64.2006C331.353 64.2006 331.353 64.2006 331.353 63.7298C330.882 62.7882 330.411 61.8465 329.94 61.3757C329.94 61.3757 329.94 60.9049 329.469 60.9049C326.644 56.1966 323.819 51.9592 320.051 48.1926C304.983 31.243 284.263 20.4141 260.719 20.4141C235.761 20.4141 213.629 32.6555 198.561 51.9592C194.322 57.6091 190.555 63.7298 187.259 70.3213C186.788 71.7338 186.317 72.6755 185.846 74.0879C183.492 79.267 182.079 84.9169 180.667 91.0376C180.196 92.45 180.196 93.8625 179.725 95.275C179.254 98.5708 178.783 101.867 178.783 105.162C178.783 105.162 178.783 105.162 178.783 105.633C179.254 106.104 179.254 107.987 179.254 109.4Z" fill="#E46347"/>
<path d="M177.84 381.536C231.051 429.089 285.204 418.731 330.41 388.127C369.494 361.761 395.394 324.095 375.616 258.18C369.965 239.818 353.955 204.506 347.362 174.373C340.77 143.77 342.653 117.404 342.653 117.404C342.653 117.404 197.147 69.8506 187.258 69.3798C176.428 90.096 173.131 123.524 168.893 148.007C163.242 179.082 155.708 244.997 153.354 277.484C151.47 308.558 156.179 361.761 177.84 381.536Z" fill="#E46347"/>
<path d="M283.792 259.592C283.792 259.592 268.723 378.24 296.035 396.602C319.109 412.139 437.303 425.322 437.303 425.322V441.801H267.781C255.067 441.801 244.236 431.443 244.236 418.26L229.168 258.651L283.792 259.592Z" fill="#C84936"/>
<path d="M323.347 487C365.728 487 405.754 476.642 441.071 458.751C427.886 437.563 404.341 431.914 363.373 439.918H291.797C287.559 397.544 251.771 364.586 208.449 364.586C177.37 364.586 150.058 381.536 135.46 406.96C183.02 456.396 249.417 487 323.347 487Z" fill="#605D5A"/>
<path d="M277.199 372.59C272.961 346.224 283.792 263.83 283.792 254.884C283.792 254.413 283.792 253.472 283.792 253.001C283.321 229.46 272.019 209.214 254.596 195.56C252.713 194.148 250.829 192.735 248.946 191.323C237.173 183.79 223.517 179.552 208.449 179.552C193.38 179.552 179.724 183.79 167.952 191.323C166.068 192.735 164.184 194.148 162.301 195.56C145.349 208.743 133.105 240.289 124.629 299.612C119.92 331.628 120.391 365.998 121.804 391.894C134.989 407.902 150.529 422.497 167.481 435.209H291.797L277.199 372.59Z" fill="url(#paint3_radial)"/>
<path d="M167.951 191.323C179.724 198.385 212.216 208.273 226.813 208.273C241.411 208.273 250.358 202.152 248.945 191.323C237.173 183.79 221.163 169.194 208.919 165.428C199.972 174.844 183.02 183.79 167.951 191.323Z" fill="#BF8F68"/>
<path d="M182.549 183.79L227.755 201.21L248.475 167.311C248.475 167.311 223.517 143.77 213.158 136.237C205.623 163.544 182.549 183.79 182.549 183.79Z" fill="#BF8F68"/>
<path d="M186.788 254.884H133.106C133.106 254.884 118.508 365.057 122.746 393.306C137.344 411.197 154.767 426.735 173.603 439.918C215.513 446.038 325.702 441.801 325.702 441.801V425.322C325.702 425.322 228.227 420.143 192.439 399.898C156.651 379.652 186.788 254.884 186.788 254.884Z" fill="#6FD0C3"/>
<path d="M294.152 429.56H456.611L488.632 336.807C490.044 333.041 487.219 329.745 483.452 329.745H333.707C330.882 329.745 328.057 331.628 327.115 334.453L294.152 429.56Z" fill="#D4D4D4"/>
<path d="M182.549 183.79L227.755 201.21L248.475 167.311C248.475 167.311 223.517 143.77 213.158 136.237C205.623 163.544 182.549 183.79 182.549 183.79Z" fill="url(#paint4_radial)"/>
<path d="M268.723 129.174C272.019 134.824 278.611 147.065 280.495 150.361C281.908 153.186 273.903 159.307 267.781 158.365C254.125 156.011 254.125 134.824 268.723 129.174Z" fill="#BF8F68"/>
<path d="M310.533 165.015C313.45 160.398 312.429 154.517 308.251 151.878C304.074 149.239 298.323 150.843 295.406 155.459C292.489 160.075 293.511 165.957 297.688 168.596C301.865 171.234 307.617 169.631 310.533 165.015Z" fill="#28C2D1"/>
<path d="M215.513 102.808C206.566 137.649 227.285 173.432 252.714 179.082C278.142 184.731 305.925 160.719 315.343 125.408C324.76 90.0959 310.634 60.9049 285.205 55.255C259.777 49.6051 224.46 67.4964 215.513 102.808Z" fill="#BF8F68"/>
<path d="M307.808 54.7842C307.808 54.7842 297.449 77.3837 268.253 82.092C226.343 89.6251 216.926 106.104 216.926 106.575C184.905 108.458 198.09 78.7962 232.465 49.6052C268.253 19.0016 307.808 54.7842 307.808 54.7842Z" fill="#E46347"/>
<path d="M225.401 137.178L207.507 133.412C199.972 131.999 195.263 124.466 197.147 116.462C199.03 108.929 207.036 104.221 214.57 105.633L232.464 109.4L225.401 137.178Z" fill="#BF8F68"/>
<path d="M216.297 145.772C219.214 141.156 218.192 135.274 214.015 132.636C209.838 129.997 204.086 131.6 201.17 136.217C198.253 140.833 199.274 146.714 203.452 149.353C207.629 151.992 213.38 150.389 216.297 145.772Z" fill="#28C2D1"/>
<path d="M274.206 92.7208L265.201 153.742L286.955 156.95C293.422 157.904 299.5 153.352 300.462 146.836L307.718 97.6632L274.206 92.7208Z" fill="url(#paint5_radial)"/>
<path d="M290.139 125.634C292.783 126.024 295.479 122.59 296.162 117.964C296.845 113.339 295.255 109.273 292.611 108.883C289.967 108.493 287.27 111.927 286.587 116.552C285.905 121.178 287.495 125.244 290.139 125.634Z" fill="#605D5A"/>
<path d="M247.051 119.279C249.695 119.669 252.392 116.236 253.075 111.61C253.757 106.984 252.167 102.918 249.523 102.528C246.879 102.139 244.182 105.572 243.5 110.198C242.817 114.824 244.407 118.889 247.051 119.279Z" fill="#605D5A"/>
<path d="M266.821 140.895C266.865 140.598 268.235 137.471 270.231 136.252C272.524 135.076 276.769 132.978 277.469 128.238C278.212 123.201 271.581 118.893 271.566 112.837L271.673 108.009C268.812 113.036 267.214 119.763 266.626 127.849C266.651 131.788 266.369 137.801 266.821 140.895Z" fill="#BF8F68"/>
<path d="M251.356 148.013C252.96 148.954 254.473 149.956 255.878 150.638C257.311 151.322 258.627 151.894 260.078 152.269C261.526 152.667 263.097 152.876 264.823 153.018C266.524 153.143 268.438 153.1 270.338 153.165L270.651 153.176C271.585 153.208 272.316 153.99 272.284 154.924C272.268 155.381 272.07 155.792 271.764 156.087C269.97 157.807 267.927 158.808 265.617 159.444C263.33 160.091 260.793 160.164 258.302 159.613C255.805 159.084 253.422 157.781 251.669 155.986C249.906 154.161 248.703 152.041 248.416 149.403C248.316 148.479 248.984 147.649 249.908 147.548C250.281 147.508 250.64 147.593 250.941 147.769L251.356 148.013Z" fill="#9B643D"/>
</g>
<defs>
<linearGradient id="paint0_linear" x1="484.902" y1="87.4718" x2="546.298" y2="86.0283" gradientUnits="userSpaceOnUse">
<stop stop-color="#CECECE"/>
<stop offset="0.4238" stop-color="#E2E2E2"/>
</linearGradient>
<linearGradient id="paint1_linear" x1="479.838" y1="137.422" x2="440.537" y2="130.289" gradientUnits="userSpaceOnUse">
<stop offset="0.2028" stop-color="#2C2C54"/>
<stop offset="0.2484" stop-color="#353564"/>
<stop offset="0.7243" stop-color="#444484"/>
<stop offset="0.9903" stop-color="#53539C"/>
</linearGradient>
<linearGradient id="paint2_linear" x1="438.271" y1="118.377" x2="434.908" y2="114.238" gradientUnits="userSpaceOnUse">
<stop offset="0.2028" stop-color="#C8C8C8"/>
<stop offset="0.5776" stop-color="#D6D6D6"/>
<stop offset="1" stop-color="#E2E2E2"/>
</linearGradient>
<radialGradient id="paint3_radial" cx="0" cy="0" r="1" gradientUnits="userSpaceOnUse" gradientTransform="translate(176.295 424.76) scale(154.408 154.384)">
<stop offset="0.0347478" stop-color="#4AA7A8"/>
<stop offset="0.7499" stop-color="#6FD0C3"/>
</radialGradient>
<radialGradient id="paint4_radial" cx="0" cy="0" r="1" gradientUnits="userSpaceOnUse" gradientTransform="translate(231.289 150.011) rotate(180) scale(32.7714 32.7665)">
<stop stop-color="#9B643D"/>
<stop offset="0.8819" stop-color="#BA8A63" stop-opacity="0.1178"/>
<stop offset="0.9997" stop-color="#BF8F68" stop-opacity="0"/>
</radialGradient>
<radialGradient id="paint5_radial" cx="0" cy="0" r="1" gradientUnits="userSpaceOnUse" gradientTransform="translate(269.454 127.625) rotate(8.38955) scale(21.3218 21.4854)">
<stop stop-color="#9B643D"/>
<stop offset="1" stop-color="#BF8F68"/>
</radialGradient>
<clipPath id="clip0">
<rect width="760" height="428" fill="white"/>
</clipPath>
</defs>
</svg>
