<svg width="760" height="428" viewBox="0 0 760 428" fill="none" xmlns="http://www.w3.org/2000/svg">
<g clip-path="url(#clip0)">
<rect width="760" height="428" fill="#ECF0F1"/>
<path d="M257.779 90.9274C250.457 113.806 240.391 109.23 226.664 123.873C212.937 138.515 201.04 158.648 206.988 187.475C210.649 206.693 235.358 233.69 285.233 246.959C334.651 260.229 380.408 238.266 394.593 213.557C409.235 188.848 400.083 164.596 410.15 137.6C420.217 110.603 257.779 90.9274 257.779 90.9274Z" fill="url(#paint0_linear)"/>
<path d="M406.032 473C447.213 473 486.107 462.934 520.425 445.546C507.613 424.955 484.734 419.464 444.925 427.243H320.466C306.739 427.243 294.842 433.191 286.605 443.258C321.839 462.018 362.562 473 406.032 473Z" fill="#6B1B03"/>
<path d="M256.406 106.027C256.406 144.006 278.37 176.036 308.57 188.39C309.027 188.39 309.027 188.848 309.485 188.848C317.721 192.051 326.415 193.881 335.566 193.881C338.312 193.881 341.057 193.881 343.803 193.424C347.463 192.966 350.666 192.508 353.869 191.593C358.903 190.221 363.478 188.39 368.054 186.56C394.593 173.29 413.811 144.463 415.184 110.603C415.184 109.23 415.184 107.858 415.184 106.485C415.184 90.4699 411.066 74.9124 404.202 62.1004C404.202 62.1004 404.202 62.1004 404.202 61.6429C403.745 60.7277 403.287 59.8126 402.829 59.355C402.829 59.355 402.829 58.8974 402.372 58.8974C399.626 54.3217 396.881 50.2036 393.22 46.543C378.578 30.0704 358.445 19.5462 335.566 19.5462C311.315 19.5462 289.809 31.4431 275.167 50.2036C271.049 55.6944 267.388 61.6429 264.185 68.0489C263.728 69.4216 263.27 70.3367 262.812 71.7094C260.525 76.7427 259.152 82.2336 257.779 88.182C257.322 89.5547 257.322 90.9275 256.864 92.3002C256.406 95.5032 255.949 98.7062 255.949 101.909C255.949 101.909 255.949 101.909 255.949 102.367C256.406 102.824 256.406 104.197 256.406 106.027Z" fill="#594539"/>
<path fill-rule="evenodd" clip-rule="evenodd" d="M376.291 154.764C371.366 154.764 367.373 158.756 367.373 163.681C367.373 168.606 371.366 172.599 376.291 172.599C381.216 172.599 385.208 168.606 385.208 163.681C385.208 158.756 381.216 154.764 376.291 154.764ZM365.075 163.681C365.075 157.487 370.097 152.466 376.291 152.466C382.485 152.466 387.507 157.487 387.507 163.681C387.507 169.876 382.485 174.897 376.291 174.897C370.097 174.897 365.075 169.876 365.075 163.681Z" fill="#E0DEDC"/>
<path d="M367.596 251.535C367.596 251.535 352.953 366.843 379.493 384.689C401.914 399.789 516.764 412.601 516.764 412.601V428.616H352.038C339.684 428.616 329.16 418.549 329.16 405.737L314.517 250.62L367.596 251.535Z" fill="#E4666C"/>
<path d="M294.384 354.031C264.185 354.031 237.646 370.504 223.461 395.213C261.439 434.564 311.772 461.561 368.054 469.797C373.087 459.273 375.832 447.834 375.832 435.479C375.832 390.637 339.227 354.031 294.384 354.031Z" fill="#6B1B03"/>
<path d="M367.596 246.96C367.596 246.502 367.596 245.587 367.596 245.129C367.138 222.251 356.157 202.575 339.227 189.306C337.396 187.933 335.566 186.56 333.736 185.187C322.296 177.866 309.027 173.748 294.384 173.748C279.742 173.748 266.473 177.866 255.033 185.187C253.203 186.56 251.373 187.933 249.542 189.306C233.07 202.118 221.173 232.775 212.937 290.429C208.361 321.544 208.819 354.947 210.191 380.113C223.003 395.67 238.103 409.855 254.576 422.21H375.375L361.648 361.353C357.072 335.729 367.596 256.111 367.596 246.96Z" fill="url(#paint1_radial)"/>
<path d="M254.575 184.73C266.014 191.593 297.587 201.202 311.772 201.202C325.956 201.202 334.65 195.254 333.278 184.73C321.838 177.408 306.281 163.224 294.384 159.563C285.69 169.172 269.675 177.866 254.575 184.73Z" fill="#A26E44"/>
<rect x="217.578" y="385.668" width="56.3062" height="50.5607" fill="#F37076"/>
<path d="M273.337 246.96H221.174C221.174 246.96 206.989 354.031 211.107 381.486C225.292 398.873 242.222 413.973 260.525 426.785C301.249 432.734 408.321 428.616 408.321 428.616V412.601C408.321 412.601 313.603 407.567 278.828 387.892C244.052 368.216 273.337 246.96 273.337 246.96Z" fill="#EF9095"/>
<path d="M377.663 417.176H535.526L566.64 327.035C568.013 323.374 565.268 320.171 561.607 320.171H416.099C413.354 320.171 410.608 322.001 409.693 324.747L377.663 417.176Z" fill="#C8C6C4"/>
<path d="M356.614 428.616H529.576C532.779 428.616 535.524 425.87 535.524 422.667C535.524 419.464 532.779 416.719 529.576 416.719H356.614C353.411 416.719 350.665 419.464 350.665 422.667C350.665 426.328 353.411 428.616 356.614 428.616Z" fill="#BAB9B8"/>
<path d="M272.878 181.984L316.805 198.915L336.938 165.969C336.938 165.969 312.687 143.091 302.62 135.77C295.299 162.309 272.878 181.984 272.878 181.984Z" fill="url(#paint2_linear)"/>
<path d="M352.953 125.245C356.156 130.736 362.562 142.633 364.392 145.836C365.765 148.581 357.986 154.53 352.038 153.615C338.768 150.869 338.768 130.736 352.953 125.245Z" fill="#BF8F68"/>
<path d="M301.249 99.1638C292.555 133.024 312.688 167.8 337.397 173.29C362.106 178.781 389.103 155.445 398.254 121.127C407.405 86.8094 393.678 58.4399 368.969 52.949C344.261 47.4582 309.943 65.3035 301.249 99.1638Z" fill="#A26E44"/>
<path d="M359.542 112.181L346.278 152.611L360.802 157.376C365.12 158.792 369.811 156.418 371.228 152.1L381.916 119.521L359.542 112.181Z" fill="url(#paint3_radial)"/>
<path d="M348.983 144.368C349.047 144.172 350.344 142.206 351.844 141.611C353.539 141.081 356.67 140.151 357.701 137.011C358.795 133.674 354.793 129.97 355.492 125.852L356.13 122.583C353.597 125.665 351.723 130.05 350.377 135.478C349.933 138.158 349.038 142.212 348.983 144.368Z" fill="#A26E44"/>
<path d="M373.037 139.203C375.266 139.707 377.761 137.072 378.609 133.318C379.457 129.564 378.338 126.112 376.109 125.609C373.88 125.105 371.386 127.74 370.537 131.494C369.689 135.248 370.808 138.699 373.037 139.203Z" fill="#0F1735"/>
<path d="M330.851 129.434C333.08 129.938 335.575 127.303 336.423 123.549C337.272 119.795 336.153 116.343 333.924 115.84C331.695 115.336 329.2 117.971 328.352 121.725C327.503 125.479 328.623 128.93 330.851 129.434Z" fill="#0F1735"/>
<path d="M336.173 151.846C336.25 153.653 336.725 155.1 337.629 156.52C338.505 157.91 339.778 159.118 341.256 159.928C342.728 160.733 344.37 161.196 345.949 161.225C347.533 161.301 349.042 160.909 350.395 160.28C351.289 159.864 351.677 158.803 351.262 157.909C351.053 157.459 350.68 157.137 350.247 156.982L350.045 156.91C348.823 156.475 347.738 156.159 346.766 155.822C345.777 155.518 344.952 155.102 344.14 154.718C343.339 154.301 342.64 153.761 341.906 153.139C341.205 152.54 340.442 151.662 339.804 150.987L339.346 150.503C338.648 149.766 337.484 149.734 336.747 150.433C336.346 150.812 336.154 151.336 336.173 151.846Z" fill="#E3646A" fill-opacity="0.5"/>
<path d="M406.948 72.167C406.948 72.167 396.881 94.1305 368.512 98.7062C327.788 106.027 303.079 102.367 302.622 102.824C271.507 104.655 284.319 75.8276 317.721 47.4581C352.497 18.1735 406.948 72.167 406.948 72.167Z" fill="#594539"/>
<path d="M310.857 132.567L293.469 128.906C286.148 127.533 281.572 120.212 283.402 112.433C285.233 105.112 293.011 100.537 300.333 101.909L317.72 105.57L310.857 132.567Z" fill="#A26E44"/>
<path fill-rule="evenodd" clip-rule="evenodd" d="M295.757 125.022C290.579 125.022 286.382 129.219 286.382 134.397C286.382 139.574 290.579 143.772 295.757 143.772C300.935 143.772 305.132 139.574 305.132 134.397C305.132 129.219 300.935 125.022 295.757 125.022ZM284.084 134.397C284.084 127.95 289.31 122.723 295.757 122.723C302.204 122.723 307.43 127.95 307.43 134.397C307.43 140.844 302.204 146.07 295.757 146.07C289.31 146.07 284.084 140.844 284.084 134.397Z" fill="#E0DEDC"/>
<path opacity="0.9" d="M503.631 241.987C502.589 240.945 501.894 239.554 501.198 238.512C500.503 237.122 500.503 235.731 500.503 234.341C500.503 232.951 500.851 231.213 501.546 229.823C502.241 228.433 502.936 227.042 504.326 226C505.369 224.957 506.759 224.262 508.15 223.914C509.54 223.567 510.93 223.219 512.32 223.219C516.839 223.567 520.662 226.347 522.4 230.518C523.442 233.298 523.442 236.426 522.052 239.207C521.009 241.987 518.576 244.073 515.796 245.115C513.015 246.158 509.887 246.158 507.107 244.768C505.717 244.073 504.326 243.03 503.631 241.987ZM516.491 200.975L537.692 150.231C539.778 145.365 545.339 142.933 550.204 145.365L553.333 146.756C558.198 148.841 560.284 154.75 557.851 159.615L533.522 208.969C531.089 213.487 525.875 215.573 521.009 213.487C516.839 211.054 514.753 205.841 516.491 200.975Z" fill="#03DAC6"/>
<path d="M478.955 221.829C477.912 221.134 476.522 220.091 475.827 218.701C475.132 217.658 474.437 216.268 474.089 214.878C473.742 213.487 473.742 211.75 474.089 210.359C474.437 208.969 474.784 207.231 475.827 206.189C476.522 205.146 477.912 204.103 478.955 203.061C479.998 202.365 481.388 201.67 482.778 201.323C487.297 200.28 491.815 202.365 494.248 205.841C495.986 208.274 496.681 211.402 495.986 214.53C495.638 217.658 493.9 220.091 491.12 221.829C488.687 223.567 485.559 224.262 482.778 223.567C481.736 223.219 480.345 222.871 478.955 221.829ZM482.083 179.079L490.425 124.859C491.12 119.646 496.333 116.17 501.547 116.865L505.022 117.561C510.236 118.603 513.711 123.817 512.669 129.03L500.851 182.902C499.809 187.768 494.943 191.243 489.73 190.201C484.516 188.811 481.041 183.945 482.083 179.079Z" fill="#C6E8ED"/>
</g>
<defs>
<linearGradient id="paint0_linear" x1="255.018" y1="250.46" x2="341.247" y2="110.528" gradientUnits="userSpaceOnUse">
<stop stop-color="#3A312E"/>
<stop offset="0.5934" stop-color="#594539"/>
</linearGradient>
<radialGradient id="paint1_radial" cx="0" cy="0" r="1" gradientUnits="userSpaceOnUse" gradientTransform="translate(338.115 408.662) scale(150.039)">
<stop offset="0.0347478" stop-color="#E3646A"/>
<stop offset="0.7499" stop-color="#EE8F94"/>
</radialGradient>
<linearGradient id="paint2_linear" x1="343.916" y1="151.238" x2="285.737" y2="178.71" gradientUnits="userSpaceOnUse">
<stop stop-color="#724E31"/>
<stop offset="0.5934" stop-color="#A26E44"/>
</linearGradient>
<radialGradient id="paint3_radial" cx="0" cy="0" r="1" gradientUnits="userSpaceOnUse" gradientTransform="translate(352.228 135.354) rotate(18.1625) scale(14.8214)">
<stop stop-color="#7B5133"/>
<stop offset="1" stop-color="#A26E44"/>
</radialGradient>
<clipPath id="clip0">
<rect width="760" height="428" fill="white"/>
</clipPath>
</defs>
</svg>
