<svg width="760" height="428" viewBox="0 0 760 428" fill="none" xmlns="http://www.w3.org/2000/svg">
<g clip-path="url(#clip0)">
<rect width="760" height="428" fill="#ECF0F1"/>
<path d="M638.058 160.448H135.437V181.405H638.058V160.448Z" fill="#E5E3E1"/>
<path d="M638.058 194.876H135.437V215.833H638.058V194.876Z" fill="#E5E3E1"/>
<path d="M638.058 229.304H135.437V250.261H638.058V229.304Z" fill="#E5E3E1"/>
<path d="M638.058 263.733H135.437V284.689H638.058V263.733Z" fill="#E5E3E1"/>
<path d="M638.058 297.038H135.437V317.995H638.058V297.038Z" fill="#E5E3E1"/>
<path d="M665.044 331.092H109.95V368.514H665.044V331.092Z" fill="#E5E3E1"/>
<path d="M188.285 162.694H169.545V349.055H188.285V162.694Z" fill="#E5E3E1"/>
<path d="M172.918 333.337H154.178V519.698H172.918V333.337Z" fill="#E5E3E1"/>
<path d="M624.19 333.337H605.45V519.698H624.19V333.337Z" fill="#E5E3E1"/>
<path d="M608.822 162.694H590.082V349.055H608.822V162.694Z" fill="#E5E3E1"/>
<path d="M281.052 352.236L268.683 339.886C268.683 339.886 247.694 346.248 246.194 346.622C245.07 346.997 243.571 346.622 242.446 346.248C236.824 344.003 235.325 348.119 231.577 346.248C225.955 343.629 223.706 349.616 226.704 352.61C229.703 355.604 242.821 368.327 242.821 368.327C243.946 369.45 245.07 369.824 246.194 369.824C247.694 369.824 248.818 369.45 249.568 368.327L281.052 352.236Z" fill="#BD8D68"/>
<path d="M241.884 367.392C243.008 368.14 244.507 370.011 246.381 370.385C248.256 370.76 249.005 370.759 251.254 368.888C253.503 367.017 257.251 364.024 257.251 364.024C257.251 364.024 254.627 361.03 252.378 358.784C250.13 356.539 253.128 352.423 249.005 348.681L246.381 346.061C245.632 346.061 241.509 346.061 237.761 344.564C236.636 344.19 235.512 343.067 234.013 342.693C232.514 341.945 228.391 342.319 228.765 347.184C229.14 352.048 238.51 364.398 238.51 364.398L241.884 367.392Z" fill="#33312D"/>
<path d="M222.768 349.055L240.759 366.643C240.759 366.643 243.008 368.888 244.507 367.392C246.007 365.895 247.131 362.901 247.506 359.533C247.881 356.165 245.632 353.171 240.759 348.306C235.887 343.441 233.263 341.945 229.14 341.945C225.017 341.945 222.394 344.564 221.644 345.313C220.52 346.809 222.019 348.306 222.768 349.055Z" fill="#33312D"/>
<path d="M493.758 172.423C482.888 164.939 471.644 158.577 461.524 155.209C434.538 146.228 417.671 141.363 403.803 135.75C389.935 130.511 357.702 125.272 357.702 125.272C357.702 125.272 430.04 66.8936 495.632 121.53C506.127 130.137 514.747 138.744 521.869 147.351L493.758 172.423Z" fill="url(#paint0_linear)"/>
<path d="M508 123.026L519.62 144.357L487.011 170.178L467.146 157.829C467.146 157.829 484.013 140.615 492.258 132.382C500.504 124.149 508 123.026 508 123.026Z" fill="#B8E0E2"/>
<path d="M521.494 147.351C521.494 147.351 513.623 135.376 505.377 135.376C496.756 135.376 491.884 141.737 486.637 148.099C481.389 154.835 473.518 160.448 473.518 160.448C473.518 160.448 469.77 163.816 467.521 170.552C465.647 176.914 461.524 190.386 460.4 193.38C459.275 196.373 457.776 197.496 457.776 199.741C457.776 201.612 457.776 209.471 457.776 209.471C457.776 209.471 461.524 210.219 462.649 204.606C463.023 213.587 462.274 214.336 464.148 214.336C464.148 218.452 463.398 223.317 466.022 223.317C468.646 223.317 468.646 221.82 469.77 221.82C470.894 221.82 472.019 225.188 475.017 225.188C478.016 225.188 478.391 223.317 478.391 221.446C479.89 222.194 483.638 222.194 483.638 219.575C483.638 216.955 484.013 210.968 484.013 210.968C484.013 210.968 484.013 208.723 486.262 206.477C488.511 204.232 492.259 198.993 491.884 187.392C491.884 175.791 491.509 174.669 491.509 174.669C491.509 174.669 490.759 173.546 494.882 173.92C498.631 174.294 509.875 176.54 516.996 168.681C524.118 160.823 522.618 149.596 522.618 149.596C522.618 149.596 522.618 148.473 521.494 147.351Z" fill="#DEB993"/>
<path d="M269.62 229.305C275.242 217.33 281.613 206.103 288.36 198.245C307.101 176.914 308.225 160.448 317.22 148.848C326.216 137.247 347.205 105.064 347.205 105.064C347.205 105.064 273.368 88.9726 239.635 179.159C234.762 191.883 230.264 209.845 234.387 223.317L258.75 226.685L269.62 229.305Z" fill="url(#paint1_linear)"/>
<path d="M378.316 203.109C422.408 203.109 458.151 180.156 458.151 151.841C458.151 123.527 422.408 100.573 378.316 100.573C334.225 100.573 298.482 123.527 298.482 151.841C298.482 180.156 334.225 203.109 378.316 203.109Z" fill="#4AA7A8"/>
<path d="M376.067 332.589C430.922 332.589 475.392 288.19 475.392 233.421C475.392 178.652 430.922 134.253 376.067 134.253C321.211 134.253 276.742 178.652 276.742 233.421C276.742 288.19 321.211 332.589 376.067 332.589Z" fill="#4AA7A8"/>
<path d="M457.026 143.609L472.019 206.477H376.067V149.596L457.026 143.609Z" fill="#4AA7A8"/>
<path d="M295.483 143.609L280.49 206.477H376.067V149.596L295.483 143.609Z" fill="#4AA7A8"/>
<path d="M474.267 216.956C474.267 216.956 493.008 285.812 463.023 352.049C452.903 352.049 382.439 352.049 382.439 352.049L376.067 327.724V252.506L474.267 216.956Z" fill="#4AA7A8"/>
<path d="M278.242 216.956C278.242 216.956 259.501 285.812 289.486 352.049C299.606 352.049 370.07 352.049 370.07 352.049L376.442 327.724V252.506L278.242 216.956Z" fill="#4AA7A8"/>
<path d="M274.118 299.284C274.118 299.284 272.619 317.621 274.868 336.331C277.116 354.668 290.61 368.889 305.977 396.581C305.977 396.207 383.563 399.574 383.563 399.574C383.563 399.574 382.813 387.225 378.315 369.637C402.303 370.76 410.549 370.76 423.667 370.76C436.786 370.76 458.899 370.385 473.142 340.448C487.76 310.136 487.385 306.02 485.511 274.96C483.637 243.899 445.406 222.943 415.796 239.783C393.682 252.132 371.569 260.739 341.209 282.07C317.971 298.161 274.118 299.284 274.118 299.284Z" fill="url(#paint2_radial)"/>
<path d="M300.354 366.643C299.979 392.464 329.589 480.406 374.941 569.47L405.301 562.734C405.301 562.734 382.812 387.973 376.815 362.152C371.568 339.325 359.199 328.473 337.835 329.221C316.096 330.344 300.729 340.822 300.354 366.643Z" fill="url(#paint3_radial)"/>
<path d="M431.163 233.795C405.302 237.912 338.96 277.205 258.751 336.331L270.37 365.146C270.37 365.146 423.667 318.743 448.405 308.265C469.769 299.284 478.764 285.438 474.641 264.481C469.769 243.525 456.651 230.053 431.163 233.795Z" fill="#605D5A"/>
<path d="M361.074 212.839L334.463 212.091C332.214 212.091 330.34 210.22 330.34 207.6L331.839 151.841C331.839 149.596 333.713 147.725 336.337 147.725L362.948 148.473C365.197 148.473 367.071 150.345 367.071 152.964L365.572 208.723C365.572 211.342 363.323 213.213 361.074 212.839Z" fill="#33312D"/>
<path d="M361.448 208.349L334.837 207.226L336.336 152.964L362.948 153.713L361.448 208.349Z" fill="#E0DFDD"/>
<path d="M266.248 194.877C266.248 194.877 258.752 193.006 250.881 195.251C243.01 197.496 240.011 198.993 238.512 201.987C237.013 204.981 234.389 214.336 233.64 216.956C232.89 219.575 234.014 223.317 235.514 225.937C237.013 228.931 239.637 233.795 239.637 233.795C239.637 233.795 240.011 236.789 248.257 235.667C256.128 234.544 270.371 233.047 280.491 228.556C290.611 224.066 309.351 211.717 309.351 211.717C309.351 211.717 311.225 208.723 317.222 210.22C323.219 211.717 335.213 212.839 338.212 212.839C341.21 212.839 344.209 213.213 347.582 209.845C350.955 206.477 351.705 204.981 349.081 204.232C353.954 201.238 355.828 200.116 355.828 200.116C355.828 200.116 359.201 198.245 358.451 196.748C357.702 194.877 356.952 195.625 356.952 195.625C356.952 195.625 359.576 193.006 358.826 191.134C358.077 189.638 356.577 188.141 348.332 189.263C339.711 190.386 332.964 192.257 332.964 192.257C332.964 192.257 331.84 192.631 331.09 191.134C330.341 189.638 332.59 186.27 338.212 185.147C343.834 184.024 350.206 182.902 349.456 179.534C348.706 175.792 342.709 176.54 338.586 177.288C334.838 178.037 332.59 178.785 332.59 178.785C332.59 178.785 330.715 179.908 331.09 178.785C331.465 177.663 331.84 175.417 331.84 175.417C331.84 175.417 324.344 176.54 323.219 177.663C321.72 178.411 319.846 181.779 319.096 183.65C318.347 185.521 319.471 186.644 316.473 187.767C313.474 188.889 309.351 190.76 303.729 191.883C298.107 192.631 285.363 194.128 280.866 194.877C276.368 195.625 271.87 195.999 266.248 194.877Z" fill="#DEB993"/>
<path d="M265.124 233.047C258.752 234.544 252.38 235.292 247.882 235.667C246.758 235.667 246.008 236.041 244.884 236.041" fill="#EE8F94"/>
<path d="M266.248 194.877C266.248 194.877 265.873 194.877 266.248 194.877C265.873 194.877 258.751 192.631 250.506 195.251C248.257 195.999 246.757 196.374 245.258 196.748C241.135 198.245 239.261 199.741 238.137 201.613C236.638 204.606 234.014 213.962 233.264 216.581C232.515 219.201 233.639 222.943 235.138 225.563C236.638 228.556 239.261 233.421 239.261 233.421C239.261 233.421 239.636 235.667 244.883 235.292C245.633 235.292 246.757 235.292 247.882 234.918C252.38 234.17 258.751 233.421 265.123 232.299L270.37 230.053L266.248 194.877Z" fill="#4AA7A8"/>
<path d="M253.504 238.286L276.368 230.427L269.996 195.251L250.506 193.38L253.504 238.286Z" fill="#B8E0E2"/>
<path d="M396.681 114.045L369.695 127.143L343.084 114.045V62.4031H396.681V114.045Z" fill="#DEB993"/>
<path d="M399.679 69.1392C394.806 69.1392 391.058 65.3971 391.058 60.5322V59.7838C391.058 54.9189 394.806 51.1767 399.679 51.1767C404.552 51.1767 408.3 54.9189 408.3 59.7838V60.5322C408.3 65.3971 404.552 69.1392 399.679 69.1392Z" fill="#DEB993"/>
<path d="M339.71 69.1392C334.837 69.1392 331.089 65.397 331.089 60.5321V59.7837C331.089 54.9188 334.837 51.1766 339.71 51.1766C344.582 51.1766 348.33 54.9188 348.33 59.7837V60.5321C348.33 65.397 344.582 69.1392 339.71 69.1392Z" fill="#DEB993"/>
<path d="M386.935 82.9852H352.453C344.582 82.9852 338.21 76.6235 338.21 68.7649V44.0665C338.21 32.0915 347.955 22.736 359.574 22.736H379.439C391.433 22.736 400.803 32.4657 400.803 44.0665V68.7649C401.178 76.6235 394.806 82.9852 386.935 82.9852Z" fill="#BD8D68"/>
<path d="M382.063 97.5798H357.326C344.957 97.5798 335.212 87.4759 335.212 75.5009C335.212 63.1517 345.332 53.422 357.326 53.422H382.063C394.432 53.422 404.177 63.5259 404.177 75.5009C404.177 87.8501 394.432 97.5798 382.063 97.5798Z" fill="#BD8D68"/>
<path d="M365.946 74.3781C367.82 74.0039 369.319 74.0039 370.818 73.6297C372.318 73.2555 373.817 72.8812 375.691 72.507C376.066 72.507 376.44 72.507 376.44 72.8812V73.2555C375.691 75.5008 373.442 76.6234 371.568 76.9976C369.319 77.3718 367.07 76.9976 365.571 75.1265C365.196 74.7523 365.196 74.3781 365.571 74.3781C365.571 74.3781 365.571 74.3781 365.946 74.3781Z" fill="#9B643D"/>
<path d="M384.312 67.6422H350.579C346.831 67.6422 343.457 64.2742 343.457 60.532V46.6859C343.457 37.3305 350.953 29.8461 360.324 29.8461H379.064C388.434 29.8461 395.931 37.3305 395.931 46.6859V55.6672C396.305 62.0289 391.058 67.6422 384.312 67.6422Z" fill="#DEB993"/>
<path d="M401.179 44.0664V45.9375C392.933 45.5633 386.187 38.8273 386.187 30.5945C386.187 28.3492 386.562 26.1039 387.311 24.2328C395.557 27.2265 401.179 35.0851 401.179 44.0664Z" fill="#BD8D68"/>
<path d="M370.069 41.4468V79.2429H352.453L352.828 41.0726L370.069 41.4468Z" fill="url(#paint4_radial)"/>
<path fill-rule="evenodd" clip-rule="evenodd" d="M357.325 47.7936C352.346 47.7936 348.313 51.823 348.313 56.7898C348.313 61.7567 352.346 65.7861 357.325 65.7861C362.304 65.7861 366.338 61.7567 366.338 56.7898C366.338 51.823 362.304 47.7936 357.325 47.7936ZM346.098 56.7898C346.098 50.5962 351.126 45.5782 357.325 45.5782C363.524 45.5782 368.553 50.5962 368.553 56.7898C368.553 62.9835 363.524 68.0014 357.325 68.0014C351.126 68.0014 346.098 62.9835 346.098 56.7898Z" fill="#E1646A"/>
<path fill-rule="evenodd" clip-rule="evenodd" d="M372.693 55.6522H367.445V53.4368H372.693V55.6522Z" fill="#E1646A"/>
<path d="M376.441 62.029C376.441 62.029 375.317 54.9188 370.444 56.0415C368.57 56.4157 364.822 57.9126 364.072 61.2805C363.698 65.0227 366.321 67.268 369.695 67.268C373.443 67.6423 376.441 65.397 376.441 62.029Z" fill="#DEB993"/>
<path d="M381.323 63.9008C382.358 63.8984 383.193 62.3885 383.189 60.5285C383.184 58.6684 382.342 57.1624 381.307 57.1648C380.272 57.1672 379.436 58.6771 379.441 60.5372C379.445 62.3972 380.287 63.9032 381.323 63.9008Z" fill="#33312D"/>
<path d="M358.084 63.9007C359.119 63.8983 359.954 62.3884 359.95 60.5283C359.946 58.6683 359.103 57.1623 358.068 57.1647C357.033 57.1671 356.197 58.677 356.202 60.537C356.206 62.3971 357.049 63.9031 358.084 63.9007Z" fill="#33312D"/>
<path fill-rule="evenodd" clip-rule="evenodd" d="M382.063 47.7937C377.084 47.7937 373.051 51.8231 373.051 56.7899C373.051 61.7567 377.084 65.7861 382.063 65.7861C387.042 65.7861 391.075 61.7567 391.075 56.7899C391.075 51.8231 387.042 47.7937 382.063 47.7937ZM370.836 56.7899C370.836 50.5963 375.864 45.5783 382.063 45.5783C388.262 45.5783 393.291 50.5963 393.291 56.7899C393.291 62.9836 388.262 68.0015 382.063 68.0015C375.864 68.0015 370.836 62.9835 370.836 56.7899Z" fill="#E1646A"/>
<path d="M346.456 16C346.456 16 347.581 21.2391 350.205 21.9875C352.828 22.7359 380.564 22.7359 380.564 22.7359L394.432 34.7109H349.08C349.08 34.7109 340.46 34.7109 339.71 27.6008C338.96 20.8648 346.456 16 346.456 16Z" fill="#BD8D68"/>
<path fill-rule="evenodd" clip-rule="evenodd" d="M346.831 57.5233H338.585V55.3079H346.831V57.5233Z" fill="#E1646A"/>
<path fill-rule="evenodd" clip-rule="evenodd" d="M401.178 57.5233H391.808V55.3079H401.178V57.5233Z" fill="#E1646A"/>
<path d="M396.681 101.322L374.567 106.561L370.069 127.143H404.552L396.681 101.322Z" fill="#4AA7A8"/>
<path d="M379.439 121.904L374.567 106.561L401.553 99.0766C401.553 99.0766 401.553 103.567 408.3 106.187L379.439 121.904Z" fill="#B8E0E2"/>
<path d="M343.083 101.322L364.822 106.561L369.695 127.143H335.212L343.083 101.322Z" fill="#4AA7A8"/>
<path d="M359.949 121.905L364.822 106.562L337.835 99.0775C337.835 99.0775 338.585 103.568 331.089 106.188L359.949 121.905Z" fill="#B8E0E2"/>
</g>
<defs>
<linearGradient id="paint0_linear" x1="436.888" y1="161.639" x2="441.345" y2="124.332" gradientUnits="userSpaceOnUse">
<stop stop-color="#048084"/>
<stop offset="1" stop-color="#4AA7A8"/>
</linearGradient>
<linearGradient id="paint1_linear" x1="296.718" y1="229.988" x2="289.677" y2="155.705" gradientUnits="userSpaceOnUse">
<stop stop-color="#048084"/>
<stop offset="1" stop-color="#4AA7A8"/>
</linearGradient>
<radialGradient id="paint2_radial" cx="0" cy="0" r="1" gradientUnits="userSpaceOnUse" gradientTransform="translate(379.789 316.55) scale(95.4315 95.281)">
<stop stop-color="#4F4D4A"/>
<stop offset="1" stop-color="#605D5A"/>
</radialGradient>
<radialGradient id="paint3_radial" cx="0" cy="0" r="1" gradientUnits="userSpaceOnUse" gradientTransform="translate(332.104 381.416) rotate(5.26458) scale(96.5476 96.3979)">
<stop stop-color="#4F4D4A"/>
<stop offset="1" stop-color="#605D5A"/>
</radialGradient>
<radialGradient id="paint4_radial" cx="0" cy="0" r="1" gradientUnits="userSpaceOnUse" gradientTransform="translate(369.16 61.8502) rotate(-178.904) scale(13.6087 10.2482)">
<stop stop-color="#99643D"/>
<stop offset="1" stop-color="#BD8D68" stop-opacity="0"/>
</radialGradient>
<clipPath id="clip0">
<rect width="760" height="428" fill="white"/>
</clipPath>
</defs>
</svg>
