<svg width="760" height="428" viewBox="0 0 760 428" fill="none" xmlns="http://www.w3.org/2000/svg">
<g clip-path="url(#clip0)">
<rect width="760" height="428" fill="#ECF0F1"/>
<path d="M302.864 350.021C302.864 350.021 337.186 378.135 382.854 340.082C428.521 302.028 480.429 231.884 482.699 220.809" stroke="#8B8CC4" stroke-width="1.5" stroke-miterlimit="10"/>
<path d="M558.716 158.514C558.716 158.23 558.149 156.81 557.865 156.81L553.894 154.822C553.611 154.538 553.043 154.538 552.476 154.538C551.909 154.822 551.625 155.106 551.341 155.39L536.024 171.293C535.741 171.577 535.457 172.145 535.457 172.429C535.457 172.713 536.308 174.133 536.592 174.417L539.995 175.837C540.279 176.121 540.563 175.837 541.13 175.837C541.697 175.553 541.981 175.553 542.265 174.985L557.865 159.65C558.149 159.366 558.716 158.798 558.716 158.514Z" fill="#827F7D"/>
<path d="M558.716 158.798C558.716 158.514 558.717 158.23 558.433 158.23L554.745 156.242C554.462 156.242 554.178 156.242 553.894 156.242C553.611 156.526 553.044 156.81 552.76 157.094L537.159 172.713C536.875 172.997 536.592 173.281 536.308 173.849C536.308 174.133 536.308 174.417 536.308 174.417L539.996 176.405C540.279 176.405 540.563 176.405 540.847 176.405C541.13 176.121 541.697 175.837 541.981 175.553L557.582 159.934C558.433 159.366 558.433 159.082 558.716 158.798Z" fill="#595553"/>
<path d="M555.029 159.65C555.313 159.65 555.597 159.366 555.88 159.082C556.164 158.798 556.447 158.514 556.447 158.23C556.447 157.946 556.447 157.946 556.447 157.662C556.447 157.378 556.164 157.662 555.88 157.662C555.597 157.946 555.313 157.946 555.029 158.23C554.746 158.514 554.462 158.798 554.462 159.082C554.462 159.366 554.462 159.65 554.462 159.65C554.462 159.65 554.746 159.65 555.029 159.65Z" fill="#94918D"/>
<path d="M544.534 169.873C544.25 170.441 546.519 170.157 546.803 171.577C547.087 172.997 542.265 180.097 539.144 181.517C536.024 182.937 532.053 182.085 528.649 181.801L524.962 180.097L544.534 169.873Z" fill="#E0BB95"/>
<path d="M550.491 162.774C548.789 163.342 543.683 165.614 540.28 167.034C541.414 166.182 542.549 165.614 542.833 165.33C543.967 164.478 543.4 163.058 541.131 163.626C539.145 164.478 531.487 167.034 528.934 168.17C526.381 169.306 525.246 170.442 522.693 173.849L519.573 178.393L525.53 180.665L529.217 178.109L534.89 180.097L543.684 170.442C543.684 170.442 551.342 165.614 552.193 164.762C553.044 163.91 552.477 162.206 550.491 162.774Z" fill="#E0BB95"/>
<path d="M423.983 227.238C433.059 207.643 445.54 151.415 445.54 151.415C449.795 132.388 465.112 118.756 484.967 121.312C505.107 123.584 516.736 140.623 516.169 160.502C516.169 160.502 516.736 217.583 520.707 238.881C528.366 279.207 518.722 319.817 518.722 319.817L406.964 306.469C406.68 306.469 406.964 264.724 423.983 227.238Z" fill="url(#paint0_linear)"/>
<path d="M425.968 348.215C430.507 340.263 441.285 337.708 448.376 341.967C456.602 346.795 458.021 358.438 451.213 366.106C430.79 389.961 406.113 416.371 380.017 443.917C378.315 445.337 377.18 446.757 375.478 445.621C373.493 444.485 373.776 442.781 374.911 440.51C374.911 440.794 400.156 391.948 425.968 348.215Z" fill="#605D5A"/>
<path d="M429.94 237.177C426.536 254.784 421.997 316.125 421.146 353.611C401.007 382.861 385.69 406.999 369.522 432.842C385.974 441.361 385.974 441.645 396.185 446.757C404.695 435.682 420.863 415.803 431.074 402.456C444.689 384.849 449.511 379.169 460.857 364.686C467.098 341.683 475.04 304.765 477.025 284.319C479.295 262.452 481.28 245.413 481.564 240.585C483.833 215.879 437.314 197.136 429.94 237.177Z" fill="#8B8CC4"/>
<path d="M494.612 359.858C490.357 351.623 493.761 341.399 501.136 337.424C509.362 332.88 520.14 337.992 523.261 347.931C532.621 378.033 542.265 412.679 552.193 449.313C552.477 451.585 553.044 453.005 551.342 454.141C549.356 455.277 547.938 454.141 546.804 452.153C546.52 451.869 518.155 404.728 494.612 359.858Z" fill="#605D5A"/>
<path d="M553.327 416.087C540.279 382.577 515.034 321.804 500.568 291.134C490.64 277.503 446.675 297.666 464.828 318.964C479.578 348.215 518.438 414.951 536.024 449.597C547.37 445.905 550.207 443.917 563.255 439.373C561.837 435.682 555.029 420.063 553.327 416.087Z" fill="url(#paint1_radial)"/>
<path d="M476.458 295.394C495.727 295.394 511.347 276.323 511.347 252.797C511.347 229.271 495.727 210.199 476.458 210.199C457.189 210.199 441.569 229.271 441.569 252.797C441.569 276.323 457.189 295.394 476.458 295.394Z" fill="#8B8CC4"/>
<path d="M515.885 163.91L448.944 155.958L429.939 284.887L508.51 295.11L515.885 163.91Z" fill="#605D5A"/>
<path d="M515.909 163.913C518.453 142.737 505.512 123.763 487.004 121.535C468.496 119.306 451.431 134.667 448.887 155.843C446.343 177.02 459.284 195.993 477.792 198.222C496.3 200.45 513.366 185.09 515.909 163.913Z" fill="#605D5A"/>
<path d="M427.386 227.806C436.463 208.211 448.944 151.982 448.944 151.982C453.198 132.955 468.515 119.324 488.371 121.88C496.313 122.732 502.837 126.14 507.659 130.684L485.251 316.125L410.083 307.037C410.083 307.037 410.367 265.292 427.386 227.806Z" fill="url(#paint2_linear)"/>
<path d="M533.448 104.035C541.193 87.4043 535.042 68.1195 519.709 60.9612C504.375 53.8029 485.666 61.4819 477.92 78.1127C470.174 94.7435 476.326 114.028 491.659 121.187C506.993 128.345 525.702 120.666 533.448 104.035Z" fill="#8B8CC4"/>
<path d="M468.232 124.436C477.876 117.621 474.756 95.1859 474.756 95.1859L519.856 117.905C519.856 117.905 497.732 126.992 505.107 143.747C505.107 143.747 500.852 145.451 494.044 142.327C486.953 139.203 484.116 135.228 480.713 131.82C474.189 125.004 468.232 124.436 468.232 124.436Z" fill="url(#paint3_radial)"/>
<path d="M528.649 117.904C528.933 117.053 529.784 116.485 530.635 116.485C532.62 116.485 534.89 115.917 534.322 111.941C534.039 109.953 532.62 108.249 536.024 102.001L529.5 98.5936L520.707 118.756L525.813 121.312L528.649 117.904Z" fill="#E0BB95"/>
<path d="M492.91 117.053L512.199 126.14C517.872 128.696 524.679 126.424 527.232 120.744L538.294 97.1737C540.847 91.778 538.578 85.5304 533.189 83.2585L501.136 68.2074L486.386 99.7296C483.55 106.261 486.386 113.929 492.91 117.053Z" fill="#E0BB95"/>
<path d="M520.707 115.065C520.991 115.349 520.991 115.917 521.275 116.201C521.558 116.485 521.558 117.053 521.842 117.336C522.126 117.62 522.126 117.904 522.409 118.188C522.693 118.472 522.977 118.756 523.26 119.04L523.544 119.324C523.828 119.608 523.828 120.176 523.544 120.744C523.544 120.744 523.26 121.028 522.977 121.028C522.409 121.312 521.558 121.028 520.707 120.744C520.14 120.46 519.289 119.892 519.006 119.04C518.722 118.472 518.438 117.62 518.438 117.053C518.438 116.485 518.438 115.917 518.722 115.065C519.006 114.497 519.573 114.213 519.856 114.497C520.424 114.497 520.424 114.497 520.707 115.065Z" fill="#BF8F68"/>
<path d="M527.515 105.125C526.664 106.829 526.664 108.533 527.515 108.817C528.366 109.101 529.501 108.249 530.352 106.545C531.203 104.841 531.203 103.137 530.352 102.853C529.501 102.569 528.083 103.421 527.515 105.125Z" fill="#484643"/>
<path d="M546.52 80.7027C546.52 80.7027 550.207 89.7902 530.352 92.346C507.092 95.1859 498.866 117.621 510.212 125.288L491.775 117.053C484.117 113.645 480.713 104.841 483.833 97.4577C489.222 84.9625 495.179 59.404 504.823 58.268C524.395 56.2802 546.52 80.7027 546.52 80.7027Z" fill="#8B8CC4"/>
<path d="M458.588 299.938L475.323 301.926C477.876 302.21 480.429 300.222 480.713 297.666L483.549 273.527L457.17 270.403L454.333 294.542C454.05 297.098 455.752 299.654 458.588 299.938Z" fill="#F7B548"/>
<path d="M475.607 120.46C488.088 118.472 494.896 125.856 491.492 138.067C478.727 140.055 472.204 132.672 475.607 120.46Z" fill="url(#paint4_radial)"/>
<path d="M505.39 153.686C508.794 141.475 502.27 134.091 489.506 136.079C486.102 148.291 492.626 155.674 505.39 153.686Z" fill="url(#paint5_radial)"/>
<path d="M485.251 140.623L486.386 141.759C487.237 142.895 488.939 142.895 489.79 142.043L494.895 137.499C496.03 136.647 496.03 134.943 495.179 134.091L494.044 132.955C493.193 131.82 491.491 131.82 490.641 132.671L485.535 137.215C484.4 138.067 484.4 139.487 485.251 140.623Z" fill="#8B8CC4"/>
<path d="M453.766 192.308L470.501 218.434C470.501 218.434 475.323 224.682 481.28 224.682C487.236 224.682 493.477 220.422 501.135 213.039C508.794 205.655 533.188 184.924 533.188 184.924L521.558 173.849L487.236 197.42L478.16 183.789L453.766 192.308Z" fill="#F7B548"/>
<path d="M317.897 336.958H301.162" stroke="#BF8F68" stroke-width="1.0662" stroke-miterlimit="10" stroke-linecap="round"/>
<path d="M205.572 370.184C215.911 370.184 224.292 361.792 224.292 351.441C224.292 341.089 215.911 332.698 205.572 332.698C195.232 332.698 186.851 341.089 186.851 351.441C186.851 361.792 195.232 370.184 205.572 370.184Z" fill="#FADCBD"/>
<path d="M310.806 403.41L314.777 391.767L310.806 370.752H319.599C323.003 370.752 325.556 373.308 325.556 376.715V390.631C325.556 397.73 319.883 403.41 312.792 403.41H310.806Z" fill="#E0BB95"/>
<path d="M325.839 385.519H293.219V370.752H319.031C323.003 370.752 326.123 373.876 326.123 377.851V385.519H325.839Z" fill="#E0BB95"/>
<path d="M258.047 429.536H247.268L222.591 389.495H249.254L258.047 429.536Z" fill="#E0BB95"/>
<path d="M258.047 429.536H247.268L222.591 389.495H249.254L258.047 429.536Z" fill="url(#paint6_radial)"/>
<path d="M223.158 401.99C219.471 407.102 212.379 407.954 207.841 403.978L195.644 418.461L189.404 409.658L192.808 391.199C193.375 388.643 196.211 387.223 198.481 388.075L209.827 360.528L236.49 383.815L223.158 401.99Z" fill="#E0BB95"/>
<path d="M199.048 410.51L197.63 418.177C196.495 423.573 191.389 426.981 186 426.129L189.404 408.806L199.048 410.51Z" fill="#E0BB95"/>
<path d="M247.269 419.597H254.927C260.316 419.597 264.855 424.141 264.855 429.536H247.269V419.597Z" fill="#E0BB95"/>
<path d="M304.565 370.752H262.018V332.13C262.018 315.091 275.633 301.46 292.652 301.46H304.849V370.752H304.565Z" fill="#E0BB95"/>
<path d="M296.907 337.81C307.246 337.81 315.628 329.418 315.628 319.067C315.628 308.715 307.246 300.324 296.907 300.324C286.568 300.324 278.186 308.715 278.186 319.067C278.186 329.418 286.568 337.81 296.907 337.81Z" fill="#E0BB95"/>
<path d="M315.061 315.659H309.956C308.537 315.659 307.119 314.523 307.119 312.819C307.119 311.399 308.254 309.979 309.956 309.979H315.061C316.48 309.979 317.898 311.115 317.898 312.819C317.614 314.523 316.48 315.659 315.061 315.659Z" fill="#FADCBD"/>
<path d="M290.667 310.263H278.186V303.732C278.186 296.916 283.859 291.236 290.667 291.236V310.263Z" fill="#E0BB95"/>
<path d="M309.672 310.263H297.191V303.732C297.191 296.916 302.864 291.236 309.672 291.236V310.263Z" fill="#E0BB95"/>
<path d="M282.158 391.482H230.25C217.769 391.482 207.558 381.259 207.558 368.764C207.558 356.268 217.769 346.045 230.25 346.045H282.158C294.638 346.045 304.85 356.268 304.85 368.764C304.566 381.259 294.638 391.482 282.158 391.482Z" fill="url(#paint7_radial)"/>
<path d="M323.854 326.45C323.854 327.018 323.854 327.302 323.854 327.87C323.854 328.722 323.57 329.29 323.57 330.142C323.003 332.698 321.585 334.686 319.883 336.674C317.33 339.23 313.926 340.934 309.955 340.934H298.893V324.179H321.301C322.436 324.179 323.57 325.031 323.854 326.166C323.854 325.882 323.854 326.166 323.854 326.45Z" fill="#E0BB95"/>
<path d="M208.409 367.912C217.495 367.912 224.86 360.538 224.86 351.441C224.86 342.344 217.495 334.97 208.409 334.97C199.323 334.97 191.957 342.344 191.957 351.441C191.957 360.538 199.323 367.912 208.409 367.912Z" fill="#E0BB95"/>
<path d="M208.409 367.912C217.495 367.912 224.86 360.538 224.86 351.441C224.86 342.344 217.495 334.97 208.409 334.97C199.323 334.97 191.957 342.344 191.957 351.441C191.957 360.538 199.323 367.912 208.409 367.912Z" fill="url(#paint8_radial)"/>
<path d="M219.755 339.798C219.755 339.798 228.264 351.725 220.889 361.948C214.933 370.184 201.034 369.9 197.914 361.096C194.51 351.725 200.75 346.613 202.736 344.909C202.736 344.909 201.885 349.169 206.423 349.737C209.543 350.021 214.649 344.909 207.558 337.526L219.755 339.798Z" fill="#E0BB95"/>
<path d="M306.551 344.341H290.667C285.278 344.341 281.023 340.082 281.023 334.686C281.023 329.29 285.278 325.031 290.667 325.031H324.138V326.45C323.854 336.674 316.196 344.341 306.551 344.341Z" fill="#FADCBD"/>
<path d="M323.854 326.45C323.854 327.018 323.854 327.302 323.854 327.87C323.854 328.722 323.571 329.29 323.571 330.142L322.72 329.858C320.167 329.006 318.465 326.734 318.465 323.895H321.585C322.72 323.895 323.854 324.747 324.138 325.882C323.854 325.882 323.854 326.166 323.854 326.45Z" fill="#767677"/>
<path d="M297.758 315.659H292.652C291.234 315.659 289.816 314.523 289.816 312.819C289.816 311.399 290.951 309.979 292.652 309.979H297.758C299.176 309.979 300.595 311.115 300.595 312.819C300.595 314.523 299.46 315.659 297.758 315.659Z" fill="#FADCBD"/>
<path d="M295.772 334.118C297.191 334.118 298.609 334.686 299.744 335.254C300.878 335.822 301.729 336.674 302.864 336.958C303.998 337.526 304.849 337.81 305.7 338.094C306.835 338.378 307.686 338.378 308.82 338.094C309.388 338.094 309.955 338.378 309.955 338.946C309.955 339.514 309.671 339.798 309.388 340.082C308.253 340.65 306.835 341.218 305.133 341.218C303.715 341.218 302.296 340.934 300.878 340.366C299.46 339.798 298.325 339.23 297.474 338.662C296.34 338.094 295.489 337.526 294.638 336.674C294.071 336.106 294.071 335.254 294.638 334.686C295.205 334.118 295.489 334.118 295.772 334.118Z" fill="#BF8F68"/>
<path d="M277.335 429.536H266.557L259.465 380.407L284.427 379.555L277.335 429.536Z" fill="#E0BB95"/>
<path d="M266.557 419.597H274.215C279.605 419.597 284.143 424.141 284.143 429.536H266.557V419.597Z" fill="#E0BB95"/>
<path d="M295.489 323.043C296.429 323.043 297.191 321.898 297.191 320.487C297.191 319.075 296.429 317.931 295.489 317.931C294.55 317.931 293.788 319.075 293.788 320.487C293.788 321.898 294.55 323.043 295.489 323.043Z" fill="#594539"/>
<path d="M310.239 323.043C311.179 323.043 311.941 321.898 311.941 320.487C311.941 319.075 311.179 317.931 310.239 317.931C309.299 317.931 308.537 319.075 308.537 320.487C308.537 321.898 309.299 323.043 310.239 323.043Z" fill="#594539"/>
<path d="M261.735 342.07V346.329C261.735 346.329 272.797 352.861 281.874 353.713C290.951 354.565 304.85 351.157 304.85 351.157C304.85 348.317 304.85 347.181 304.85 347.181C304.85 347.181 295.206 351.157 282.441 350.305C269.677 349.453 261.735 342.07 261.735 342.07Z" fill="#8B8CC4"/>
<path d="M205.972 242.221H238.084C291.059 242.221 334.056 199.224 334.056 146.249V131.735C334.056 78.7598 291.059 35.7629 238.084 35.7629H205.972C152.997 35.7629 110 78.5784 110 131.735V146.249C110 199.224 152.997 242.221 205.972 242.221Z" fill="#E1DFDD"/>
<path d="M351.291 119.217C351.291 119.217 351.835 121.394 356.008 119.398C357.641 118.673 360.362 111.416 359.818 110.69C359.274 109.965 357.097 112.323 357.097 112.323C357.097 112.323 359.092 107.425 358.004 106.88C356.915 106.517 354.919 111.053 354.919 111.053C354.919 111.053 354.375 104.885 353.468 105.066C352.38 105.248 352.561 110.69 352.561 110.69C352.561 110.69 350.928 105.792 350.021 105.792C349.114 105.792 350.384 113.774 350.384 113.774C350.384 113.774 345.848 109.965 345.486 111.416C345.123 113.049 350.928 119.217 350.928 119.217" fill="#FADCBD"/>
<path d="M350.929 119.217C350.929 119.217 350.566 167.112 285.254 161.488C285.254 161.488 287.068 161.67 291.967 169.471C296.865 177.272 298.316 200.675 298.316 200.675C298.316 200.675 373.969 194.326 360.363 119.217H350.929Z" fill="#EE8F94"/>
<path d="M325.712 25.059C325.168 22.5191 324.442 21.2491 323.716 21.2491C322.809 21.0677 322.083 22.8819 322.083 26.5103C321.902 28.3246 322.083 30.3202 322.265 32.1344C321.539 31.2273 320.814 30.5016 320.088 29.7759C318.455 28.1431 317.185 27.5989 316.459 28.1431C313.92 30.1388 324.442 48.281 328.252 48.0995C333.694 47.9181 337.686 30.683 336.053 28.8688C334.602 27.236 335.509 23.789 334.057 23.4262C331.155 22.8819 331.155 27.7803 331.517 26.3289C332.243 23.2447 332.062 21.4305 330.973 21.0677C330.066 20.7048 329.159 21.7934 328.252 24.5147C327.708 25.9661 327.345 27.236 326.982 28.6874C326.256 27.5989 326.075 26.3289 325.712 25.059Z" fill="#E0BB95"/>
<path d="M340.951 94.5434C339.318 116.314 317.729 130.102 293.056 134.819C284.71 136.452 276.002 136.996 268.019 136.452C265.479 133.912 243.165 97.6276 242.62 92.9106C258.767 91.0964 270.559 95.9948 288.157 95.2691C293.6 95.0877 298.68 94.362 302.489 93.0921C323.172 86.198 324.079 49.3694 323.897 42.6568L332.424 42.2939C333.331 44.6524 342.584 72.41 340.951 94.5434Z" fill="#E0BB95"/>
<path d="M242.62 92.9107L180.211 96.5391C172.229 96.902 165.516 100.168 160.255 106.154C154.812 112.141 152.091 119.943 151.728 129.558C151.365 139.173 153.905 148.063 158.985 156.045C164.79 161.851 167.693 183.803 167.693 222.083C210.327 233.15 244.979 232.787 271.466 220.994C271.104 211.561 272.192 197.772 275.095 179.63C278.542 158.767 278.723 139.536 275.458 121.757C273.643 112.867 269.652 105.61 263.665 100.168C257.497 94.9063 250.603 92.5478 242.62 92.9107Z" fill="#C3C3E1"/>
<path d="M242.62 92.9107L180.211 96.5391C172.229 96.902 165.516 100.168 160.255 106.154C154.812 112.141 152.091 119.943 151.728 129.558C151.365 139.173 153.905 148.063 158.985 156.045C164.79 161.851 167.693 183.803 167.693 222.083C210.327 233.15 244.979 232.787 271.466 220.994C271.104 211.561 272.192 197.772 275.095 179.63C278.542 158.767 278.723 139.536 275.458 121.757C273.643 112.867 269.652 105.61 263.665 100.168C257.497 94.9063 250.603 92.5478 242.62 92.9107Z" fill="url(#paint9_linear)"/>
<path d="M231.715 102.537C226.536 105.578 220.283 106.899 212.776 106.516C205.268 106.133 199.301 104.693 195.02 101.819C193.653 100.855 192.484 100.054 191.642 98.8582L190.8 97.6623L190.749 66.3243L236.827 67.9766L237.299 97.9991L235.974 99.4001C234.812 100.603 233.453 101.643 231.715 102.537Z" fill="url(#paint10_radial)"/>
<path d="M229.883 60.0244C229.788 58.7451 230.086 57.5654 230.777 56.4849C231.646 55.3655 232.631 54.7775 233.911 54.6824C235.19 54.5873 236.37 54.8856 237.45 55.577C238.57 56.4457 239.157 57.4312 239.253 58.7105C239.348 59.9897 239.05 61.1697 238.358 62.2502C237.667 63.3307 236.504 63.9573 235.225 64.0524C233.945 64.1475 232.765 63.8493 231.685 63.1578C230.604 62.4663 229.978 61.3037 229.883 60.0244Z" fill="#E0BB95"/>
<path d="M186.715 65.6005C186.62 64.3212 186.918 63.1412 187.61 62.0608C188.478 60.9414 189.464 60.3536 190.743 60.2585C192.022 60.1634 193.202 60.4616 194.283 61.1531C195.402 62.0218 195.99 63.0072 196.085 64.2865C196.18 65.5658 195.882 66.7456 195.191 67.826C194.322 68.9454 193.336 69.5334 192.057 69.6285C190.778 69.7236 189.598 69.4254 188.518 68.7339C187.398 67.8652 186.81 66.8798 186.715 65.6005Z" fill="#E0BB95"/>
<path d="M210.584 39.7177C218.536 38.7149 224.79 40.1281 229.267 43.6028C233.097 46.6627 235.465 51.5291 236.256 57.6705L236.546 59.8358C237.259 65.6228 236.006 70.9129 232.354 75.4293C228.741 80.1229 224.129 82.8069 218.342 83.5201L214.189 84.0604C208.402 84.7736 203.25 83.3043 198.595 79.8684C193.902 76.2554 191.218 71.6439 190.505 65.8569L190.176 63.5145C189.346 57.1959 190.422 51.9447 193.443 47.9383C196.741 43.4996 202.631 40.7205 210.584 39.7177Z" fill="#E0BB95"/>
<path d="M201.227 47.2409C204.737 44.6131 208.086 42.9491 210.999 42.6811C213.873 42.2359 217.551 42.9144 221.678 44.7944C224.98 46.2983 228.36 48.1567 231.463 50.4473C233.702 52.1846 235.193 53.9004 235.936 55.5946C236.053 56.1262 236.559 58.4298 237.237 62.367C238.111 67.1902 238.18 70.8898 237.523 73.82C236.927 76.1798 235.621 78.6952 233.607 81.3661C230.271 85.6276 224.696 88.1517 217.137 89.2539C213.515 89.6775 210.563 89.7683 207.849 89.2497C204.78 88.8089 202.088 87.5426 199.672 85.8441C197.001 83.8302 194.823 81.5223 193.53 79.02C191.983 76.2021 191.028 72.697 190.842 68.4659C190.479 64.2737 190.505 61.8534 190.565 61.2829C190.708 59.3942 191.775 57.4883 193.474 55.0723C195.587 52.008 198.172 49.3976 201.227 47.2409Z" fill="#E0BB95"/>
<path d="M212.902 71.8031C211.119 69.9657 210.386 67.5263 210.367 64.7445C210.347 61.9627 211.236 59.7245 212.954 57.6757C214.672 55.6268 216.559 50.7549 218.932 50.7911C221.345 51.0045 223.413 55.9368 225.047 57.9927C226.681 60.0486 227.413 62.4881 227.394 65.0927C227.413 67.8745 226.525 70.1126 224.806 72.1615C223.088 74.2103 221.136 75.196 218.724 74.9826C216.766 75.041 214.574 74.0362 212.902 71.8031Z" fill="url(#paint11_radial)"/>
<path d="M206.892 75.2963L204.454 51.4999L215.574 50.5446C215.631 51.6467 213.859 59.6509 219.006 62.7928C220.087 63.4843 220.458 64.3314 220.476 65.2563C220.662 69.4874 216.806 68.8478 216.94 70.3043L217.801 72.5301L206.892 75.2963Z" fill="#E0BB95"/>
<path d="M205.662 61.3128C205.467 60.4268 205.705 59.8173 205.904 59.0307C206.142 58.4213 206.595 57.9504 206.989 58.0498C207.52 57.9331 207.952 58.2097 208.285 58.8796C208.579 59.3723 208.912 60.0421 209.106 60.928C209.301 61.814 209.063 62.4236 208.864 63.2101C208.627 63.8195 208.173 64.2905 207.78 64.1911C207.248 64.3078 206.816 64.0312 206.483 63.3613C206.012 62.9075 205.856 62.1988 205.662 61.3128Z" fill="#3A312E"/>
<path d="M222.098 59.1905C221.904 58.3045 222.141 57.6952 222.34 56.9086C222.578 56.2992 223.032 55.8281 223.425 55.9275C223.957 55.8108 224.389 56.0873 224.721 56.7572C225.015 57.2499 225.348 57.9199 225.543 58.8059C225.737 59.6919 225.5 60.3012 225.301 61.0878C225.063 61.6972 224.609 62.1683 224.216 62.0689C223.823 61.9695 223.252 61.9091 222.919 61.2392C222.625 60.7465 222.293 60.0765 222.098 59.1905Z" fill="#3A312E"/>
<path d="M209.857 72.9528C209.995 72.7367 210.349 72.6589 210.526 72.62L210.881 72.5422L220.346 72.5075L220.523 72.4686C220.739 72.6069 220.916 72.568 221.171 72.8835C221.387 73.0218 221.465 73.3762 221.327 73.5923C221.068 74.9493 220.376 76.0298 219.291 77.0109C218.207 77.992 217.005 78.4415 215.51 78.3983C214.192 78.3162 212.834 78.0569 211.715 77.1882C210.596 76.3196 209.969 75.157 209.697 73.9166C209.58 73.385 209.718 73.1689 209.857 72.9528Z" fill="#5E1C1B"/>
<path d="M209.796 73.5234C209.757 73.3462 209.857 72.9529 209.995 72.7368C210.133 72.5207 210.488 72.443 210.665 72.4041L211.019 72.3263L220.484 72.2915L220.661 72.2526C220.877 72.3909 221.055 72.352 221.31 72.6675C221.526 72.8058 221.604 73.1602 221.465 73.3763C219.654 73.5881 217.844 73.7999 215.6 73.7351C213.258 74.0636 211.369 73.921 209.796 73.5234Z" fill="#F8F8F8"/>
<path d="M214.159 109.165L214.168 102.986L211.923 92.3943L187.041 89.4637L185.374 101.553L214.159 109.165Z" fill="#C3C3E1"/>
<path d="M240.538 89.4783L217.096 92.6434L213.886 103.186L214.049 109.173L242.054 103.202L240.538 89.4783Z" fill="#C3C3E1"/>
<path d="M292.874 134.819C284.529 136.452 274.551 137.178 266.568 136.633C264.028 134.094 240.081 97.6277 239.536 92.9108C256.953 88.1938 279.086 94.5436 287.976 95.2692C291.241 104.159 294.688 118.31 292.874 134.819Z" fill="#C3C3E1"/>
<path d="M288.157 95.2693C284.891 95.0878 281.989 94.9064 279.086 94.5436C282.351 104.522 285.617 119.217 283.984 136.089C287.068 135.726 290.153 135.363 292.874 134.819C294.688 118.31 291.241 104.159 288.157 95.2693Z" fill="#C3C3E1"/>
<path d="M271.283 156.59C285.511 156.59 297.045 145.056 297.045 130.828C297.045 116.6 285.511 105.066 271.283 105.066C257.055 105.066 245.521 116.6 245.521 130.828C245.521 145.056 257.055 156.59 271.283 156.59Z" fill="#33312D"/>
<path d="M285.979 103.977L246.066 112.686L242.982 112.141L245.522 110.327L285.435 101.619C286.16 101.438 286.886 101.982 286.886 102.526C287.067 103.252 286.704 103.796 285.979 103.977Z" fill="#F3AE5A"/>
<path d="M265.115 115.951C272.329 115.951 278.177 110.103 278.177 102.889C278.177 95.6749 272.329 89.8267 265.115 89.8267C257.901 89.8267 252.052 95.6749 252.052 102.889C252.052 110.103 257.901 115.951 265.115 115.951Z" fill="#33312D"/>
<path opacity="0.15" d="M265.115 115.951C272.329 115.951 278.177 110.103 278.177 102.889C278.177 95.6749 272.329 89.8267 265.115 89.8267C257.901 89.8267 252.052 95.6749 252.052 102.889C252.052 110.103 257.901 115.951 265.115 115.951Z" fill="url(#paint12_linear)"/>
<path d="M296.864 166.568H249.694C256.044 162.577 263.664 160.218 271.828 160.218H274.549C282.895 160.218 290.514 162.577 296.864 166.568Z" fill="#F4CAA4"/>
<path d="M285.435 161.67H261.669C261.669 161.67 265.66 160.581 266.204 157.86C266.749 155.138 265.842 143.709 265.842 143.709L279.085 142.439C279.085 142.439 277.997 154.231 279.085 157.315C280.174 160.4 285.435 161.67 285.435 161.67Z" fill="url(#paint13_radial)"/>
<path d="M272.916 156.59C283.838 156.59 292.691 147.736 292.691 136.815C292.691 125.893 283.838 117.04 272.916 117.04C261.995 117.04 253.141 125.893 253.141 136.815C253.141 147.736 261.995 156.59 272.916 156.59Z" fill="#F4CAA4"/>
<path d="M316.457 201.582C310.47 210.109 303.213 217.547 294.687 223.716C285.616 230.428 275.456 235.508 264.389 238.592C263.482 238.955 262.394 239.137 261.486 239.318C253.867 241.314 246.066 242.221 237.902 242.221H230.1C230.1 242.221 252.778 166.387 253.141 166.024H294.324C294.324 166.024 308.475 186.524 316.457 201.582Z" fill="#C6E8ED"/>
<path fill-rule="evenodd" clip-rule="evenodd" d="M266.748 134.047C263.216 134.047 260.352 136.911 260.352 140.444C260.352 143.976 263.216 146.84 266.748 146.84C270.281 146.84 273.145 143.976 273.145 140.444C273.145 136.911 270.281 134.047 266.748 134.047ZM259.357 140.444C259.357 136.361 262.666 133.052 266.748 133.052C270.831 133.052 274.14 136.361 274.14 140.444C274.14 144.526 270.831 147.835 266.748 147.835C262.666 147.835 259.357 144.526 259.357 140.444Z" fill="#28C2D1"/>
<path fill-rule="evenodd" clip-rule="evenodd" d="M282.713 132.596C279.18 132.596 276.316 135.459 276.316 138.992C276.316 142.525 279.18 145.389 282.713 145.389C286.246 145.389 289.11 142.525 289.11 138.992C289.11 135.459 286.246 132.596 282.713 132.596ZM275.322 138.992C275.322 134.91 278.631 131.601 282.713 131.601C286.795 131.601 290.105 134.91 290.105 138.992C290.105 143.074 286.795 146.384 282.713 146.384C278.631 146.384 275.322 143.074 275.322 138.992Z" fill="#28C2D1"/>
<path fill-rule="evenodd" clip-rule="evenodd" d="M276.063 138.034L273.16 138.397L273.036 137.41L275.939 137.047L276.063 138.034Z" fill="#28C2D1"/>
<path d="M281.081 124.66C279.811 121.938 278.904 119.035 278.541 115.951C278.178 112.686 278.541 109.602 279.448 106.517C280.536 106.88 281.806 107.424 282.895 107.969C283.258 109.239 283.439 110.327 283.439 111.597C283.983 116.133 283.076 120.668 281.081 124.66Z" fill="#33312D"/>
<path d="M278.54 115.77C278.903 118.854 279.629 121.938 281.08 124.478C277.452 131.916 270.195 137.178 261.305 138.085C255.681 138.629 250.239 137.178 245.885 134.275C245.885 133.731 245.703 133.368 245.703 132.823C244.433 118.673 254.774 106.336 268.925 104.885C272.735 104.522 276.182 105.066 279.629 106.154C278.722 109.42 278.359 112.504 278.54 115.77Z" fill="#33312D"/>
<path d="M283.439 111.597C283.257 110.327 283.076 109.057 282.895 107.969C290.514 111.779 295.957 119.398 296.683 128.469C297.045 131.554 296.683 134.456 295.957 137.178C289.426 135.182 283.983 130.646 281.08 124.66C283.076 120.668 283.983 116.133 283.439 111.597Z" fill="#33312D"/>
<path opacity="0.15" d="M283.439 111.597C283.257 110.327 283.076 109.057 282.895 107.969C290.514 111.779 295.957 119.398 296.683 128.469C297.045 131.554 296.683 134.456 295.957 137.178C289.426 135.182 283.983 130.646 281.08 124.66C283.076 120.668 283.983 116.133 283.439 111.597Z" fill="url(#paint14_radial)"/>
<path d="M265.478 207.207C265.478 214.826 264.934 226.437 264.39 238.592C263.483 238.955 262.394 239.137 261.487 239.318C253.867 241.314 246.066 242.221 237.902 242.221H224.295C228.287 232.606 229.738 220.632 230.282 211.561C230.645 204.122 230.645 197.047 230.645 197.047C230.645 196.503 261.487 161.488 261.487 161.488C261.487 161.488 261.85 163.484 262.213 166.749C263.483 174.732 265.478 191.241 265.478 207.207Z" fill="#EE8F94"/>
<path d="M316.821 201.22C316.64 201.401 316.64 201.582 316.458 201.582C310.471 210.109 303.215 217.548 294.688 223.716C294.688 221.176 294.688 218.636 294.506 216.459C293.781 188.52 289.971 173.643 287.431 166.568C286.161 163.302 285.254 161.851 285.254 161.488C301.582 165.661 314.1 179.63 316.277 196.684C316.458 197.228 316.458 198.68 316.821 201.22Z" fill="#EE8F94"/>
<path d="M230.282 200.675C229.557 210.109 227.38 234.42 224.295 242.039H238.083C246.247 242.039 254.049 241.132 261.668 239.137V200.675H230.282Z" fill="url(#paint15_radial)"/>
<path d="M260.761 166.568C258.766 176.183 254.049 196.14 246.792 199.043C226.654 206.844 232.46 230.429 236.995 242.221H218.853C212.322 235.327 210.508 225.349 210.87 212.468C211.596 178.179 248.243 163.847 261.487 161.488C261.124 162.577 261.306 163.484 260.761 166.568Z" fill="#EE8F94"/>
<path d="M278.722 148.243C278.178 150.42 276.363 152.053 274.186 151.872C272.009 151.872 270.195 150.058 269.832 147.881C270.921 148.062 272.372 148.425 274.186 148.425C276.001 148.606 277.633 148.425 278.722 148.243Z" fill="#5E1C1B"/>
<path d="M270.558 146.975L277.997 147.337C277.997 147.337 277.997 147.337 278.178 147.337C278.541 147.519 278.904 147.882 278.722 148.244C277.452 148.426 276.001 148.426 274.187 148.426C272.191 148.426 270.74 148.063 269.833 147.882C269.833 147.519 270.196 146.975 270.558 146.975Z" fill="#F3F2F1"/>
<path d="M284.347 139.718C283.621 139.355 283.258 139.173 282.714 139.355C282.17 139.355 281.625 139.718 281.081 140.262L280.9 140.443C280.718 140.625 280.174 140.625 279.992 140.443C279.811 140.262 279.811 140.08 279.811 139.899C279.811 139.355 280.174 138.629 280.537 138.085C281.081 137.54 281.625 137.359 282.351 137.178C283.077 137.178 283.802 137.178 284.347 137.54C284.891 137.903 285.435 138.448 285.617 138.992C285.798 139.355 285.435 139.718 285.072 139.899C284.891 139.899 284.709 139.899 284.347 139.718Z" fill="#33312D"/>
<path d="M268.381 140.988C267.655 140.625 267.292 140.443 266.748 140.625C266.203 140.625 265.659 140.988 265.115 141.532L264.933 141.713C264.752 141.895 264.208 141.895 264.026 141.713C263.845 141.532 263.845 141.35 263.845 141.169C263.845 140.625 264.208 139.899 264.571 139.355C265.115 138.811 265.659 138.629 266.385 138.448C267.111 138.448 267.836 138.448 268.381 138.811C268.925 139.173 269.469 139.718 269.65 140.262C269.832 140.625 269.469 140.988 269.106 141.169C268.925 141.35 268.743 141.169 268.381 140.988Z" fill="#33312D"/>
<path d="M219.579 229.34C220.667 234.783 220.123 238.955 218.309 242.221H205.972C204.158 242.221 202.344 242.221 200.53 242.039C192.728 241.677 185.109 240.225 177.852 238.048C174.949 237.141 172.228 236.234 169.506 234.964C162.431 232.061 155.9 228.433 149.913 224.079C149.006 223.534 148.099 222.809 147.191 222.083C141.205 217.366 135.58 211.923 130.864 205.937C128.324 202.852 126.147 199.587 123.969 196.14C122.7 194.144 121.611 192.148 120.704 190.153C118.527 186.162 116.713 181.989 115.261 177.635C111.814 167.838 110 157.315 110 146.249V132.279C114.717 129.558 120.522 128.651 124.877 124.115C129.049 119.761 131.045 112.504 131.771 108.332C132.133 106.336 132.315 104.885 132.315 104.885L141.386 101.438L154.993 96.1763L161.342 93.8179L161.524 96.1763L161.887 99.8048L162.068 101.075L162.431 99.8048L163.701 96.1763L164.789 93.455L168.781 96.1763L170.776 97.6277H170.958L173.679 99.6234L183.476 106.699L186.923 109.057L188.011 109.783C188.011 109.783 188.011 110.146 188.011 110.509C188.011 113.593 188.374 125.204 192.184 131.735C196.538 139.536 206.516 140.08 209.419 148.063C212.14 156.046 201.981 162.032 203.069 170.196C204.158 178.36 219.397 179.993 221.937 188.701C225.747 202.671 206.879 202.852 205.791 210.472C204.884 218.636 217.22 217.729 219.579 229.34Z" fill="white"/>
<path d="M131.771 111.053C131.771 112.323 131.771 113.593 131.952 114.681C132.678 121.394 135.58 127.381 139.934 131.917C145.014 137.178 152.09 140.625 159.709 140.625H160.254C174.586 140.625 186.378 129.195 188.011 114.5C188.193 113.412 188.193 112.142 188.193 111.053C188.193 103.978 185.471 97.6278 181.117 92.9108C178.94 90.7338 176.4 88.7381 173.679 87.4682C170.776 86.0168 167.329 85.2911 163.882 85.2911H156.081C152.453 85.2911 149.187 86.0168 146.103 87.4682C137.576 91.6409 131.771 100.712 131.771 111.053Z" fill="white"/>
<path d="M189.826 212.468C188.011 212.468 133.585 194.507 128.686 188.52C126.147 185.436 145.922 125.204 145.922 125.204L148.461 104.159L164.608 106.699L189.826 212.468Z" fill="url(#paint16_linear)"/>
<path d="M170.776 151.329L141.749 153.506C141.749 153.506 146.647 150.059 148.098 144.616C149.55 139.355 149.187 129.014 149.187 129.014H163.882C163.882 129.014 163.882 143.527 165.152 146.067C166.603 148.789 170.776 151.329 170.776 151.329Z" fill="url(#paint17_radial)"/>
<path d="M165.333 142.257H167.51C175.493 142.257 183.838 136.633 183.838 123.752V99.9861H149.55V129.014C149.55 136.452 158.076 142.257 165.333 142.257Z" fill="#9B643D"/>
<path d="M161.342 122.845C162.244 122.845 162.975 121.546 162.975 119.943C162.975 118.339 162.244 117.04 161.342 117.04C160.44 117.04 159.709 118.339 159.709 119.943C159.709 121.546 160.44 122.845 161.342 122.845Z" fill="#33312D"/>
<path d="M168.599 110.872H182.024L177.67 137.722H168.599V110.872Z" fill="url(#paint18_radial)"/>
<path d="M176.037 122.845C176.939 122.845 177.67 121.546 177.67 119.943C177.67 118.339 176.939 117.04 176.037 117.04C175.136 117.04 174.405 118.339 174.405 119.943C174.405 121.546 175.136 122.845 176.037 122.845Z" fill="#33312D"/>
<g opacity="0.5">
<path opacity="0.5" d="M170.05 133.186C169.688 133.912 168.962 134.275 168.055 134.638C167.329 134.819 166.422 134.819 165.696 134.819C164.971 134.638 164.245 134.275 163.519 133.731C162.975 133.186 162.431 132.461 162.431 131.554C162.431 131.191 162.612 131.009 162.975 131.009C163.156 131.009 163.338 131.009 163.338 131.191L163.519 131.372C163.882 131.735 164.245 131.916 164.789 132.098C165.152 132.279 165.696 132.461 166.241 132.461C167.148 132.642 168.055 132.642 169.143 132.279H169.325C169.688 132.098 170.05 132.461 170.232 132.824C170.232 132.824 170.232 133.186 170.05 133.186Z" fill="#632C28"/>
</g>
<path d="M168.599 130.828C168.599 128.832 171.32 127.925 172.227 126.655C173.497 125.022 172.953 123.208 171.683 122.301C167.692 119.217 168.599 116.496 168.599 116.496C168.599 116.496 165.515 119.943 165.333 123.934C165.333 125.929 167.147 130.828 168.599 130.828Z" fill="#9B643D"/>
<path d="M185.29 173.462C185.29 187.613 173.135 199.043 158.077 199.043C143.019 199.043 130.864 187.613 130.864 173.462C130.864 159.311 143.019 148.789 158.077 148.789C173.135 148.789 185.29 159.311 185.29 173.462Z" fill="#605D5A"/>
<path d="M200.53 242.039C192.729 241.677 185.109 240.225 177.852 238.048C174.95 237.141 172.228 236.234 169.507 234.964L168.418 197.047L167.874 173.825L167.511 160.4L176.22 154.775C176.22 154.775 188.193 162.214 194.362 184.891C197.083 194.507 199.26 222.99 200.53 242.039Z" fill="#605D5A"/>
<path d="M148.825 160.581L148.462 171.285V173.825L148.28 182.715L147.917 197.047L147.373 219.725V222.083C141.386 217.366 135.762 211.923 131.045 205.937C128.505 202.852 126.328 199.587 124.151 196.14C122.881 194.144 121.793 192.148 120.886 190.153C121.248 187.976 121.611 186.162 121.974 184.71C125.421 172.373 130.501 164.391 134.492 159.855C136.851 157.134 138.846 155.683 139.572 154.957C139.935 154.776 139.935 154.594 139.935 154.594L140.298 154.776L148.825 160.581Z" fill="#605D5A"/>
<path d="M139.934 154.776H176.219C176.037 154.594 175.856 154.413 175.493 154.231C174.767 153.687 174.042 153.143 173.316 152.599C172.953 152.417 172.59 152.236 172.228 151.873C171.683 151.51 171.139 151.329 170.595 150.966C168.418 149.877 166.241 149.152 163.882 148.607C162.068 148.244 160.072 148.063 158.077 148.063C156.081 148.063 154.085 148.244 152.271 148.607C151.545 148.789 150.82 148.97 150.094 149.152C149.187 149.333 148.461 149.696 147.554 150.059C146.284 150.603 145.196 151.147 144.107 151.691H143.926C143.563 151.873 143.2 152.054 142.837 152.417C142.112 152.961 141.386 153.506 140.66 154.05C140.297 154.594 140.116 154.776 139.934 154.776Z" fill="#9B643D"/>
<path d="M185.29 174.006V238.048H177.852C174.949 237.141 172.228 236.234 169.507 234.964C162.431 232.061 155.9 228.433 149.913 224.079C149.006 223.535 148.099 222.809 147.192 222.083C141.205 217.366 135.581 211.924 130.864 205.937V174.006C130.864 174.006 185.29 174.006 185.29 174.006Z" fill="#605D5A"/>
<path d="M170.958 104.884H164.79C164.245 112.323 158.258 118.128 150.639 118.128H141.023L141.205 96.5391H170.776L170.958 104.884Z" fill="white"/>
<path d="M170.958 104.885H177.126C177.489 110.327 180.936 115.044 185.834 117.04C187.467 117.766 188.737 102.526 182.569 96.1765C176.4 89.8267 170.958 96.3579 170.958 96.3579V104.885Z" fill="white"/>
<path d="M164.97 104.885H171.139C170.957 103.252 169.687 102.163 168.055 102.163C166.422 101.982 164.97 103.252 164.97 104.885Z" fill="#C8C6C4"/>
<path d="M177.126 104.885H170.958C171.139 103.252 172.409 102.163 174.042 102.163C175.675 101.982 176.945 103.252 177.126 104.885Z" fill="#C8C6C4"/>
<path d="M151.183 225.167C151.183 225.167 142.656 217.003 139.028 208.295C136.669 202.852 137.032 197.591 140.479 192.874C141.568 191.241 143.019 189.609 144.289 188.157C145.922 186.343 147.554 184.71 148.462 182.896C148.643 182.533 148.824 182.17 149.006 181.626C149.731 179.268 149.913 176.546 149.369 173.644C149.187 172.736 149.006 171.829 148.824 170.922C147.736 167.294 145.74 163.303 142.656 158.948C141.568 157.497 141.023 156.227 140.66 154.776V154.594V154.413C140.66 154.05 140.66 153.687 140.66 153.324C140.66 149.696 142.112 147.337 143.745 144.435C145.015 142.439 146.284 140.262 147.192 137.178C147.736 135.545 148.099 133.912 148.28 132.098C148.462 131.191 148.462 130.284 148.462 129.377C148.462 125.748 149.731 118.128 149.731 117.947C149.55 117.04 144.107 105.066 144.107 105.066V106.517C144.107 109.42 144.107 113.774 143.563 117.947C143.2 121.394 142.475 124.115 141.386 126.292C140.66 127.744 139.753 129.195 138.665 130.465C137.213 132.098 135.581 133.368 134.129 134.638C130.864 137.359 127.961 139.718 126.691 144.072C125.421 148.607 126.328 152.054 127.235 155.683C127.961 158.404 128.687 161.307 128.505 164.935C128.142 168.927 124.877 170.922 121.248 173.099C119.071 174.369 117.076 175.639 115.443 177.453L115.261 177.635V177.816C116.713 182.17 118.527 186.343 120.704 190.334C121.793 192.33 122.881 194.326 123.97 196.321C126.147 199.768 128.505 203.034 130.864 206.118C135.581 212.105 141.205 217.548 147.192 222.265C147.917 222.99 151.183 225.167 151.183 225.167Z" fill="white"/>
<path d="M149.55 117.947C146.103 117.947 143.2 120.85 143.2 124.297C143.2 127.744 146.103 130.646 149.55 130.646V117.947Z" fill="#9B643D"/>
</g>
<defs>
<linearGradient id="paint0_linear" x1="462.136" y1="319.675" x2="478.02" y2="187.756" gradientUnits="userSpaceOnUse">
<stop stop-color="#E59841"/>
<stop offset="1" stop-color="#F7B548"/>
</linearGradient>
<radialGradient id="paint1_radial" cx="0" cy="0" r="1" gradientUnits="userSpaceOnUse" gradientTransform="translate(532.461 292.439) scale(91.2704 91.3776)">
<stop stop-color="#6E6FAC"/>
<stop offset="0.2465" stop-color="#7A7BB6"/>
<stop offset="0.6327" stop-color="#8788C0"/>
<stop offset="1" stop-color="#8B8CC4"/>
</radialGradient>
<linearGradient id="paint2_linear" x1="446.726" y1="317.819" x2="462.61" y2="185.901" gradientUnits="userSpaceOnUse">
<stop stop-color="#E59841"/>
<stop offset="1" stop-color="#F7B548"/>
</linearGradient>
<radialGradient id="paint3_radial" cx="0" cy="0" r="1" gradientUnits="userSpaceOnUse" gradientTransform="translate(481.784 133.831) rotate(-154.975) scale(22.0005 22.0171)">
<stop stop-color="#6E6FAC"/>
<stop offset="0.2465" stop-color="#7A7BB6"/>
<stop offset="0.6327" stop-color="#8788C0"/>
<stop offset="1" stop-color="#8B8CC4"/>
</radialGradient>
<radialGradient id="paint4_radial" cx="0" cy="0" r="1" gradientUnits="userSpaceOnUse" gradientTransform="translate(491.219 137.36) rotate(48.2789) scale(8.39763 15.8183)">
<stop stop-color="#6E6FAC"/>
<stop offset="0.2465" stop-color="#7A7BB6"/>
<stop offset="0.6327" stop-color="#8788C0"/>
<stop offset="1" stop-color="#8B8CC4"/>
</radialGradient>
<radialGradient id="paint5_radial" cx="0" cy="0" r="1" gradientUnits="userSpaceOnUse" gradientTransform="translate(490.414 136.649) rotate(-131.721) scale(8.39763 15.8183)">
<stop stop-color="#6E6FAC"/>
<stop offset="0.2465" stop-color="#7A7BB6"/>
<stop offset="0.6327" stop-color="#8788C0"/>
<stop offset="1" stop-color="#8B8CC4"/>
</radialGradient>
<radialGradient id="paint6_radial" cx="0" cy="0" r="1" gradientUnits="userSpaceOnUse" gradientTransform="translate(230.226 390.058) scale(33.9081 33.9479)">
<stop stop-color="#BF8F68"/>
<stop offset="1" stop-color="#E0BB95"/>
</radialGradient>
<radialGradient id="paint7_radial" cx="0" cy="0" r="1" gradientUnits="userSpaceOnUse" gradientTransform="translate(211.378 352.782) scale(23.8028 23.8308)">
<stop stop-color="#BF8F68"/>
<stop offset="1" stop-color="#E0BB95"/>
</radialGradient>
<radialGradient id="paint8_radial" cx="0" cy="0" r="1" gradientUnits="userSpaceOnUse" gradientTransform="translate(204.376 353.623) scale(16.4245 16.4438)">
<stop stop-color="#BF8F68"/>
<stop offset="1" stop-color="#E0BB95"/>
</radialGradient>
<linearGradient id="paint9_linear" x1="154.279" y1="174.58" x2="220.346" y2="160.837" gradientUnits="userSpaceOnUse">
<stop stop-color="#9C9CD0" stop-opacity="0.6667"/>
<stop offset="0.3686" stop-color="#9C9CD0" stop-opacity="0.0353"/>
</linearGradient>
<radialGradient id="paint10_radial" cx="0" cy="0" r="1" gradientUnits="userSpaceOnUse" gradientTransform="translate(213.866 86.4984) rotate(163.78) scale(21.8042)">
<stop offset="0.00125628" stop-color="#BF8F68"/>
<stop offset="1" stop-color="#E0BB95"/>
</radialGradient>
<radialGradient id="paint11_radial" cx="0" cy="0" r="1" gradientUnits="userSpaceOnUse" gradientTransform="translate(216.825 64.1788) rotate(-40.9234) scale(13.3445 11.196)">
<stop offset="0.00125628" stop-color="#BF8F68"/>
<stop offset="1" stop-color="#E0BB95"/>
</radialGradient>
<linearGradient id="paint12_linear" x1="263.646" y1="86.9065" x2="267.09" y2="124.389" gradientUnits="userSpaceOnUse">
<stop stop-color="white" stop-opacity="0"/>
<stop offset="0.2641" stop-color="#A6A4A4" stop-opacity="0.3842"/>
<stop offset="0.5557" stop-color="#484546" stop-opacity="0.8085"/>
<stop offset="0.6873" stop-color="#231F20"/>
</linearGradient>
<radialGradient id="paint13_radial" cx="0" cy="0" r="1" gradientUnits="userSpaceOnUse" gradientTransform="translate(273.992 154.223) scale(7.07835)">
<stop stop-color="#E6B47E"/>
<stop offset="1" stop-color="#F4CAA4"/>
</radialGradient>
<radialGradient id="paint14_radial" cx="0" cy="0" r="1" gradientUnits="userSpaceOnUse" gradientTransform="translate(280.49 124.103) rotate(-5.24993) scale(11.9912)">
<stop stop-color="#231F20"/>
<stop offset="0.9997" stop-color="#231F20" stop-opacity="0"/>
</radialGradient>
<radialGradient id="paint15_radial" cx="0" cy="0" r="1" gradientUnits="userSpaceOnUse" gradientTransform="translate(217.839 232.533) scale(48.3665)">
<stop stop-color="#E3646A"/>
<stop offset="1" stop-color="#EE8F94"/>
</radialGradient>
<linearGradient id="paint16_linear" x1="141.795" y1="158.525" x2="170.576" y2="158.302" gradientUnits="userSpaceOnUse">
<stop stop-color="#C8C6C4"/>
<stop offset="0.6569" stop-color="#EBEAEA" stop-opacity="0.3431"/>
<stop offset="1" stop-color="white" stop-opacity="0"/>
</linearGradient>
<radialGradient id="paint17_radial" cx="0" cy="0" r="1" gradientUnits="userSpaceOnUse" gradientTransform="translate(162.487 135.993) scale(13.298)">
<stop stop-color="#663F39"/>
<stop offset="0.3504" stop-color="#7E503B"/>
<stop offset="0.7419" stop-color="#935F3C"/>
<stop offset="1" stop-color="#9B643D"/>
</radialGradient>
<radialGradient id="paint18_radial" cx="0" cy="0" r="1" gradientUnits="userSpaceOnUse" gradientTransform="translate(167.537 124.779) rotate(18.2103) scale(10.9904 8.23321)">
<stop stop-color="#663F39"/>
<stop offset="0.3504" stop-color="#7E503B"/>
<stop offset="0.7419" stop-color="#935F3C"/>
<stop offset="1" stop-color="#9B643D"/>
</radialGradient>
<clipPath id="clip0">
<rect width="760" height="428" fill="white"/>
</clipPath>
</defs>
</svg>
