<svg width="760" height="428" viewBox="0 0 760 428" fill="none" xmlns="http://www.w3.org/2000/svg">
<g clip-path="url(#clip0)">
<rect width="760" height="428" fill="#ECF0F1"/>
<path d="M455.359 365.265H306.601V438.875H455.359V365.265Z" fill="url(#paint0_linear)"/>
<path d="M645.055 389.673H116.907C99.8014 389.673 85.7713 375.643 85.7713 358.538V56.794C85.7713 39.6887 99.8014 25.6586 116.907 25.6586H644.863C661.968 25.6586 675.998 39.6887 675.998 56.794V358.538C676.19 375.835 662.16 389.673 645.055 389.673Z" fill="#979593"/>
<path d="M381.749 206.513H105.567V61.2145C105.567 51.2204 113.639 43.1483 123.633 43.1483H381.749V206.513Z" fill="#C3C3E1"/>
<path d="M657.74 206.513H381.749V43.1483H639.866C649.86 43.1483 657.932 51.2204 657.932 61.2145L657.74 206.513Z" fill="#E1DFDD"/>
<path d="M166.3 238.994V210.357C166.3 172.11 196.282 141.167 233.184 141.167H262.974C299.875 141.167 329.857 172.11 329.857 210.357V238.994H166.3Z" fill="white"/>
<path opacity="0.5" d="M150.156 192.291C151.309 183.065 142.276 179.606 143.237 171.726C144.198 163.846 152.078 163.077 152.847 154.044C154.192 139.63 139.585 137.9 139.585 137.9C139.585 137.9 124.979 136.17 122.864 150.392C121.519 159.425 129.015 162.116 128.054 169.996C127.093 177.876 117.483 179.221 116.522 188.255C115.369 197.48 122.096 201.9 121.135 210.165C120.174 218.429 113.831 220.735 112.294 232.267C110.756 243.798 122.864 261.673 122.864 261.673L126.516 262.057C126.516 262.057 142.276 247.45 143.621 235.919C144.967 224.387 139.393 220.543 140.354 212.471C141.507 204.207 149.195 201.516 150.156 192.291Z" fill="#EAEAF3"/>
<path d="M126.901 196.134C125.555 194.213 124.594 192.867 124.21 190.369C123.825 187.87 124.979 185.372 126.132 182.297C127.862 178.453 129.783 174.032 128.438 168.651C127.093 163.269 123.441 160.771 120.366 158.657C117.675 156.927 116.33 155.774 115.753 153.852C115.177 151.546 115.561 149.431 115.946 146.933C116.522 143.281 117.099 139.245 114.792 134.056C111.909 127.906 106.912 124.638 100.57 124.638C96.534 124.638 93.4589 125.984 93.2667 125.984C88.0774 128.29 79.6209 135.593 84.4257 147.317C86.5399 152.314 90.1916 154.044 92.8823 155.197C95.3808 156.158 96.1496 156.735 96.534 158.465C97.1105 160.963 96.534 163.269 95.7652 165.96C94.8042 169.42 93.6511 173.456 94.8042 178.453C96.1496 183.834 99.8012 186.14 102.684 188.062C105.375 189.792 105.759 190.945 106.144 192.867C106.528 195.173 104.798 198.825 104.798 198.825C104.414 199.594 104.222 200.363 104.222 201.131C104.222 204.014 106.528 206.321 109.411 206.321C109.603 206.321 109.795 206.321 109.988 206.321C110.18 207.089 110.372 207.858 110.564 208.819C112.294 219.582 115.177 235.15 115.753 235.726L118.252 239.186L120.943 235.726C122.288 233.997 129.591 216.891 130.552 205.36C130.552 199.978 128.63 198.633 126.901 196.134Z" fill="#EAEAF3"/>
<g opacity="0.5">
<path opacity="0.5" d="M119.02 211.51C118.06 211.51 117.483 210.741 117.291 209.972C116.522 192.483 100.57 143.089 100.378 142.705C100.186 141.744 100.57 140.975 101.339 140.591C102.3 140.398 103.068 140.783 103.453 141.552C104.029 143.666 119.981 191.714 120.558 209.78C120.75 210.741 119.981 211.51 119.02 211.51C119.02 211.51 119.213 211.51 119.02 211.51Z" fill="#C3C3E1"/>
</g>
<path d="M229.916 95.425H266.433L266.241 134.248C266.241 136.747 267.971 138.669 269.124 139.245C256.631 149.047 236.643 146.164 226.649 139.245C228.187 139.053 229.532 135.978 229.532 132.711L229.916 95.425Z" fill="#DCB38B"/>
<path d="M272.007 97.9235L224.343 98.3079V93.6952C218.961 74.6681 230.877 66.2115 238.95 66.2115L257.208 66.0193C265.28 66.0193 272.007 73.3227 272.007 82.548V97.9235Z" fill="#BF8F68"/>
<path d="M269.893 95.0406C273.82 95.0406 277.004 91.8568 277.004 87.9294C277.004 84.002 273.82 80.8183 269.893 80.8183C265.965 80.8183 262.782 84.002 262.782 87.9294C262.782 91.8568 265.965 95.0406 269.893 95.0406Z" fill="#BF8F68"/>
<path d="M279.149 104.299C280.558 100.069 278.272 95.498 274.043 94.0884C269.814 92.6787 265.242 94.9646 263.833 99.194C262.423 103.423 264.709 107.995 268.938 109.404C273.168 110.814 277.739 108.528 279.149 104.299Z" fill="#DCB38B"/>
<path d="M224.727 109.647C229.185 109.647 232.799 106.033 232.799 101.575C232.799 97.1171 229.185 93.503 224.727 93.503C220.269 93.503 216.655 97.1171 216.655 101.575C216.655 106.033 220.269 109.647 224.727 109.647Z" fill="#DCB38B"/>
<path d="M252.98 132.518H243.947C233.184 132.518 224.343 123.87 224.343 113.107L224.151 86.3918C224.151 80.626 228.763 76.0134 234.529 76.0134L261.244 75.8212C267.202 75.8212 271.815 80.4338 272.007 86.3918L272.199 113.107C272.199 123.677 263.55 132.326 252.98 132.518Z" fill="#BF8F68"/>
<path d="M235.682 75.4369C239.61 75.4369 242.794 72.2531 242.794 68.3257C242.794 64.3983 239.61 61.2145 235.682 61.2145C231.755 61.2145 228.571 64.3983 228.571 68.3257C228.571 72.2531 231.755 75.4369 235.682 75.4369Z" fill="#BF8F68"/>
<path d="M252.788 115.029H243.37C234.529 115.029 227.226 107.918 227.226 98.8844V90.2357C227.226 81.7792 234.145 74.8602 242.601 74.8602H253.364C261.821 74.8602 268.74 81.7792 268.74 90.2357V98.8844C268.932 107.725 261.628 115.029 252.788 115.029Z" fill="#DCB38B"/>
<path d="M267.971 122.909H248.752V112.338C248.752 111.377 249.136 110.608 249.905 110.224L253.749 107.725C254.517 107.149 254.902 105.996 254.325 105.227L251.058 100.038C250.289 98.8845 249.905 97.3469 249.905 96.0016V82.3558H269.124L267.971 122.909Z" fill="url(#paint1_radial)"/>
<path d="M238.592 101.961C239.654 101.955 240.505 100.315 240.494 98.2983C240.483 96.2815 239.613 94.6513 238.552 94.6572C237.49 94.663 236.639 96.3027 236.65 98.3194C236.661 100.336 237.531 101.966 238.592 101.961Z" fill="#33312D"/>
<path d="M257.812 101.961C258.873 101.955 259.725 100.316 259.714 98.299C259.703 96.2822 258.833 94.652 257.772 94.6579C256.71 94.6637 255.859 96.3034 255.87 98.3201C255.881 100.337 256.75 101.967 257.812 101.961Z" fill="#33312D"/>
<path d="M240.679 115.605C240.871 116.951 241.64 118.104 242.601 118.873C243.562 119.834 244.907 120.41 246.253 120.602C247.598 120.795 248.944 120.602 250.289 120.026C251.442 119.449 252.595 118.488 252.98 117.143C253.172 116.759 252.787 116.374 252.403 116.182C252.211 116.182 252.019 116.182 252.019 116.182H251.826C250.866 116.566 250.097 116.759 249.136 116.759C248.367 116.759 247.598 116.759 246.637 116.759C245.868 116.566 245.1 116.374 244.331 116.182C243.562 115.798 242.793 115.413 241.832 114.837C241.448 114.644 241.064 114.837 240.871 115.029C240.679 115.221 240.679 115.413 240.679 115.605Z" fill="#DCB38B"/>
<path d="M247.214 122.524C248.559 122.524 249.712 122.332 250.866 121.756C252.595 120.987 253.941 119.449 254.517 117.719C254.709 117.143 254.709 116.374 254.325 115.798C253.941 115.221 253.364 114.837 252.787 114.644C252.595 114.644 252.403 114.452 252.019 114.452C251.634 114.452 251.442 114.452 251.058 114.644C250.097 115.029 249.328 115.029 248.751 115.221C248.559 115.221 248.175 115.221 247.983 115.221C247.598 115.221 247.214 115.221 246.829 115.221C245.484 115.029 244.331 114.644 242.601 113.491C242.217 113.299 241.64 113.107 241.256 113.107C240.295 113.107 239.526 113.683 238.95 114.452C238.565 115.029 238.565 115.605 238.565 116.182C238.757 117.912 239.718 119.449 241.064 120.602C242.217 121.756 243.754 122.332 245.676 122.717C246.445 122.332 246.829 122.524 247.214 122.524Z" fill="#9B643D"/>
<path d="M241.448 114.644C241.64 114.644 241.64 114.644 241.832 114.837C243.754 115.99 245.1 116.566 246.829 116.759C247.214 116.759 247.79 116.951 248.175 116.951C248.559 116.951 248.751 116.951 249.136 116.951C249.905 116.951 250.866 116.759 251.827 116.374H252.019H252.211H252.403C252.787 116.566 252.98 116.951 252.98 117.335C252.595 118.68 251.442 119.641 250.289 120.218C249.328 120.602 248.367 120.795 247.406 120.795C247.022 120.795 246.637 120.795 246.445 120.795C245.1 120.602 243.754 120.026 242.793 119.065C241.832 118.104 241.064 116.951 240.871 115.798C240.871 115.605 240.871 115.413 240.871 115.221C240.871 114.837 241.064 114.644 241.448 114.644ZM241.448 110.993C239.91 110.993 238.373 111.761 237.604 113.107C237.028 114.068 236.835 115.029 237.028 116.182C237.412 118.296 238.565 120.218 240.103 121.563C241.64 122.909 243.562 123.87 245.676 124.062C246.253 124.062 246.637 124.254 247.214 124.254C248.751 124.254 250.289 123.87 251.634 123.293C253.941 122.14 255.67 120.218 256.247 118.104C256.631 116.951 256.439 115.798 255.863 114.644C255.286 113.683 254.325 112.915 253.172 112.53C252.787 112.338 252.403 112.338 252.019 112.338C251.442 112.338 250.866 112.53 250.481 112.722H250.289C249.712 112.915 249.328 113.107 248.751 113.107C248.559 113.107 248.367 113.107 248.175 113.107C247.79 113.107 247.598 113.107 247.214 113.107C246.253 112.915 245.292 112.722 243.562 111.569C242.986 111.185 242.217 110.993 241.448 110.993Z" fill="#BF8F68"/>
<path d="M247.214 70.0554C251.141 70.0554 254.325 66.8717 254.325 62.9443C254.325 59.0169 251.141 55.8331 247.214 55.8331C243.286 55.8331 240.103 59.0169 240.103 62.9443C240.103 66.8717 243.286 70.0554 247.214 70.0554Z" fill="#BF8F68"/>
<path d="M261.821 74.2837C267.128 74.2837 271.43 69.9813 271.43 64.674C271.43 59.3667 267.128 55.0643 261.821 55.0643C256.513 55.0643 252.211 59.3667 252.211 64.674C252.211 69.9813 256.513 74.2837 261.821 74.2837Z" fill="#BF8F68"/>
<path d="M270.469 82.548C274.397 82.548 277.58 79.3642 277.58 75.4369C277.58 71.5095 274.397 68.3257 270.469 68.3257C266.542 68.3257 263.358 71.5095 263.358 75.4369C263.358 79.3642 266.542 82.548 270.469 82.548Z" fill="#BF8F68"/>
<path d="M261.052 84.8544C264.979 84.8544 268.163 81.6706 268.163 77.7432C268.163 73.8158 264.979 70.632 261.052 70.632C257.124 70.632 253.941 73.8158 253.941 77.7432C253.941 81.6706 257.124 84.8544 261.052 84.8544Z" fill="#BF8F68"/>
<path d="M247.598 83.1246C251.526 83.1246 254.709 79.9408 254.709 76.0135C254.709 72.0861 251.526 68.9023 247.598 68.9023C243.671 68.9023 240.487 72.0861 240.487 76.0135C240.487 79.9408 243.671 83.1246 247.598 83.1246Z" fill="#BF8F68"/>
<path d="M227.61 157.119H268.547C269.893 157.119 270.854 155.966 270.854 154.813V135.593C270.854 134.248 269.7 133.287 268.547 133.287H227.61C226.265 133.287 225.304 134.44 225.304 135.593V154.813C225.111 156.158 226.265 157.119 227.61 157.119Z" fill="white"/>
<path d="M235.105 154.236L248.175 147.894L261.052 154.236C262.397 154.813 263.742 153.852 263.742 152.122V139.63C263.742 138.092 262.397 136.939 261.052 137.515L248.175 144.05L235.298 137.515C233.952 136.939 232.607 137.9 232.607 139.63V152.122C232.415 153.852 233.76 155.005 235.105 154.236Z" fill="#E3646A"/>
<path d="M214.925 147.317C215.31 146.164 216.271 145.395 217.231 145.011C217.231 145.011 227.61 141.359 230.301 142.32C233.376 143.473 234.529 146.356 235.298 148.278C236.066 150.2 234.913 152.507 232.607 150.585C232.607 150.585 234.913 153.468 234.145 159.233C233.568 162.885 230.877 163.269 230.301 161.155C229.916 159.041 229.34 157.888 229.34 157.888L225.111 160.194C225.111 160.194 224.727 167.113 221.268 171.726C218 176.339 212.619 179.221 212.619 179.221L204.739 174.032L214.925 147.317Z" fill="#DCB38B"/>
<path d="M196.667 196.327C176.486 195.366 167.838 196.327 167.838 196.327C167.838 196.327 166.492 200.171 166.492 206.129C166.492 209.972 196.859 206.705 196.859 206.705C196.859 206.705 214.541 197.095 196.667 196.327Z" fill="url(#paint2_linear)"/>
<path d="M204.931 173.84L212.811 179.029L201.087 263.402L161.111 244.759L204.931 173.84Z" fill="#DCB38B"/>
<path d="M281.232 147.317C280.847 146.164 279.886 145.395 278.925 145.011C278.925 145.011 268.547 141.359 265.856 142.32C262.781 143.473 261.628 146.356 260.859 148.278C260.09 150.2 261.244 152.507 263.55 150.585C263.55 150.585 261.244 153.468 262.012 159.233C262.589 162.885 265.28 163.269 265.856 161.155C266.241 159.041 266.817 157.888 266.817 157.888L271.046 160.194C271.046 160.194 271.43 167.113 274.889 171.726C278.157 176.339 283.538 179.221 283.538 179.221L291.418 174.032L281.232 147.317Z" fill="#DCB38B"/>
<path d="M299.49 196.327C319.67 195.366 328.319 196.327 328.319 196.327C328.319 196.327 329.664 200.171 329.664 206.129C329.664 209.972 299.298 206.705 299.298 206.705C299.298 206.705 281.616 197.095 299.49 196.327Z" fill="url(#paint3_linear)"/>
<path d="M291.226 173.84L283.346 179.029L295.07 263.402L335.046 244.759L291.226 173.84Z" fill="#DCB38B"/>
<path d="M381.749 369.685H123.633C113.639 369.685 105.567 361.613 105.567 351.619V206.321H381.557V369.685H381.749Z" fill="#C8C6C4"/>
<path d="M590.472 209.972C590.472 209.972 587.589 200.555 586.628 196.903C577.787 166.344 559.721 150.008 533.774 151.161C507.828 152.314 487.84 174.417 489.185 200.363C489.378 204.207 490.146 207.858 491.107 211.318L590.472 209.972Z" fill="#C3C3E1"/>
<path d="M499.18 133.672L505.138 132.711L503.024 120.41L497.066 121.371C493.798 121.948 491.684 124.831 492.261 128.098L492.453 129.059C493.03 131.942 496.105 134.248 499.18 133.672Z" fill="#E0BB95"/>
<path d="M553.955 92.9264L506.483 75.2446L503.792 72.1695L507.828 71.5929L555.3 89.2748C556.069 89.6591 556.454 90.6201 556.069 91.5811C555.877 92.7342 554.916 93.3108 553.955 92.9264Z" fill="#EE8F94"/>
<path d="M533.967 90.8123C542.883 90.8123 550.111 83.5843 550.111 74.668C550.111 65.7518 542.883 58.5238 533.967 58.5238C525.05 58.5238 517.822 65.7518 517.822 74.668C517.822 83.5843 525.05 90.8123 533.967 90.8123Z" fill="url(#paint4_linear)"/>
<path d="M519.937 144.05C537.557 144.05 551.841 129.766 551.841 112.146C551.841 94.5257 537.557 80.2417 519.937 80.2417C502.316 80.2417 488.032 94.5257 488.032 112.146C488.032 129.766 502.316 144.05 519.937 144.05Z" fill="#59453C"/>
<path d="M542.231 127.714L536.273 128.675L534.159 116.374L540.117 115.413C543.384 114.837 546.267 116.951 546.844 120.218L547.036 121.179C547.612 124.254 545.306 127.329 542.231 127.714Z" fill="#E0BB95"/>
<path d="M541.654 144.05C538.963 136.939 538.963 128.098 538.963 128.098L519.36 139.245C519.36 139.245 521.666 144.434 521.666 149.047C521.666 152.506 513.594 156.543 513.594 156.543C513.594 156.543 523.011 160.002 531.084 159.041C545.882 157.311 553.186 154.428 553.186 154.428C553.186 154.428 543.961 150.2 541.654 144.05Z" fill="url(#paint5_radial)"/>
<path d="M520.71 145.435C533.28 143.375 541.647 130.582 539.398 116.86C537.15 103.139 525.137 93.685 512.568 95.7446C499.999 97.8043 491.632 110.597 493.88 124.319C496.129 138.041 508.141 147.494 520.71 145.435Z" fill="#E0BB95"/>
<path d="M515.132 138.476L505.522 140.014L501.87 117.335L511.48 115.797L515.132 138.476Z" fill="url(#paint6_radial)"/>
<path d="M492.645 100.422C486.495 108.494 488.417 122.716 494.375 131.173C492.837 125.984 495.912 119.449 500.525 117.335C506.483 114.644 513.21 115.221 518.015 110.416C524.357 104.074 524.934 94.8484 518.207 90.4279C512.441 86.7763 499.564 87.545 492.645 100.422Z" fill="#594539"/>
<path d="M522.051 93.6952C520.705 99.2688 525.318 113.299 537.618 115.797C541.462 115.221 542.423 114.644 542.039 111.954C540.886 99.0766 523.78 86.7762 522.051 93.6952Z" fill="#594539"/>
<path d="M502.831 135.593C497.642 135.593 493.222 131.365 493.222 125.984C493.222 120.795 497.45 116.374 502.831 116.374C508.021 116.374 512.441 120.602 512.441 125.984C512.441 131.173 508.213 135.593 502.831 135.593ZM502.831 119.257C499.18 119.257 496.105 122.332 496.105 125.984C496.105 129.635 499.18 132.711 502.831 132.711C506.483 132.711 509.558 129.635 509.558 125.984C509.558 122.332 506.483 119.257 502.831 119.257Z" fill="#9B643D"/>
<path d="M512.826 124.831C512.441 125.984 512.633 126.56 511.096 128.674C510.519 129.443 510.519 130.789 511.288 131.557C511.864 132.326 513.21 132.711 514.363 134.248C515.516 135.786 519.552 132.903 518.207 127.906C517.246 124.062 513.402 122.14 512.826 124.831Z" fill="#E0BB95"/>
<path d="M522.82 132.326C517.63 132.326 513.21 128.098 513.21 122.716C513.21 117.527 517.438 113.107 522.82 113.107C528.201 113.107 532.429 117.335 532.429 122.716C532.237 128.098 528.009 132.326 522.82 132.326ZM522.82 115.99C519.168 115.99 516.093 119.065 516.093 122.716C516.093 126.368 519.168 129.443 522.82 129.443C526.471 129.443 529.546 126.368 529.546 122.716C529.546 119.065 526.471 115.99 522.82 115.99Z" fill="#9B643D"/>
<path d="M510.519 124.062C509.75 124.062 509.174 123.485 509.174 122.909C508.982 122.14 509.558 121.371 510.327 121.179L514.171 120.602C514.94 120.41 515.708 120.987 515.901 121.756C516.093 122.524 515.516 123.293 514.748 123.485L510.904 124.062C510.711 124.062 510.711 124.062 510.519 124.062Z" fill="#9B643D"/>
<path d="M503.72 129.032C504.768 128.866 505.402 127.372 505.137 125.694C504.871 124.017 503.806 122.792 502.757 122.958C501.709 123.124 501.074 124.618 501.34 126.296C501.606 127.973 502.671 129.198 503.72 129.032Z" fill="#33312D"/>
<path d="M523.113 125.743C524.161 125.577 524.796 124.082 524.53 122.405C524.264 120.727 523.199 119.502 522.15 119.668C521.102 119.834 520.467 121.329 520.733 123.006C520.999 124.684 522.064 125.909 523.113 125.743Z" fill="#33312D"/>
<path d="M521.474 135.593C521.474 136.554 521.09 137.131 520.705 137.708C520.321 138.284 519.552 138.861 518.975 139.245C518.207 139.63 517.438 139.822 516.669 139.63C515.9 139.63 515.324 139.437 514.555 139.053C514.171 138.669 513.978 138.092 514.171 137.708C514.363 137.515 514.555 137.323 514.747 137.323H514.939C516.093 136.939 516.861 136.747 517.438 136.362C517.822 136.17 518.015 135.978 518.399 135.786C518.783 135.593 519.168 135.209 519.36 135.017L519.744 134.632C520.129 134.248 520.897 134.44 521.09 135.017C521.474 135.209 521.474 135.401 521.474 135.593Z" fill="#BF8F68"/>
<path d="M652.55 369.685H381.557V206.513H657.74V364.496C657.74 367.379 655.433 369.685 652.55 369.685Z" fill="#8B8CC4"/>
<path d="M494.375 277.048L500.333 277.432L501.101 266.285L495.143 265.901C492.068 265.709 489.378 268.015 489.186 271.09C488.993 274.165 491.3 276.856 494.375 277.048Z" fill="#F9DDBF"/>
<path d="M586.82 329.517C583.168 319.907 590.472 313.18 584.898 304.147C579.324 295.306 570.676 293.961 562.988 285.697C553.378 275.51 551.649 256.675 551.649 256.675L483.996 264.748C483.996 264.748 485.149 275.318 477.462 286.081C471.312 294.538 463.432 293.769 459.588 302.802C455.552 311.835 463.816 320.676 461.894 330.286C459.972 339.895 449.786 339.703 446.711 351.427C444.597 359.115 449.209 364.304 452.669 369.493H603.349C606.424 363.92 611.613 358.538 608.154 349.313C604.117 339.127 590.28 339.127 586.82 329.517Z" fill="white"/>
<path d="M521.282 306.069C509.942 306.069 499.756 311.259 493.029 319.331C489.185 323.559 485.149 330.67 483.035 342.97C482.267 347.391 479.96 357.385 476.501 369.685H551.456L555.492 354.694C557.03 350.85 557.799 346.622 557.799 342.202C557.799 322.214 541.27 306.069 521.282 306.069Z" fill="url(#paint7_linear)"/>
<path d="M517.438 296.075L513.21 295.691C495.912 294.345 482.843 279.354 483.996 261.865L484.381 256.291C485.726 238.994 500.717 225.925 518.207 227.078L522.435 227.462C539.733 228.807 552.802 243.799 551.649 261.288L551.264 266.862C549.919 284.351 534.736 297.421 517.438 296.075Z" fill="white"/>
<path d="M535.504 309.144C535.504 309.144 529.739 306.261 529.354 299.15C529.354 297.036 529.354 286.081 529.354 286.081H512.825C512.825 286.081 513.402 299.919 512.825 302.418C511.48 308.376 507.444 309.144 507.444 309.144C507.444 309.144 512.441 314.718 523.012 312.412C527.624 311.066 535.504 309.144 535.504 309.144Z" fill="url(#paint8_radial)"/>
<path d="M512.057 295.114H511.672C499.756 294.153 490.915 283.775 491.684 272.051L492.261 263.018C493.222 251.102 503.6 242.261 515.324 243.03H515.708C527.624 243.991 536.465 254.369 535.696 266.093L535.12 275.126C534.351 287.042 523.973 296.075 512.057 295.114Z" fill="#F9DDBF"/>
<path d="M536.657 280.123L530.699 279.739L531.468 268.591L537.426 268.976C540.501 269.168 542.808 271.859 542.616 274.934C542.423 278.201 539.733 280.507 536.657 280.123Z" fill="#F9DDBF"/>
<path d="M508.405 285.697L493.798 284.544L495.72 258.213L510.327 259.366L508.405 285.697Z" fill="url(#paint9_radial)"/>
<path d="M502.836 268.849C502.977 266.943 502.233 265.335 501.174 265.257C500.116 265.179 499.144 266.66 499.003 268.566C498.862 270.471 499.606 272.079 500.665 272.157C501.724 272.235 502.696 270.754 502.836 268.849Z" fill="#33312D"/>
<path d="M521.272 270.209C521.413 268.304 520.669 266.696 519.61 266.617C518.551 266.539 517.579 268.021 517.439 269.926C517.298 271.832 518.042 273.44 519.101 273.518C520.159 273.596 521.132 272.115 521.272 270.209Z" fill="#33312D"/>
<path d="M508.789 282.045C508.789 279.739 506.291 278.586 505.522 277.432C505.138 276.856 505.138 276.279 505.522 275.703C506.867 274.357 508.982 272.435 510.135 266.093C510.904 268.592 513.018 277.24 508.789 282.045Z" fill="#F9DDBF"/>
<path d="M533.198 243.03C538.003 257.444 540.309 266.67 540.117 267.438C537.811 268.399 535.312 268.784 532.814 268.591C528.585 268.207 525.126 266.67 522.435 263.594C519.744 260.519 518.399 255.138 518.399 251.102L504.945 250.141C504.369 254.177 502.447 259.366 499.18 261.865C495.912 264.363 492.261 265.516 488.225 265.324C485.342 265.132 486.495 249.949 486.495 249.949L492.068 239.762L533.198 243.03Z" fill="white"/>
<path d="M511.48 250.91L499.756 250.141L501.102 232.459L513.21 228.231L511.48 250.91Z" fill="url(#paint10_linear)"/>
<path d="M511.48 250.91L504.753 250.333V249.18C504.945 247.45 506.483 246.105 508.213 246.105H508.405C510.135 246.297 511.48 247.835 511.48 249.564V250.91Z" fill="#C3C3E1"/>
<path d="M518.399 251.486L511.672 250.91V249.757C511.865 248.027 513.402 246.681 515.132 246.681H515.324C517.054 246.874 518.399 248.411 518.399 250.141V251.486Z" fill="#C3C3E1"/>
<g opacity="0.5">
<path opacity="0.5" d="M507.06 284.544C508.597 284.351 509.75 284.351 510.711 284.159C511.288 284.159 511.672 283.967 512.057 283.775C512.633 283.583 513.018 283.198 513.786 283.006H513.979C514.363 282.814 514.747 283.006 514.94 283.39C514.94 283.39 514.94 283.583 514.94 283.775C514.94 284.736 514.555 285.505 513.979 286.273C513.402 287.042 512.441 287.427 511.48 287.619C510.519 287.811 509.558 287.619 508.789 287.427C508.021 287.042 507.252 286.658 506.675 285.889C506.483 285.505 506.483 285.12 506.867 284.928C506.675 284.736 506.867 284.544 507.06 284.544Z" fill="#BF8F68"/>
</g>
<path d="M369.257 252.832C371.179 250.525 374.83 260.327 374.83 260.327C374.83 260.327 376.176 239.955 379.059 241.108C381.557 241.684 380.02 255.714 380.02 255.714C380.02 255.714 381.173 238.417 383.479 239.955C386.17 241.684 383.863 257.636 383.863 257.636C383.863 257.636 384.056 240.339 387.131 243.222C389.053 244.952 385.978 260.519 385.978 260.519C385.978 260.519 385.593 246.489 387.515 248.027C391.551 250.91 389.245 268.207 387.9 271.667C385.978 276.279 382.71 279.931 382.71 279.931C382.71 279.931 379.251 279.162 374.062 275.126C371.179 272.628 367.719 254.946 369.257 252.832Z" fill="#9B643D"/>
<path d="M327.935 210.549L362.914 270.513L413.077 241.108L378.098 181.336L327.935 210.549Z" fill="#E1DFDD"/>
<path d="M388.455 203.493L362.143 215.269L363.792 218.953L390.104 207.176L388.455 203.493Z" fill="#C8C6C4"/>
<path d="M392.696 213.126L366.384 224.903L368.032 228.587L394.345 216.81L392.696 213.126Z" fill="#C8C6C4"/>
<path d="M390.205 227.271L371.26 235.75L372.909 239.434L391.854 230.955L390.205 227.271Z" fill="#C8C6C4"/>
<path d="M413.462 193.828C413.462 193.828 403.852 199.402 399.624 200.747C395.395 202.092 384.825 205.168 383.479 204.783C382.134 204.591 379.828 200.747 379.828 199.978C379.828 199.978 376.945 200.363 376.752 199.402C376.56 198.633 376.945 196.903 379.059 196.134C381.365 195.366 394.05 188.062 397.894 187.678C401.93 187.486 413.462 193.828 413.462 193.828Z" fill="#E0BB95"/>
<path d="M393.089 177.492L421.534 240.723L368.488 264.363L347.539 217.66L356.572 193.828L393.089 177.492Z" fill="white"/>
<path d="M356.572 193.828L364.068 210.357L347.539 217.66L356.572 193.828Z" fill="#C8C6C4"/>
<path d="M413.653 197.288C417.882 199.594 422.11 201.9 430.759 206.513H504.753C504.753 206.513 518.014 151.353 503.216 164.23C488.417 177.107 484.188 191.714 463.432 193.252C444.212 194.789 418.266 183.257 409.041 187.486C401.353 191.137 411.347 196.134 413.653 197.288Z" fill="#E0BB95"/>
<path d="M456.897 206.513H504.753C504.753 206.513 519.36 150.2 504.561 163.077C489.762 175.954 478.423 191.714 457.282 193.444C457.282 197.864 456.897 206.513 456.897 206.513Z" fill="#C3C3E1"/>
<path d="M502.447 168.651C502.447 168.651 478.231 193.252 457.089 194.789C457.089 199.21 456.705 206.321 456.705 206.321H493.222C493.222 206.321 492.837 201.131 493.03 194.405C493.414 187.87 495.72 180.567 502.447 168.651Z" fill="url(#paint11_linear)"/>
<path d="M371.179 270.706C367.719 262.826 367.527 250.333 370.602 249.564C373.293 248.988 373.101 258.405 374.638 260.327C376.368 262.249 382.518 263.21 383.479 268.207C384.44 273.204 381.365 277.817 380.98 277.817C380.98 277.817 374.061 277.24 371.179 270.706Z" fill="#9B643D"/>
<path d="M546.075 321.445C546.075 321.445 549.727 314.91 563.757 332.784C583.745 358.346 583.168 377.565 571.445 378.334C559.721 379.103 520.513 373.529 512.441 371.223C506.291 369.493 513.979 365.073 513.979 365.073C513.979 365.073 542.231 361.037 551.264 359.499L546.075 321.445Z" fill="#F9DDBF"/>
<path d="M535.504 309.144C535.504 309.144 551.456 309.913 565.294 328.94C574.135 341.241 579.324 353.733 581.823 364.112C584.321 375.067 576.826 384.484 565.679 384.484H536.657L531.66 362.382C531.66 362.382 538.003 361.229 542.808 360.46C546.651 359.691 549.15 357.769 546.267 352.772C543.384 347.775 532.813 332.208 530.699 324.328C526.855 308.952 535.504 309.144 535.504 309.144Z" fill="#605E5C"/>
<path d="M513.787 365.073L490.339 363.535C489.762 363.535 489.186 363.727 488.609 363.92C488.609 363.92 480.921 368.148 480.153 369.493C479.768 370.07 480.729 370.454 481.69 370.646L478.999 371.799C478.999 371.799 479.576 373.337 481.498 373.721C483.42 374.106 489.378 371.031 491.876 370.839C494.375 370.646 501.678 373.145 505.138 372.376C512.249 370.839 514.94 371.799 514.94 371.799L513.787 365.073Z" fill="#F9DDBF"/>
<path d="M416.344 186.717C416.344 186.717 402.699 182.873 394.626 185.948C390.398 187.486 385.593 190.561 384.632 191.714C383.863 192.675 384.824 194.02 386.746 193.828C388.668 193.636 394.819 190.945 394.819 190.945C394.819 190.945 400.2 194.213 404.813 193.636C409.425 193.059 416.344 186.717 416.344 186.717Z" fill="#E0BB95"/>
<path d="M266.817 289.733C266.817 289.733 329.28 319.331 346.77 313.949C376.56 304.916 374.446 272.628 374.446 272.628L385.209 271.474C385.209 271.474 387.899 320.868 355.803 343.547C322.746 366.802 282.385 339.895 282.385 339.895L266.817 289.733Z" fill="#9B643D"/>
<path d="M256.631 282.045C279.31 281.084 300.067 297.997 312.56 306.261C316.788 309.144 320.44 310.49 320.44 310.49C320.44 310.49 320.247 320.868 313.328 337.012C307.755 349.505 301.605 352.965 301.605 352.965L277.773 344.7C267.586 335.475 258.169 300.88 256.631 282.045Z" fill="#F7B548"/>
<path d="M284.692 369.685V345.853C284.307 305.3 283.731 286.658 256.631 282.045L198.973 289.156C174.757 309.337 152.847 324.135 159.189 363.92L159.958 369.301C160.727 369.301 161.495 369.493 162.072 369.493L284.692 369.685Z" fill="url(#paint12_linear)"/>
<path d="M206.661 281.661C211.466 273.012 205.892 261.288 205.892 261.288L242.409 259.558C242.409 259.558 242.409 273.781 248.944 279.931C245.1 288.003 242.025 294.345 238.95 298.382C237.412 296.844 214.541 288.003 206.661 281.661Z" fill="url(#paint13_radial)"/>
<path d="M198.973 289.156C198.973 289.156 203.778 287.619 205.123 278.778L231.454 283.967L236.835 293.192L238.949 282.622L249.52 275.703C249.52 275.703 251.25 281.084 256.631 282.045C250.673 288.195 238.757 304.532 238.757 304.532L198.973 289.156Z" fill="#F7B548"/>
<path d="M270.662 312.988C270.277 308.952 267.394 306.069 264.319 306.261L213.772 311.258C210.505 311.643 208.391 315.102 208.775 318.946L213.772 369.493H276.427L270.662 312.988Z" fill="white"/>
<path d="M225.496 215.162L220.499 215.93C203.394 219.774 197.436 233.228 199.742 249.564L202.817 254.177C205.123 270.513 222.036 278.393 232.799 277.432C233.952 277.432 236.259 277.048 236.259 277.048C250.097 274.934 257.4 257.06 255.286 243.991L254.901 240.723C252.403 224.387 239.142 212.855 225.496 215.162Z" fill="#9B643D"/>
<path d="M225.496 215.162L220.499 215.93C204.931 219.39 198.589 230.922 199.358 245.144L199.55 246.105C205.316 244.567 209.16 238.225 208.199 231.498L207.814 229.384L246.637 223.234C241.256 217.084 233.376 213.816 225.496 215.162Z" fill="url(#paint14_linear)"/>
<path d="M229.148 229.768C232.031 241.3 234.721 243.222 237.028 245.144C238.95 246.873 238.757 249.564 236.259 251.294C235.874 251.486 235.49 251.871 235.298 252.255C234.529 253.024 234.337 254.177 234.529 255.33L237.412 266.669L249.905 260.904L245.1 227.078C245.292 227.078 236.067 228.423 229.148 229.768Z" fill="url(#paint15_radial)"/>
<path opacity="0.6" d="M238.373 257.636H237.989H225.88C225.688 257.636 225.688 257.636 225.688 257.636C225.112 257.829 224.727 258.405 224.727 259.174C225.496 262.633 228.571 265.324 232.031 265.324C235.682 265.324 238.565 262.633 239.334 259.174C239.718 258.405 239.142 257.636 238.373 257.636Z" fill="#231F20"/>
<path d="M239.141 257.829C237.411 258.79 235.105 259.558 232.222 259.558C229.531 259.558 227.225 258.79 225.303 258.021C225.495 257.829 225.687 257.636 225.879 257.636H226.071H238.18H238.564C238.564 257.636 238.948 257.829 239.141 257.829Z" fill="#F8F8F8"/>
<path d="M203.933 259.135C207.335 258.302 209.336 254.534 208.402 250.719C207.468 246.905 203.953 244.488 200.551 245.321C197.149 246.154 195.148 249.921 196.081 253.736C197.015 257.551 200.531 259.968 203.933 259.135Z" fill="#9B643D"/>
<path d="M255.051 248.163C258.453 247.33 260.454 243.563 259.52 239.748C258.586 235.933 255.071 233.516 251.669 234.349C248.266 235.182 246.265 238.95 247.199 242.765C248.133 246.579 251.648 248.996 255.051 248.163Z" fill="#9B643D"/>
<path d="M222.673 248.558C223.716 248.359 224.271 246.677 223.914 244.8C223.556 242.923 222.421 241.563 221.378 241.762C220.335 241.96 219.78 243.643 220.138 245.52C220.495 247.396 221.631 248.757 222.673 248.558Z" fill="#33312D"/>
<path d="M243.621 244.703C244.663 244.504 245.219 242.821 244.861 240.944C244.503 239.068 243.368 237.707 242.325 237.906C241.283 238.105 240.727 239.787 241.085 241.664C241.443 243.541 242.578 244.901 243.621 244.703Z" fill="#33312D"/>
<path d="M173.027 312.796C173.027 312.796 155.153 329.132 150.925 356.616C148.618 371.415 156.306 389.481 174.372 391.595C194.36 393.902 208.967 389.866 250.673 359.883L242.409 351.811C242.409 351.811 193.207 363.535 185.52 356.616C187.826 346.046 198.973 329.517 198.973 329.517L173.027 312.796Z" fill="#9B643D"/>
<path d="M262.205 328.748C262.782 327.979 263.935 327.403 264.896 327.787C266.625 328.172 266.818 329.517 266.049 331.054L261.244 338.742L275.274 334.514C277.004 333.937 279.118 335.283 279.31 337.205C279.502 338.358 278.734 339.703 277.58 340.28L276.043 341.049V352.004C276.043 354.31 274.505 356.232 272.391 357.001L247.406 362.382L242.217 352.004L262.205 328.748Z" fill="#9B643D"/>
<path d="M198.973 289.156C198.973 289.156 155.537 304.532 151.693 353.733C151.693 353.733 154.384 348.544 166.3 349.697C178.408 350.85 185.52 356.424 185.52 356.424L204.162 328.748L198.973 289.156Z" fill="#F7B548"/>
</g>
<defs>
<linearGradient id="paint0_linear" x1="380.981" y1="376.043" x2="380.981" y2="431.31" gradientUnits="userSpaceOnUse">
<stop stop-color="#797673"/>
<stop offset="0.9632" stop-color="#979593"/>
</linearGradient>
<radialGradient id="paint1_radial" cx="0" cy="0" r="1" gradientUnits="userSpaceOnUse" gradientTransform="translate(247.455 105.382) rotate(179.274) scale(12.5455 11.3079)">
<stop stop-color="#9B643D"/>
<stop offset="1" stop-color="#BF8F68" stop-opacity="0"/>
</radialGradient>
<linearGradient id="paint2_linear" x1="197.649" y1="210.806" x2="180.89" y2="199.284" gradientUnits="userSpaceOnUse">
<stop stop-color="#9B643D"/>
<stop offset="0.1048" stop-color="#A46F48"/>
<stop offset="0.4902" stop-color="#C3946C"/>
<stop offset="0.8023" stop-color="#D5AB83"/>
<stop offset="1" stop-color="#DCB38B"/>
</linearGradient>
<linearGradient id="paint3_linear" x1="298.465" y1="210.806" x2="315.224" y2="199.284" gradientUnits="userSpaceOnUse">
<stop stop-color="#9B643D"/>
<stop offset="0.1048" stop-color="#A46F48"/>
<stop offset="0.4902" stop-color="#C3946C"/>
<stop offset="0.8023" stop-color="#D5AB83"/>
<stop offset="1" stop-color="#DCB38B"/>
</linearGradient>
<linearGradient id="paint4_linear" x1="533.509" y1="65.4351" x2="534.784" y2="89.4189" gradientUnits="userSpaceOnUse">
<stop offset="0.2689" stop-color="#594539"/>
<stop offset="0.8111" stop-color="#463228"/>
</linearGradient>
<radialGradient id="paint5_radial" cx="0" cy="0" r="1" gradientUnits="userSpaceOnUse" gradientTransform="translate(517.166 138.039) rotate(-7.57345) scale(22.3742)">
<stop offset="0.0668" stop-color="#9B643D"/>
<stop offset="0.2364" stop-color="#AC7953"/>
<stop offset="0.5635" stop-color="#C89D77"/>
<stop offset="0.8298" stop-color="#DAB38D"/>
<stop offset="1" stop-color="#E0BB95"/>
</radialGradient>
<radialGradient id="paint6_radial" cx="0" cy="0" r="1" gradientUnits="userSpaceOnUse" gradientTransform="translate(513.657 129.293) rotate(-6.02702) scale(9.84152 9.40608)">
<stop stop-color="#9B643D"/>
<stop offset="0.0415" stop-color="#A06A43"/>
<stop offset="0.3772" stop-color="#C2966F"/>
<stop offset="0.6377" stop-color="#D8B18B"/>
<stop offset="0.7896" stop-color="#E0BB95"/>
</radialGradient>
<linearGradient id="paint7_linear" x1="529.039" y1="376.563" x2="511.561" y2="340.516" gradientUnits="userSpaceOnUse">
<stop stop-color="#484644"/>
<stop offset="0.5204" stop-color="#575553"/>
<stop offset="1" stop-color="#605E5C"/>
</linearGradient>
<radialGradient id="paint8_radial" cx="0" cy="0" r="1" gradientUnits="userSpaceOnUse" gradientTransform="translate(513.415 284.978) rotate(180) scale(20.6785 22.2278)">
<stop stop-color="#9A6541" stop-opacity="0.8471"/>
<stop offset="0.225" stop-color="#BB8E6C" stop-opacity="0.8815"/>
<stop offset="0.45" stop-color="#D6B090" stop-opacity="0.9159"/>
<stop offset="0.6603" stop-color="#E9C9AA" stop-opacity="0.948"/>
<stop offset="0.8497" stop-color="#F5D8BA" stop-opacity="0.977"/>
<stop offset="1" stop-color="#F9DDBF"/>
</radialGradient>
<radialGradient id="paint9_radial" cx="0" cy="0" r="1" gradientUnits="userSpaceOnUse" gradientTransform="translate(509.446 276.37) rotate(4.22075) scale(8.98668)">
<stop stop-color="#9A6541" stop-opacity="0.8471"/>
<stop offset="1" stop-color="#F9DDBF" stop-opacity="0"/>
</radialGradient>
<linearGradient id="paint10_linear" x1="506.804" y1="239.252" x2="515.792" y2="242.416" gradientUnits="userSpaceOnUse">
<stop stop-color="white"/>
<stop offset="0.2509" stop-color="#FBFBFD"/>
<stop offset="0.5163" stop-color="#EEEEF7"/>
<stop offset="0.7875" stop-color="#D9D9EC"/>
<stop offset="1" stop-color="#C3C3E1"/>
</linearGradient>
<linearGradient id="paint11_linear" x1="482.967" y1="189.95" x2="514.204" y2="212.296" gradientUnits="userSpaceOnUse">
<stop stop-color="#C3C3E1"/>
<stop offset="1" stop-color="#8B8CC4"/>
</linearGradient>
<linearGradient id="paint12_linear" x1="199.217" y1="392.072" x2="220.744" y2="353.802" gradientUnits="userSpaceOnUse">
<stop stop-color="#E79A41"/>
<stop offset="1" stop-color="#F7B548"/>
</linearGradient>
<radialGradient id="paint13_radial" cx="0" cy="0" r="1" gradientUnits="userSpaceOnUse" gradientTransform="translate(233.528 261.219) rotate(174.307) scale(20.136)">
<stop stop-color="#4B1C17"/>
<stop offset="0.0446" stop-color="#502019"/>
<stop offset="0.9997" stop-color="#9B643D"/>
</radialGradient>
<linearGradient id="paint14_linear" x1="222.419" y1="227.292" x2="224.06" y2="243.581" gradientUnits="userSpaceOnUse">
<stop stop-color="#594539"/>
<stop offset="0.2186" stop-color="#5F4839" stop-opacity="0.7814"/>
<stop offset="0.523" stop-color="#71503A" stop-opacity="0.4768"/>
<stop offset="0.8765" stop-color="#8F5E3C" stop-opacity="0.1233"/>
<stop offset="0.9997" stop-color="#9B643D" stop-opacity="0"/>
</linearGradient>
<radialGradient id="paint15_radial" cx="0" cy="0" r="1" gradientUnits="userSpaceOnUse" gradientTransform="translate(232.676 248.549) rotate(164.405) scale(10.9723 9.25032)">
<stop stop-color="#593417"/>
<stop offset="0.2594" stop-color="#6E4323"/>
<stop offset="0.6411" stop-color="#8F5B36"/>
<stop offset="0.9997" stop-color="#9B643D"/>
</radialGradient>
<clipPath id="clip0">
<rect width="760" height="428" fill="white"/>
</clipPath>
</defs>
</svg>
