<svg width="760" height="428" viewBox="0 0 760 428" fill="none" xmlns="http://www.w3.org/2000/svg">
<g clip-path="url(#clip0)">
<rect width="760" height="428" fill="#ECF0F1"/>
<path d="M190 100.123L248.169 83.1808C248.169 83.1808 250.249 98.9194 257.62 115.772C264.992 132.625 276.454 149.015 276.454 149.015L218.285 165.957C218.285 165.957 209.073 153.354 200.673 135.651C192.273 117.948 190 100.123 190 100.123Z" fill="white"/>
<path d="M421.946 156.491C461.34 158.547 460.189 185.792 484.301 184.185C505.078 182.8 477.35 120.383 477.35 120.383L468.176 109.645C466.248 107.39 466.017 104.141 467.605 101.635L470.058 97.7629C471.598 95.3327 474.029 93.6033 476.83 92.9465L480.521 92.0809L489.405 85.7949C491.318 84.4412 493.926 84.6557 495.593 86.3039C496.868 87.566 497.339 89.4311 496.816 91.1475L495.383 95.8464L498.697 102.846C500.743 107.167 500.253 112.263 497.42 116.115L493.071 122.028C493.071 122.028 555.274 204.543 513.078 224.09C480.743 239.069 433.861 221.703 433.861 221.703C433.861 221.703 423.974 169.625 421.946 156.491Z" fill="#BE906B"/>
<path d="M491.864 168.44L540.023 177.534C540.023 177.534 547.003 236.57 499.569 250.735C464.603 261.177 432.663 242.691 432.663 242.691L425.449 151.992C425.449 151.992 436.277 148.037 453.083 160.83C460.933 166.806 467.881 178.319 476.21 179.576C492.347 182.011 491.864 168.44 491.864 168.44Z" fill="#B4EAF0"/>
<path d="M339.729 91.8461C346.59 116.873 372.992 131.447 398.7 124.4C424.408 117.352 439.687 91.3517 432.826 66.325C425.966 41.2984 399.564 26.7237 373.856 33.771C348.147 40.8187 332.869 66.8197 339.729 91.8461Z" fill="url(#paint0_linear)"/>
<path d="M338.125 77.8655C338.125 77.8655 338.008 89.3878 329.613 92.7446C322.45 95.6083 313.812 99.1398 313.284 113.552C312.863 125.029 314.254 129.359 307.521 132.672C299.222 136.756 285.998 154.902 307.521 171.09L472.063 149.15C472.063 149.15 481.15 131.829 472.424 122.245C463.698 112.661 454.615 118.156 453.083 112.237C451.551 106.318 463.472 91.1709 449.648 85.2654C433.98 78.5721 431.906 63.3777 431.906 63.3777L338.125 77.8655Z" fill="url(#paint1_linear)"/>
<path d="M409.87 283.04C444.661 278.87 469.219 245.067 464.721 207.539C460.223 170.012 428.373 142.969 393.582 147.139C358.791 151.309 334.234 185.112 338.732 222.639C343.229 260.167 375.079 287.209 409.87 283.04Z" fill="#B4EAF0"/>
<path d="M350.535 347.108L357.35 319.907C361.816 302.081 360.471 283.04 353.537 265.928L342.528 238.757L464.849 224.091L460.577 253.081C457.884 271.355 461.083 290.183 469.644 306.452L482.7 331.261L350.535 347.108Z" fill="url(#paint2_linear)"/>
<path d="M482.7 331.261C448.573 294.327 400.377 342.535 405.405 370.52C406.541 376.84 411.597 398.215 418.743 427.518H516.022C506.946 388.657 495.941 354.226 482.7 331.261Z" fill="url(#paint3_linear)"/>
<path d="M462.636 288.369L359.878 300.69C359.742 307.154 358.928 313.607 357.35 319.907L357.349 319.909C345.623 348.968 337.587 386.801 332.134 427.518H432.372C433.361 417.246 434.126 407.643 434.604 398.966C471.29 386.118 483.446 332.524 483.446 332.524L469.644 306.451C466.618 300.701 464.299 294.621 462.636 288.369Z" fill="#797673"/>
<path d="M376.832 140.459C377.328 124.982 370.432 108.872 370.432 108.872L399.825 110.037C399.825 110.037 403.649 130.246 408.352 139.14C412.749 147.456 425.449 151.991 425.449 151.991L412.402 153.556C409.758 153.873 407.672 155.954 407.348 158.598L404.897 172.409L399.092 159.542C398.139 157.074 395.634 155.566 393.007 155.881L363.961 159.364C363.961 159.364 376.53 149.862 376.832 140.459Z" fill="url(#paint4_radial)"/>
<path d="M383.226 44.9506C401.77 39.8672 420.924 50.779 426.007 69.323C432.462 92.871 425.855 123.223 405.546 128.79C385.238 134.357 365.309 111.28 358.854 87.7321C353.77 69.1881 364.682 50.0342 383.226 44.9506Z" fill="#BE906B"/>
<path d="M398.456 72.1255L419.146 66.4537L429.42 103.933L410.457 115.903L398.456 72.1255Z" fill="url(#paint5_radial)"/>
<path d="M417.876 88.0022C419.475 87.5638 420.108 84.7914 419.291 81.8098C418.473 78.8282 416.514 76.7665 414.915 77.2049C413.316 77.6433 412.683 80.4158 413.5 83.3974C414.318 86.379 416.277 88.4406 417.876 88.0022Z" fill="#3A312E"/>
<path d="M389.889 95.8387C391.488 95.4003 392.122 92.6279 391.305 89.6463C390.487 86.6647 388.528 84.603 386.929 85.0414C385.33 85.4798 384.696 88.2523 385.514 91.2339C386.331 94.2155 388.29 96.2771 389.889 95.8387Z" fill="#3A312E"/>
<path d="M415.116 97.9722C412.553 100.531 408.548 104.92 408.198 107.661C400.014 102.378 399.13 77.8494 399.13 77.8494C399.13 77.8494 402.599 85.7091 406.374 89.0557C408.377 90.8317 412.108 93.0679 414.633 94.4999C415.902 95.2195 416.148 96.9412 415.116 97.9722Z" fill="#BE906B"/>
<path d="M367 114.005L376.596 111.374L371.583 93.0872L361.987 95.7179C356.937 97.1021 353.966 102.318 355.35 107.368C356.734 112.417 361.95 115.389 367 114.005Z" fill="#BE906B"/>
<path d="M398.139 42.2137C398.139 42.2137 400.819 61.9832 392.457 69.3189C384.318 76.4595 375.947 74.5243 369.698 81.5026C363.734 88.1628 365.59 94.7351 365.59 94.7351L351.425 98.649V53.7545C351.425 53.7545 371.72 35.7671 398.139 42.2137Z" fill="url(#paint6_linear)"/>
<path d="M412.184 109.605H397.761C396.895 109.605 396.24 110.408 396.445 111.25C397.02 113.613 398.836 118.131 404.524 118.434C410.235 118.737 412.586 113.932 413.467 111.374C413.766 110.504 413.104 109.605 412.184 109.605Z" fill="#9B403D"/>
<path d="M404.926 112.285C408.384 112.285 411.426 111.48 413.319 110.254C413.084 109.876 412.68 109.605 412.183 109.605H397.76C397.251 109.605 396.84 109.897 396.609 110.298C398.508 111.498 401.511 112.285 404.926 112.285Z" fill="#FCFCFB"/>
<path d="M362.918 160.238C362.918 160.238 301.72 182.88 287.508 246.406C273.115 310.738 323.881 335.168 365.051 321.457C364.584 306.407 364.615 280.234 365.676 262.965C356.319 262.817 354.871 258.795 360.248 249.335C384.037 207.481 362.918 160.238 362.918 160.238Z" fill="#B4EAF0"/>
<path d="M282.077 257.333L328.524 216.947C328.524 216.947 310.827 215.661 293.377 207.444C275.927 199.226 260.131 185.225 260.131 185.225L213.684 225.61C213.684 225.61 225.382 235.706 243.424 244.826C261.465 253.945 282.077 257.333 282.077 257.333Z" fill="url(#paint7_linear)"/>
<path d="M398.547 224.852L344.966 276.697C344.966 276.697 333.294 259.325 311.485 248.484C289.677 237.643 260.361 234.028 260.361 234.028L313.942 182.182C313.942 182.182 338.836 183.211 362.501 194.19C386.166 205.168 398.547 224.852 398.547 224.852Z" fill="url(#paint8_linear)"/>
<path d="M430.115 253.717L366.689 288.837C366.689 288.837 362.96 272.051 347.657 254.08C332.353 236.109 307.522 218.5 307.522 218.5L371.871 181.995C371.871 181.995 393.499 191.747 410.364 210.455C427.228 229.162 430.115 253.717 430.115 253.717Z" fill="url(#paint9_linear)"/>
<path d="M439.408 194.704L369.913 209.987L389.64 299.688L459.136 284.405L439.408 194.704Z" fill="#FCFCFB"/>
<path d="M421.25 258.984L424.987 272.08C431.662 269.761 435.701 267.862 439.395 266.235C446.961 262.903 452.905 258.719 452.905 258.719C458.134 255.688 455.676 253.128 455.603 252.977C457 251.786 457.754 249.989 457.335 248.485C457.04 247.422 456.22 246.757 455.188 246.547C456.36 245.368 456.955 243.742 456.572 242.366C456.286 241.337 455.513 240.671 454.526 240.445C453.901 240.302 453.558 239.653 453.843 239.079C454.288 238.181 454.442 237.206 454.198 236.331C453.674 234.448 451.528 233.755 449.406 234.783C449.096 234.933 440.061 240.056 437.079 238.63C434.789 237.535 441.829 230.071 440.535 224.575C439.571 220.482 437.41 222.042 434.85 227.63C432.858 231.98 427.253 239.727 426.053 245.594C425.441 248.586 425.666 252.034 421.25 258.984Z" fill="#BE906B"/>
<path d="M365.676 262.965C365.676 262.965 406.815 268.407 421.249 258.984C435.684 249.562 437.317 247.174 437.317 247.174L424.986 272.08C424.986 272.08 396.012 288.369 364.797 292.349C363.49 276.998 365.676 262.965 365.676 262.965Z" fill="#BE906B"/>
<path d="M559.392 78.6444L455.726 93.6269L450.219 77.8233L540.742 25.1299L559.392 78.6444Z" fill="#EE8F94"/>
<path d="M560.521 78.2479C565.211 76.6133 564.839 63.3087 559.689 48.5312C554.538 33.7538 546.561 23.0994 541.871 24.734C537.181 26.3687 537.553 39.6733 542.703 54.4507C547.854 69.2282 555.831 79.8826 560.521 78.2479Z" fill="#E3646A"/>
<path d="M455.728 93.625C458.153 92.78 458.885 88.5571 457.364 84.1929C455.843 79.8287 452.645 76.9758 450.22 77.8209C447.795 78.6659 447.063 82.8888 448.584 87.253C450.105 91.6172 453.303 94.47 455.728 93.625Z" fill="#EE8F94"/>
<path fill-rule="evenodd" clip-rule="evenodd" d="M480.429 84.177C480.429 84.177 480.429 84.177 480.429 84.177L480.429 84.1769L480.429 84.1757L480.429 84.1789L480.429 84.2111C480.43 84.243 480.431 84.2956 480.433 84.3678C480.438 84.5121 480.446 84.7341 480.463 85.0242C480.496 85.6051 480.56 86.4556 480.687 87.4994C480.942 89.5952 481.443 92.4268 482.416 95.4004C484.387 101.421 488.099 107.489 495.09 109.859C496.592 110.368 497.396 111.998 496.887 113.5C496.378 115.002 494.748 115.806 493.246 115.297C483.769 112.084 479.176 103.961 476.959 97.1868C475.838 93.7631 475.273 90.5462 474.987 88.1929C474.843 87.0121 474.768 86.0379 474.729 85.3502C474.71 85.006 474.699 84.7328 474.693 84.5404C474.69 84.4442 474.689 84.3681 474.688 84.3134L474.687 84.2476L474.687 84.2269L474.687 84.2197L474.687 84.2169C474.687 84.2157 474.687 84.2146 477.558 84.1967L474.687 84.2146C474.677 82.629 475.954 81.3355 477.54 81.3256C479.124 81.3157 480.417 82.5911 480.429 84.175C480.429 84.1756 480.429 84.1762 480.429 84.1769C480.429 84.1769 480.429 84.177 480.429 84.177Z" fill="#EE8F94"/>
<path d="M483.973 108.613L473.339 102.473C471.108 101.186 470.344 98.3335 471.632 96.103C472.919 93.8725 475.771 93.1083 478.002 94.3961L488.636 100.536C490.867 101.824 491.631 104.676 490.343 106.906C489.055 109.136 486.203 109.901 483.973 108.613Z" fill="#BE906B"/>
</g>
<defs>
<linearGradient id="paint0_linear" x1="403.921" y1="173.72" x2="388.14" y2="89.0721" gradientUnits="userSpaceOnUse">
<stop stop-color="#E79A41"/>
<stop offset="1" stop-color="#FFD590"/>
</linearGradient>
<linearGradient id="paint1_linear" x1="393.093" y1="193.114" x2="378.456" y2="87.9072" gradientUnits="userSpaceOnUse">
<stop stop-color="#DE5E47"/>
<stop offset="0.1536" stop-color="#E67958"/>
<stop offset="0.4103" stop-color="#F1A170"/>
<stop offset="0.6457" stop-color="#F8BD82"/>
<stop offset="0.85" stop-color="#FDCF8C"/>
<stop offset="1" stop-color="#FFD590"/>
</linearGradient>
<linearGradient id="paint2_linear" x1="384.971" y1="322.739" x2="417.822" y2="277.901" gradientUnits="userSpaceOnUse">
<stop stop-color="#98CED3"/>
<stop offset="1" stop-color="#B4EAF0"/>
</linearGradient>
<linearGradient id="paint3_linear" x1="411.302" y1="390.771" x2="494.438" y2="369.818" gradientUnits="userSpaceOnUse">
<stop stop-color="#605D5A"/>
<stop offset="0.2049" stop-color="#696663"/>
<stop offset="0.5984" stop-color="#75726F"/>
<stop offset="1" stop-color="#797673"/>
</linearGradient>
<radialGradient id="paint4_radial" cx="0" cy="0" r="1" gradientUnits="userSpaceOnUse" gradientTransform="translate(389.237 112.305) rotate(173.166) scale(33.9814)">
<stop stop-color="#9A6541"/>
<stop offset="1" stop-color="#BE906B"/>
</radialGradient>
<radialGradient id="paint5_radial" cx="0" cy="0" r="1" gradientUnits="userSpaceOnUse" gradientTransform="translate(407.805 96.9164) rotate(-17.6141) scale(18.2769 17.0879)">
<stop stop-color="#9B643D"/>
<stop offset="1" stop-color="#BF8F68" stop-opacity="0"/>
</radialGradient>
<linearGradient id="paint6_linear" x1="394.371" y1="175.5" x2="378.589" y2="90.8528" gradientUnits="userSpaceOnUse">
<stop stop-color="#E79A41"/>
<stop offset="1" stop-color="#FFD590"/>
</linearGradient>
<linearGradient id="paint7_linear" x1="304.566" y1="245.381" x2="251.924" y2="207.78" gradientUnits="userSpaceOnUse">
<stop stop-color="#E1DFDD"/>
<stop offset="0.5953" stop-color="#F6F5F4"/>
<stop offset="1" stop-color="white"/>
</linearGradient>
<linearGradient id="paint8_linear" x1="355.269" y1="235.917" x2="287.096" y2="209.45" gradientUnits="userSpaceOnUse">
<stop stop-color="#E1DFDD"/>
<stop offset="0.5953" stop-color="#F6F5F4"/>
<stop offset="1" stop-color="white"/>
</linearGradient>
<linearGradient id="paint9_linear" x1="396.488" y1="250.689" x2="342.751" y2="220.212" gradientUnits="userSpaceOnUse">
<stop stop-color="#E1DFDD"/>
<stop offset="0.5953" stop-color="#F6F5F4"/>
<stop offset="1" stop-color="white"/>
</linearGradient>
<clipPath id="clip0">
<rect width="760" height="428" fill="white"/>
</clipPath>
</defs>
</svg>
