<svg width="760" height="428" viewBox="0 0 760 428" fill="none" xmlns="http://www.w3.org/2000/svg">
<g clip-path="url(#clip0)">
<rect width="760" height="428" fill="#ECF0F1"/>
<path d="M514.193 56.916C514.193 56.916 522.547 81.4109 539.022 85.7026C556.138 90.1612 585.204 81.4187 602.832 96.5855C620.46 111.752 613.824 135.044 616.29 141.582C624.537 163.446 647.835 142.642 674.892 152.481C710.138 165.297 711.563 212.02 692.705 246.047C673.847 280.073 649.219 299.008 595.514 292.449C541.81 285.89 405.28 252.729 383.804 211.298C362.329 169.867 403.848 136.091 398.947 97.343C408.561 91.4194 514.193 56.916 514.193 56.916Z" fill="#33312D"/>
<path d="M274.426 342.254C274.426 342.254 347.157 400.091 433.959 346.478C452.692 334.908 487.23 199.015 484.243 168.605C483.247 158.467 433.598 171.495 433.598 171.495C433.598 171.495 380.443 186.09 345.508 240.878C329.26 266.36 274.426 342.254 274.426 342.254Z" fill="url(#paint0_linear)"/>
<path d="M315.619 240.878C304.79 264.844 270.117 285.685 264.134 318.956C256.057 363.861 287.028 388.985 332.48 389.322C377.932 389.659 454.278 303.805 454.278 303.805C454.278 303.805 343.351 253.432 315.619 240.878Z" fill="url(#paint1_linear)"/>
<path d="M518.878 366.46L365.863 356.338C365.863 356.338 372.796 325.088 379.426 295.607C388.97 253.167 404.143 207.967 433.598 171.495C466.778 164.743 489.43 159.502 507.961 166.65C526.493 173.797 606.445 303.273 612.207 348.903L518.878 366.46Z" fill="url(#paint2_linear)"/>
<path d="M500.599 396.134C500.599 396.134 626.328 386.508 644.377 340.918C664.149 290.976 639.89 211.298 507.961 166.65C467.957 177.425 476.703 224.629 513.343 253.996C526.62 264.638 572.849 291.993 569.128 315.1C564.746 342.312 500.599 340.918 500.599 340.918V396.134Z" fill="#EE8F94"/>
<path d="M518.308 95.3339C524.214 58.8439 502.363 24.9508 469.501 19.6315C436.64 14.3122 405.212 39.5809 399.305 76.0709C393.399 112.561 415.25 146.454 448.111 151.773C480.973 157.093 512.401 131.824 518.308 95.3339Z" fill="#33312D"/>
<path d="M416.443 112.616C417.21 108.289 414.465 104.185 410.312 103.449C406.16 102.713 402.171 105.624 401.405 109.951C400.638 114.278 403.383 118.382 407.536 119.118C411.688 119.854 415.676 116.943 416.443 112.616Z" fill="#E3646A"/>
<path d="M489.03 146.42C485.283 137.228 484.029 110.809 484.029 110.809L447.292 118.422C447.292 118.422 453.991 143.581 452.097 152.481C449.274 165.748 433.598 171.495 433.598 171.495C433.598 171.495 439.674 179.849 454.245 181.204C468.173 182.499 479.451 177.39 488.377 173.105C497.63 168.663 503.585 166.355 507.961 166.649C496.804 161.357 492.488 154.904 489.03 146.42Z" fill="url(#paint3_radial)"/>
<path d="M485.599 90.6045C488.487 63.2592 472.982 39.2064 450.966 36.881C428.951 34.5556 408.762 54.8383 405.874 82.1835C402.986 109.529 418.491 133.582 440.507 135.907C462.522 138.232 482.71 117.95 485.599 90.6045Z" fill="#BF8F68"/>
<path d="M456.773 87.9774C457.377 84.5705 456.223 81.5176 454.196 81.1584C452.17 80.7993 450.037 83.27 449.434 86.6768C448.83 90.0837 449.983 93.1366 452.01 93.4957C454.037 93.8549 456.169 91.3842 456.773 87.9774Z" fill="#33312D"/>
<path d="M442.949 61.2427L439.441 76.9347C437.368 87.9125 432.518 91.6378 428.812 94.2104C426.739 95.6498 424.541 98.0949 427.337 101.444C428.503 102.841 434.167 105.074 433.376 110.135L431.126 126.247L398.848 119.874L415.222 55.8858L442.949 61.2427Z" fill="url(#paint4_radial)"/>
<path d="M423.507 38.1939C423.507 38.1939 419.25 44.7073 419.919 49.7884C432.32 38.8425 446.674 50.6364 450.779 59.1601C457.726 74.0291 471.762 85.4517 487.185 85.9158C498.218 86.2478 506.708 51.4105 476.789 34.8338C445.501 17.4995 423.507 38.1939 423.507 38.1939Z" fill="#33312D"/>
<path d="M468.289 106.903L483.804 109.415C490.009 110.419 495.854 106.204 496.859 99.9982L496.992 99.1746C497.996 92.9692 493.78 87.1241 487.575 86.1198L472.06 83.608L468.289 106.903Z" fill="#BF8F68"/>
<path d="M492.674 116.019C493.441 111.692 490.696 107.588 486.543 106.852C482.39 106.116 478.402 109.027 477.635 113.354C476.869 117.681 479.614 121.785 483.766 122.521C487.919 123.257 491.907 120.346 492.674 116.019Z" fill="#E3646A"/>
<path d="M425.397 83.3619C425.899 79.9386 424.655 76.9214 422.619 76.6229C420.582 76.3244 418.524 78.8576 418.023 82.2809C417.521 85.7043 418.765 88.7214 420.801 89.0199C422.838 89.3184 424.895 86.7852 425.397 83.3619Z" fill="#33312D"/>
<path d="M431.556 113.555C432.896 113.663 434.197 113.84 435.327 113.843C436.477 113.838 437.514 113.797 438.577 113.584C439.646 113.388 440.734 113.03 441.903 112.58C443.051 112.126 444.285 111.496 445.543 110.941L445.75 110.849C446.368 110.577 447.091 110.857 447.364 111.475C447.498 111.778 447.498 112.108 447.391 112.396C446.764 114.082 445.748 115.377 444.443 116.518C443.156 117.659 441.527 118.505 439.731 118.929C437.937 119.369 435.975 119.27 434.268 118.652C432.545 118.017 431.094 117.014 430.078 115.385C429.722 114.815 429.895 114.063 430.466 113.707C430.697 113.563 430.957 113.506 431.209 113.527L431.556 113.555Z" fill="#9B643D"/>
<path d="M322.159 269.649C327.857 269.649 332.476 265.03 332.476 259.332C332.476 253.634 327.857 249.014 322.159 249.014C316.461 249.014 311.841 253.634 311.841 259.332C311.841 265.03 316.461 269.649 322.159 269.649Z" fill="#6FD0C3"/>
<path d="M321.638 233.383L335.909 201.575C337.351 198.36 341.126 196.924 344.341 198.366L344.341 198.366C347.555 199.808 348.992 203.583 347.55 206.798L333.279 238.606C331.837 241.821 328.062 243.258 324.847 241.815C321.632 240.373 320.195 236.598 321.638 233.383Z" fill="#BF8F68"/>
<path d="M337.224 200.487L332.528 259.963C332.156 265.415 327.625 269.649 322.16 269.649C316.694 269.65 312.162 265.417 311.789 259.965L307.082 200.49L337.224 200.487Z" fill="#6FD0C3"/>
<path d="M322.153 215.563C330.478 215.563 337.228 208.814 337.228 200.488C337.228 192.163 330.478 185.414 322.153 185.414C313.827 185.414 307.078 192.163 307.078 200.488C307.078 208.814 313.827 215.563 322.153 215.563Z" fill="#6FD0C3"/>
<path d="M320.569 217.677H302.628C299.105 217.677 296.248 214.821 296.248 211.298C296.248 207.774 299.105 204.918 302.628 204.918H320.569C324.092 204.918 326.949 207.774 326.949 211.298C326.949 214.821 324.092 217.677 320.569 217.677Z" fill="#BF8F68"/>
<path d="M321.828 228.323H303.887C300.363 228.323 297.507 225.467 297.507 221.943V221.943C297.507 218.42 300.363 215.563 303.887 215.563H321.828C325.351 215.563 328.207 218.42 328.207 221.943V221.943C328.207 225.467 325.351 228.323 321.828 228.323Z" fill="#BF8F68"/>
<path d="M323.087 238.968H305.146C301.622 238.968 298.766 236.112 298.766 232.588C298.766 229.065 301.622 226.209 305.146 226.209H323.087C326.61 226.209 329.466 229.065 329.466 232.588C329.466 236.112 326.61 238.968 323.087 238.968Z" fill="#BF8F68"/>
<path d="M319.485 249.614H301.544C298.021 249.614 295.165 246.757 295.165 243.234C295.165 239.71 298.021 236.854 301.544 236.854H319.485C323.008 236.854 325.865 239.71 325.865 243.234C325.865 246.757 323.008 249.614 319.485 249.614Z" fill="#BF8F68"/>
<path d="M322.161 283.374C303.311 283.376 285.753 278.153 285.753 278.153C285.753 278.153 285.752 262.863 285.752 262.129C285.751 250.394 302.05 240.88 322.156 240.878C342.263 240.876 358.564 250.387 358.565 262.122C358.565 262.856 358.566 278.146 358.566 278.146C358.566 278.146 341.011 283.372 322.161 283.374Z" fill="#6FD0C3"/>
<path d="M322.16 299.397C342.266 299.397 358.566 289.884 358.566 278.149C358.566 266.414 342.266 256.901 322.16 256.901C302.053 256.901 285.753 266.414 285.753 278.149C285.753 289.884 302.053 299.397 322.16 299.397Z" fill="#EAEAF3"/>
<path d="M321.252 286.818L307.664 277.78L313.689 272.81L321.082 277.638L331.023 269.368L337.33 273.563L321.252 286.818Z" fill="#6FD0C3"/>
<path d="M707.357 349.019V428.453H145.042V349.019C145.042 344.54 148.691 340.912 153.15 340.912H504.488C504.488 340.912 504.508 340.912 504.528 340.912H699.249C703.729 340.912 707.357 344.54 707.357 349.019Z" fill="#C8C6C4"/>
<path d="M403.259 347.691C403.259 347.691 528.857 342.924 590.148 328.67C590.148 328.67 564.728 373.371 555.755 389.323C555.755 389.323 374.188 392.171 358.564 391.573C358.564 391.573 388.515 366.46 403.259 347.691Z" fill="#E1DFDD"/>
<path d="M379.169 339.494C379.169 339.494 519.963 343.327 566.058 320.473C566.058 320.473 550.657 360.93 541.684 376.882C541.684 376.882 350.098 387.051 334.474 386.453C334.474 386.453 354.742 374.389 379.169 339.494Z" fill="#F3F2F1"/>
<path d="M372.901 334.121C372.901 334.121 499.059 337.955 545.154 315.1C545.154 315.1 544.389 355.557 535.416 371.509C535.416 371.509 343.83 381.679 328.206 381.081C328.206 381.081 348.474 369.017 372.901 334.121Z" fill="url(#paint5_linear)"/>
<path d="M182.348 350.029C182.348 350.029 226.804 338.489 253.401 313.406C253.401 313.406 288.156 346.744 411.177 307.965C411.177 307.965 393.23 348.346 407.812 360.685C407.812 360.685 226.095 403.31 182.348 350.029Z" fill="#FCFCFB"/>
<path d="M19 240.759C19 240.759 94.0007 236.856 152.914 207.904C152.914 207.904 206.199 243.895 270.11 260.899C270.11 260.899 241.736 282.961 203.621 299.514C170.85 313.746 133.638 313.725 100.941 299.323C73.6056 287.283 40.4393 268.255 19 240.759Z" fill="#FCFCFB"/>
<path d="M172.396 263.544C173.469 253.779 162.095 244.518 146.993 242.859C131.89 241.2 118.778 247.771 117.705 257.536C116.633 267.301 128.006 276.562 143.109 278.221C158.211 279.88 171.324 273.309 172.396 263.544Z" fill="#6FD0C3"/>
<path d="M148.31 271.118L128.559 266.867L131.209 259.297L143.85 262.08L150.087 247.766L157.647 249.756L148.31 271.118Z" fill="#FCFCFB"/>
<path d="M124.45 307.023C144.492 311.52 165.353 311.143 185.266 305.875C184.328 305.901 161.699 306.456 155.638 299.276C155.638 299.276 141.343 309.586 124.45 307.023Z" fill="#EDEBE9"/>
</g>
<defs>
<linearGradient id="paint0_linear" x1="467.633" y1="344.555" x2="422.707" y2="298.98" gradientUnits="userSpaceOnUse">
<stop stop-color="#E3646A"/>
<stop offset="0.52208" stop-color="#E97D82"/>
<stop offset="1" stop-color="#EE8F94"/>
</linearGradient>
<linearGradient id="paint1_linear" x1="387.232" y1="358.622" x2="341.957" y2="312.692" gradientUnits="userSpaceOnUse">
<stop offset="0.000628" stop-color="#E3646A"/>
<stop offset="0.032682" stop-color="#E4666C"/>
<stop offset="0.378069" stop-color="#E97D82"/>
<stop offset="0.707099" stop-color="#ED8A8F"/>
<stop offset="1" stop-color="#EE8F94"/>
</linearGradient>
<linearGradient id="paint2_linear" x1="603.965" y1="359.117" x2="510.246" y2="304.316" gradientUnits="userSpaceOnUse">
<stop offset="0.000628" stop-color="#E3646A"/>
<stop offset="1" stop-color="#EE8F94"/>
</linearGradient>
<radialGradient id="paint3_radial" cx="0" cy="0" r="1" gradientUnits="userSpaceOnUse" gradientTransform="translate(446.528 123.171) rotate(21.2983) scale(33.4005)">
<stop stop-color="#9B643D"/>
<stop offset="0.239748" stop-color="#A7724B"/>
<stop offset="0.699607" stop-color="#B88760"/>
<stop offset="1" stop-color="#BF8F68"/>
</radialGradient>
<radialGradient id="paint4_radial" cx="0" cy="0" r="1" gradientUnits="userSpaceOnUse" gradientTransform="translate(433.912 97.6362) rotate(-175.122) scale(19.6338 20.698)">
<stop offset="0.0003" stop-color="#9B643D"/>
<stop offset="0.163197" stop-color="#A36D46" stop-opacity="0.837054"/>
<stop offset="0.682951" stop-color="#B7865F" stop-opacity="0.317144"/>
<stop offset="1" stop-color="#BF8F68" stop-opacity="0"/>
</radialGradient>
<linearGradient id="paint5_linear" x1="376.374" y1="293.359" x2="448.874" y2="359.157" gradientUnits="userSpaceOnUse">
<stop stop-color="#E1DFDD"/>
<stop offset="0.124143" stop-color="#E6E4E2"/>
<stop offset="0.617687" stop-color="#F5F4F2"/>
<stop offset="1" stop-color="#FAF9F8"/>
</linearGradient>
<clipPath id="clip0">
<rect width="760" height="428" fill="white"/>
</clipPath>
</defs>
</svg>
