<svg width="760" height="428" viewBox="0 0 760 428" fill="none" xmlns="http://www.w3.org/2000/svg">
<g clip-path="url(#clip0)">
<rect width="760" height="428" fill="#ECF0F1"/>
<g clip-path="url(#clip1)">
<path d="M421.466 50.5401C429.783 76.691 411.82 101.756 376.712 101.201C352.576 100.82 343.14 115.018 343.14 115.018C343.14 115.018 344.511 99.9994 331.826 93.1848C324.328 89.1567 318.221 83.0106 315.071 74.8813C307.623 55.6585 319.171 33.2138 340.891 24.7982C362.577 16.3957 411.251 18.4196 421.466 50.5401Z" fill="#C6E8ED"/>
<path d="M116 215.438C116 241.532 127.42 265.35 146.309 283.51C152.262 289.234 155.44 297.261 155.44 305.519V333.297L168.867 309.966C171.128 306.036 176 304.417 180.118 306.312C197.387 314.259 217.189 318.75 238.212 318.75C305.722 318.75 365.591 278.622 365.591 221.51C365.591 186.014 347.132 113.894 225.227 113.894C157.718 113.894 116 158.377 116 215.438Z" fill="#C8C6C4"/>
<path d="M312.332 238.459C303.598 205.314 276.045 179.251 240.714 179.251H240.46C203.104 179.251 177.893 207.469 171.527 243.722C170.412 250.071 162.497 295.412 156.078 332.188L168.866 309.966C171.128 306.036 175.999 304.417 180.118 306.312C197.386 314.259 217.188 318.75 238.212 318.75C272.267 318.75 304.366 308.529 327.828 291.077C320.027 264.868 313.309 242.164 312.332 238.459Z" fill="url(#paint0_linear)"/>
<path d="M312.307 239.975C310.639 223.17 295.662 210.9 278.857 212.568H278.857C262.052 214.237 249.781 229.213 251.45 246.019C251.45 246.019 261.484 278.402 264.914 316.604C284.486 313.454 302.717 306.919 318.13 297.6C316.564 264.533 312.307 239.975 312.307 239.975Z" fill="#E1DFDD"/>
<path d="M199.623 135.586C199.652 135.621 199.694 135.672 199.767 135.749C199.702 135.674 199.652 135.621 199.623 135.586Z" fill="#6F50A1"/>
<path d="M196.901 146.794C196.934 146.825 196.981 146.871 197.061 146.94C196.989 146.873 196.934 146.825 196.901 146.794Z" fill="#6F50A1"/>
<path d="M239.736 137.166C240.548 130.808 228.927 130.492 235.92 120.881C238.084 117.909 240.196 111.9 242.914 105.793L251.392 106.992L247.379 138.372L239.736 137.166Z" fill="url(#paint1_radial)"/>
<path d="M289.818 155.202L295.557 144.177L242.126 146.1L188.676 143.166L194.205 154.298C212.016 181.345 191.254 200.843 191.254 200.843C191.254 200.843 212.669 215.061 241.471 215.334C270.271 215.606 289.944 199.511 289.944 199.511C289.944 199.511 269.825 183.12 289.818 155.202Z" fill="#8B8CC4"/>
<path d="M304.845 114.714C308.144 77.4196 283.105 44.7355 248.919 41.712C214.734 38.6885 184.347 66.4704 181.048 103.765C177.75 141.059 202.789 173.743 236.974 176.766C271.16 179.79 301.547 152.008 304.845 114.714Z" fill="#8B8CC4"/>
<path d="M194.905 149.467C203.372 170.022 213.858 193.412 242.286 187.277C255.534 184.418 261.783 176.673 282.217 187.277C282.217 187.277 273.148 178.028 277.462 160.936C280.338 149.545 282.728 130.816 282.728 130.816C282.728 130.816 179.497 112.057 194.905 149.467Z" fill="url(#paint2_radial)"/>
<path d="M280.138 122.358C282.514 95.5021 264.483 71.9661 239.866 69.7888C215.248 67.6115 193.367 87.6175 190.991 114.473C188.616 141.329 206.647 164.865 231.264 167.042C255.881 169.22 277.763 149.214 280.138 122.358Z" fill="#E0BB95"/>
<path d="M228.924 138.645C229.408 136.844 228.739 134.947 227.266 133.802C224.317 131.512 220.907 127.953 226.392 122.024C228.935 119.277 231.971 117.898 233.578 103.998L208.658 98.9103L200.316 141.197L227.362 146.301L228.924 138.645Z" fill="url(#paint3_radial)"/>
<path d="M243.052 144.497C242.485 146.563 241.464 148.086 239.981 149.459C238.53 150.804 236.626 151.807 234.6 152.202C232.588 152.59 230.491 152.507 228.688 151.864C227.757 151.615 226.966 151.09 226.158 150.662C225.41 150.128 224.712 149.552 224.106 148.866C223.373 148.034 223.453 146.766 224.284 146.033C224.6 145.754 224.98 145.592 225.369 145.545L225.738 145.5C226.557 145.4 227.266 145.457 227.957 145.471C228.639 145.42 229.292 145.487 229.891 145.44C231.11 145.437 232.147 145.289 233.159 145.14C234.172 144.977 235.117 144.614 236.17 144.18C237.187 143.757 238.323 142.991 239.386 142.447L240.089 142.087C241.115 141.562 242.372 141.968 242.897 142.994C243.144 143.476 243.184 144.013 243.052 144.497Z" fill="#BF8F68"/>
<path d="M244.753 55.0402C244.753 55.0402 236.121 65.8776 256.123 84.412C288.148 114.087 280.564 139.347 266.963 152.675C266.963 152.675 280.966 150.217 284.277 139.621C293.45 110.264 286.065 97.4357 269.323 76.74C252.622 56.095 244.753 55.0402 244.753 55.0402Z" fill="#8B8CC4"/>
<path d="M254.281 121.558C253.629 120.964 252.84 120.257 252.178 119.979C251.514 119.645 250.899 119.493 250.126 119.436C249.38 119.393 248.618 119.334 247.663 119.506C246.72 119.642 245.555 119.918 244.271 120.275L244.108 120.32C243.698 120.434 243.271 120.193 243.157 119.783C243.124 119.665 243.121 119.54 243.143 119.428C243.455 117.823 244.301 116.481 245.6 115.454C246.895 114.474 248.675 113.817 250.459 113.951C252.211 114.006 254.081 114.78 255.378 116.044C256.684 117.357 257.346 118.848 257.504 120.638C257.584 121.543 256.916 122.339 256.013 122.419C255.539 122.46 255.094 122.296 254.767 122L254.281 121.558Z" fill="#484643"/>
<path d="M205.624 114.943C206.237 113.25 207.259 111.98 208.858 111.047C210.436 110.161 212.444 109.891 214.15 110.288C215.909 110.616 217.46 111.709 218.461 112.987C219.451 114.316 219.925 115.83 219.814 117.461C219.786 117.886 219.417 118.208 218.992 118.178C218.868 118.169 218.755 118.135 218.655 118.076L218.506 117.988C217.358 117.314 216.302 116.748 215.427 116.375C214.547 115.965 213.795 115.826 213.063 115.674C212.3 115.531 211.668 115.519 210.94 115.672C210.229 115.77 209.285 116.25 208.502 116.657L207.926 116.959C207.121 117.378 206.13 117.065 205.711 116.261C205.491 115.837 205.475 115.357 205.624 114.943Z" fill="#484643"/>
<path d="M588.49 291.549C588.49 327.729 580.434 352.285 554.092 361.945C548.657 363.938 544.558 369.261 543.174 375.771L551.739 415.508C551.739 415.508 516.435 370.824 469.597 382.209C370.62 406.266 320.569 354.916 320.537 291.549C320.496 211.949 384.797 187.277 464.134 187.277C543.427 187.277 588.49 225.209 588.49 291.549Z" fill="#E1DFDD"/>
<path d="M320.537 291.549C320.537 293.043 320.593 294.523 320.649 296.003C347.775 278.713 365.591 252.646 365.591 221.51C365.591 217.515 365.354 213.052 364.765 208.283C337.506 224.285 320.516 250.653 320.537 291.549Z" fill="#B3AFAB"/>
<path d="M603.095 144.397L616.603 143.15C616.603 143.15 620.253 121.634 618.731 107.045C617.596 96.1719 610.042 81.8746 607.858 79.012C605.673 76.1495 603.098 75.8429 601.334 77.3358C600.506 76.1444 599.035 72.8131 596.721 71.0019C594.19 69.0213 591.59 71.046 591.827 73.7341L595.269 110.798C595.269 110.798 584.121 96.8524 582.366 95.0621C580.681 93.5988 579.352 93.2573 578.379 94.0378C577.32 94.9507 577.19 96.4626 577.987 98.5737C579.918 104.892 603.095 144.397 603.095 144.397Z" fill="#9B643D"/>
<path d="M554.092 361.945C554.963 361.625 555.811 361.287 556.643 360.935V337.679C556.643 292.115 519.706 255.178 474.141 255.178H439.923C394.358 255.178 357.421 292.115 357.421 337.679V369.263C382.31 387.307 419.744 394.326 469.597 382.208C510.646 372.231 542.831 405.314 550.162 413.646C550.43 413.011 550.669 412.361 550.922 411.717L543.174 375.771C544.559 369.261 548.657 363.938 554.092 361.945Z" fill="#6FD0C3"/>
<path d="M439.922 255.178C432.753 255.178 425.798 256.096 419.166 257.814C424.222 266.985 438.266 273.592 454.839 273.592C471.958 273.592 486.39 266.548 490.992 256.906C485.551 255.777 479.917 255.178 474.141 255.178H439.922V255.178Z" fill="#9B643D"/>
<path d="M431.765 187.335H478.432V246.38C478.432 254.43 490.894 256.882 490.894 256.882L418.624 257.809C418.624 257.809 431.739 254.697 431.747 248.015L431.765 187.335Z" fill="url(#paint4_radial)"/>
<path d="M499.202 173.54C506.629 173.54 512.65 167.519 512.65 160.091C512.65 152.664 506.629 146.643 499.202 146.643C491.775 146.643 485.754 152.664 485.754 160.091C485.754 167.519 491.775 173.54 499.202 173.54Z" fill="#594539"/>
<path d="M469.376 120.593C477.842 120.593 484.705 113.73 484.705 105.264C484.705 96.7974 477.842 89.9341 469.376 89.9341C460.91 89.9341 454.046 96.7974 454.046 105.264C454.046 113.73 460.91 120.593 469.376 120.593Z" fill="#594539"/>
<path d="M489.363 131.203C497.829 131.203 504.692 124.34 504.692 115.874C504.692 107.407 497.829 100.544 489.363 100.544C480.896 100.544 474.033 107.407 474.033 115.874C474.033 124.34 480.896 131.203 489.363 131.203Z" fill="#594539"/>
<path d="M500.035 152.363C508.501 152.363 515.364 145.5 515.364 137.033C515.364 128.567 508.501 121.704 500.035 121.704C491.568 121.704 484.705 128.567 484.705 137.033C484.705 145.5 491.568 152.363 500.035 152.363Z" fill="#594539"/>
<path d="M413.224 173.54C420.652 173.54 426.673 167.519 426.673 160.091C426.673 152.664 420.652 146.643 413.224 146.643C405.797 146.643 399.776 152.664 399.776 160.091C399.776 167.519 405.797 173.54 413.224 173.54Z" fill="#594539"/>
<path d="M443.551 121.195C452.018 121.195 458.881 114.332 458.881 105.866C458.881 97.3993 452.018 90.5361 443.551 90.5361C435.085 90.5361 428.222 97.3993 428.222 105.866C428.222 114.332 435.085 121.195 443.551 121.195Z" fill="#594539"/>
<path d="M421.887 131.793C430.353 131.793 437.216 124.93 437.216 116.464C437.216 107.997 430.353 101.134 421.887 101.134C413.421 101.134 406.557 107.997 406.557 116.464C406.557 124.93 413.421 131.793 421.887 131.793Z" fill="#594539"/>
<path d="M413.502 155.139C421.969 155.139 428.832 148.276 428.832 139.81C428.832 131.343 421.969 124.48 413.502 124.48C405.036 124.48 398.173 131.343 398.173 139.81C398.173 148.276 405.036 155.139 413.502 155.139Z" fill="#594539"/>
<path d="M425.567 196.917H486.715C496.022 196.917 503.567 189.372 503.567 180.064V143.324C503.567 121.691 486.03 104.154 464.397 104.154H447.885C426.252 104.154 408.714 121.691 408.714 143.324V180.064C408.715 189.372 416.26 196.917 425.567 196.917Z" fill="#594539"/>
<path d="M511.319 188.836C511.365 197.165 504.65 203.954 496.321 204C495.756 204.003 488.449 203.975 487.9 203.918C480.353 203.128 481.2 196.767 481.157 189.003C481.114 181.312 480.088 174.933 487.523 173.965C488.139 173.885 495.516 173.842 496.154 173.838C504.483 173.792 511.272 180.507 511.319 188.836Z" fill="#9B643D"/>
<path d="M456.164 243.603C478.342 243.603 496.322 225.624 496.322 203.445V149.282C496.322 133.77 483.746 121.195 468.234 121.195H444.093C428.58 121.195 416.005 133.77 416.005 149.282V203.445C416.006 225.624 433.985 243.603 456.164 243.603Z" fill="#9B643D"/>
<path d="M486.605 228.529L457.32 228.049L456.55 205.897C456.549 204.234 457.384 202.683 458.773 201.768L465.877 197.085C467.423 196.066 467.861 193.992 466.858 192.435L460.675 182.833C459.201 180.544 458.412 177.881 458.402 175.159L458.271 141.295L489.033 141.756L486.605 228.529Z" fill="url(#paint5_radial)"/>
<path d="M474.252 185.737C476.149 185.727 477.671 182.747 477.651 179.083C477.631 175.418 476.076 172.456 474.179 172.467C472.281 172.477 470.759 175.456 470.779 179.121C470.799 182.785 472.354 185.747 474.252 185.737Z" fill="#3A312E"/>
<path d="M440.205 185.735C442.103 185.725 443.625 182.746 443.604 179.081C443.584 175.417 442.03 172.455 440.132 172.465C438.234 172.476 436.712 175.455 436.732 179.119C436.753 182.784 438.307 185.746 440.205 185.735Z" fill="#3A312E"/>
<path d="M400.581 188.836C400.535 197.165 407.25 203.954 415.579 204C416.144 204.003 423.451 203.975 424 203.918C431.547 203.128 430.7 196.767 430.743 189.003C430.786 181.312 431.812 174.933 424.377 173.965C423.761 173.885 416.384 173.842 415.746 173.838C407.417 173.792 400.627 180.507 400.581 188.836Z" fill="#9B643D"/>
<path d="M444.821 212.83C446.591 214.014 448.035 214.954 449.483 215.661C450.912 216.379 452.3 216.89 453.744 217.274C455.189 217.646 456.681 217.903 458.289 218.034C459.91 218.165 461.591 218.168 463.67 218.042L463.831 218.033C464.655 217.983 465.364 218.611 465.414 219.435C465.433 219.754 465.351 220.055 465.196 220.308C463.889 222.436 461.666 223.867 459.273 224.594C456.866 225.323 454.22 225.348 451.746 224.659C449.271 223.986 446.971 222.591 445.284 220.708C443.606 218.82 442.522 216.489 442.394 214.082C442.35 213.258 442.983 212.554 443.807 212.51C444.142 212.492 444.458 212.587 444.717 212.76L444.821 212.83Z" fill="#855035"/>
<path d="M429.2 112.982H483.129L499.961 138.518L496.613 173.854L492.115 148.042C490.422 139.857 483.213 133.986 474.855 133.986H437.473C429.114 133.986 421.905 139.857 420.212 148.042L415.716 173.858L412.366 138.518L429.2 112.982Z" fill="#594539"/>
<path d="M428.35 147.98C436.816 147.98 443.679 141.117 443.679 132.651C443.679 124.185 436.816 117.321 428.35 117.321C419.884 117.321 413.02 124.185 413.02 132.651C413.02 141.117 419.884 147.98 428.35 147.98Z" fill="#594539"/>
<path d="M616.603 143.15C616.603 143.15 651.196 189.006 642.639 248.948C628.665 346.842 507.297 384.155 507.297 384.155L490.992 256.906C490.992 256.906 551.116 275.86 581.486 243.008C616.759 204.852 603.095 144.397 603.095 144.397L616.603 143.15Z" fill="#6FD0C3"/>
<path d="M165.204 361.926C161.735 401.034 199.273 414.865 197.202 433.274L190.271 463.569C190.271 463.569 218.842 429.502 256.749 438.182C336.852 456.524 392.525 417.372 392.955 369.063C393.437 315.038 340.932 288.973 276.723 288.973C212.55 288.973 169.672 311.546 165.204 361.926Z" fill="#EE8F94"/>
<path fill-rule="evenodd" clip-rule="evenodd" d="M236.691 363.116C236.691 385.903 255.229 404.44 278.014 404.44C283.663 404.44 289.21 403.288 294.505 401.02C296.233 400.277 297.034 398.276 296.293 396.546C295.552 394.817 293.551 394.015 291.82 394.758C287.379 396.663 282.735 397.629 278.014 397.629C258.985 397.629 243.503 382.146 243.503 363.116C243.503 344.086 258.985 328.604 278.014 328.604C297.044 328.604 312.526 344.086 312.526 363.116C312.526 368.536 311.261 373.81 308.767 378.795C308.742 378.84 308.717 378.886 308.694 378.933C307.599 381.12 305.408 382.481 302.975 382.481C299.495 382.481 296.663 379.649 296.663 376.168C296.663 375.892 296.63 375.623 296.568 375.366V365.127C296.631 364.497 296.663 363.858 296.663 363.212C296.663 362.565 296.631 361.926 296.568 361.296V348.063C296.568 346.183 295.043 344.658 293.162 344.658C291.281 344.658 289.756 346.183 289.756 348.063V348.509C286.44 345.749 282.18 344.087 277.538 344.087C266.992 344.087 258.412 352.665 258.412 363.212C258.412 373.758 266.992 382.336 277.538 382.336C282.269 382.336 286.604 380.609 289.947 377.754C290.732 384.246 296.275 389.291 302.975 389.291C307.718 389.291 312.012 386.801 314.377 382.735C314.448 382.63 314.513 382.519 314.573 382.404C317.735 376.299 319.338 369.81 319.338 363.116C319.338 340.331 300.8 321.794 278.014 321.794C255.229 321.794 236.691 340.331 236.691 363.116ZM289.756 361.675C288.998 355.608 283.808 350.897 277.538 350.897C270.748 350.897 265.224 356.422 265.224 363.212C265.224 370.001 270.748 375.526 277.538 375.526C283.808 375.526 288.998 370.815 289.756 364.748V361.675Z" fill="white"/>
<path d="M408.799 358.944C400.433 385.25 422.356 404.714 451.627 407.616C480.898 410.519 485.398 421.515 485.398 421.515C485.398 421.515 484.019 406.407 496.779 399.552C504.321 395.501 510.464 389.318 513.632 381.141C521.124 361.804 509.508 339.227 487.66 330.761C465.845 322.309 419.074 326.634 408.799 358.944Z" fill="#F7C6C8"/>
</g>
</g>
<defs>
<linearGradient id="paint0_linear" x1="261.893" y1="366.354" x2="231.619" y2="277.385" gradientUnits="userSpaceOnUse">
<stop offset="0.0602" stop-color="#AEB5B3"/>
<stop offset="0.9128" stop-color="#E1DFDD"/>
</linearGradient>
<radialGradient id="paint1_radial" cx="0" cy="0" r="1" gradientUnits="userSpaceOnUse" gradientTransform="translate(220.631 126.441) rotate(5.05265) scale(23.0953 21.7234)">
<stop stop-color="#9B643D"/>
<stop offset="1" stop-color="#BF8F68" stop-opacity="0"/>
</radialGradient>
<radialGradient id="paint2_radial" cx="0" cy="0" r="1" gradientUnits="userSpaceOnUse" gradientTransform="translate(194.333 218.882) rotate(5.05671) scale(77.6351 91.6039)">
<stop stop-color="#4B4C75"/>
<stop offset="1" stop-color="#6D6FAB" stop-opacity="0"/>
</radialGradient>
<radialGradient id="paint3_radial" cx="0" cy="0" r="1" gradientUnits="userSpaceOnUse" gradientTransform="translate(231.181 127.682) rotate(2.60777) scale(15.3076)">
<stop stop-color="#9B643D"/>
<stop offset="1" stop-color="#BF8F68" stop-opacity="0"/>
</radialGradient>
<radialGradient id="paint4_radial" cx="0" cy="0" r="1" gradientUnits="userSpaceOnUse" gradientTransform="translate(455.321 181.999) rotate(180) scale(107.905)">
<stop offset="0.173" stop-color="#724937"/>
<stop offset="0.7031" stop-color="#9B643D"/>
</radialGradient>
<radialGradient id="paint5_radial" cx="0" cy="0" r="1" gradientUnits="userSpaceOnUse" gradientTransform="translate(454.835 194.11) rotate(179.275) scale(33.0124 29.7557)">
<stop offset="0.173" stop-color="#724937"/>
<stop offset="0.7031" stop-color="#9B643D"/>
</radialGradient>
<clipPath id="clip0">
<rect width="760" height="428" fill="white"/>
</clipPath>
<clipPath id="clip1">
<rect width="528" height="528" fill="white" transform="translate(116 19)"/>
</clipPath>
</defs>
</svg>
