<svg width="800" height="400" viewBox="0 0 800 400" fill="none" xmlns="http://www.w3.org/2000/svg">
<rect width="800" height="400" fill="white"/>
<path fill-rule="evenodd" clip-rule="evenodd" d="M271.593 148.033V93.6306C271.556 81.5351 276.322 69.9196 284.844 61.3365C293.367 52.7534 304.948 47.9049 317.044 47.8564C329.139 47.9049 340.721 52.7534 349.243 61.3365C357.766 69.9196 362.532 81.5351 362.495 93.6306V148.037L271.593 148.033Z" fill="#D1D1D1"/>
<path fill-rule="evenodd" clip-rule="evenodd" d="M317.044 49.0431C328.819 49.0956 340.093 53.8151 348.394 62.167C356.695 70.5189 361.345 81.8215 361.325 93.5968V147.062H272.546V93.5968C272.543 87.7491 273.691 81.9579 275.925 76.554C278.16 71.15 281.437 66.2392 285.569 62.1019C289.702 57.9646 294.609 54.6819 300.01 52.4412C305.412 50.2006 311.202 49.0459 317.049 49.0431H317.044ZM317.049 46C310.817 46.0167 304.649 47.2612 298.898 49.6626C293.147 52.064 287.925 55.5751 283.532 59.9953C279.138 64.4155 275.658 69.6581 273.292 75.4236C270.925 81.1891 269.718 87.3645 269.739 93.5968V149.887H364.35V93.5968C364.371 87.3648 363.164 81.1898 360.798 75.4246C358.431 69.6594 354.952 64.4169 350.559 59.9968C346.166 55.5767 340.945 52.0655 335.194 49.6639C329.443 47.2622 323.276 46.0172 317.044 46H317.049Z" fill="#49AEB1"/>
<path d="M279.014 91.451C279.014 81.3649 283.021 71.6919 290.153 64.5599C297.285 57.428 306.958 53.4213 317.044 53.4213C327.13 53.4213 336.803 57.428 343.935 64.5599C351.067 71.6919 355.073 81.3649 355.073 91.451C355.073 101.537 351.067 111.21 343.935 118.342C336.803 125.474 327.13 129.481 317.044 129.481C306.958 129.481 297.285 125.474 290.153 118.342C283.021 111.21 279.014 101.537 279.014 91.451V91.451Z" fill="#FFB900"/>
<path d="M286.434 91.4499C286.434 74.5452 300.554 60.8405 317.972 60.8405C335.389 60.8405 349.51 74.5452 349.51 91.4499C349.51 108.355 335.389 122.059 317.972 122.059C300.554 122.059 286.434 108.356 286.434 91.4499Z" fill="#FFCA40"/>
<path fill-rule="evenodd" clip-rule="evenodd" d="M387.115 294.583H471.443C472.985 294.648 474.491 294.099 475.629 293.056C476.767 292.012 477.444 290.56 477.512 289.018C477.512 286.036 474.694 283.453 471.443 283.453H387.115C386.351 283.419 385.588 283.537 384.869 283.799C384.15 284.061 383.49 284.462 382.926 284.979C382.362 285.496 381.906 286.12 381.584 286.813C381.261 287.507 381.078 288.258 381.046 289.022C381.046 292.203 383.647 294.583 387.115 294.583Z" fill="#FF8B00"/>
<path fill-rule="evenodd" clip-rule="evenodd" d="M388.97 298.298H473.297C474.95 298.205 476.504 297.479 477.634 296.269C478.765 295.06 479.385 293.461 479.366 291.805C479.385 290.15 478.765 288.551 477.634 287.341C476.504 286.132 474.95 285.405 473.297 285.312H388.97C388.145 285.34 387.333 285.53 386.582 285.871C385.83 286.212 385.153 286.698 384.59 287.301C384.026 287.904 383.587 288.612 383.297 289.385C383.007 290.158 382.872 290.98 382.9 291.805C382.872 292.63 383.007 293.452 383.297 294.225C383.587 294.998 384.026 295.706 384.59 296.309C385.153 296.912 385.83 297.398 386.582 297.739C387.333 298.081 388.145 298.271 388.97 298.298Z" fill="#49AEB1"/>
<path fill-rule="evenodd" clip-rule="evenodd" d="M458.961 344.675C459.199 344.115 459.599 343.639 460.11 343.309C460.621 342.978 461.22 342.808 461.828 342.82C462.41 342.833 462.975 343.016 463.454 343.345C463.934 343.675 464.306 344.137 464.527 344.675H458.961Z" fill="#49AEB1"/>
<path d="M269.739 153.596H364.35V149.887H269.739V153.596Z" fill="#026D70"/>
<path fill-rule="evenodd" clip-rule="evenodd" d="M400.614 118.502C396.283 114.379 390.219 114.379 389.353 114.379H369.216C368.682 112.319 367.477 110.496 365.789 109.198C364.102 107.901 362.03 107.204 359.902 107.218V126.749C362.03 126.762 364.101 126.065 365.788 124.768C367.475 123.471 368.68 121.648 369.214 119.588H389.57C392.34 119.655 395.009 120.648 397.149 122.409C398.881 124.144 399.747 126.753 399.747 130.004V167.544C399.747 170.799 398.881 173.404 397.149 175.139C395.071 177.006 392.362 178.014 389.57 177.96H372.245C367.265 177.96 363.367 179.479 360.552 182.304C358.063 185.121 356.678 188.744 356.653 192.503C354.595 193.041 352.774 194.251 351.48 195.94C350.186 197.63 349.492 199.702 349.508 201.83H368.998C369.014 199.702 368.32 197.628 367.026 195.939C365.732 194.249 363.911 193.038 361.852 192.499C362.053 190.119 362.957 187.853 364.451 185.989C366.183 184.036 368.782 183.169 372.246 183.169H389.348C390.214 183.169 396.278 183.381 400.608 179.046C403.64 176.225 405.156 172.536 405.156 167.545V130C405.161 125.231 403.645 121.324 400.614 118.502Z" fill="#49AEB1"/>
<path fill-rule="evenodd" clip-rule="evenodd" d="M396.592 225.948C394.946 225.957 393.37 226.609 392.198 227.764C391.027 228.919 390.353 230.487 390.321 232.132V232.132V251.92H419.081C419.901 251.959 420.721 251.835 421.492 251.555C422.264 251.275 422.972 250.845 423.575 250.288C424.179 249.732 424.666 249.062 425.008 248.316C425.35 247.569 425.541 246.763 425.568 245.943V225.948H396.592Z" fill="#49AEB1"/>
<path d="M403.307 238.932C403.307 237.714 403.547 236.508 404.013 235.383C404.479 234.257 405.163 233.235 406.024 232.373C406.885 231.512 407.908 230.829 409.033 230.363C410.159 229.897 411.365 229.657 412.583 229.657C413.801 229.657 415.007 229.897 416.132 230.363C417.258 230.829 418.28 231.512 419.142 232.373C420.003 233.235 420.686 234.257 421.152 235.383C421.618 236.508 421.858 237.714 421.858 238.932C421.858 241.392 420.881 243.752 419.142 245.491C417.402 247.231 415.043 248.208 412.583 248.208C410.123 248.208 407.763 247.231 406.024 245.491C404.284 243.752 403.307 241.392 403.307 238.932V238.932Z" fill="#014446"/>
<path fill-rule="evenodd" clip-rule="evenodd" d="M416.293 214.816V237.343C417.496 237.319 418.69 237.534 419.809 237.974C420.928 238.415 421.948 239.073 422.81 239.911C423.673 240.749 424.361 241.749 424.835 242.854C425.308 243.959 425.558 245.147 425.569 246.35V224.035C425.556 221.584 424.573 219.238 422.835 217.51C421.096 215.783 418.744 214.814 416.293 214.816V214.816Z" fill="#49AEB1"/>
<path fill-rule="evenodd" clip-rule="evenodd" d="M416.293 214.816V237.343C417.496 237.319 418.69 237.534 419.809 237.974C420.928 238.415 421.948 239.073 422.81 239.911C423.673 240.749 424.361 241.749 424.835 242.854C425.308 243.959 425.558 245.147 425.569 246.35V224.035C425.556 221.584 424.573 219.238 422.835 217.51C421.096 215.783 418.744 214.814 416.293 214.816V214.816Z" fill="#49AEB1"/>
<path d="M421.529 263.222C421.529 259.286 423.092 255.511 425.876 252.728C428.659 249.945 432.433 248.382 436.369 248.382C440.305 248.382 444.08 249.945 446.863 252.728C449.646 255.511 451.21 259.286 451.21 263.222C451.21 267.158 449.646 270.933 446.863 273.716C444.08 276.499 440.305 278.063 436.369 278.063C432.433 278.063 428.659 276.499 425.876 273.716C423.092 270.933 421.529 267.158 421.529 263.222V263.222Z" fill="#014446"/>
<path d="M466.381 291.805C466.381 291.067 466.674 290.359 467.196 289.838C467.718 289.316 468.426 289.023 469.164 289.023C469.902 289.023 470.61 289.316 471.131 289.838C471.653 290.359 471.946 291.067 471.946 291.805C471.946 292.543 471.653 293.251 471.131 293.773C470.61 294.294 469.902 294.588 469.164 294.588C468.426 294.588 467.718 294.294 467.196 293.773C466.674 293.251 466.381 292.543 466.381 291.805Z" fill="#014446"/>
<path d="M458.961 291.805C458.961 291.067 459.254 290.359 459.776 289.838C460.298 289.316 461.005 289.023 461.743 289.023C462.481 289.023 463.189 289.316 463.711 289.838C464.233 290.359 464.526 291.067 464.526 291.805C464.526 292.543 464.233 293.251 463.711 293.773C463.189 294.294 462.481 294.588 461.743 294.588C461.005 294.588 460.298 294.294 459.776 293.773C459.254 293.251 458.961 292.543 458.961 291.805Z" fill="#014446"/>
<path d="M451.54 291.805C451.54 290.269 452.37 289.023 453.395 289.023C454.42 289.023 455.25 290.269 455.25 291.805C455.25 293.341 454.42 294.588 453.395 294.588C452.37 294.588 451.54 293.343 451.54 291.805Z" fill="#014446"/>
<path d="M444.119 291.805C444.119 290.269 444.95 289.023 445.975 289.023C446.999 289.023 447.83 290.269 447.83 291.805C447.83 293.341 446.999 294.588 445.975 294.588C444.95 294.588 444.119 293.343 444.119 291.805Z" fill="#014446"/>
<path d="M436.7 291.805C436.7 290.269 437.531 289.023 438.556 289.023C439.58 289.023 440.411 290.269 440.411 291.805C440.411 293.341 439.58 294.588 438.556 294.588C437.531 294.588 436.7 293.343 436.7 291.805Z" fill="#014446"/>
<path d="M429.279 291.805C429.279 290.269 430.109 289.023 431.134 289.023C432.159 289.023 432.989 290.269 432.989 291.805C432.989 293.341 432.159 294.588 431.134 294.588C430.109 294.588 429.279 293.343 429.279 291.805Z" fill="#014446"/>
<path d="M420.003 291.805C420.003 291.067 420.296 290.359 420.818 289.838C421.34 289.316 422.048 289.023 422.786 289.023C423.524 289.023 424.231 289.316 424.753 289.838C425.275 290.359 425.568 291.067 425.568 291.805C425.568 292.543 425.275 293.251 424.753 293.773C424.231 294.294 423.524 294.588 422.786 294.588C422.048 294.588 421.34 294.294 420.818 293.773C420.296 293.251 420.003 292.543 420.003 291.805Z" fill="#014446"/>
<path d="M412.583 291.805C412.583 291.067 412.876 290.359 413.398 289.838C413.919 289.316 414.627 289.023 415.365 289.023C416.103 289.023 416.811 289.316 417.333 289.838C417.854 290.359 418.148 291.067 418.148 291.805C418.148 292.543 417.854 293.251 417.333 293.773C416.811 294.294 416.103 294.588 415.365 294.588C414.627 294.588 413.919 294.294 413.398 293.773C412.876 293.251 412.583 292.543 412.583 291.805Z" fill="#014446"/>
<path d="M405.161 291.805C405.161 291.067 405.455 290.359 405.976 289.838C406.498 289.316 407.206 289.023 407.944 289.023C408.682 289.023 409.39 289.316 409.911 289.838C410.433 290.359 410.726 291.067 410.726 291.805C410.726 292.543 410.433 293.251 409.911 293.773C409.39 294.294 408.682 294.588 407.944 294.588C407.206 294.588 406.498 294.294 405.976 293.773C405.455 293.251 405.161 292.543 405.161 291.805Z" fill="#014446"/>
<path d="M397.742 291.805C397.742 291.067 398.035 290.359 398.557 289.838C399.079 289.316 399.787 289.023 400.525 289.023C401.263 289.023 401.97 289.316 402.492 289.838C403.014 290.359 403.307 291.067 403.307 291.805C403.307 292.543 403.014 293.251 402.492 293.773C401.97 294.294 401.263 294.588 400.525 294.588C399.787 294.588 399.079 294.294 398.557 293.773C398.035 293.251 397.742 292.543 397.742 291.805Z" fill="#014446"/>
<path d="M390.321 291.805C390.321 291.067 390.614 290.359 391.136 289.838C391.658 289.316 392.365 289.023 393.103 289.023C393.841 289.023 394.549 289.316 395.071 289.838C395.593 290.359 395.886 291.067 395.886 291.805C395.886 292.543 395.593 293.251 395.071 293.773C394.549 294.294 393.841 294.588 393.103 294.588C392.365 294.588 391.658 294.294 391.136 293.773C390.614 293.251 390.321 292.543 390.321 291.805Z" fill="#014446"/>
<path d="M460.816 342.819H462.672V298.296H460.816V342.819Z" fill="#49AEB1"/>
<path d="M460.816 342.819H462.672V298.296H460.816V342.819Z" fill="#49AEB1"/>
<path fill-rule="evenodd" clip-rule="evenodd" d="M460.816 342.82H461.034C461.729 342.796 462.417 342.955 463.03 343.281C463.644 343.606 464.161 344.087 464.531 344.675H462.785C462.617 344.238 462.352 343.845 462.012 343.523C461.671 343.202 461.262 342.962 460.816 342.82Z" fill="#49AEB1"/>
<path fill-rule="evenodd" clip-rule="evenodd" d="M314.019 131.336V282.865C314.017 283.409 313.908 283.947 313.697 284.449C313.487 284.951 313.18 285.407 312.794 285.79C312.407 286.173 311.949 286.476 311.446 286.682C310.942 286.888 310.403 286.993 309.859 286.99C309.298 287.015 308.738 286.928 308.212 286.733C307.686 286.538 307.204 286.239 306.795 285.854C306.387 285.47 306.059 285.007 305.833 284.493C305.606 283.98 305.485 283.426 305.476 282.865V237.709C305.348 234.664 304.045 231.787 301.84 229.682C299.635 227.577 296.701 226.408 293.652 226.421C292.105 226.408 290.57 226.702 289.137 227.285C287.703 227.869 286.4 228.73 285.301 229.82C284.202 230.91 283.33 232.206 282.735 233.635C282.139 235.063 281.833 236.595 281.833 238.143V282.863C281.849 283.412 281.752 283.959 281.549 284.469C281.345 284.979 281.038 285.442 280.648 285.829C280.258 286.215 279.793 286.518 279.281 286.717C278.769 286.917 278.222 287.009 277.673 286.988C277.124 287.009 276.576 286.917 276.065 286.717C275.553 286.518 275.087 286.215 274.697 285.828C274.307 285.442 274.001 284.979 273.797 284.469C273.593 283.958 273.497 283.412 273.513 282.863V258.985C273.475 255.87 272.213 252.895 270.001 250.702C267.789 248.509 264.804 247.274 261.689 247.263C258.54 247.228 255.505 248.442 253.249 250.639C250.992 252.836 249.697 255.836 249.647 258.985V282.865C249.663 283.414 249.566 283.961 249.362 284.471C249.158 284.981 248.852 285.444 248.462 285.83C248.072 286.217 247.607 286.52 247.095 286.719C246.583 286.919 246.036 287.011 245.487 286.99C244.943 286.993 244.403 286.888 243.9 286.682C243.396 286.476 242.938 286.173 242.552 285.79C242.165 285.407 241.858 284.951 241.648 284.449C241.438 283.947 241.329 283.409 241.327 282.865V246.611L254.902 225.987C255.121 225.775 255.34 225.553 255.34 225.336C255.12 223.599 247.238 222.297 237.386 222.297C227.752 222.297 219.87 223.599 219.651 225.336C219.651 225.548 219.87 225.77 220.088 225.987L233.663 246.611V282.865C233.663 284.413 233.97 285.945 234.565 287.374C235.161 288.803 236.033 290.099 237.132 291.189C238.231 292.279 239.535 293.14 240.969 293.723C242.403 294.307 243.938 294.6 245.486 294.587C247.033 294.6 248.569 294.307 250.003 293.724C251.437 293.14 252.741 292.279 253.84 291.189C254.939 290.099 255.812 288.802 256.407 287.373C257.003 285.945 257.309 284.412 257.31 282.864V258.985C257.318 258.424 257.439 257.871 257.666 257.357C257.892 256.844 258.219 256.382 258.627 255.997C259.036 255.612 259.517 255.314 260.043 255.118C260.569 254.923 261.128 254.835 261.689 254.86C262.233 254.857 262.772 254.962 263.275 255.168C263.779 255.374 264.237 255.677 264.623 256.061C265.009 256.444 265.316 256.899 265.526 257.401C265.737 257.903 265.846 258.441 265.848 258.985V284.167C266.194 287.053 267.591 289.711 269.772 291.633C271.953 293.555 274.765 294.606 277.672 294.587C279.22 294.6 280.755 294.307 282.189 293.724C283.623 293.14 284.927 292.279 286.026 291.189C287.125 290.099 287.998 288.802 288.593 287.373C289.189 285.945 289.495 284.412 289.496 282.864V238.143C289.498 237.599 289.607 237.06 289.817 236.559C290.027 236.057 290.334 235.601 290.72 235.218C291.107 234.835 291.565 234.532 292.069 234.326C292.572 234.12 293.111 234.015 293.656 234.018C294.216 233.993 294.776 234.081 295.301 234.276C295.827 234.471 296.309 234.77 296.717 235.155C297.125 235.539 297.452 236.002 297.679 236.515C297.905 237.029 298.026 237.582 298.035 238.143V282.863C298.035 284.411 298.341 285.944 298.937 287.372C299.532 288.801 300.404 290.098 301.504 291.188C302.603 292.278 303.907 293.14 305.341 293.723C306.775 294.307 308.31 294.6 309.858 294.587C311.406 294.6 312.941 294.307 314.375 293.724C315.809 293.14 317.113 292.279 318.212 291.189C319.311 290.099 320.184 288.802 320.779 287.373C321.375 285.945 321.682 284.412 321.682 282.864V131.336H314.019Z" fill="#03787C"/>
<path d="M219.65 225.02C219.65 223.484 227.54 222.237 237.274 222.237C247.007 222.237 254.898 223.484 254.898 225.02C254.898 226.556 247.007 227.802 237.274 227.802C227.54 227.802 219.65 226.557 219.65 225.02Z" fill="#025C5F"/>
<path fill-rule="evenodd" clip-rule="evenodd" d="M359.479 192.554H358.783C360.665 193.371 362.311 194.648 363.567 196.27C364.824 197.891 365.651 199.804 365.971 201.83H369.913C369.909 196.677 365.044 192.554 359.479 192.554Z" fill="#026D70"/>
<path fill-rule="evenodd" clip-rule="evenodd" d="M377.335 342.821H379.191C380.434 342.877 381.679 342.781 382.899 342.536V340.965H377.335V342.821Z" fill="#026D70"/>
<path fill-rule="evenodd" clip-rule="evenodd" d="M340.232 342.821H338.536C337.24 342.876 335.941 342.78 334.667 342.534V340.965H340.232V342.821Z" fill="#026D70"/>
<path d="M388.467 283.456H394.032V214.816H388.467V283.456Z" fill="#026D70"/>
<path fill-rule="evenodd" clip-rule="evenodd" d="M390.321 330.295C390.321 330.295 390.321 340.965 379.593 340.965H338.188C338.188 340.965 327.247 340.965 327.247 330.295V212.5C327.247 212.5 327.247 201.83 338.188 201.83H379.59C379.59 201.83 390.318 201.83 390.318 212.5L390.321 330.295Z" fill="#03787C"/>
<path fill-rule="evenodd" clip-rule="evenodd" d="M358.677 214.816C353.285 214.848 348.124 217.012 344.321 220.835C340.517 224.658 338.381 229.83 338.377 235.223H379.191C379.175 229.797 377.005 224.599 373.159 220.773C369.312 216.946 364.103 214.804 358.677 214.816Z" fill="#C1C1C1"/>
<path d="M356.929 230.585C356.929 229.847 357.222 229.139 357.744 228.617C358.266 228.096 358.973 227.802 359.711 227.802C360.449 227.802 361.157 228.096 361.679 228.617C362.201 229.139 362.494 229.847 362.494 230.585C362.494 231.323 362.201 232.031 361.679 232.552C361.157 233.074 360.449 233.367 359.711 233.367C358.973 233.367 358.266 233.074 357.744 232.552C357.222 232.031 356.929 231.323 356.929 230.585Z" fill="#A70000"/>
<path fill-rule="evenodd" clip-rule="evenodd" d="M358.503 233.367L356.929 231.316L371.769 220.381L358.503 233.367Z" fill="#A70000"/>
<path fill-rule="evenodd" clip-rule="evenodd" d="M363.35 250.707C362.91 251.211 362.367 251.616 361.758 251.893C361.149 252.17 360.487 252.313 359.818 252.313C359.149 252.313 358.487 252.17 357.878 251.893C357.269 251.616 356.726 251.211 356.286 250.707C355.782 250.267 355.377 249.724 355.1 249.115C354.823 248.506 354.68 247.844 354.68 247.175C354.68 246.506 354.823 245.844 355.1 245.235C355.377 244.626 355.782 244.083 356.286 243.643C357.228 242.717 358.497 242.198 359.818 242.198C361.139 242.198 362.408 242.717 363.35 243.643C364.276 244.585 364.795 245.854 364.795 247.175C364.795 248.496 364.276 249.765 363.35 250.707V250.707Z" fill="#FF8B00"/>
<path d="M363.351 250.706C362.911 251.21 362.368 251.615 361.759 251.892C361.15 252.169 360.488 252.312 359.819 252.312C359.15 252.312 358.488 252.169 357.879 251.892C357.27 251.615 356.727 251.21 356.287 250.706C355.783 250.266 355.379 249.723 355.102 249.114C354.825 248.505 354.682 247.844 354.682 247.175C354.682 246.505 354.825 245.844 355.102 245.235C355.379 244.626 355.783 244.083 356.287 243.643C357.229 242.717 358.498 242.198 359.819 242.198C361.14 242.198 362.409 242.717 363.351 243.643C364.277 244.585 364.796 245.853 364.796 247.175C364.796 248.496 364.277 249.764 363.351 250.706Z" stroke="#505050" stroke-miterlimit="8"/>
<path d="M370.842 247.281C370.842 245.805 371.429 244.389 372.472 243.346C373.516 242.302 374.931 241.716 376.407 241.716C377.883 241.717 379.297 242.304 380.34 243.347C381.382 244.391 381.968 245.805 381.968 247.281C381.967 248.755 381.381 250.169 380.338 251.211C379.296 252.254 377.882 252.84 376.407 252.841C374.932 252.841 373.517 252.256 372.474 251.213C371.43 250.17 370.844 248.756 370.842 247.281V247.281Z" fill="#FF8B00"/>
<path d="M370.842 247.281C370.842 246.18 371.167 245.104 371.778 244.188C372.389 243.272 373.258 242.558 374.275 242.136C375.292 241.715 376.411 241.604 377.49 241.818C378.57 242.032 379.562 242.562 380.341 243.34C381.12 244.118 381.65 245.11 381.865 246.189C382.08 247.269 381.97 248.388 381.549 249.405C381.128 250.422 380.415 251.292 379.5 251.903C378.584 252.515 377.508 252.841 376.407 252.841C374.932 252.841 373.517 252.256 372.474 251.213C371.43 250.17 370.844 248.756 370.842 247.281V247.281Z" stroke="#505050" stroke-miterlimit="8"/>
<path fill-rule="evenodd" clip-rule="evenodd" d="M348.188 250.707C347.064 251.74 345.594 252.313 344.067 252.313C342.541 252.313 341.071 251.74 339.947 250.707C339.37 250.316 338.897 249.79 338.571 249.174C338.244 248.558 338.074 247.872 338.074 247.175C338.074 246.478 338.244 245.792 338.571 245.176C338.897 244.56 339.37 244.034 339.947 243.643C341.117 242.707 342.57 242.198 344.067 242.198C345.565 242.198 347.018 242.707 348.188 243.643C348.715 244.069 349.14 244.607 349.431 245.218C349.723 245.829 349.874 246.498 349.874 247.175C349.874 247.852 349.723 248.521 349.431 249.132C349.14 249.743 348.715 250.281 348.188 250.707V250.707Z" fill="#FFA940"/>
<path d="M348.188 250.706C347.064 251.739 345.594 252.312 344.068 252.312C342.541 252.312 341.071 251.739 339.947 250.706C339.37 250.315 338.898 249.789 338.572 249.173C338.245 248.557 338.075 247.871 338.075 247.175C338.075 246.478 338.245 245.792 338.572 245.176C338.898 244.56 339.37 244.034 339.947 243.643C341.117 242.707 342.57 242.198 344.068 242.198C345.565 242.198 347.019 242.707 348.188 243.643C348.715 244.069 349.139 244.607 349.431 245.218C349.723 245.829 349.874 246.497 349.874 247.175C349.874 247.852 349.723 248.52 349.431 249.131C349.139 249.742 348.715 250.28 348.188 250.706V250.706Z" stroke="#505050" stroke-miterlimit="8"/>
<path fill-rule="evenodd" clip-rule="evenodd" d="M369.915 117.19V116.494C369.138 118.402 367.871 120.071 366.242 121.333C364.614 122.595 362.681 123.406 360.639 123.682V127.624C365.792 127.619 369.915 122.987 369.915 117.19Z" fill="#026D70"/>
<path fill-rule="evenodd" clip-rule="evenodd" d="M291.999 91.4487C292.012 84.8107 294.655 78.4482 299.349 73.7547C304.043 69.0611 310.406 66.4192 317.044 66.4074C323.682 66.4192 330.045 69.0611 334.739 73.7547C339.433 78.4482 342.076 84.8107 342.088 91.4487C342.117 96.9985 340.244 102.391 336.782 106.728C336.355 107.413 335.858 108.053 335.298 108.635C332.967 111.602 328.719 117.76 328.719 123.915H305.37C305.37 117.76 301.126 111.606 298.578 108.635C298.154 107.999 297.519 107.364 297.095 106.728C293.785 102.322 291.997 96.9595 291.999 91.4487Z" fill="#FFF1E1"/>
<path d="M291.999 91.4478C291.999 84.8056 294.638 78.4354 299.335 73.7387C304.031 69.0419 310.402 66.4033 317.044 66.4033C323.686 66.4033 330.056 69.0419 334.753 73.7387C339.45 78.4354 342.088 84.8056 342.088 91.4478C342.117 96.9975 340.244 102.39 336.782 106.727C336.355 107.412 335.858 108.052 335.298 108.634C332.967 111.601 328.719 117.759 328.719 123.914H305.37C305.37 117.759 301.126 111.605 298.578 108.634C298.154 107.999 297.519 107.363 297.095 106.727C293.785 102.321 291.997 96.9585 291.999 91.4478" stroke="white" stroke-width="2" stroke-miterlimit="8"/>
<path d="M291.999 91.4478C291.999 84.8056 294.638 78.4354 299.335 73.7387C304.031 69.0419 310.402 66.4033 317.044 66.4033C323.686 66.4033 330.056 69.0419 334.753 73.7387C339.45 78.4354 342.088 84.8056 342.088 91.4478C342.117 96.9975 340.244 102.39 336.782 106.727C336.355 107.412 335.858 108.052 335.298 108.634C332.967 111.601 328.719 117.759 328.719 123.914H305.37C305.37 117.759 301.126 111.605 298.578 108.634C298.154 107.999 297.519 107.363 297.095 106.727C293.785 102.321 291.997 96.9585 291.999 91.4478" stroke="white" stroke-width="2" stroke-miterlimit="8"/>
<path d="M300.348 93.3051C300.364 88.3899 302.324 83.6808 305.799 80.2052C309.275 76.7297 313.984 74.77 318.899 74.7538" stroke="white" stroke-miterlimit="8" stroke-linecap="round"/>
<path fill-rule="evenodd" clip-rule="evenodd" d="M551.515 267.213C547.033 273.736 541.434 279.414 534.976 283.988L579.319 332.585C580.709 334.063 582.451 335.165 584.381 335.791C586.311 336.416 588.368 336.544 590.361 336.163C592.482 335.763 594.431 334.728 595.95 333.195C597.099 332.203 598.039 330.991 598.713 329.63C599.387 328.269 599.782 326.787 599.875 325.272C599.968 323.756 599.757 322.237 599.254 320.804C598.751 319.371 597.967 318.053 596.947 316.928L551.515 267.213Z" fill="#49AEB1"/>
<path fill-rule="evenodd" clip-rule="evenodd" d="M543.044 274.381C540.219 277.151 537.123 279.632 533.805 281.786L539.627 288.231C546.028 283.95 551.591 278.532 556.04 272.247L550.035 265.9C547.913 268.893 545.577 271.727 543.044 274.381V274.381Z" fill="#026D70"/>
<path fill-rule="evenodd" clip-rule="evenodd" d="M555.264 217.847C559.826 232.072 558.574 247.525 551.78 260.83C544.987 274.136 533.205 284.212 519.007 288.859C504.81 293.395 489.395 292.127 476.13 285.334C462.864 278.54 452.827 266.773 448.209 252.602C445.919 245.588 445.035 238.19 445.608 230.833C446.18 223.476 448.198 216.304 451.546 209.728C454.894 203.152 459.506 197.3 465.118 192.509C470.73 187.718 477.233 184.08 484.252 181.805C491.281 179.503 498.695 178.609 506.07 179.174C513.445 179.74 520.636 181.754 527.231 185.102C533.827 188.449 539.698 193.065 544.508 198.683C549.318 204.302 552.973 210.814 555.264 217.847V217.847Z" fill="#D1D1D1"/>
<path d="M555.264 217.844C558.713 228.424 558.948 239.789 555.939 250.503C552.931 261.216 546.814 270.798 538.361 278.035C529.909 285.273 519.5 289.843 508.451 291.166C497.402 292.49 486.209 290.508 476.286 285.471C466.363 280.435 458.156 272.57 452.702 262.87C447.248 253.17 444.792 242.071 445.645 230.976C446.497 219.881 450.62 209.287 457.492 200.534C464.364 191.782 473.676 185.263 484.252 181.801C498.45 177.23 513.878 178.453 527.178 185.204C540.478 191.954 550.573 203.686 555.264 217.844V217.844Z" stroke="#49AEB1" stroke-width="2" stroke-miterlimit="8"/>
<path fill-rule="evenodd" clip-rule="evenodd" d="M342.088 91.4488C342.047 84.7825 339.366 78.4042 334.632 73.7107C329.897 69.0172 323.496 66.3911 316.83 66.4075C315.974 66.4075 315.117 66.6194 314.261 66.6194C320.478 67.1812 326.264 70.0329 330.497 74.6209C334.729 79.209 337.106 85.2059 337.165 91.4477C337.091 96.9874 335.212 102.352 331.813 106.727V106.727C331.389 107.363 330.743 107.999 330.315 108.634C327.961 111.601 323.465 117.759 323.465 123.914H328.603C328.603 117.759 332.884 111.605 335.238 108.634C335.802 108.052 336.304 107.413 336.736 106.727V106.727C340.224 102.401 342.114 97.0047 342.087 91.4477" fill="#FFE3C0"/>
<path d="M340.233 298.299H343.941V266.761H340.233V298.299Z" fill="#014446"/>
<path d="M347.653 298.299H353.218V266.761H347.653V298.299Z" fill="#014446"/>
<path d="M355.073 298.299H360.638V266.761H355.073V298.299Z" fill="#014446"/>
<path d="M364.349 298.299H368.058V266.761H364.349V298.299Z" fill="#014446"/>
<path d="M371.77 298.299H375.478V266.761H371.77V298.299Z" fill="#014446"/>
<path d="M345.798 277.889H353.215V274.18H345.798V277.889Z" fill="#FFB900"/>
<path d="M338.377 287.167H345.795V285.312H338.377V287.167Z" fill="#FFB900"/>
<path d="M355.073 287.167H362.491V285.312H355.073V287.167Z" fill="#FFB900"/>
<path d="M362.494 294.585H369.911V290.877H362.494V294.585Z" fill="#FFB900"/>
<path d="M369.915 276.034H377.332V272.326H369.915V276.034Z" fill="#FFB900"/>
<path d="M334.667 318.705H382.9V316.849H334.667V318.705Z" fill="#014446"/>
<path d="M334.667 322.413H382.9V320.558H334.667V322.413Z" fill="#014446"/>
<path d="M334.667 326.124H382.9V324.268H334.667V326.124Z" fill="#014446"/>
<path d="M334.667 329.834H382.9V327.979H334.667V329.834Z" fill="#014446"/>
<path fill-rule="evenodd" clip-rule="evenodd" d="M329.619 123.914C329.619 123.914 330.955 123.914 330.955 125.086V126.453C330.951 126.619 330.913 126.784 330.842 126.935C330.771 127.086 330.67 127.221 330.544 127.331C330.418 127.441 330.271 127.524 330.112 127.574C329.953 127.624 329.785 127.64 329.619 127.622H304.465C304.465 127.622 303.129 127.622 303.129 126.457V125.09C303.132 124.923 303.17 124.758 303.241 124.606C303.311 124.454 303.412 124.318 303.538 124.207C303.664 124.097 303.811 124.014 303.971 123.963C304.131 123.912 304.299 123.896 304.465 123.914H329.619Z" fill="#49AEB1"/>
<path fill-rule="evenodd" clip-rule="evenodd" d="M329.619 127.626C329.619 127.626 330.955 127.626 330.955 129.573V131.521C330.955 131.521 330.955 133.191 329.619 133.191H304.465C304.465 133.191 303.129 133.191 303.129 131.521V129.573C303.129 129.573 303.129 127.626 304.465 127.626H329.619Z" fill="#026D70"/>
<path fill-rule="evenodd" clip-rule="evenodd" d="M329.619 136.9C329.619 136.9 330.955 136.9 330.955 138.013V139.496C330.948 139.66 330.907 139.82 330.835 139.967C330.762 140.114 330.66 140.244 330.534 140.349C330.408 140.454 330.261 140.531 330.104 140.576C329.946 140.621 329.781 140.632 329.619 140.609H304.465C304.465 140.609 303.129 140.609 303.129 139.496V138.013C303.136 137.849 303.177 137.689 303.25 137.542C303.322 137.395 303.425 137.265 303.551 137.16C303.677 137.056 303.823 136.978 303.981 136.933C304.138 136.889 304.303 136.877 304.465 136.9H329.619Z" fill="#026D70"/>
<path fill-rule="evenodd" clip-rule="evenodd" d="M329.619 133.191C329.619 133.191 330.955 133.191 330.955 134.303V135.787C330.948 135.95 330.907 136.111 330.835 136.258C330.762 136.404 330.66 136.534 330.534 136.639C330.408 136.744 330.261 136.821 330.104 136.866C329.946 136.911 329.781 136.922 329.619 136.899H304.465C304.465 136.899 303.129 136.899 303.129 135.786V134.302C303.136 134.139 303.177 133.978 303.25 133.831C303.322 133.685 303.425 133.555 303.551 133.45C303.677 133.345 303.823 133.268 303.981 133.223C304.138 133.178 304.303 133.167 304.465 133.19L329.619 133.191Z" fill="#49AEB1"/>
<path d="M564.649 142.326C576.144 142.326 585.463 133.007 585.463 121.511C585.463 110.016 576.144 100.697 564.649 100.697C553.153 100.697 543.834 110.016 543.834 121.511C543.834 133.007 553.153 142.326 564.649 142.326Z" fill="#D1D1D1"/>
<path d="M507.103 142.326C518.599 142.326 527.918 133.007 527.918 121.511C527.918 110.016 518.599 100.697 507.103 100.697C495.608 100.697 486.289 110.016 486.289 121.511C486.289 133.007 495.608 142.326 507.103 142.326Z" fill="#D1D1D1"/>
<path d="M448.334 143.551C459.83 143.551 469.149 134.232 469.149 122.736C469.149 111.241 459.83 101.922 448.334 101.922C436.839 101.922 427.52 111.241 427.52 122.736C427.52 134.232 436.839 143.551 448.334 143.551Z" fill="#D1D1D1"/>
<path fill-rule="evenodd" clip-rule="evenodd" d="M575.174 111.137L567.015 119.448C566.609 119.217 566.158 119.075 565.692 119.033C565.166 118.931 564.622 118.973 564.118 119.156C563.614 119.339 563.169 119.655 562.831 120.071L556.66 114.046C556.329 113.744 555.897 113.577 555.448 113.577C555 113.577 554.568 113.744 554.236 114.046C554.08 114.192 553.955 114.369 553.87 114.566C553.784 114.762 553.74 114.974 553.74 115.188C553.74 115.403 553.784 115.615 553.87 115.811C553.955 116.008 554.08 116.185 554.236 116.331L561.51 122.357C562.239 123.281 563.138 124.057 564.159 124.643L567.245 135.655C567.423 136.066 567.746 136.398 568.151 136.589C568.557 136.78 569.018 136.817 569.449 136.693C569.746 136.64 570.017 136.488 570.217 136.262C570.417 136.035 570.534 135.748 570.551 135.446V134.823L567.465 123.811C567.926 123.362 568.234 122.781 568.347 122.148C568.396 121.397 568.16 120.655 567.685 120.07L575.844 111.551V111.136C575.805 111.085 575.754 111.043 575.696 111.015C575.637 110.986 575.573 110.972 575.509 110.972C575.444 110.972 575.38 110.987 575.322 111.015C575.264 111.044 575.213 111.086 575.174 111.137Z" fill="#03787C"/>
<path fill-rule="evenodd" clip-rule="evenodd" d="M588.818 124.63C588.409 127.804 587.379 130.866 585.787 133.642C584.194 136.417 582.07 138.851 579.536 140.805C577.002 142.759 574.107 144.195 571.018 145.03C567.929 145.864 564.706 146.082 561.532 145.67C558.342 145.265 555.263 144.235 552.471 142.638C549.679 141.041 547.23 138.909 545.264 136.364C543.297 133.819 541.852 130.911 541.011 127.807C540.17 124.703 539.949 121.463 540.362 118.274C540.77 115.1 541.8 112.039 543.393 109.263C544.985 106.488 547.109 104.054 549.642 102.1C552.176 100.146 555.07 98.7107 558.158 97.8756C561.247 97.0405 564.47 96.8223 567.643 97.2335C574.074 98.0816 579.908 101.437 583.875 106.57C587.841 111.702 589.618 118.194 588.818 124.63V124.63ZM544.513 118.932C543.825 124.267 545.274 129.657 548.545 133.927C551.816 138.197 556.643 141.001 561.973 141.726C567.33 142.342 572.715 140.826 576.963 137.504C581.21 134.182 583.98 129.321 584.672 123.973C585.302 118.673 583.825 113.337 580.56 109.114C577.294 104.892 572.5 102.121 567.212 101.399C564.568 101.049 561.882 101.225 559.307 101.918C556.733 102.612 554.321 103.808 552.211 105.438C550.101 107.067 548.334 109.099 547.013 111.415C545.692 113.731 544.842 116.286 544.513 118.932V118.932Z" fill="#025C5F"/>
<path fill-rule="evenodd" clip-rule="evenodd" d="M460.6 130.455L450.817 123.621C451.058 123.218 451.207 122.766 451.251 122.299C451.243 121.788 451.122 121.286 450.897 120.828C450.671 120.37 450.347 119.967 449.947 119.65V110.833C449.951 110.603 449.91 110.374 449.824 110.16C449.739 109.946 449.612 109.752 449.45 109.588C449.288 109.424 449.095 109.294 448.883 109.206C448.67 109.118 448.442 109.073 448.211 109.074C447.981 109.072 447.752 109.117 447.538 109.205C447.325 109.294 447.131 109.424 446.969 109.588C446.807 109.753 446.68 109.948 446.594 110.162C446.509 110.377 446.468 110.606 446.473 110.837V119.654C445.856 120.083 445.398 120.702 445.168 121.417L434.081 126.046C433.732 126.284 433.462 126.621 433.307 127.014C433.152 127.407 433.118 127.837 433.211 128.25C433.645 128.911 434.081 129.351 434.732 129.351C434.851 129.366 434.971 129.354 435.084 129.316C435.197 129.278 435.3 129.215 435.385 129.131L446.473 124.723C446.994 125.073 447.589 125.3 448.211 125.384C448.635 125.387 449.054 125.288 449.432 125.097C449.81 124.905 450.137 124.626 450.386 124.282L460.169 131.336H460.386C460.603 131.336 460.603 131.336 460.821 131.116C460.835 130.996 460.822 130.875 460.784 130.76C460.746 130.646 460.683 130.542 460.6 130.455V130.455Z" fill="#03787C"/>
<path fill-rule="evenodd" clip-rule="evenodd" d="M531.312 122.167C531.291 128.546 528.74 134.657 524.219 139.158C519.698 143.66 513.575 146.183 507.195 146.175C500.815 146.183 494.693 143.66 490.171 139.159C485.65 134.658 483.099 128.546 483.078 122.167C483.066 118.991 483.681 115.844 484.887 112.907C486.093 109.969 487.867 107.299 490.108 105.048C492.348 102.798 495.011 101.012 497.943 99.7922C500.875 98.5728 504.019 97.9441 507.194 97.9422C510.37 97.944 513.514 98.5726 516.446 99.7919C519.379 101.011 522.041 102.797 524.282 105.048C526.522 107.298 528.297 109.969 529.503 112.906C530.709 115.844 531.324 118.991 531.312 122.167V122.167ZM487.17 122.167C487.193 127.459 489.315 132.526 493.069 136.257C496.823 139.987 501.904 142.076 507.197 142.066C512.489 142.076 517.57 139.987 521.324 136.257C525.078 132.526 527.2 127.459 527.223 122.167C527.234 119.529 526.724 116.916 525.722 114.476C524.721 112.037 523.248 109.819 521.387 107.95C519.526 106.081 517.315 104.598 514.88 103.586C512.445 102.574 509.834 102.052 507.197 102.051C504.559 102.052 501.948 102.573 499.513 103.586C497.078 104.598 494.866 106.081 493.005 107.95C491.145 109.819 489.671 112.037 488.67 114.476C487.668 116.916 487.158 119.529 487.169 122.167H487.17Z" fill="#025C5F"/>
<path fill-rule="evenodd" clip-rule="evenodd" d="M471.947 122.167C471.927 128.546 469.376 134.657 464.855 139.158C460.333 143.66 454.211 146.183 447.831 146.175C441.451 146.183 435.328 143.66 430.807 139.159C426.285 134.658 423.734 128.546 423.714 122.167C423.701 118.991 424.316 115.844 425.522 112.907C426.729 109.969 428.503 107.299 430.743 105.048C432.984 102.798 435.646 101.012 438.578 99.7922C441.51 98.5728 444.654 97.9441 447.83 97.9422C451.006 97.944 454.15 98.5726 457.082 99.7919C460.014 101.011 462.677 102.797 464.917 105.048C467.158 107.298 468.932 109.969 470.139 112.906C471.345 115.844 471.96 118.991 471.947 122.167ZM427.805 122.167C427.828 127.459 429.949 132.526 433.703 136.257C437.458 139.987 442.538 142.076 447.831 142.066C453.124 142.076 458.204 139.987 461.959 136.257C465.713 132.526 467.834 127.459 467.857 122.167C467.868 119.529 467.358 116.916 466.357 114.476C465.355 112.037 463.882 109.819 462.021 107.95C460.161 106.081 457.949 104.598 455.514 103.586C453.079 102.574 450.468 102.052 447.831 102.051C445.194 102.052 442.583 102.574 440.148 103.586C437.713 104.598 435.501 106.081 433.641 107.95C431.78 109.819 430.307 112.037 429.305 114.476C428.304 116.916 427.794 119.529 427.805 122.167Z" fill="#025C5F"/>
<path fill-rule="evenodd" clip-rule="evenodd" d="M506.243 107.659L507.447 119.092C507.072 118.913 506.657 118.838 506.243 118.872C505.762 118.865 505.288 118.983 504.866 119.215C504.444 119.446 504.09 119.782 503.837 120.191H495.815C495.593 120.198 495.375 120.249 495.173 120.342C494.972 120.435 494.791 120.567 494.641 120.73C494.491 120.894 494.376 121.086 494.302 121.295C494.228 121.504 494.196 121.726 494.209 121.947C494.227 122.361 494.403 122.752 494.702 123.039C495.001 123.326 495.399 123.486 495.813 123.487H503.836C504.238 124.147 504.886 124.622 505.637 124.806L503.231 134.7C503.109 135.096 503.145 135.523 503.332 135.893C503.519 136.262 503.842 136.544 504.233 136.68C504.536 136.756 504.855 136.733 505.144 136.615C505.433 136.496 505.676 136.287 505.837 136.02C505.914 135.929 505.972 135.824 506.006 135.711C506.041 135.598 506.051 135.478 506.037 135.36L508.444 123.705C508.851 123.211 509.065 122.586 509.046 121.946C509.053 121.496 508.968 121.049 508.796 120.632C508.623 120.216 508.367 119.84 508.043 119.527L507.041 107.654V107.435C506.841 107.216 506.841 107.216 506.639 107.216C506.531 107.229 506.431 107.282 506.358 107.363C506.286 107.445 506.245 107.549 506.243 107.659V107.659Z" fill="#03787C"/>
<path d="M234.873 224.438L219.471 218.311C219.094 218.162 218.792 217.868 218.632 217.496C218.471 217.124 218.465 216.703 218.614 216.326L226.83 195.682C226.905 195.496 227.015 195.325 227.155 195.181C227.295 195.037 227.463 194.922 227.647 194.842C227.832 194.763 228.03 194.721 228.231 194.718C228.432 194.715 228.632 194.752 228.819 194.826L238.103 198.523L242.644 209.055L236.862 223.58C236.788 223.767 236.678 223.938 236.538 224.082C236.398 224.226 236.23 224.342 236.046 224.421C235.861 224.501 235.662 224.544 235.461 224.546C235.26 224.549 235.06 224.512 234.873 224.438V224.438Z" fill="#FFB900"/>
<path d="M236.5 206.628L242.224 208.907C242.257 208.92 242.294 208.923 242.33 208.916C242.366 208.908 242.398 208.89 242.423 208.864C242.449 208.838 242.466 208.805 242.473 208.77C242.479 208.734 242.475 208.697 242.461 208.663L238.27 198.928C238.257 198.893 238.233 198.864 238.202 198.843C238.171 198.822 238.134 198.811 238.097 198.811C238.059 198.812 238.023 198.824 237.993 198.845C237.962 198.867 237.939 198.898 237.927 198.933L235.649 204.655C235.5 205.029 235.506 205.448 235.666 205.818C235.825 206.188 236.125 206.479 236.5 206.628V206.628Z" fill="#E6A600"/>
<path d="M253.884 195.449L238.291 194.712C237.911 194.694 237.553 194.526 237.297 194.246C237.04 193.965 236.905 193.594 236.92 193.214L237.903 172.316C237.912 172.127 237.958 171.941 238.039 171.77C238.119 171.599 238.233 171.445 238.373 171.318C238.513 171.19 238.677 171.092 238.855 171.028C239.033 170.964 239.222 170.936 239.411 170.945L248.81 171.386L256.082 179.373L255.39 194.078C255.372 194.46 255.204 194.818 254.921 195.075C254.638 195.333 254.265 195.467 253.884 195.449V195.449Z" fill="#FFB900"/>
<path d="M249.862 179.095L255.657 179.368C255.691 179.369 255.725 179.361 255.754 179.343C255.783 179.325 255.806 179.299 255.821 179.269C255.836 179.238 255.841 179.203 255.836 179.17C255.831 179.136 255.817 179.104 255.794 179.079L249.072 171.698C249.049 171.672 249.019 171.654 248.986 171.646C248.952 171.638 248.917 171.64 248.885 171.652C248.853 171.663 248.825 171.684 248.805 171.712C248.784 171.74 248.773 171.773 248.772 171.807L248.498 177.6C248.481 177.979 248.615 178.35 248.87 178.63C249.126 178.91 249.483 179.078 249.862 179.095V179.095Z" fill="#E6A600"/>
<path d="M485.414 221.834L486.81 222.918C486.968 222.977 487.137 222.998 487.304 222.98C487.472 222.962 487.632 222.904 487.773 222.812L489.286 221.194C489.825 220.655 490.254 220.655 490.577 220.871H490.683C490.992 220.993 491.319 221.064 491.65 221.082V221.082C491.917 221.135 492.162 221.267 492.353 221.46C492.544 221.653 492.673 221.899 492.723 222.166L493.146 224.206C493.192 224.378 493.288 224.532 493.422 224.649C493.556 224.766 493.722 224.839 493.899 224.861L495.732 224.643C495.889 224.557 496.021 224.432 496.115 224.281C496.209 224.129 496.263 223.956 496.27 223.777V221.727C496.248 221.474 496.297 221.22 496.41 220.992C496.524 220.765 496.698 220.574 496.913 220.439H497.019C497.289 220.236 497.576 220.055 497.877 219.901V219.901C498.103 219.762 498.363 219.689 498.628 219.689C498.893 219.689 499.153 219.762 499.379 219.901L501.106 220.978C501.253 221.078 501.432 221.123 501.609 221.104C501.787 221.084 501.951 221.002 502.073 220.872L503.146 219.468C503.358 219.362 503.358 218.824 503.04 218.5L501.534 217.096C501.333 216.932 501.186 216.711 501.11 216.462C501.035 216.214 501.035 215.948 501.11 215.7V215.594C501.2 215.299 501.308 215.01 501.433 214.728V214.622C501.474 214.362 501.603 214.125 501.798 213.948C501.993 213.772 502.243 213.669 502.506 213.655L504.545 213.125C504.869 213.019 505.189 212.579 505.084 212.365L504.872 210.638C504.853 210.454 504.765 210.285 504.625 210.164C504.485 210.044 504.304 209.982 504.12 209.991L501.971 210.097C501.222 210.097 500.898 209.773 500.792 209.344H500.686C500.563 209.047 500.416 208.76 500.247 208.486V208.37C499.929 208.052 499.823 207.617 500.247 206.868L501.331 205.141C501.426 204.992 501.467 204.815 501.448 204.639C501.429 204.463 501.35 204.299 501.225 204.174L499.818 203.09C499.606 202.984 499.068 202.878 498.854 203.196L497.349 204.814C497.164 204.983 496.938 205.102 496.693 205.159C496.448 205.216 496.193 205.208 495.952 205.137V205.137C495.634 205.031 495.309 204.925 494.989 204.814C494.443 204.814 494.12 204.602 493.905 203.734L493.481 201.799C493.428 201.612 493.316 201.447 493.161 201.329C493.007 201.21 492.818 201.146 492.623 201.144L490.903 201.356C490.691 201.356 490.365 201.796 490.365 202.12V204.276C490.388 204.529 490.339 204.784 490.226 205.011C490.112 205.239 489.938 205.43 489.722 205.564C489.354 205.652 489.017 205.838 488.747 206.102C488.521 206.239 488.261 206.311 487.996 206.311C487.732 206.311 487.472 206.239 487.246 206.102L485.526 204.921C485.371 204.846 485.199 204.817 485.029 204.836C484.859 204.854 484.697 204.921 484.563 205.027L483.486 206.434C483.37 206.594 483.316 206.792 483.336 206.99C483.355 207.187 483.447 207.371 483.592 207.506L485.094 208.91C485.268 209.047 485.4 209.231 485.475 209.44C485.55 209.649 485.565 209.874 485.517 210.091C485.411 210.515 485.305 210.96 485.2 211.495C485.133 211.733 484.993 211.945 484.8 212.099C484.607 212.254 484.37 212.344 484.123 212.357L482.076 212.887C481.652 213.003 481.433 213.326 481.538 213.646L481.749 215.373C481.786 215.549 481.88 215.707 482.016 215.823C482.152 215.939 482.323 216.008 482.502 216.017L484.658 215.911C485.41 215.911 485.73 216.228 485.84 216.663C485.994 216.965 486.171 217.254 486.369 217.529V217.635C486.692 217.952 486.802 218.384 486.369 219.031L485.297 220.864C485.207 221.016 485.169 221.193 485.19 221.369C485.212 221.544 485.29 221.708 485.414 221.834V221.834ZM490.682 216.449C489.765 215.739 489.162 214.699 489.002 213.551C488.841 212.402 489.136 211.237 489.824 210.303C490.543 209.401 491.588 208.816 492.733 208.676C493.879 208.535 495.034 208.849 495.95 209.551C496.847 210.255 497.429 211.285 497.57 212.416C497.711 213.547 497.399 214.688 496.702 215.591C496.364 216.043 495.94 216.425 495.454 216.713C494.968 217.001 494.43 217.191 493.871 217.271C493.312 217.35 492.742 217.319 492.195 217.178C491.648 217.037 491.134 216.789 490.683 216.449H490.682Z" fill="#014446"/>
<path d="M492.889 270.422L494.286 271.506C494.443 271.565 494.613 271.586 494.78 271.568C494.947 271.55 495.108 271.492 495.249 271.4L496.762 269.782C497.3 269.243 497.729 269.243 498.053 269.459H498.158C498.467 269.581 498.794 269.652 499.126 269.67V269.67C499.392 269.723 499.637 269.855 499.828 270.048C500.019 270.241 500.148 270.487 500.198 270.754L500.622 272.794C500.668 272.966 500.764 273.12 500.898 273.237C501.032 273.353 501.198 273.427 501.374 273.449L503.207 273.231C503.364 273.145 503.496 273.02 503.591 272.869C503.685 272.717 503.738 272.543 503.746 272.365V270.315C503.724 270.062 503.772 269.807 503.886 269.58C503.999 269.353 504.173 269.162 504.389 269.027H504.495C504.765 268.823 505.052 268.643 505.353 268.489V268.489C505.579 268.35 505.839 268.277 506.104 268.277C506.369 268.277 506.629 268.35 506.855 268.489L508.582 269.566C508.729 269.666 508.908 269.711 509.085 269.692C509.262 269.672 509.427 269.59 509.549 269.46L510.621 268.056C510.833 267.95 510.833 267.412 510.515 267.088L509.01 265.684C508.809 265.52 508.661 265.299 508.586 265.05C508.51 264.802 508.51 264.536 508.586 264.288V264.182C508.676 263.887 508.784 263.598 508.909 263.316V263.21C508.95 262.95 509.079 262.712 509.274 262.536C509.469 262.36 509.719 262.257 509.981 262.243L512.021 261.713C512.344 261.607 512.664 261.167 512.559 260.953L512.347 259.226C512.329 259.042 512.241 258.873 512.101 258.752C511.961 258.632 511.78 258.57 511.595 258.579L509.446 258.685C508.697 258.685 508.374 258.361 508.268 257.932H508.162C508.039 257.635 507.892 257.348 507.722 257.074V256.957C507.404 256.64 507.298 256.205 507.722 255.456L508.806 253.729C508.901 253.58 508.943 253.402 508.924 253.227C508.904 253.051 508.826 252.887 508.7 252.762L507.293 251.678C507.081 251.572 506.544 251.466 506.33 251.784L504.824 253.402C504.639 253.571 504.413 253.69 504.169 253.747C503.924 253.804 503.669 253.796 503.428 253.725V253.725C503.11 253.619 502.785 253.513 502.465 253.402C501.919 253.402 501.596 253.19 501.381 252.322L500.957 250.387C500.904 250.2 500.792 250.035 500.637 249.917C500.482 249.798 500.293 249.734 500.099 249.732L498.379 249.944C498.167 249.944 497.841 250.384 497.841 250.708V252.864C497.863 253.117 497.815 253.372 497.701 253.599C497.588 253.826 497.413 254.018 497.197 254.152C496.83 254.24 496.493 254.426 496.223 254.69C495.996 254.827 495.737 254.899 495.472 254.899C495.207 254.899 494.948 254.827 494.721 254.69L493.001 253.509C492.847 253.434 492.675 253.405 492.505 253.424C492.334 253.442 492.173 253.508 492.038 253.614L490.962 255.022C490.845 255.182 490.792 255.38 490.811 255.578C490.831 255.775 490.922 255.959 491.068 256.094L492.569 257.498C492.744 257.635 492.876 257.819 492.951 258.028C493.026 258.237 493.04 258.462 492.993 258.679C492.887 259.103 492.781 259.548 492.675 260.083C492.608 260.321 492.468 260.533 492.275 260.687C492.082 260.842 491.846 260.932 491.599 260.945L489.551 261.475C489.128 261.591 488.908 261.914 489.013 262.234L489.225 263.961C489.262 264.137 489.356 264.295 489.492 264.411C489.628 264.527 489.799 264.595 489.977 264.605L492.134 264.499C492.886 264.499 493.206 264.816 493.315 265.251C493.469 265.553 493.647 265.842 493.845 266.117V266.223C494.168 266.54 494.277 266.972 493.845 267.619L492.773 269.452C492.682 269.604 492.645 269.781 492.666 269.957C492.687 270.132 492.766 270.296 492.889 270.422V270.422ZM498.157 265.037C497.241 264.327 496.638 263.287 496.477 262.139C496.317 260.99 496.612 259.825 497.299 258.891C498.019 257.989 499.063 257.404 500.209 257.264C501.354 257.123 502.509 257.437 503.426 258.139C504.322 258.843 504.904 259.873 505.045 261.004C505.186 262.135 504.874 263.276 504.178 264.179C503.84 264.631 503.416 265.013 502.93 265.301C502.444 265.589 501.906 265.779 501.347 265.859C500.787 265.938 500.218 265.907 499.671 265.766C499.123 265.625 498.61 265.377 498.158 265.037H498.157Z" fill="#014446"/>
<path d="M488.312 229.493C487.901 229.353 487.505 229.173 487.13 228.956C487.122 228.468 487.233 227.986 487.453 227.551L488.202 225.609C488.421 224.965 488.202 224.641 487.559 224.641L485.414 224.747C484.875 224.853 484.232 224.853 484.232 224.747C483.966 224.286 483.82 223.766 483.808 223.234V221.193C483.808 220.546 483.384 220.332 482.833 220.546L481.008 221.513C480.647 221.734 480.245 221.878 479.826 221.937C479.44 221.628 479.144 221.221 478.968 220.759L478.107 218.817C477.895 218.278 477.347 218.169 477.027 218.605L475.63 220.223C475.349 220.552 475.024 220.841 474.663 221.081C474.183 220.93 473.743 220.673 473.376 220.329L471.862 218.82C471.439 218.387 471.004 218.497 470.79 219.032L470.143 221.079C470.004 221.491 469.827 221.889 469.613 222.268C469.127 222.275 468.647 222.162 468.216 221.937L466.168 221.193C465.623 220.981 465.193 221.193 465.299 221.836L465.405 223.993C465.503 224.426 465.466 224.879 465.299 225.291C464.855 225.475 464.383 225.582 463.903 225.609H461.762C461.643 225.592 461.521 225.613 461.414 225.667C461.306 225.721 461.217 225.807 461.159 225.912C461.101 226.018 461.076 226.138 461.088 226.258C461.099 226.378 461.147 226.492 461.224 226.584L462.192 228.41C462.382 228.825 462.524 229.26 462.615 229.707C462.264 230.019 461.865 230.272 461.434 230.458L459.387 231.326C458.849 231.538 458.744 232.077 459.281 232.399L460.902 233.804C461.212 234.075 461.466 234.403 461.651 234.771C461.757 234.877 461.333 235.639 460.902 236.068L459.389 237.571C458.965 238.01 459.177 238.439 459.707 238.654L461.757 239.298C462.287 239.51 462.83 239.728 462.83 239.836C462.895 240.315 462.821 240.802 462.618 241.241L461.759 243.29C461.547 243.827 461.865 244.256 462.512 244.149L464.551 244.043C464.983 243.995 465.42 244.031 465.839 244.149C466.065 244.583 466.178 245.066 466.169 245.554V247.711C466.152 247.829 466.172 247.95 466.225 248.058C466.279 248.165 466.363 248.254 466.468 248.312C466.573 248.37 466.693 248.395 466.812 248.384C466.932 248.372 467.045 248.325 467.137 248.248L469.067 247.281C469.451 247.109 469.846 246.962 470.249 246.843C470.6 247.188 470.89 247.591 471.107 248.033L471.976 250.081C472.188 250.618 472.619 250.725 473.048 250.187L474.445 248.568C474.716 248.257 475.044 248.002 475.412 247.816C475.855 247.979 476.258 248.235 476.594 248.568L478.102 250.08C478.535 250.509 479.07 250.292 479.284 249.762L479.927 247.713C480.139 247.175 480.351 246.63 480.465 246.63C480.942 246.566 481.426 246.639 481.862 246.842L483.803 247.709C484.446 247.921 484.875 247.604 484.77 246.958L484.664 244.909C484.606 244.479 484.606 244.042 484.664 243.612C485.135 243.395 485.648 243.286 486.166 243.294H488.206C488.853 243.294 489.184 242.865 488.853 242.319L487.886 240.387C487.665 240.023 487.521 239.618 487.462 239.197C487.801 238.842 488.201 238.551 488.643 238.337L490.584 237.577C491.228 237.259 491.228 236.825 490.796 236.395L489.186 234.99C488.852 234.711 488.559 234.385 488.317 234.024C488.478 233.577 488.735 233.171 489.069 232.834L490.582 231.331C490.682 231.256 490.759 231.153 490.804 231.037C490.849 230.92 490.861 230.793 490.839 230.669C490.816 230.546 490.76 230.432 490.676 230.338C490.592 230.245 490.484 230.177 490.364 230.141L488.312 229.493ZM474.553 237.143C474.194 237.098 473.849 236.98 473.537 236.796C473.226 236.612 472.957 236.366 472.745 236.073C472.533 235.78 472.384 235.447 472.306 235.094C472.229 234.741 472.225 234.375 472.295 234.021C472.34 233.649 472.461 233.29 472.65 232.967C472.839 232.643 473.092 232.362 473.393 232.139C473.695 231.917 474.039 231.759 474.404 231.675C474.769 231.591 475.147 231.582 475.516 231.649C476.241 231.784 476.885 232.198 477.308 232.801C477.732 233.405 477.902 234.151 477.781 234.879C477.724 235.242 477.594 235.591 477.4 235.903C477.205 236.215 476.949 236.485 476.648 236.696C476.346 236.908 476.006 237.056 475.646 237.133C475.286 237.209 474.914 237.212 474.553 237.142V237.143Z" fill="#014446"/>
<path d="M544.876 233.804V231.326C544.885 231.112 544.813 230.903 544.673 230.742C544.533 230.58 544.336 230.479 544.123 230.458L540.575 229.921C540.446 229.085 540.266 228.257 540.037 227.442L543.16 225.607C543.34 225.476 543.469 225.287 543.527 225.072C543.585 224.858 543.567 224.63 543.478 224.426L542.62 222.27C542.533 222.068 542.378 221.902 542.183 221.803C541.987 221.703 541.762 221.675 541.548 221.724L537.995 222.593C537.643 221.898 537.211 221.246 536.707 220.652L538.853 217.852C538.985 217.661 539.056 217.435 539.056 217.203C539.056 216.971 538.985 216.745 538.853 216.554L537.137 214.827C536.947 214.696 536.722 214.626 536.491 214.626C536.261 214.626 536.036 214.696 535.846 214.827L533.047 216.983C532.372 216.457 531.655 215.99 530.901 215.587L531.864 212.027C531.891 211.802 531.843 211.574 531.727 211.38C531.61 211.186 531.432 211.036 531.221 210.954L529.065 210.085C528.851 209.989 528.609 209.98 528.388 210.059C528.168 210.138 527.987 210.299 527.883 210.509L526.057 213.534C525.308 213.428 524.556 213.211 523.803 213.11L523.257 209.547C523.237 209.336 523.137 209.141 522.977 209.001C522.818 208.862 522.61 208.789 522.399 208.798H519.931C519.719 208.789 519.512 208.862 519.352 209.001C519.193 209.141 519.093 209.336 519.073 209.547L518.534 213.11C517.697 213.234 516.869 213.411 516.055 213.64L514.229 210.509C514.099 210.329 513.911 210.199 513.696 210.142C513.482 210.084 513.254 210.101 513.051 210.191L510.895 211.057C510.693 211.145 510.528 211.301 510.43 211.497C510.332 211.694 510.306 211.919 510.356 212.134L511.215 215.694C510.542 216.024 509.926 216.458 509.389 216.981L506.491 214.825C506.3 214.694 506.074 214.624 505.842 214.624C505.61 214.624 505.384 214.694 505.193 214.825L503.583 216.552C503.411 216.719 503.305 216.942 503.286 217.181C503.266 217.42 503.334 217.657 503.477 217.85L505.622 220.649C505.092 221.402 504.659 222.053 504.226 222.806L500.794 221.937C500.563 221.887 500.322 221.914 500.107 222.012C499.892 222.11 499.714 222.275 499.601 222.483L498.742 224.639C498.646 224.852 498.636 225.095 498.715 225.315C498.794 225.536 498.956 225.717 499.166 225.82L502.29 227.655C502.061 228.397 501.881 229.153 501.752 229.919L498.199 230.456C497.986 230.477 497.79 230.578 497.65 230.74C497.511 230.901 497.439 231.111 497.45 231.324V233.802C497.441 234.014 497.513 234.221 497.653 234.381C497.792 234.541 497.988 234.642 498.199 234.661L501.752 235.199C501.963 236.066 502.075 236.818 502.29 237.677L499.166 239.511C498.987 239.645 498.858 239.835 498.8 240.051C498.742 240.267 498.759 240.496 498.848 240.701L499.707 242.857C499.82 243.063 499.997 243.227 500.212 243.324C500.426 243.42 500.666 243.445 500.895 243.394L504.332 242.534L505.619 244.467L503.473 247.277C503.331 247.468 503.264 247.704 503.283 247.941C503.303 248.178 503.408 248.4 503.579 248.565L505.19 250.184C505.357 250.356 505.58 250.462 505.819 250.481C506.058 250.5 506.295 250.433 506.488 250.29L509.386 248.134C510.025 248.66 510.707 249.13 511.426 249.539L510.567 253.091C510.518 253.306 510.545 253.531 510.643 253.729C510.741 253.926 510.905 254.083 511.106 254.174L513.262 255.033C513.475 255.129 513.718 255.138 513.938 255.058C514.158 254.978 514.338 254.815 514.44 254.604L516.266 251.589C517.018 251.695 517.779 251.907 518.531 252.019L519.069 255.57C519.087 255.783 519.186 255.981 519.346 256.123C519.506 256.265 519.714 256.339 519.928 256.331H522.397C522.61 256.339 522.818 256.265 522.978 256.123C523.138 255.981 523.237 255.783 523.255 255.57L523.801 252.019C524.634 251.891 525.458 251.712 526.269 251.481L528.095 254.604C528.228 254.785 528.419 254.915 528.636 254.972C528.853 255.03 529.083 255.012 529.288 254.922L531.434 254.063C531.635 253.972 531.798 253.815 531.897 253.617C531.995 253.42 532.021 253.195 531.972 252.98L531.114 249.428C531.757 248.989 532.401 248.56 533.044 248.131L535.844 250.287C536.035 250.429 536.272 250.497 536.509 250.477C536.747 250.458 536.969 250.353 537.134 250.181L538.851 248.562C538.983 248.373 539.054 248.148 539.054 247.918C539.054 247.688 538.983 247.463 538.851 247.274L536.705 244.464C537.208 243.771 537.673 243.051 538.098 242.307L541.65 243.175C541.864 243.224 542.089 243.198 542.285 243.1C542.481 243.002 542.638 242.839 542.727 242.638L543.585 240.482C543.675 240.276 543.692 240.046 543.633 239.83C543.575 239.613 543.444 239.424 543.262 239.292L540.138 237.458C540.244 236.706 540.462 235.955 540.571 235.194L544.119 234.657C544.33 234.638 544.526 234.54 544.667 234.381C544.808 234.222 544.882 234.016 544.876 233.804V233.804ZM536.276 232.507C536.252 233.818 536.074 235.121 535.746 236.391C535.705 236.582 535.618 236.76 535.493 236.91C535.367 237.06 535.207 237.177 535.026 237.251C534.846 237.325 534.649 237.354 534.455 237.335C534.26 237.316 534.073 237.25 533.91 237.142L527.998 233.375C527.832 233.314 527.689 233.204 527.588 233.059C527.487 232.914 527.433 232.742 527.433 232.566C527.433 232.389 527.487 232.217 527.588 232.072C527.689 231.927 527.832 231.817 527.998 231.756L533.91 227.981C534.073 227.873 534.26 227.807 534.455 227.788C534.649 227.769 534.846 227.798 535.026 227.872C535.207 227.946 535.367 228.063 535.493 228.213C535.618 228.363 535.705 228.541 535.746 228.732C536.068 229.966 536.246 231.233 536.276 232.507V232.507ZM531.974 243.396C531.001 244.271 529.956 245.065 528.851 245.767C528.679 245.865 528.486 245.92 528.288 245.928C528.09 245.936 527.894 245.896 527.715 245.811C527.536 245.727 527.379 245.601 527.259 245.444C527.139 245.286 527.059 245.103 527.025 244.908L525.414 238.117C525.348 237.947 525.331 237.762 525.365 237.583C525.398 237.404 525.481 237.237 525.604 237.103C525.726 236.968 525.884 236.87 526.059 236.82C526.235 236.77 526.42 236.77 526.596 236.82L533.476 238.547C533.662 238.574 533.839 238.648 533.989 238.763C534.139 238.877 534.257 239.028 534.332 239.201C534.408 239.374 534.438 239.563 534.419 239.751C534.401 239.939 534.335 240.119 534.228 240.274C533.611 241.405 532.854 242.454 531.974 243.396V243.396ZM516.593 245.552L520.36 239.512C520.42 239.347 520.53 239.204 520.674 239.104C520.818 239.003 520.99 238.949 521.165 238.949C521.341 238.949 521.513 239.003 521.657 239.104C521.801 239.204 521.91 239.347 521.971 239.512L525.737 245.552C525.845 245.715 525.911 245.902 525.93 246.096C525.948 246.291 525.92 246.487 525.845 246.668C525.771 246.848 525.654 247.008 525.504 247.133C525.354 247.259 525.176 247.345 524.985 247.386C523.755 247.71 522.49 247.891 521.218 247.923C519.911 247.896 518.611 247.716 517.346 247.386C517.155 247.345 516.977 247.258 516.827 247.133C516.677 247.008 516.56 246.848 516.486 246.667C516.412 246.487 516.383 246.29 516.402 246.096C516.421 245.902 516.487 245.715 516.594 245.552H516.593ZM521.218 236.283C520.722 236.285 520.231 236.188 519.773 235.999C519.314 235.81 518.898 235.532 518.547 235.181C518.197 234.83 517.92 234.413 517.732 233.954C517.544 233.495 517.448 233.003 517.451 232.507C517.468 231.523 517.873 230.586 518.579 229.9C519.285 229.214 520.234 228.836 521.218 228.847C521.7 228.844 522.178 228.935 522.624 229.118C523.07 229.3 523.475 229.57 523.816 229.91C524.157 230.251 524.426 230.656 524.609 231.102C524.792 231.548 524.884 232.025 524.88 232.507C524.895 232.997 524.811 233.486 524.634 233.943C524.457 234.4 524.19 234.817 523.848 235.169C523.507 235.521 523.098 235.801 522.647 235.993C522.195 236.184 521.71 236.282 521.219 236.283H521.218ZM510.358 243.504C509.492 242.589 508.735 241.577 508.103 240.488C507.99 240.326 507.919 240.139 507.897 239.943C507.875 239.747 507.903 239.548 507.978 239.366C508.053 239.183 508.173 239.022 508.326 238.898C508.479 238.774 508.661 238.69 508.855 238.654L515.735 237.035C516.593 236.823 517.022 237.353 516.916 238.225L515.197 245.123C515.171 245.309 515.097 245.485 514.984 245.635C514.87 245.785 514.721 245.903 514.548 245.978C514.376 246.053 514.188 246.083 514.001 246.065C513.814 246.047 513.634 245.981 513.48 245.874C512.347 245.214 511.298 244.417 510.358 243.503V243.504ZM508.209 228.195L514.23 231.97C514.396 232.031 514.539 232.141 514.64 232.286C514.741 232.431 514.795 232.603 514.795 232.78C514.795 232.956 514.741 233.128 514.64 233.273C514.539 233.418 514.396 233.528 514.23 233.589L508.209 237.249C508.06 237.377 507.88 237.463 507.687 237.499C507.494 237.535 507.295 237.52 507.11 237.455C506.924 237.389 506.76 237.276 506.632 237.127C506.505 236.978 506.419 236.798 506.383 236.605C506.047 235.337 505.864 234.033 505.837 232.721C505.87 231.449 506.053 230.184 506.383 228.955C506.422 228.763 506.507 228.584 506.63 228.433C506.754 228.282 506.913 228.164 507.094 228.089C507.274 228.014 507.47 227.984 507.664 228.002C507.859 228.021 508.046 228.086 508.209 228.194V228.195ZM510.248 221.943C511.169 221.006 512.221 220.207 513.372 219.573C513.537 219.476 513.724 219.422 513.916 219.416C514.108 219.409 514.298 219.452 514.469 219.538C514.64 219.624 514.787 219.753 514.896 219.91C515.005 220.068 515.072 220.251 515.092 220.442L516.702 227.233C516.914 228.092 516.379 228.628 515.521 228.414L508.641 226.804C508.455 226.777 508.278 226.702 508.128 226.588C507.978 226.474 507.86 226.323 507.785 226.15C507.71 225.978 507.68 225.789 507.698 225.601C507.716 225.413 507.782 225.234 507.889 225.079C508.519 223.923 509.314 222.865 510.248 221.939V221.943ZM525.523 219.798L521.861 225.721C521.332 226.471 520.574 226.471 520.145 225.721L516.487 219.798C516.358 219.648 516.271 219.467 516.234 219.274C516.197 219.08 516.212 218.88 516.278 218.693C516.343 218.507 516.456 218.341 516.606 218.213C516.755 218.084 516.936 217.998 517.13 217.961C518.395 217.626 519.695 217.443 521.003 217.416C522.276 217.449 523.54 217.632 524.77 217.961C524.961 218.002 525.139 218.089 525.288 218.214C525.438 218.339 525.555 218.498 525.63 218.679C525.704 218.859 525.733 219.055 525.715 219.249C525.696 219.443 525.631 219.63 525.524 219.793L525.523 219.798ZM531.759 221.837C532.68 222.733 533.474 223.751 534.119 224.862C534.227 225.025 534.293 225.212 534.312 225.406C534.331 225.6 534.302 225.796 534.229 225.977C534.155 226.158 534.038 226.317 533.888 226.443C533.739 226.568 533.561 226.655 533.37 226.695L526.482 228.306C525.624 228.518 525.09 227.988 525.304 227.125L526.915 220.227C526.939 220.04 527.011 219.862 527.124 219.711C527.237 219.56 527.387 219.441 527.559 219.364C527.732 219.288 527.921 219.258 528.109 219.275C528.296 219.293 528.476 219.359 528.631 219.467C529.783 220.1 530.838 220.897 531.76 221.833L531.759 221.837Z" fill="#014446"/>
<path d="M132.549 211.162C132.224 224.331 144.944 235.216 160.962 235.456C176.972 235.704 188.307 225.523 188.632 212.346C188.957 199.177 178.141 187.998 162.131 187.75C146.113 187.51 132.866 197.985 132.549 211.162Z" fill="#3A312E"/>
<path d="M177.766 166.19C178.167 156.676 171.888 148.686 163.741 148.343C155.595 147.999 148.666 155.433 148.265 164.947C147.864 174.461 154.143 182.451 162.29 182.794C170.436 183.138 177.365 175.704 177.766 166.19Z" fill="#3A312E"/>
<path d="M135.955 200.356C147.367 180.939 145.795 169.876 148.877 160.578C153.824 145.636 172.799 145.783 177.398 161.228C180.131 170.426 176.276 182.24 186.263 201.788C188.353 206 132.82 205.698 135.955 200.356Z" fill="#3A312E"/>
<path d="M184.242 237.864C180.007 222.426 161.225 225.477 161.326 242.316C160.861 248.323 168.356 350.185 168.356 350.185C168.356 350.185 169.772 352.252 171.088 352.237C172.312 352.221 173.008 351.292 173.403 350.03C182.206 303.044 189.321 256.398 184.242 237.864Z" fill="#025C5F"/>
<path d="M179.837 352.014L174.758 350.032C173.388 349.545 173.504 347.323 173.504 347.323C173.31 346.03 172.583 345.093 170.864 345.07C169.679 345.054 168.712 345.968 168.518 347.168H168.464L168.642 351.999C168.704 353.005 169.517 353.811 170.477 353.818L179.403 353.865C180.363 353.865 180.673 352.533 179.837 352.014Z" fill="#025C5F"/>
<path d="M200.53 191.656L201.025 190.487C201.374 189.615 201.66 188.941 201.906 188.471C202.153 188.07 202.401 187.923 202.643 188.014C202.914 188.129 203.033 188.421 203 188.89C203.002 190.26 202.921 191.476 202.754 192.518C202.656 193.227 207.146 194.917 203.434 199.385C203.093 199.79 202.629 198.353 201.7 197.344C200.766 196.35 200.53 191.656 200.53 191.656Z" fill="#BF8F68"/>
<path d="M208.808 184.491C208.382 184.762 209.628 186.69 209.628 186.69L209.682 187.797L208.312 187.464C208.312 187.464 206.33 187.859 205.765 188.06C205.169 188.277 204.72 189.663 204.642 189.949C204.534 190.328 204.209 191.854 204.449 192.125C204.898 192.628 206.02 193.046 206.02 193.046C206.02 193.046 207.778 193.812 207.399 193.673C206.214 193.247 204.224 195.028 204.371 196.445C204.441 197.11 203.558 197.861 203.558 197.861L204.991 198.458C204.991 198.458 205.602 197.59 205.835 197.289C206.531 196.375 207.871 196.12 209.837 194.741C210.015 194.618 211.239 193.441 211.215 193.209C211.2 192.961 211.479 188.827 211.293 188.393C211.231 188.246 211.022 186.512 210.836 186.225C210.55 185.761 209.38 184.135 208.808 184.491Z" fill="#BF8F68"/>
<path d="M191.249 208.176C186.805 210.545 178.9 191.229 178.9 191.229C174.859 181.939 167.968 184.455 165.158 186.545C162.479 188.543 164.066 192.158 165.321 195.247C165.321 195.247 173.349 210.855 187.184 218.93C194.64 223.281 204.449 203.353 205.223 198.677C205.432 197.407 201.739 196.393 201.739 196.393C201.739 196.393 194.996 206.187 191.249 208.176Z" fill="url(#paint0_radial)"/>
<path d="M180.518 231.687C180.518 231.687 173.055 243.533 163.014 252.064C153.181 246.049 142.869 234.366 142.869 234.366L180.518 231.687Z" fill="#025C5F"/>
<path d="M140.724 237.835C144.68 222.428 163.532 225.579 163.734 242.41C164.306 248.418 158.655 350.195 158.655 350.195C158.655 350.195 157.269 352.254 155.961 352.231C154.73 352.207 154.017 351.278 153.607 350.016C143.937 302.999 135.978 256.338 140.724 237.835Z" fill="#025C5F"/>
<path d="M140.709 237.742C140.802 237.068 141.468 233.252 147.034 222.359C150.154 216.25 147.491 209.6 145.981 202.911C144.65 199.489 144.479 197.631 144.448 195.393C144.34 188.069 151.238 181.194 162.805 182.085C172.738 182.851 177.785 186.8 178.327 196.291C178.838 205.086 174.789 214.384 178.01 221.058C180.123 225.432 182.725 232.168 184.08 237.44C182.926 237.277 148.281 238.005 140.709 237.742Z" fill="url(#paint1_radial)"/>
<path d="M158.98 179.854L158.903 172.166L166.552 172.05L166.583 179.614C166.645 181.325 166.815 182.084 168.665 182.912C170.972 183.942 166.567 185.219 163.037 185.274C159.506 185.328 154.629 184.097 156.487 183.408C158.082 182.819 159.15 181.945 158.98 179.854Z" fill="#BF8F68"/>
<path d="M163.223 185.832C160.854 185.693 154.946 183.695 153.816 183.091C156.533 182.062 159.955 181.829 162.959 182.007C166.041 182.193 169.292 183.192 171.638 184.647C169.192 185.561 166.234 186.01 163.223 185.832Z" fill="#BF8F68"/>
<path d="M147.197 351.96L152.244 350.009C153.607 349.529 153.452 347.307 153.452 347.307C153.622 346.022 154.335 345.085 156.053 345.07C157.238 345.062 158.221 345.976 158.438 347.183H158.492L158.407 352.007C158.361 353.013 157.563 353.81 156.603 353.81L147.669 353.803C146.701 353.81 146.368 352.479 147.197 351.96Z" fill="#025C5F"/>
<path d="M139.153 235.443L136.886 237.525L138.251 241.65C138.54 242.561 138.979 243.523 139.559 244.536C140.03 245.395 140.476 246.07 140.893 246.543C141.168 246.82 141.663 247.396 142.382 248.253C143.048 248.971 144.199 239.588 143.289 238.754L139.153 235.443Z" fill="#BF8F68"/>
<path d="M141.173 212.828C148.188 203.746 156.526 194.843 156.526 194.843C159.406 192.931 159.677 187.001 157.168 184.616C154.776 182.34 150.82 182.828 148.389 185.189C148.389 185.189 140.376 195.463 131.178 209.932C120.053 227.445 134.19 237.176 138.448 241.218C138.448 241.218 140.957 237.92 141.127 237.115C136.265 225.656 132.975 223.45 141.173 212.828Z" fill="#49AEB1"/>
<path d="M166.706 173.089L166.761 184.625L159.096 184.741L159.042 173.205L166.706 173.089Z" fill="url(#paint2_radial)"/>
<path d="M176.438 171.071C176.549 169.995 175.791 169.035 174.745 168.927C173.699 168.819 172.76 169.603 172.649 170.679C172.538 171.755 173.296 172.715 174.342 172.824C175.388 172.932 176.327 172.147 176.438 171.071Z" fill="#F8C954"/>
<path d="M158.988 169.876L155.179 170.023C153.553 170.085 152.206 168.838 152.151 167.228C152.105 165.625 153.382 164.27 155.001 164.201L158.81 164.054L158.988 169.876Z" fill="#BF8F68"/>
<path d="M155.326 164.13C155.542 171.524 160.126 177.346 165.553 177.129C170.98 176.912 175.199 170.75 174.983 163.348C174.766 155.947 170.206 150.814 164.779 151.031C159.352 151.247 155.109 156.737 155.326 164.13Z" fill="#BF8F68"/>
<path d="M162.462 165.538C162.974 165.517 163.363 164.812 163.329 163.962C163.296 163.111 162.853 162.439 162.34 162.459C161.827 162.479 161.439 163.185 161.473 164.035C161.506 164.885 161.949 165.558 162.462 165.538Z" fill="#3A312E"/>
<path d="M165.808 157.591L166.165 161.539C166.405 163.552 167.519 164.899 168.348 165.635C168.812 166.045 169.06 167.09 168.541 167.741C168.263 168.097 167.001 168.902 167.032 169.839L167.264 173.493L174.797 173.253L173.945 157.026L165.808 157.591Z" fill="url(#paint3_radial)"/>
<path d="M168.665 171.578C168.479 172.112 167.961 172.453 167.481 172.608C166.993 172.77 166.49 172.786 166.01 172.709C165.53 172.631 165.065 172.445 164.647 172.136C164.438 171.981 164.245 171.787 164.097 171.54C163.95 171.307 163.857 170.967 163.912 170.672C163.943 170.518 164.09 170.417 164.245 170.448C164.283 170.456 164.314 170.471 164.345 170.487L164.485 170.58C164.763 170.765 165.011 170.804 165.321 170.897C165.623 170.974 165.956 171.036 166.273 171.098C166.598 171.152 166.923 171.207 167.241 171.23C167.566 171.245 167.845 171.269 168.216 171.191L168.301 171.176C168.472 171.137 168.634 171.245 168.665 171.408C168.688 171.47 168.681 171.532 168.665 171.578Z" fill="#9B643D"/>
<path d="M169.285 149.73C169.285 149.73 168.495 154.693 162.959 157.178C154.97 160.778 155.333 165.5 155.333 165.5C155.333 165.5 150.603 160.135 155.837 152.571C161.217 144.822 169.285 149.73 169.285 149.73Z" fill="#3A312E"/>
<path d="M157.057 171.843C157.169 170.767 156.411 169.807 155.364 169.699C154.318 169.591 153.38 170.375 153.268 171.451C153.157 172.527 153.915 173.487 154.961 173.596C156.007 173.704 156.946 172.919 157.057 171.843Z" fill="#F8C954"/>
<path d="M170.376 165.238C170.889 165.234 171.299 164.537 171.291 163.682C171.284 162.826 170.862 162.137 170.349 162.141C169.836 162.146 169.426 162.843 169.433 163.698C169.441 164.553 169.863 165.243 170.376 165.238Z" fill="#3A312E"/>
<path d="M224.218 189.54L205.315 195.436C205.086 195.507 204.845 195.533 204.605 195.511C204.366 195.489 204.133 195.421 203.92 195.309C203.708 195.197 203.519 195.044 203.365 194.86C203.212 194.675 203.096 194.462 203.025 194.232L195.13 168.896C194.986 168.433 195.032 167.932 195.258 167.503C195.483 167.074 195.87 166.752 196.332 166.607L207.728 163.055L219.865 169.421L225.422 187.255C225.565 187.718 225.518 188.218 225.293 188.646C225.067 189.074 224.681 189.396 224.218 189.54V189.54Z" fill="#FFB900"/>
<path d="M212.328 171.79L219.354 169.6C219.396 169.588 219.434 169.564 219.462 169.53C219.491 169.496 219.508 169.455 219.512 169.411C219.517 169.367 219.508 169.323 219.487 169.285C219.466 169.246 219.434 169.215 219.395 169.194L208.176 163.314C208.138 163.294 208.095 163.285 208.052 163.289C208.009 163.294 207.968 163.311 207.935 163.338C207.901 163.365 207.877 163.402 207.864 163.443C207.851 163.484 207.851 163.528 207.863 163.569L210.054 170.598C210.197 171.057 210.518 171.441 210.944 171.664C211.37 171.888 211.868 171.933 212.328 171.79V171.79Z" fill="#E6A600"/>
<defs>
<radialGradient id="paint0_radial" cx="0" cy="0" r="1" gradientUnits="userSpaceOnUse" gradientTransform="translate(173.39 212.299) rotate(-53.8729) scale(24.6656 25.6381)">
<stop stop-color="#026D70"/>
<stop offset="0.52" stop-color="#49AEB1"/>
</radialGradient>
<radialGradient id="paint1_radial" cx="0" cy="0" r="1" gradientUnits="userSpaceOnUse" gradientTransform="translate(140.887 206.516) rotate(178.575) scale(26.0732 24.6614)">
<stop stop-color="#026D70"/>
<stop offset="0.49" stop-color="#49AEB1"/>
</radialGradient>
<radialGradient id="paint2_radial" cx="0" cy="0" r="1" gradientUnits="userSpaceOnUse" gradientTransform="translate(163.546 175.512) rotate(-0.843035) scale(8.5874 8.34382)">
<stop stop-color="#9B643D"/>
<stop offset="0.8819" stop-color="#BA8A63" stop-opacity="0.1178"/>
<stop offset="0.9997" stop-color="#BF8F68" stop-opacity="0"/>
</radialGradient>
<radialGradient id="paint3_radial" cx="0" cy="0" r="1" gradientUnits="userSpaceOnUse" gradientTransform="translate(167.673 166.82) rotate(2.00795) scale(4.83574 5.0516)">
<stop offset="0.000320513" stop-color="#9B643D"/>
<stop offset="0.8822" stop-color="#BA8A63" stop-opacity="0.1178"/>
<stop offset="1" stop-color="#BF8F68" stop-opacity="0"/>
</radialGradient>
</defs>
</svg>
