<svg width="" height="" viewBox="0 0 192 64" fill="none" xmlns="http://www.w3.org/2000/svg">
<rect width="192" height="64" fill="black"/>
<path d="M31.8784 1L1 31.754L31.8784 63L63 31.754L31.8784 1Z" fill="#1E1D1D"/>
<path d="M15.2236 43.9325L3.4314 31.877L14.8588 20.3135L17.0471 22.6508L8.29414 31.877L17.6549 41.3492L15.2236 43.9325Z" fill="#25BDB0"/>
<path d="M49.1414 43.9325L60.9336 31.877L49.5061 20.3135L47.3179 22.6508L56.0708 31.877L46.7101 41.3492L49.1414 43.9325Z" fill="#25BDB0"/>
<rect width="12.7201" height="12.7171" transform="matrix(0.695819 -0.718217 0.709934 0.704268 22.8823 31.417)" fill="#F6A600"/>
<rect width="6.92109" height="6.91947" transform="matrix(0.695819 -0.718217 0.709934 0.704268 11.2119 31.9102)" fill="#E95050"/>
<rect width="6.92109" height="6.91947" transform="matrix(0.695819 -0.718217 0.709934 0.704268 27.0156 48.165)" fill="#2D2EC6"/>
<rect width="6.92109" height="6.91947" transform="matrix(0.695819 -0.718217 0.709934 0.704268 43.3059 31.9268)" fill="#E95050"/>
<rect width="2.42046" height="2.42046" transform="matrix(0.70291 -0.711278 0.70291 0.711278 30.1763 14.9004)" fill="#ED225F"/>
<rect width="2.42046" height="2.42046" transform="matrix(0.70291 -0.711278 0.70291 0.711278 36.012 40.9795)" fill="#ED225F"/>
<rect width="2.42046" height="2.42046" transform="matrix(0.70291 -0.711278 0.70291 0.711278 20.6943 36.7979)" fill="#B8DCCB"/>
</svg>
