<svg width="" height="" viewBox="0 0 192 64" fill="none" xmlns="http://www.w3.org/2000/svg">
<rect width="192" height="64" fill="black"/>
<path d="M31.8784 1L1 31.754L31.8784 63L63 31.754L31.8784 1Z" fill="#1E1D1D"/>
<path d="M15.2236 43.9325L3.4314 31.877L14.8588 20.3135L17.0471 22.6508L8.29414 31.877L17.6549 41.3492L15.2236 43.9325Z" fill="#25BDB0"/>
<path d="M49.1414 43.9325L60.9336 31.877L49.5061 20.3135L47.3179 22.6508L56.0708 31.877L46.7101 41.3492L49.1414 43.9325Z" fill="#25BDB0"/>
<rect width="12.7201" height="12.7171" transform="matrix(0.695819 -0.718217 0.709934 0.704268 22.8823 31.417)" fill="#F6A600"/>
<rect width="6.92109" height="6.91947" transform="matrix(0.695819 -0.718217 0.709934 0.704268 11.2119 31.9102)" fill="#E95050"/>
<rect width="6.92109" height="6.91947" transform="matrix(0.695819 -0.718217 0.709934 0.704268 27.0156 48.165)" fill="#2D2EC6"/>
<rect width="6.92109" height="6.91947" transform="matrix(0.695819 -0.718217 0.709934 0.704268 43.3059 31.9268)" fill="#E95050"/>
<rect width="2.42046" height="2.42046" transform="matrix(0.70291 -0.711278 0.70291 0.711278 30.1763 14.9004)" fill="#ED225F"/>
<rect width="2.42046" height="2.42046" transform="matrix(0.70291 -0.711278 0.70291 0.711278 36.012 40.9795)" fill="#ED225F"/>
<rect width="2.42046" height="2.42046" transform="matrix(0.70291 -0.711278 0.70291 0.711278 20.6943 36.7979)" fill="#B8DCCB"/>
<path d="M85.4588 21.3281C85.2159 19.3125 83.6903 18.1534 81.6705 18.1534C79.3651 18.1534 77.6051 19.7812 77.6051 22.6364C77.6051 25.483 79.3352 27.1193 81.6705 27.1193C83.9077 27.1193 85.2585 25.6321 85.4588 24.0256L83.5923 24.017C83.4176 24.9503 82.6847 25.4872 81.7003 25.4872C80.375 25.4872 79.4759 24.5028 79.4759 22.6364C79.4759 20.821 80.3622 19.7855 81.7131 19.7855C82.723 19.7855 83.4517 20.3693 83.5923 21.3281H85.4588ZM96.0018 22.6364C96.0018 19.7812 94.2291 18.1534 91.9152 18.1534C89.5885 18.1534 87.8286 19.7812 87.8286 22.6364C87.8286 25.4787 89.5885 27.1193 91.9152 27.1193C94.2291 27.1193 96.0018 25.4915 96.0018 22.6364ZM94.1311 22.6364C94.1311 24.4858 93.2533 25.4872 91.9152 25.4872C90.5729 25.4872 89.6993 24.4858 89.6993 22.6364C89.6993 20.7869 90.5729 19.7855 91.9152 19.7855C93.2533 19.7855 94.1311 20.7869 94.1311 22.6364ZM105.868 18.2727H104.032V23.7614H103.955L100.188 18.2727H98.5687V27H100.414V21.5071H100.478L104.275 27H105.868V18.2727ZM108.261 19.794H110.932V27H112.756V19.794H115.428V18.2727H108.261V19.794ZM125.442 22.6364C125.442 19.7812 123.669 18.1534 121.355 18.1534C119.028 18.1534 117.268 19.7812 117.268 22.6364C117.268 25.4787 119.028 27.1193 121.355 27.1193C123.669 27.1193 125.442 25.4915 125.442 22.6364ZM123.571 22.6364C123.571 24.4858 122.693 25.4872 121.355 25.4872C120.013 25.4872 119.139 24.4858 119.139 22.6364C119.139 20.7869 120.013 19.7855 121.355 19.7855C122.693 19.7855 123.571 20.7869 123.571 22.6364ZM132.743 20.7827H134.511C134.486 19.2273 133.207 18.1534 131.264 18.1534C129.351 18.1534 127.949 19.2102 127.957 20.7955C127.953 22.0824 128.861 22.8196 130.335 23.1733L131.286 23.4119C132.236 23.642 132.764 23.9148 132.768 24.5028C132.764 25.142 132.159 25.5767 131.222 25.5767C130.263 25.5767 129.572 25.1335 129.513 24.2599H127.727C127.774 26.1477 129.125 27.1236 131.243 27.1236C133.374 27.1236 134.626 26.1051 134.631 24.5071C134.626 23.054 133.531 22.2827 132.014 21.9418L131.23 21.7543C130.472 21.5795 129.837 21.2983 129.849 20.6719C129.849 20.1094 130.348 19.696 131.251 19.696C132.134 19.696 132.675 20.0966 132.743 20.7827ZM145.092 22.6364C145.092 19.7812 143.319 18.1534 141.005 18.1534C138.678 18.1534 136.918 19.7812 136.918 22.6364C136.918 25.4787 138.678 27.1193 141.005 27.1193C143.319 27.1193 145.092 25.4915 145.092 22.6364ZM143.221 22.6364C143.221 24.4858 142.343 25.4872 141.005 25.4872C139.663 25.4872 138.789 24.4858 138.789 22.6364C138.789 20.7869 139.663 19.7855 141.005 19.7855C142.343 19.7855 143.221 20.7869 143.221 22.6364ZM77.7585 45H79.6037V41.3949H83.3494V45H85.1903V36.2727H83.3494V39.8736H79.6037V36.2727H77.7585V45ZM89.7568 36.2727H87.9116V45H89.7568V36.2727ZM97.2093 38.7827H98.9778C98.9522 37.2273 97.6738 36.1534 95.7306 36.1534C93.8173 36.1534 92.4153 37.2102 92.4238 38.7955C92.4195 40.0824 93.3272 40.8196 94.8016 41.1733L95.7519 41.4119C96.7022 41.642 97.2306 41.9148 97.2349 42.5028C97.2306 43.142 96.6255 43.5767 95.688 43.5767C94.7292 43.5767 94.0388 43.1335 93.9792 42.2599H92.1937C92.2406 44.1477 93.5914 45.1236 95.7093 45.1236C97.84 45.1236 99.0928 44.1051 99.0971 42.5071C99.0928 41.054 97.9977 40.2827 96.4806 39.9418L95.6965 39.7543C94.938 39.5795 94.3031 39.2983 94.3158 38.6719C94.3158 38.1094 94.8144 37.696 95.7178 37.696C96.5999 37.696 97.1411 38.0966 97.2093 38.7827ZM101.538 45H103.383V42.1705H104.935C106.942 42.1705 108.109 40.973 108.109 39.2301C108.109 37.4957 106.963 36.2727 104.981 36.2727H101.538V45ZM103.383 40.6918V37.7812H104.628C105.693 37.7812 106.209 38.3608 106.209 39.2301C106.209 40.0952 105.693 40.6918 104.636 40.6918H103.383ZM111.004 45L111.652 43.0099H114.801L115.449 45H117.426L114.418 36.2727H112.04L109.027 45H111.004ZM112.121 41.5696L113.195 38.267H113.263L114.337 41.5696H112.121ZM126.976 36.2727H125.14V41.7614H125.063L121.296 36.2727H119.676V45H121.522V39.5071H121.586L125.382 45H126.976V36.2727ZM137.721 40.6364C137.721 37.7812 135.948 36.1534 133.634 36.1534C131.307 36.1534 129.547 37.7812 129.547 40.6364C129.547 43.4787 131.307 45.1193 133.634 45.1193C135.948 45.1193 137.721 43.4915 137.721 40.6364ZM135.85 40.6364C135.85 42.4858 134.972 43.4872 133.634 43.4872C132.292 43.4872 131.418 42.4858 131.418 40.6364C131.418 38.7869 132.292 37.7855 133.634 37.7855C134.972 37.7855 135.85 38.7869 135.85 40.6364Z" fill="white"/>
</svg>
