<svg width="760" height="428" viewBox="0 0 760 428" fill="none" xmlns="http://www.w3.org/2000/svg">
<g clip-path="url(#clip0)">
<rect width="760" height="428" fill="#ECF0F1"/>
<path d="M367.776 433H64.7185C58.2465 433 53 427.754 53 421.282V191.682H379.494V421.281C379.494 427.754 374.248 433 367.776 433Z" fill="#FCFCFB"/>
<path d="M174.722 279.604C175.167 279.752 175.611 280.048 176.056 280.493C176.501 280.938 176.797 281.382 176.946 281.827C177.094 282.271 177.242 282.865 177.242 283.309V302.133C177.242 302.726 177.094 303.171 176.946 303.615C176.797 304.06 176.501 304.504 176.056 304.949C175.612 305.394 175.167 305.69 174.722 305.838C174.278 305.987 173.684 306.135 173.24 306.135H152.489C151.007 306.135 149.821 305.394 149.08 303.912C148.487 302.726 148.042 301.095 147.746 299.02C147.598 297.835 147.598 296.352 147.598 294.426V290.868C147.598 288.942 147.598 287.459 147.746 286.274C148.043 284.199 148.487 282.568 149.08 281.382C149.969 279.9 151.007 279.159 152.489 279.159H173.24C173.833 279.307 174.277 279.455 174.722 279.604Z" fill="#BDBDEA"/>
<path d="M190.285 282.42C190.582 282.716 190.73 283.012 190.73 283.309V302.133C190.73 302.429 190.582 302.874 190.285 303.022C189.989 303.17 189.692 303.466 189.396 303.466C189.099 303.466 188.655 303.318 188.506 303.022L181.689 296.5C181.096 296.056 180.799 295.462 180.503 294.722C180.207 293.981 180.058 293.388 180.058 292.647C180.058 291.905 180.207 291.164 180.503 290.571C180.8 289.83 181.244 289.237 181.689 288.793L188.506 282.271C188.803 281.975 189.099 281.827 189.396 281.827C189.84 281.975 190.137 282.123 190.285 282.42Z" fill="#BDBDEA"/>
<path d="M379.494 200.532H53V176.395C53 169.923 58.2465 164.677 64.7185 164.677H367.776C374.248 164.677 379.494 169.923 379.494 176.395V200.532Z" fill="#BEE3E8"/>
<path d="M138.384 233.914H105.777V266.521H138.384V233.914Z" fill="#EDEBE9"/>
<path d="M185.467 233.914H152.86V266.521H185.467V233.914Z" fill="#EDEBE9"/>
<path d="M232.551 233.914H199.944V266.521H232.551V233.914Z" fill="#EDEBE9"/>
<path d="M279.634 233.914H247.027V266.521H279.634V233.914Z" fill="#EDEBE9"/>
<path d="M326.717 233.914H294.11V266.521H326.717V233.914Z" fill="#EDEBE9"/>
<path d="M138.384 275.329H105.777V307.936H138.384V275.329Z" fill="#EDEBE9"/>
<path d="M232.551 275.329H199.944V307.936H232.551V275.329Z" fill="#EDEBE9"/>
<path d="M279.634 275.329H247.027V307.936H279.634V275.329Z" fill="#EDEBE9"/>
<path d="M326.717 275.329H294.11V307.936H326.717V275.329Z" fill="#EDEBE9"/>
<path d="M138.384 316.745H105.777V349.352H138.384V316.745Z" fill="#EDEBE9"/>
<path d="M185.467 316.745H152.86V349.352H185.467V316.745Z" fill="#EDEBE9"/>
<path d="M232.551 316.745H199.944V349.352H232.551V316.745Z" fill="#EDEBE9"/>
<path d="M279.634 316.745H247.027V349.352H279.634V316.745Z" fill="#EDEBE9"/>
<path d="M326.717 316.745H294.11V349.352H326.717V316.745Z" fill="#EDEBE9"/>
<path d="M138.384 358.161H105.777V390.768H138.384V358.161Z" fill="#EDEBE9"/>
<path d="M185.467 358.161H152.86V390.768H185.467V358.161Z" fill="#EDEBE9"/>
<path d="M232.551 358.161H199.944V390.768H232.551V358.161Z" fill="#EDEBE9"/>
<path d="M279.634 358.161H247.027V390.768H279.634V358.161Z" fill="#EDEBE9"/>
<path d="M326.717 358.161H294.11V390.768H326.717V358.161Z" fill="#EDEBE9"/>
<path d="M98.7122 190.914C103.302 190.914 107.022 187.193 107.022 182.604C107.022 178.014 103.302 174.294 98.7122 174.294C94.1227 174.294 90.4022 178.014 90.4022 182.604C90.4022 187.193 94.1227 190.914 98.7122 190.914Z" fill="#B3B0AD"/>
<path d="M98.725 186.542C96.4259 186.542 94.5623 184.678 94.5623 182.379V154.348C94.5623 152.049 96.4259 150.186 98.725 150.186C101.024 150.186 102.888 152.049 102.888 154.348V182.379C102.888 184.678 101.024 186.542 98.725 186.542Z" fill="#C8C6C4"/>
<path d="M145.726 190.914C150.316 190.914 154.036 187.193 154.036 182.604C154.036 178.014 150.316 174.294 145.726 174.294C141.137 174.294 137.416 178.014 137.416 182.604C137.416 187.193 141.137 190.914 145.726 190.914Z" fill="#B3B0AD"/>
<path d="M145.739 186.542C143.44 186.542 141.576 184.678 141.576 182.379V154.348C141.576 152.049 143.44 150.186 145.739 150.186C148.038 150.186 149.902 152.049 149.902 154.348V182.379C149.902 184.678 148.038 186.542 145.739 186.542Z" fill="#C8C6C4"/>
<path d="M192.74 190.914C197.33 190.914 201.05 187.193 201.05 182.604C201.05 178.014 197.33 174.294 192.74 174.294C188.151 174.294 184.43 178.014 184.43 182.604C184.43 187.193 188.151 190.914 192.74 190.914Z" fill="#B3B0AD"/>
<path d="M192.753 186.542C190.454 186.542 188.59 184.678 188.59 182.379V154.348C188.59 152.049 190.454 150.186 192.753 150.186C195.052 150.186 196.916 152.049 196.916 154.348V182.379C196.916 184.678 195.052 186.542 192.753 186.542Z" fill="#C8C6C4"/>
<path d="M239.754 190.914C244.344 190.914 248.064 187.193 248.064 182.604C248.064 178.014 244.344 174.294 239.754 174.294C235.165 174.294 231.444 178.014 231.444 182.604C231.444 187.193 235.165 190.914 239.754 190.914Z" fill="#B3B0AD"/>
<path d="M239.767 186.542C237.468 186.542 235.604 184.678 235.604 182.379V154.348C235.604 152.049 237.468 150.186 239.767 150.186C242.066 150.186 243.93 152.049 243.93 154.348V182.379C243.93 184.678 242.066 186.542 239.767 186.542Z" fill="#C8C6C4"/>
<path d="M286.768 190.914C291.358 190.914 295.078 187.193 295.078 182.604C295.078 178.014 291.358 174.294 286.768 174.294C282.179 174.294 278.458 178.014 278.458 182.604C278.458 187.193 282.179 190.914 286.768 190.914Z" fill="#B3B0AD"/>
<path d="M286.781 186.542C284.482 186.542 282.618 184.678 282.618 182.379V154.348C282.618 152.049 284.482 150.186 286.781 150.186C289.08 150.186 290.944 152.049 290.944 154.348V182.379C290.944 184.678 289.08 186.542 286.781 186.542Z" fill="#C8C6C4"/>
<path d="M333.782 190.914C338.372 190.914 342.092 187.193 342.092 182.604C342.092 178.014 338.372 174.294 333.782 174.294C329.193 174.294 325.472 178.014 325.472 182.604C325.472 187.193 329.193 190.914 333.782 190.914Z" fill="#B3B0AD"/>
<path d="M333.795 186.542C331.496 186.542 329.632 184.678 329.632 182.379V154.348C329.632 152.049 331.496 150.186 333.795 150.186C336.094 150.186 337.958 152.049 337.958 154.348V182.379C337.958 184.678 336.094 186.542 333.795 186.542Z" fill="#C8C6C4"/>
<path d="M415.987 184.474C418.595 184.474 420.71 182.359 420.71 179.75C420.71 177.141 418.595 175.027 415.987 175.027C413.378 175.027 411.263 177.141 411.263 179.75C411.263 182.359 413.378 184.474 415.987 184.474Z" fill="white"/>
<path opacity="0.09" d="M678.638 334.756H271.229C259.608 334.756 250.188 325.336 250.188 313.715V45.1891C250.188 33.5687 259.608 24.1487 271.229 24.1487H675.357C686.977 24.1487 696.398 33.5689 696.398 45.1892V316.997C696.398 326.805 688.446 334.756 678.638 334.756Z" fill="#33344A"/>
<path opacity="0.07" d="M683.211 330.184H275.648C264.112 330.184 254.76 320.832 254.76 309.297V40.4641C254.76 28.9284 264.112 19.5768 275.648 19.5768H680.082C691.618 19.5768 700.97 28.9284 700.97 40.4641V312.425C700.97 322.233 693.019 330.184 683.211 330.184Z" fill="#33344A"/>
<path d="M409.082 126.786H260.512V32.3277C260.512 29.8689 262.505 27.8759 264.964 27.8759H409.083L409.082 126.786Z" fill="#F7F7FA"/>
<path d="M409.574 126.79H261.003V225.701H409.574V126.79Z" fill="#B2AFAC"/>
<path d="M388.53 225.697C380.88 220.524 371.573 216.784 360.214 215.52C353.376 213.211 345.891 211.929 338.038 211.929C330.184 211.929 322.699 213.211 315.861 215.52C304.502 216.784 295.196 220.524 287.546 225.697H388.53Z" fill="#31C0CF"/>
<path d="M408.585 324.607H277.774C267.965 324.607 260.014 316.656 260.014 306.848V225.697H408.585V324.607Z" fill="#ECEAE8"/>
<path d="M557.653 27.8756H409.082V126.786H557.653V27.8756Z" fill="#F2F1F0"/>
<path d="M557.653 126.786H409.082V225.697H557.653V126.786Z" fill="#E0DEDC"/>
<path d="M557.653 225.697H409.082V324.607H557.653V225.697Z" fill="#FBFBFA"/>
<path d="M706.224 126.786H557.653V27.8756H700.951C703.863 27.8756 706.224 30.2362 706.224 33.1481V126.786H706.224Z" fill="#E0DEDC"/>
<path d="M706.224 126.786H557.653V225.697H706.224V126.786Z" fill="#C7C5C3"/>
<path d="M688.465 324.607H557.653V225.697H706.224V306.848C706.224 316.656 698.273 324.607 688.465 324.607Z" fill="#F2F1F0"/>
<path d="M706.224 32.8877H260.512V31.7591C260.512 21.9509 268.463 14 278.271 14H688.464C698.272 14 706.224 21.9511 706.224 31.7591L706.224 32.8877Z" fill="#8B8CC7"/>
<path d="M543.12 324.607C530.621 317.05 519.585 313.538 515.711 312.452C506.115 308.834 494.95 306.751 483.021 306.751C466.833 306.751 452.045 310.578 440.695 316.893C436.232 318.709 430.839 321.231 425.09 324.607L543.12 324.607Z" fill="#ED9583"/>
<path d="M462.14 274.223H504.758V315.236L483.449 324.607L462.14 315.236V274.223Z" fill="#DFBA94"/>
<path d="M454.151 271.547V270.943C454.151 267.352 457.062 264.441 460.653 264.441C464.244 264.441 467.155 267.352 467.155 270.943V271.547C467.155 275.138 464.244 278.049 460.653 278.049C457.062 278.049 454.151 275.138 454.151 271.547Z" fill="#DFBA94"/>
<path d="M499.743 271.547V270.943C499.743 267.352 502.654 264.441 506.245 264.441C509.836 264.441 512.747 267.352 512.747 270.943V271.547C512.747 275.138 509.836 278.049 506.245 278.049C502.654 278.049 499.743 275.138 499.743 271.547Z" fill="#DFBA94"/>
<path d="M459.524 277.885V258.977C459.524 249.942 466.849 242.617 475.884 242.617H491.014C500.05 242.617 507.374 249.942 507.374 258.977V277.885C507.374 283.808 502.573 288.61 496.65 288.61H470.249C464.326 288.61 459.524 283.808 459.524 277.885Z" fill="#BE8E68"/>
<path d="M457.132 283.001C457.132 273.637 464.723 266.046 474.088 266.046H492.811C502.175 266.046 509.767 273.637 509.767 283.001C509.767 292.366 502.175 299.957 492.811 299.957H474.088C464.723 299.957 457.132 292.366 457.132 283.001Z" fill="#BE8E68"/>
<path d="M486.524 282.009C486.619 282.021 486.711 282.062 486.786 282.132C486.976 282.309 486.986 282.608 486.809 282.798C485.599 284.095 483.796 284.373 482.184 284.123C480.579 283.844 478.895 282.844 478.332 281.196C478.301 281.105 478.297 281.003 478.326 280.903C478.402 280.647 478.671 280.502 478.927 280.578L478.969 280.59C480.397 281.015 481.441 281.261 482.643 281.462C483.837 281.675 485.01 281.816 486.443 281.999L486.524 282.009Z" fill="#9A643D"/>
<path d="M463.274 267.744V260.95C463.274 253.78 469.086 247.967 476.256 247.967H490.643C497.813 247.967 503.625 253.78 503.625 260.95V271.44C503.625 274.438 501.194 276.869 498.196 276.869H472.398C467.358 276.869 463.273 272.784 463.274 267.744Z" fill="#DFBA94"/>
<path d="M469.828 243.778C470.474 245.243 470.821 246.857 470.821 248.546C470.821 254.877 465.806 260.041 459.524 260.265V258.974C459.524 252.071 463.795 246.187 469.828 243.778Z" fill="#BE8E68"/>
<path d="M496.507 256.679L496.709 285.748L483.313 285.953L483.11 256.884L496.507 256.679Z" fill="url(#paint0_radial)"/>
<path d="M492.803 259.749C487.826 259.749 483.777 263.798 483.777 268.775C483.777 273.751 487.826 277.8 492.803 277.8C497.779 277.8 501.828 273.751 501.828 268.775C501.828 263.798 497.779 259.749 492.803 259.749ZM492.803 275.318C489.195 275.318 486.26 272.382 486.26 268.775C486.26 265.167 489.195 262.232 492.803 262.232C496.41 262.232 499.346 265.167 499.346 268.775C499.346 272.382 496.41 275.318 492.803 275.318Z" fill="#E36D58"/>
<path d="M485.251 265.783H481.163V268.266H485.251V265.783Z" fill="#E36D58"/>
<path d="M483.25 276.869C485.746 276.848 487.914 275.211 487.569 272.342C487.278 269.524 484.248 268.474 482.852 268.204C479.083 267.478 478.306 272.828 478.306 272.828C478.3 275.231 480.754 276.89 483.25 276.869Z" fill="#DFBA94"/>
<path d="M476.103 268.734C476.106 267.252 475.434 266.049 474.602 266.047C473.77 266.045 473.092 267.245 473.089 268.727C473.085 270.209 473.757 271.412 474.59 271.414C475.422 271.416 476.099 270.216 476.103 268.734Z" fill="#33312D"/>
<path d="M493.816 268.734C493.82 267.252 493.148 266.049 492.315 266.047C491.483 266.045 490.805 267.245 490.802 268.727C490.799 270.209 491.471 271.412 492.303 271.414C493.135 271.416 493.813 270.216 493.816 268.734Z" fill="#33312D"/>
<path d="M474.096 259.749C469.119 259.749 465.07 263.798 465.07 268.775C465.07 273.751 469.119 277.8 474.096 277.8C479.072 277.8 483.121 273.751 483.121 268.775C483.121 263.798 479.072 259.749 474.096 259.749ZM474.096 275.318C470.488 275.318 467.553 272.382 467.553 268.775C467.553 265.167 470.488 262.232 474.096 262.232C477.703 262.232 480.639 265.167 480.639 268.775C480.639 272.382 477.703 275.318 474.096 275.318Z" fill="#E36D58"/>
<path d="M506.397 246.518C505.897 251.888 499.317 251.878 499.317 251.878H464.659L475.323 242.617C475.323 242.617 496.292 242.567 498.39 242.112C500.489 241.656 501.241 237.531 501.241 237.531C501.241 237.531 506.898 241.148 506.397 246.518Z" fill="#BE8E68"/>
<path d="M507.365 267.324H500.896V269.806H507.365V267.324Z" fill="#E36D58"/>
<path d="M466.638 267.324H459.525V269.806H466.638V267.324Z" fill="#E36D58"/>
<path d="M455.916 324.607H483.449L479.736 309.118L462.14 304.249L455.916 324.607Z" fill="url(#paint1_radial)"/>
<path d="M452.834 311.669C457.43 308.268 458.134 303.003 458.134 303.003L479.736 309.118L475.797 321.362C475.797 321.362 452.83 311.673 452.834 311.669Z" fill="#EA8774"/>
<path d="M510.982 324.607H483.449L487.2 309.254L504.758 304.249L510.982 324.607Z" fill="url(#paint2_radial)"/>
<path d="M514.102 311.805C509.505 308.404 508.802 303.139 508.802 303.139L487.2 309.254L491.139 321.498C491.139 321.498 514.106 311.808 514.102 311.805Z" fill="#EA8774"/>
<path d="M598.094 80.5528V73.8074C598.094 58.987 610.108 46.9729 624.928 46.9729H637.798C652.618 46.9729 664.632 58.9871 664.632 73.8074V80.5528C664.632 95.3732 652.618 107.387 637.798 107.387H624.928C610.108 107.387 598.094 95.3732 598.094 80.5528Z" fill="#33312D" stroke="#33312D" stroke-width="7.8993" stroke-miterlimit="10" stroke-linecap="round" stroke-linejoin="round"/>
<path d="M654.747 114.946C648.033 111.466 640.216 109.462 631.864 109.462C623.513 109.462 615.696 111.466 608.981 114.946C608.972 114.949 608.964 114.947 608.954 114.951C603.287 116.821 597.064 120.985 591.051 126.786H672.678C666.665 120.985 660.442 116.821 654.775 114.951C654.765 114.947 654.757 114.949 654.747 114.946Z" fill="#C6E8ED"/>
<path d="M642.613 82.4651V77.3475C642.613 75.8421 643.834 74.6216 645.339 74.6216H651.2C654.118 74.6216 656.484 76.9876 656.484 79.9062C656.484 82.8247 654.118 85.1906 651.2 85.1906H645.339C643.834 85.1908 642.613 83.9703 642.613 82.4651Z" fill="#9A643D"/>
<path d="M621.088 82.4651V77.3475C621.088 75.8421 619.867 74.6216 618.362 74.6216H612.502C609.583 74.6216 607.217 76.9876 607.217 79.9062C607.217 82.8247 609.583 85.1906 612.502 85.1906H618.362C619.867 85.1908 621.088 83.9703 621.088 82.4651Z" fill="#9A643D"/>
<path d="M631.864 118.08C643.514 118.08 649.678 112.674 649.678 112.674C649.678 112.674 647.376 111.91 643.197 108.774C640.087 106.439 639.636 101.908 639.636 98.5572C639.636 94.1066 639.636 87.3042 639.636 87.3042H631.864H624.093C624.093 87.3042 624.093 94.1066 624.093 98.5572C624.093 101.908 623.642 106.439 620.532 108.774C616.353 111.91 614.051 112.674 614.051 112.674C614.051 112.674 620.215 118.08 631.864 118.08Z" fill="url(#paint3_radial)"/>
<path d="M631.827 56.0765C642.582 56.0765 651.301 63.607 651.301 75.9366C651.301 88.2662 642.582 98.2616 631.827 98.2616C621.072 98.2616 612.353 88.2665 612.353 75.9366C612.353 63.6068 621.072 56.0764 631.827 56.0765Z" fill="#9A643D"/>
<path d="M612.469 94.072C614.887 94.036 616.816 91.9645 616.779 89.4452C616.741 86.926 614.751 84.9129 612.333 84.9489C609.915 84.985 607.986 87.0564 608.023 89.5757C608.061 92.095 610.051 94.108 612.469 94.072Z" fill="#F7C854"/>
<path d="M651.418 94.1232C653.836 94.0872 655.766 92.0157 655.728 89.4964C655.691 86.9771 653.7 84.964 651.283 85.0001C648.865 85.0361 646.935 87.1076 646.973 89.6269C647.01 92.1461 649.001 94.1592 651.418 94.1232Z" fill="#F7C854"/>
<path d="M641.42 69.9453L640.572 88.7436L631.915 88.704L632.018 83.9986C632.08 82.8847 633.297 82.8226 634.001 82.0324C634.653 81.2995 634.488 80.0575 633.986 79.5148C633.086 78.5448 631.827 78.2344 631.844 74.4134L631.828 69.6991L641.42 69.9453Z" fill="url(#paint4_radial)"/>
<path d="M634.194 88.1317C634.28 88.1417 634.365 88.1694 634.444 88.216C634.75 88.3957 634.852 88.7894 634.673 89.0956C634.149 89.9876 633.355 90.5273 632.408 90.807C631.471 91.1065 630.406 91.0502 629.474 90.7322C628.53 90.4009 627.654 89.7757 627.11 88.9583C626.546 88.1493 626.262 87.2448 626.387 86.2305C626.399 86.1396 626.43 86.0466 626.483 85.964C626.674 85.6634 627.072 85.5743 627.373 85.7652L627.557 85.8819C628.173 86.2736 628.71 86.659 629.193 86.9083C629.686 87.1628 630.116 87.335 630.577 87.496C631.056 87.6447 631.508 87.7755 632.05 87.882C632.58 87.9854 633.233 88.0229 633.96 88.1052L634.194 88.1317Z" fill="#704739"/>
<path d="M624.587 78.8502C625.43 78.8376 626.097 77.6782 626.075 76.2605C626.054 74.8428 625.354 73.7037 624.51 73.7163C623.667 73.7288 623 74.8883 623.022 76.306C623.043 77.7237 623.743 78.8628 624.587 78.8502Z" fill="#3A312E"/>
<path d="M640.726 76.2943C640.747 74.8766 640.081 73.7171 639.237 73.7046C638.394 73.692 637.693 74.8311 637.672 76.2488C637.651 77.6665 638.318 78.826 639.161 78.8385C640.004 78.8511 640.705 77.712 640.726 76.2943Z" fill="#3A312E"/>
<path d="M626.526 63.419C629.478 63.419 631.871 61.026 631.871 58.0742C631.871 55.1223 629.478 52.7294 626.526 52.7294C623.574 52.7294 621.181 55.1223 621.181 58.0742C621.181 61.026 623.574 63.419 626.526 63.419Z" fill="#33312D"/>
<path d="M645.51 66.4162C648.462 66.4162 650.855 64.0232 650.855 61.0714C650.855 58.1195 648.462 55.7266 645.51 55.7266C642.558 55.7266 640.165 58.1195 640.165 61.0714C640.165 64.0232 642.558 66.4162 645.51 66.4162Z" fill="#33312D"/>
<path d="M619.165 68.1031C622.117 68.1031 624.51 65.7101 624.51 62.7582C624.51 59.8064 622.117 57.4135 619.165 57.4135C616.213 57.4135 613.82 59.8064 613.82 62.7582C613.82 65.7101 616.213 68.1031 619.165 68.1031Z" fill="#33312D"/>
<path d="M650.855 74.6241C653.807 74.6241 656.2 72.2311 656.2 69.2792C656.2 66.3274 653.807 63.9344 650.855 63.9344C647.903 63.9344 645.51 66.3274 645.51 69.2792C645.51 72.2311 647.903 74.6241 650.855 74.6241Z" fill="#33312D"/>
<path d="M611.907 74.6241C614.859 74.6241 617.252 72.2311 617.252 69.2792C617.252 66.3274 614.859 63.9344 611.907 63.9344C608.955 63.9344 606.562 66.3274 606.562 69.2792C606.562 72.2311 608.955 74.6241 611.907 74.6241Z" fill="#33312D"/>
<path d="M338.026 219.502L356.007 213.737L356.087 173.651H320.197L320.007 213.487L338.026 219.502Z" fill="url(#paint5_radial)"/>
<path d="M359.682 158.684C359.658 154.331 356.11 150.822 351.757 150.846L324.167 150.999C319.812 151.023 316.302 154.573 316.326 158.927L316.411 174.222L359.767 173.981L359.682 158.684Z" fill="#E0DEDC"/>
<path d="M324.996 177.662C326.216 174.202 324.4 170.407 320.94 169.187C317.479 167.967 313.685 169.783 312.465 173.244C311.245 176.704 313.061 180.499 316.522 181.719C319.982 182.939 323.776 181.122 324.996 177.662Z" fill="#BE8E68"/>
<path d="M357.358 182.115C361.027 182.115 364.001 179.14 364.001 175.471C364.001 171.802 361.027 168.827 357.358 168.827C353.688 168.827 350.714 171.802 350.714 175.471C350.714 179.14 353.688 182.115 357.358 182.115Z" fill="#BE8E68"/>
<path d="M357.745 185.433L357.628 164.396C357.6 159.373 353.506 155.325 348.483 155.352L327.169 155.471C322.271 155.498 318.322 159.491 318.349 164.39L318.466 185.43C318.517 194.637 326.022 202.06 335.23 202.009L341.385 201.975C350.471 201.925 357.795 194.519 357.745 185.433Z" fill="#E0DEDC"/>
<path d="M355.669 175.739L355.613 165.597C355.582 160.033 351.046 155.548 345.482 155.579L330.443 155.662C324.879 155.693 320.394 160.228 320.425 165.792L320.481 175.934C320.508 180.869 324.531 184.847 329.465 184.819L346.784 184.723C351.718 184.696 355.696 180.673 355.669 175.739Z" fill="#BE8E68"/>
<path d="M360.847 154.201C364.263 149.656 363.264 142.991 358.829 139.732C353.919 136.124 347.67 140.017 344.118 140.95C340.746 141.834 336.722 140.408 332.195 140.15C316.747 139.268 321.366 156.396 321.366 156.396C321.366 156.396 323.061 153.133 329.304 153.354C334.435 153.536 342.344 157.969 346.311 158.23C350.071 158.477 357.649 158.455 360.847 154.201Z" fill="#E0DEDC"/>
<path d="M338.535 184.769L348.212 184.739C351.011 184.73 353.277 182.458 353.277 179.658V162.019L339.286 162.039L339.344 170.632C339.349 171.831 339.696 173.004 340.345 174.013L343.069 178.242C343.511 178.928 343.318 179.842 342.637 180.291L339.488 182.367C338.882 182.766 338.52 183.447 338.528 184.173L338.535 184.769Z" fill="url(#paint6_radial)"/>
<path d="M330.97 175.332C331.835 175.327 332.528 174.03 332.52 172.434C332.511 170.838 331.803 169.548 330.938 169.553C330.074 169.558 329.38 170.855 329.389 172.451C329.397 174.047 330.105 175.337 330.97 175.332Z" fill="#33312D"/>
<path d="M346.374 175.254C347.239 175.249 347.932 173.952 347.923 172.356C347.915 170.76 347.207 169.47 346.342 169.475C345.478 169.48 344.784 170.777 344.793 172.373C344.801 173.969 345.509 175.259 346.374 175.254Z" fill="#33312D"/>
<path d="M328.258 184.791C329.199 182.599 331.753 181.577 333.98 182.529C335.433 183.149 336.399 183.514 337.437 183.834C338.647 184.211 339.81 184.528 341.17 184.848C342.213 185.087 343.126 185.702 343.747 186.588C345.105 188.538 344.628 191.235 342.676 192.605C341.236 193.612 339.531 194.127 337.68 194.127C336.597 194.127 335.466 193.952 334.306 193.596C331.346 192.616 329.108 190.569 328.167 187.983L328.164 187.971C327.791 186.935 327.823 185.807 328.258 184.791Z" fill="#E0DEDC"/>
<path d="M331.837 185.905C331.97 185.67 332.268 185.586 332.504 185.718L332.534 185.735C333.895 186.499 334.994 187.019 336.249 187.409C336.863 187.613 337.499 187.765 338.147 187.909C338.803 188.039 339.451 188.151 340.202 188.227L340.274 188.234C340.384 188.245 340.492 188.294 340.575 188.38C340.761 188.574 340.755 188.882 340.561 189.068C339.882 189.72 338.973 190.021 338.096 190.121C337.208 190.229 336.313 190.112 335.465 189.845C333.796 189.3 332.232 188.005 331.789 186.266C331.76 186.149 331.773 186.019 331.837 185.905Z" fill="#9A643D"/>
<path d="M322.773 208.337L323.653 217.931C323.653 217.931 329.09 221.626 338.006 222.059C338.006 222.052 338.006 222.042 338.006 222.035C338.02 222.042 338.03 222.052 338.044 222.059C346.96 221.626 352.397 217.931 352.397 217.931L353.277 208.337L338.025 211.929L322.773 208.337Z" fill="#E0DEDC"/>
<path d="M316.503 215.29C319.925 213.042 319.743 205.872 319.743 205.872L338.025 211.929L334.246 223.651C334.245 223.651 316.498 215.293 316.503 215.29Z" fill="white"/>
<path d="M359.547 215.29C356.125 213.042 356.307 205.872 356.307 205.872L338.025 211.929L341.805 223.651C341.805 223.651 359.552 215.293 359.547 215.29Z" fill="white"/>
<path d="M520.052 192.302C514.467 184.857 512.255 168.548 512.255 168.548H454.435C454.435 168.548 452.458 184.798 446.645 192.082C440.833 199.363 433.329 200.27 429.067 207.962C425.545 214.32 429.534 219.442 429.637 225.696H535.98C536.329 219.182 539.84 213.014 536.606 206.73C532.585 198.918 525.634 199.748 520.052 192.302Z" fill="#DEBB96"/>
<path d="M453.769 225.697H513.383C506.295 217.228 495.574 211.83 483.576 211.83C471.577 211.83 460.857 217.228 453.769 225.697Z" fill="#ED9583"/>
<path d="M454.435 173.3V168.538C454.435 153.555 466.58 141.41 481.563 141.41H485.127C500.109 141.41 512.255 153.555 512.255 168.538V173.3C512.255 188.283 500.11 200.428 485.127 200.428H481.563C466.58 200.428 454.435 188.283 454.435 173.3Z" fill="#DEBB96"/>
<path d="M491.183 201.776C491.374 194.227 491.183 189.976 491.183 189.976H475.956C475.956 189.976 475.956 201.394 475.956 203.409C475.956 211.544 468.656 214.449 466.351 215.828C466.435 219.834 472.163 221.807 476.803 221.807H490.571C498.024 221.807 500.419 215.635 500.419 215.635C498.366 214.45 490.936 211.543 491.183 201.776Z" fill="url(#paint7_radial)"/>
<path d="M491.664 179.187C492.518 179.187 493.21 177.873 493.21 176.251C493.21 174.629 492.518 173.315 491.664 173.315C490.81 173.315 490.118 174.629 490.118 176.251C490.118 177.873 490.81 179.187 491.664 179.187Z" fill="#33312D"/>
<path d="M476.36 179.187C477.214 179.187 477.907 177.873 477.907 176.251C477.907 174.629 477.214 173.315 476.36 173.315C475.507 173.315 474.814 174.629 474.814 176.251C474.814 177.873 475.507 179.187 476.36 179.187Z" fill="#33312D"/>
<path d="M465.548 180.019V172.575C465.548 162.697 473.555 154.69 483.433 154.69H483.718C493.596 154.69 501.604 162.697 501.604 172.575V180.019C501.604 189.896 493.596 197.904 483.718 197.904H483.433C473.555 197.904 465.548 189.897 465.548 180.019Z" fill="#F8DCBE"/>
<path d="M460.803 178.853C460.803 176.311 462.864 174.25 465.406 174.25H470.292V183.456H465.406C462.864 183.456 460.803 181.395 460.803 178.853Z" fill="#F8DCBE"/>
<path d="M506.348 178.853C506.348 176.311 504.288 174.25 501.745 174.25H496.859V183.456H501.745C504.288 183.456 506.348 181.395 506.348 178.853Z" fill="#F8DCBE"/>
<path d="M496.419 167.935H484.365V189.77H496.419V167.935Z" fill="url(#paint8_radial)"/>
<path d="M484.365 173.552C484.812 178.853 486.528 180.495 487.53 181.754C487.855 182.162 487.776 182.748 487.412 183.121C486.594 183.959 484.557 184.856 484.365 186.687C481.093 182.502 483.353 175.385 484.365 173.552Z" fill="#F8DCBE"/>
<path d="M466.063 153.041H500.268L504.307 161.75C506.999 167.64 508.325 172.23 508.283 172.609C506.347 173.703 504.223 174.25 501.909 174.25C498.459 174.25 495.492 173.093 493.01 170.779C490.528 168.423 489.203 164.106 489.034 160.741H477.801C477.591 164.106 476.244 168.423 473.762 170.779C471.28 173.093 468.314 174.25 464.864 174.25C462.718 174.25 460.72 173.766 458.868 172.799C458.784 172.125 461.182 164.569 466.063 153.041V153.041L466.063 153.041Z" fill="#DEBB96"/>
<path d="M483.418 160.867C483.418 159.368 484.633 158.153 486.132 158.153H486.321C487.82 158.153 489.035 159.368 489.035 160.867H483.418Z" fill="#BE8E68"/>
<path d="M477.801 160.867C477.801 159.368 479.016 158.153 480.515 158.153H480.704C482.203 158.153 483.418 159.368 483.418 160.867H477.801Z" fill="#BE8E68"/>
<path d="M483.418 143.764H492.884V160.867H483.418V143.764Z" fill="url(#paint9_radial)"/>
<g opacity="0.5">
<path opacity="0.5" d="M485.663 188.952C485.754 188.966 485.843 189.006 485.916 189.072C486.113 189.252 486.128 189.558 485.948 189.755C485.432 190.321 484.812 190.645 484.111 190.842C483.414 191.042 482.635 191.048 481.867 190.858C481.101 190.661 480.366 190.202 479.889 189.579C479.375 188.98 479.15 188.23 479.148 187.508C479.148 187.422 479.171 187.334 479.218 187.255C479.357 187.023 479.657 186.948 479.889 187.087L479.954 187.126C480.526 187.47 480.923 187.791 481.343 187.987C481.749 188.193 482.106 188.354 482.522 188.451C483.331 188.699 484.35 188.751 485.586 188.94L485.663 188.952Z" fill="#BE8E68"/>
</g>
<path d="M473.173 177.638C473.092 177.668 473.002 177.676 472.912 177.658C472.65 177.604 472.481 177.349 472.534 177.087C472.683 176.355 473.056 175.773 473.607 175.277C474.149 174.782 474.936 174.438 475.791 174.416C476.638 174.414 477.483 174.727 478.02 175.245C478.588 175.735 478.93 176.359 479.075 177.037C479.092 177.117 479.09 177.205 479.064 177.289C478.983 177.553 478.702 177.701 478.438 177.619L478.388 177.604C477.767 177.412 477.299 177.192 476.875 177.071C476.451 176.934 476.132 176.915 475.828 176.91C475.232 176.867 474.381 177.195 473.258 177.607L473.173 177.638Z" fill="#2C2C54"/>
<path d="M489.644 177.644C489.564 177.67 489.477 177.676 489.388 177.657C489.125 177.6 488.957 177.34 489.014 177.076C489.168 176.366 489.527 175.806 490.05 175.321C490.564 174.839 491.296 174.48 492.143 174.421C492.982 174.375 493.875 174.69 494.397 175.232C494.965 175.739 495.263 176.384 495.362 177.059C495.373 177.136 495.367 177.22 495.338 177.299C495.245 177.559 494.959 177.695 494.699 177.602L494.64 177.581C494.042 177.368 493.601 177.136 493.21 177.032C492.82 176.9 492.554 176.902 492.271 176.911C491.706 176.894 490.837 177.248 489.722 177.618L489.644 177.644Z" fill="#2C2C54"/>
<path d="M688.812 225.095C680.505 218.929 670.656 215.328 659.843 215.328H604.883C594.071 215.328 584.233 218.929 575.938 225.095H688.812Z" fill="#85D4E8"/>
<path d="M607.396 181.047C610.3 181.047 612.654 178.275 612.654 174.857C612.654 171.438 610.3 168.666 607.396 168.666C604.493 168.666 602.139 171.438 602.139 174.857C602.139 178.275 604.493 181.047 607.396 181.047Z" fill="#594539"/>
<path d="M651.703 202.271C650.249 190.423 651.914 178.45 651.914 178.45L632.466 178.488L613.018 178.45C613.018 178.45 614.683 190.423 613.229 202.271C612.192 210.717 610.096 214.091 606.806 214.5C619.644 217.475 632.466 224.22 632.466 224.22C632.466 224.22 644.726 218.041 657.564 215.066C654.273 214.657 652.74 210.717 651.703 202.271Z" fill="url(#paint10_radial)"/>
<path d="M614.56 181.912C604.827 181.912 596.938 174.022 596.938 164.289V159.061C596.938 149.329 604.828 141.439 614.56 141.439C624.293 141.439 632.183 149.329 632.183 159.061V164.289C632.183 174.022 624.293 181.912 614.56 181.912Z" fill="#594539"/>
<path d="M651.474 160.054L650.592 188.513L632.548 198.328L631.916 181.925C631.916 180.978 632.337 180.032 633.073 179.506C633.388 179.296 633.704 178.98 634.125 178.875C636.438 177.929 637.174 175.721 635.807 173.933C634.23 171.935 632.232 169.938 631.811 159.843C631.601 153.324 651.475 160.159 651.474 160.054Z" fill="url(#paint11_radial)"/>
<path d="M641.287 172.993C642.176 172.993 642.897 171.576 642.897 169.828C642.897 168.08 642.176 166.663 641.287 166.663C640.397 166.663 639.676 168.08 639.676 169.828C639.676 171.576 640.397 172.993 641.287 172.993Z" fill="black"/>
<path d="M635.359 186.502C635.442 186.539 635.351 186.587 635.268 186.648L635.013 186.803C634.836 186.903 634.652 186.989 634.463 187.073C634.085 187.225 633.69 187.357 633.279 187.429C632.461 187.6 631.593 187.588 630.733 187.431C629.876 187.26 629.035 186.884 628.335 186.345C627.614 185.827 627.088 185.086 626.774 184.301C626.605 183.879 626.81 183.401 627.231 183.232C627.429 183.153 627.639 183.156 627.824 183.225L627.958 183.275C628.637 183.53 629.156 183.815 629.715 183.986C630.264 184.159 630.778 184.345 631.345 184.432C631.9 184.557 632.485 184.625 633.107 184.705L634.072 184.809L634.586 184.871L634.859 184.904C634.951 184.924 635.035 184.929 635.296 184.937C635.729 184.919 636.093 185.255 636.111 185.688C636.128 186.12 635.792 186.485 635.359 186.502Z" fill="#422E26"/>
<path d="M631.662 168.479C633.645 168.479 635.251 166.586 635.251 164.252C635.251 161.918 633.645 160.026 631.662 160.026C629.68 160.026 628.073 161.918 628.073 164.252C628.073 166.586 629.68 168.479 631.662 168.479Z" fill="#594539"/>
<path d="M608.454 162.98C609.061 162.98 609.554 162.013 609.554 160.819C609.554 159.626 609.061 158.659 608.454 158.659C607.847 158.659 607.355 159.626 607.355 160.819C607.355 162.013 607.847 162.98 608.454 162.98Z" fill="black"/>
<path d="M308.46 267.316C305.349 287.41 306.183 309.13 299.634 324.607H371.591C365.062 308.493 364.795 281.707 362.179 264.802C359.859 249.807 347.887 241.066 335.679 241.147C323.018 241.228 311.053 250.567 308.46 267.316Z" fill="#3A312E"/>
<path d="M345.341 273.262H352.275C355.244 273.262 357.625 275.642 357.625 278.612C357.625 281.582 355.244 283.963 352.275 283.963H345.341V273.262Z" fill="#BE8E68"/>
<path d="M326.111 273.262H319.178C316.208 273.262 313.827 275.642 313.827 278.612C313.827 281.582 316.208 283.963 319.178 283.963H326.111V273.262Z" fill="#BE8E68"/>
<path d="M299.376 323.336C299.376 323.336 298.917 323.777 298.099 324.607H373.741C367.116 316.306 352.773 310.555 336.123 310.555C320.83 310.555 307.471 315.397 300.259 322.62C299.965 322.851 299.671 323.094 299.376 323.336Z" fill="#85D3E7"/>
<path d="M322.08 312.107C318.613 313.297 329.818 317.257 336.254 317.257C342.703 317.257 353.653 313.863 349.493 311.875C343.707 309.656 343.2 306.01 343.096 302.843V291.138H329.124L329.228 302.45C329.228 308.504 325.061 311.021 322.08 312.107Z" fill="url(#paint12_radial)"/>
<path d="M353.846 290.71C355.761 290.682 357.288 289.019 357.258 286.996C357.228 284.973 355.652 283.356 353.737 283.385C351.822 283.413 350.295 285.076 350.325 287.099C350.355 289.122 351.932 290.739 353.846 290.71Z" fill="#F7C854"/>
<path d="M317.654 290.711C319.569 290.682 321.096 289.019 321.066 286.996C321.036 284.973 319.46 283.356 317.545 283.385C315.631 283.413 314.103 285.076 314.133 287.099C314.163 289.122 315.74 290.739 317.654 290.711Z" fill="#F7C854"/>
<path d="M336.348 251.413C349.559 250.613 353.482 264.79 354.153 273.6C354.153 287.282 346.034 297.83 335.923 297.83C325.811 297.83 317.687 286.724 317.687 273.053C317.687 259.383 326.359 252.018 336.348 251.413Z" fill="#BE8E68"/>
<path d="M328.14 276.275C329.072 276.261 329.808 274.961 329.784 273.372C329.761 271.783 328.986 270.506 328.054 270.52C327.123 270.534 326.387 271.833 326.41 273.422C326.434 275.011 327.209 276.288 328.14 276.275Z" fill="#3A312E"/>
<path d="M350.513 260.662L347.291 291.916L336.896 291.807L336.691 284.794C336.691 283.038 339.169 281.486 339.687 280.872C340.721 279.742 340.312 277.684 339.482 276.854C337.93 275.411 335.873 272.728 335.561 268.806L335.152 261.168L350.513 260.662Z" fill="url(#paint13_radial)"/>
<path d="M339.395 288.408C338.88 289.155 338.093 289.555 337.341 289.727C336.579 289.915 335.798 289.897 335.051 289.752C333.563 289.463 332.182 288.503 331.561 287.154C331.4 286.804 331.553 286.39 331.903 286.229C332.085 286.145 332.285 286.147 332.458 286.217L332.522 286.243C333.663 286.713 334.564 287.097 335.57 287.313C336.552 287.532 337.598 287.615 338.486 287.445L338.735 287.398C339.089 287.33 339.43 287.562 339.498 287.916C339.532 288.093 339.489 288.269 339.395 288.408Z" fill="#9A643D"/>
<path d="M315.777 253.362C309.864 262.263 310.115 269.39 310.958 274.651C312.088 281.712 316.717 283.366 316.717 283.366C316.717 283.366 317.841 270.931 327.74 267.504C343.765 261.957 341.512 246.588 341.512 246.588C341.512 246.588 326.085 239.495 315.777 253.362Z" fill="#3A312E"/>
<path d="M345.296 273.368C345.32 271.779 344.584 270.48 343.652 270.466C342.72 270.452 341.946 271.729 341.922 273.318C341.898 274.907 342.635 276.207 343.566 276.221C344.498 276.234 345.272 274.957 345.296 273.368Z" fill="#3A312E"/>
<path d="M499.308 74.3081C502.274 74.3081 504.678 71.9036 504.678 68.9375C504.678 65.9714 502.274 63.5669 499.308 63.5669C496.341 63.5669 493.937 65.9714 493.937 68.9375C493.937 71.9036 496.341 74.3081 499.308 74.3081Z" fill="#594539"/>
<path d="M488.747 54.4085C492.142 54.4085 494.895 51.6561 494.895 48.2607C494.895 44.8654 492.142 42.1129 488.747 42.1129C485.352 42.1129 482.599 44.8654 482.599 48.2607C482.599 51.6561 485.352 54.4085 488.747 54.4085Z" fill="#594539"/>
<path d="M497.449 57.8183C500.845 57.8183 503.597 55.0659 503.597 51.6705C503.597 48.2752 500.845 45.5227 497.449 45.5227C494.054 45.5227 491.302 48.2752 491.302 51.6705C491.302 55.0659 494.054 57.8183 497.449 57.8183Z" fill="#594539"/>
<path d="M500.773 67.0434C504.168 67.0434 506.921 64.291 506.921 60.8956C506.921 57.5003 504.168 54.7478 500.773 54.7478C497.378 54.7478 494.625 57.5003 494.625 60.8956C494.625 64.291 497.378 67.0434 500.773 67.0434Z" fill="#594539"/>
<path d="M477.528 57.4325C480.923 57.4325 483.676 54.68 483.676 51.2847C483.676 47.8893 480.923 45.1368 477.528 45.1368C474.132 45.1368 471.38 47.8893 471.38 51.2847C471.38 54.68 474.132 57.4325 477.528 57.4325Z" fill="#594539"/>
<path d="M469.512 62.0863C472.907 62.0863 475.66 59.3338 475.66 55.9385C475.66 52.5431 472.907 49.7906 469.512 49.7906C466.117 49.7906 463.364 52.5431 463.364 55.9385C463.364 59.3338 466.117 62.0863 469.512 62.0863Z" fill="#594539"/>
<path d="M467.7 70.001C471.095 70.001 473.848 67.2485 473.848 63.8531C473.848 60.4578 471.095 57.7053 467.7 57.7053C464.305 57.7053 461.552 60.4578 461.552 63.8531C461.552 67.2485 464.305 70.001 467.7 70.001Z" fill="#594539"/>
<path d="M463.849 80.2975L463.758 68.4359C463.678 58.654 471.551 50.6891 481.334 50.5981H483.928C493.71 50.5174 501.675 58.3915 501.766 68.1734L501.856 80.035C501.947 84.2747 498.565 87.7374 494.326 87.7374L471.471 87.9089C467.221 87.9089 463.849 84.5372 463.849 80.2975Z" fill="url(#paint14_linear)"/>
<path d="M482.378 117.819C467.99 117.819 455.048 121.277 446.074 126.786H518.683C509.709 121.277 496.767 117.819 482.378 117.819Z" fill="#F6B448"/>
<path d="M491.984 108.636C491.984 103.225 491.812 88.434 491.812 88.434L473.116 88.6055L473.207 108.064C473.207 118.353 468.008 119.013 468.008 119.013C468.008 119.013 472.171 123.565 476.257 126.786H488.24C492.442 123.566 496.77 119.016 496.77 119.016C496.77 119.016 491.984 117.509 491.984 108.636Z" fill="url(#paint15_radial)"/>
<path d="M498.828 78.4703C498.566 78.4703 495.628 78.5611 495.366 78.5611C492.418 78.9953 492.852 81.4988 492.852 84.6181C492.933 87.7374 492.59 90.3319 495.618 90.5942C495.79 90.5942 498.727 90.5942 498.99 90.5942C502.372 90.5034 505.057 87.8181 504.966 84.4464C504.966 81.0648 502.2 78.3896 498.828 78.4703Z" fill="#9A643D"/>
<path d="M466.787 92.9262L466.615 71.3736C466.524 63.7518 472.672 57.5233 480.294 57.4325H484.968C492.589 57.3417 498.818 63.4895 498.909 71.1111L499.08 92.6637C499.171 100.285 493.023 107.9 485.402 107.991H480.728C473.116 107.991 466.878 100.548 466.787 92.9262Z" fill="#9A643D"/>
<path d="M476.035 83.0387C476.872 83.0275 477.533 81.7576 477.512 80.2023C477.491 78.647 476.796 77.3953 475.96 77.4065C475.124 77.4177 474.462 78.6876 474.483 80.2429C474.504 81.7982 475.199 83.0499 476.035 83.0387Z" fill="#3A312E"/>
<path d="M495.88 67.1371L483.504 67.0463L483.675 80.634C483.675 81.7645 484.019 82.8046 484.624 83.7533L487.138 87.5592C487.572 88.2558 487.4 89.0331 486.795 89.4671L483.938 91.375C483.413 91.7182 483.069 92.3239 483.069 93.0204L483.413 101.934L495.183 102.025L495.88 67.1371Z" fill="url(#paint16_radial)"/>
<path d="M484.958 98.0744C484.198 98.4589 483.461 98.6356 482.665 98.6659C481.879 98.7072 481.078 98.5788 480.319 98.317C479.558 98.0643 478.839 97.6564 478.251 97.1142C477.642 96.5956 477.212 95.8999 476.93 95.1766C476.785 94.8053 476.969 94.3868 477.34 94.2418C477.533 94.1663 477.739 94.1798 477.913 94.2626L477.986 94.2981C479.224 94.8933 480.144 95.4328 481.208 95.8293C481.732 96.0348 482.279 96.1952 482.855 96.3433C483.42 96.4844 484.061 96.6126 484.642 96.7371L484.789 96.7686C485.166 96.8493 485.406 97.2204 485.326 97.5976C485.28 97.8109 485.138 97.982 484.958 98.0744Z" fill="#845035"/>
<path d="M489.85 83.0325C490.686 83.0213 491.347 81.7514 491.327 80.1961C491.306 78.6408 490.611 77.389 489.775 77.4002C488.938 77.4114 488.277 78.6813 488.298 80.2366C488.319 81.7919 489.014 83.0437 489.85 83.0325Z" fill="#3A312E"/>
<path d="M466.615 78.8035C466.877 78.8035 469.815 78.8035 470.077 78.8035C473.015 79.1568 472.672 81.6604 472.672 84.7796C472.672 87.8988 473.015 90.4126 469.987 90.7558C469.815 90.8466 466.877 90.8466 466.615 90.8466C463.243 90.8466 460.558 88.1614 460.558 84.7896C460.558 81.4177 463.243 78.7329 466.615 78.8035Z" fill="#9A643D"/>
<path d="M465.04 64.4586L466.514 78.652L468.251 68.2643C468.947 64.9733 471.804 62.5507 475.176 62.5507L490.157 62.4599C493.539 62.4599 496.476 64.7918 497.173 68.0827L499.081 78.4704L500.292 64.277L493.457 54.0609L471.814 54.2324L465.04 64.4586Z" fill="url(#paint17_linear)"/>
<path d="M493.785 71.2732C497.181 71.2732 499.933 68.5207 499.933 65.1254C499.933 61.73 497.181 58.9775 493.785 58.9775C490.39 58.9775 487.637 61.73 487.637 65.1254C487.637 68.5207 490.39 71.2732 493.785 71.2732Z" fill="#594539"/>
<path d="M485.733 65.5205C489.128 65.5205 491.881 62.768 491.881 59.3727C491.881 55.9773 489.128 53.2249 485.733 53.2249C482.338 53.2249 479.585 55.9773 479.585 59.3727C479.585 62.768 482.338 65.5205 485.733 65.5205Z" fill="#594539"/>
<path d="M608.895 313.113C608.895 313.113 595.379 317.256 588.301 324.607H666.941C662.379 319.579 653.93 315.224 646.347 312.81C635.25 312.851 608.895 313.113 608.895 313.113Z" fill="#85D4E8"/>
<path d="M638.407 303.818C638.407 300.45 638.407 282.196 638.407 282.196H627.355H627.355H616.304C616.304 282.196 616.304 300.45 616.304 303.818C616.304 310.098 608.895 313.113 608.895 313.113C608.895 313.113 616.563 318.001 627.355 318.001C638.148 318.001 646.348 312.81 646.348 312.81C646.348 312.81 638.407 310.098 638.407 303.818Z" fill="url(#paint18_radial)"/>
<path d="M601.729 265.323V264.653C601.729 250.849 613.012 239.659 626.929 239.659C640.847 239.659 652.129 250.849 652.129 264.653V265.323C652.129 279.126 640.847 290.316 626.929 290.316C613.012 290.316 601.729 279.126 601.729 265.323Z" fill="#F9DBBC"/>
<path d="M630.159 289.169C630.321 289.177 630.48 289.245 630.599 289.373C630.843 289.634 630.828 290.043 630.567 290.287C629.848 290.957 629.032 291.331 628.126 291.553C627.225 291.777 626.253 291.768 625.314 291.565C624.382 291.347 623.474 290.936 622.769 290.303C622.034 289.712 621.509 288.923 621.2 288.075C621.145 287.922 621.145 287.748 621.214 287.587C621.359 287.251 621.748 287.096 622.084 287.24L622.158 287.272C622.914 287.598 623.514 287.953 624.137 288.196C624.743 288.463 625.337 288.651 625.947 288.791C626.554 288.949 627.19 289.027 627.869 289.084C628.539 289.132 629.285 289.126 630.023 289.162L630.159 289.169Z" fill="#BE8E68"/>
<path d="M607.688 278.451V270.041C607.688 258.524 616.613 249.188 627.621 249.188C638.63 249.188 647.554 258.524 647.554 270.041V278.451C647.554 289.967 637.503 299.303 627.621 299.303C617.74 299.303 607.689 289.967 607.688 278.451Z" fill="#DFBA94"/>
<path d="M639.142 268.044H627.45V288.856H639.142V268.044Z" fill="url(#paint19_radial)"/>
<path d="M635.288 276.858C636.241 276.858 637.013 275.46 637.013 273.735C637.013 272.01 636.241 270.612 635.288 270.612C634.336 270.612 633.564 272.01 633.564 273.735C633.564 275.46 634.336 276.858 635.288 276.858Z" fill="#33312D"/>
<path d="M619.955 276.858C620.907 276.858 621.679 275.46 621.679 273.735C621.679 272.01 620.907 270.612 619.955 270.612C619.002 270.612 618.23 272.01 618.23 273.735C618.23 275.46 619.002 276.858 619.955 276.858Z" fill="#33312D"/>
<path d="M631.08 289.347C631.078 289.352 631.079 289.357 631.077 289.362C630.131 291.382 627.749 292.578 625.308 292.11C622.868 291.643 621.174 289.668 621.146 287.46C621.146 287.439 621.158 287.423 621.16 287.403C622.249 287.798 623.871 288.295 626.001 288.703C627.97 289.08 629.722 289.262 631.08 289.347Z" fill="#833A3A"/>
<path d="M622.128 286.712L622.41 286.767L630.489 288.314C630.538 288.324 630.586 288.338 630.63 288.354C631.046 288.509 631.254 288.953 631.08 289.347C629.722 289.262 627.97 289.08 626.001 288.703C623.871 288.295 622.249 287.798 621.16 287.403C621.194 286.952 621.637 286.62 622.128 286.712Z" fill="white"/>
<path d="M624.398 268.815V284.987L627.45 285.806C627.45 284.386 631.74 283.763 631.74 281.669C631.74 279.575 628.069 276.456 627.45 268.815C625.922 268.044 624.398 268.815 624.398 268.815Z" fill="#DFBA94"/>
<path d="M600.254 275.93C600.254 272.322 603.178 269.399 606.785 269.399H610.259C611.06 269.399 611.71 270.048 611.71 270.85V281.009C611.71 281.811 611.06 282.46 610.259 282.46H606.785C603.178 282.46 600.254 279.536 600.254 275.93Z" fill="#DFBA94"/>
<path d="M654.683 275.93C654.683 272.322 651.759 269.399 648.152 269.399H644.678C643.877 269.399 643.227 270.048 643.227 270.85V281.009C643.227 281.811 643.877 282.46 644.678 282.46H648.152C651.759 282.46 654.683 279.536 654.683 275.93Z" fill="#DFBA94"/>
<path d="M606.851 258.544C604.778 261.3 602.992 266.902 603.493 270.122C604.055 273.735 606.766 276.638 606.766 276.638C606.766 276.638 606.697 273.464 609.363 270.055C610.982 267.985 613.72 266.445 616.091 261.802C618.467 257.149 618.003 253.224 618.003 253.224L616.49 251.902C616.49 251.902 610.364 253.874 606.851 258.544Z" fill="#F9DBBC"/>
<path d="M648.366 258.544C650.439 261.3 652.225 266.902 651.724 270.122C651.162 273.735 648.451 276.638 648.451 276.638C648.451 276.638 648.52 273.464 645.854 270.055C644.235 267.985 641.497 266.445 639.126 261.802C636.75 257.149 637.214 253.224 637.214 253.224L638.727 251.901C638.727 251.902 644.853 253.874 648.366 258.544Z" fill="#F9DBBC"/>
<path d="M638.8 240.819C651.557 244.234 655.018 257.136 656.861 260.605C658.703 264.073 665.08 263.04 665.08 263.04C662.143 271.465 646.308 279.985 634.874 269.225C626.545 261.116 617.663 254.797 617.663 254.797L614.983 245.424C614.984 245.424 622.871 236.554 638.8 240.819Z" fill="#F9DBBC"/>
<path d="M677.058 304.884C681.542 309.147 685.716 308.323 685.716 308.323C685.716 308.323 689.079 305.232 691.261 300.958C692.922 297.77 696.891 286.407 693.327 283.28C691.581 281.67 690.43 290.272 690.43 290.272C690.43 290.272 694.963 280.517 693.265 278.647C690.647 275.64 688.663 287.314 688.663 287.314C688.663 287.314 692.63 277.133 690.175 275.284C688.003 273.649 685.168 285.274 685.168 285.274C685.168 285.274 688.687 276.943 686.466 276.159C682.302 277.046 679.748 291.793 679.748 291.793C679.748 291.793 677.745 281.971 675.755 284.024C674.074 285.865 673.299 299.515 677.058 304.884Z" fill="#DFBA94"/>
<path d="M690.313 302.637C690.343 297.194 675.185 294.068 675.3 300.756C675.66 303.058 678.552 308.266 678.621 311.378C678.699 314.927 678.112 319.628 676.987 324.607H688.465C688.734 324.607 688.997 324.578 689.263 324.567C689.059 318.931 688.958 313.844 689.046 310.189C689.111 307.493 689.149 306.305 690.313 302.637Z" fill="#DFBA94"/>
<path d="M211.785 83.3342C226.67 83.3342 238.736 71.2675 238.736 56.3826C238.736 41.4976 226.67 29.4309 211.785 29.4309C196.9 29.4309 184.833 41.4976 184.833 56.3826C184.833 71.2675 196.9 83.3342 211.785 83.3342Z" fill="#BDBDEA"/>
<path d="M215.889 46.5113C216.221 46.6222 216.554 46.844 216.887 47.1768C217.22 47.5095 217.441 47.8423 217.552 48.1751C217.663 48.5077 217.774 48.9516 217.774 49.2842V63.3701C217.774 63.8138 217.663 64.1466 217.552 64.4793C217.441 64.812 217.22 65.1448 216.887 65.4776C216.554 65.8102 216.221 66.0321 215.889 66.143C215.556 66.2539 215.112 66.365 214.779 66.365H199.252C198.142 66.365 197.255 65.8104 196.701 64.7012C196.257 63.814 195.924 62.5938 195.702 61.0411C195.591 60.1539 195.591 59.0447 195.591 57.6029V54.9409C195.591 53.4991 195.591 52.3899 195.702 51.5027C195.924 49.9498 196.257 48.7298 196.701 47.8426C197.366 46.7334 198.142 46.1788 199.252 46.1788H214.779C215.223 46.2894 215.556 46.4005 215.889 46.5113Z" fill="white"/>
<path d="M227.534 48.6189C227.756 48.8408 227.867 49.0626 227.867 49.2844V63.3703C227.867 63.5922 227.756 63.9249 227.534 64.0357C227.313 64.1466 227.091 64.3684 226.869 64.3684C226.647 64.3684 226.314 64.2575 226.204 64.0357L221.102 59.1554C220.658 58.8228 220.436 58.3789 220.215 57.8245C219.993 57.2701 219.882 56.8262 219.882 56.2717C219.882 55.7171 219.993 55.1625 220.215 54.7188C220.436 54.1642 220.769 53.7206 221.102 53.3879L226.204 48.5076C226.425 48.2857 226.647 48.1749 226.869 48.1749C227.202 48.2861 227.423 48.397 227.534 48.6189Z" fill="white"/>
<path d="M320.712 100.298C323.494 100.298 355.437 100.298 355.437 100.298L361.611 82.2097L313.536 78.1584C313.536 78.1586 315.292 92.5107 320.712 100.298Z" fill="#59453C"/>
<path d="M338.311 99.5906C352.155 99.5906 363.378 88.368 363.378 74.5243C363.378 60.6806 352.155 49.458 338.311 49.458C324.467 49.458 313.245 60.6806 313.245 74.5243C313.245 88.368 324.467 99.5906 338.311 99.5906Z" fill="#59453C"/>
<path d="M320.411 89.3264H324.96V79.089H320.411C317.584 79.089 315.292 81.3807 315.292 84.2078C315.292 87.0349 317.584 89.3264 320.411 89.3264Z" fill="#DFBA94"/>
<path d="M356.268 89.3264H351.719V79.089H356.268C359.095 79.089 361.387 81.3807 361.387 84.2078C361.387 87.0349 359.095 89.3264 356.268 89.3264Z" fill="#DFBA94"/>
<path d="M326.435 108.139C332.168 105.727 331.507 100.75 331.507 100.75V94.4009H345.17V100.75C345.17 100.75 344.509 105.727 350.242 108.139C350.242 108.139 347.013 114.394 338.347 114.217V114.217C338.344 114.217 338.341 114.217 338.338 114.217C338.335 114.217 338.332 114.217 338.329 114.217V114.217C329.663 114.394 326.435 108.139 326.435 108.139Z" fill="url(#paint20_radial)"/>
<path d="M338.338 100.75C348.722 100.75 357.139 91.5522 357.139 80.2067C357.139 68.8613 348.722 59.6639 338.338 59.6639C327.955 59.6639 319.538 68.8613 319.538 80.2067C319.538 91.5522 327.955 100.75 338.338 100.75Z" fill="#DFBA94"/>
<path d="M338.356 94.3812H346.221V75.6086H338.356V94.3812Z" fill="url(#paint21_radial)"/>
<path d="M362.767 68.8889C366.457 87.7011 359.674 93.8636 358.316 102.586C358.316 102.586 354.358 93.2022 354.961 88.8707C355.564 84.5391 354.314 79.4348 350.148 77.1029C345.547 74.5271 339.257 75.3274 334.763 72.17C328.766 67.9565 327.157 60.6018 332.048 56.1186C336.168 52.3425 359.244 50.9227 362.767 68.8889Z" fill="#594539"/>
<path d="M329.288 60.0952C331.039 64.3831 325.87 76.4732 319.586 79.0891C311.99 64.9119 326.604 53.5195 329.288 60.0952Z" fill="#594539"/>
<path d="M346.549 89.3263C350.212 89.3263 353.182 86.3567 353.182 82.6935C353.182 79.0303 350.212 76.0607 346.549 76.0607C342.886 76.0607 339.916 79.0303 339.916 82.6935C339.916 86.3567 342.886 89.3263 346.549 89.3263Z" stroke="#E86E59" stroke-width="1.1045" stroke-linecap="round" stroke-linejoin="round"/>
<path d="M338.375 83.027C338.768 83.9614 338.789 84.3705 340.243 85.8293C340.827 86.4153 340.917 87.4776 340.453 88.2364C340.041 88.9099 339.068 89.4331 338.375 90.8435C337.701 92.2148 334.066 90.4133 334.453 86.2848C334.753 83.0875 337.507 80.9629 338.375 83.027Z" fill="#DFBA94"/>
<path d="M330.127 89.3263C333.791 89.3263 336.76 86.3567 336.76 82.6935C336.76 79.0303 333.791 76.0607 330.127 76.0607C326.464 76.0607 323.495 79.0303 323.495 82.6935C323.495 86.3567 326.464 89.3263 330.127 89.3263Z" stroke="#E86E59" stroke-width="1.1045" stroke-linecap="round" stroke-linejoin="round"/>
<path d="M339.917 80.9684L336.796 80.929" stroke="#E86E59" stroke-width="1.1045" stroke-linecap="round" stroke-linejoin="round"/>
<path d="M346.341 85.2523C347.18 85.2478 347.855 84.0978 347.848 82.6836C347.84 81.2694 347.153 80.1265 346.314 80.131C345.474 80.1354 344.799 81.2855 344.807 82.6997C344.814 84.1139 345.501 85.2567 346.341 85.2523Z" fill="#33312D"/>
<path d="M330.429 85.2518C331.269 85.2473 331.944 84.0973 331.936 82.6831C331.929 81.2689 331.242 80.126 330.402 80.1305C329.562 80.1349 328.888 81.285 328.895 82.6992C328.903 84.1134 329.59 85.2562 330.429 85.2518Z" fill="#33312D"/>
<path d="M334.192 92.834C334.37 93.4746 334.66 93.953 335.101 94.3866C335.53 94.8115 336.086 95.1384 336.682 95.3057C337.276 95.472 337.902 95.5016 338.469 95.3812C339.043 95.2769 339.55 95.0116 339.983 94.6742C340.268 94.4513 340.319 94.0391 340.096 93.7536C339.984 93.6099 339.824 93.5255 339.656 93.5058L339.578 93.4968C339.105 93.4423 338.69 93.4193 338.314 93.379C337.935 93.3524 337.605 93.2717 337.282 93.2018C336.961 93.1189 336.666 92.9833 336.352 92.8217C336.051 92.6654 335.705 92.414 335.421 92.2255L335.217 92.0903C334.906 91.8844 334.487 91.9693 334.281 92.2804C334.168 92.4495 334.143 92.6529 334.192 92.834Z" fill="#BE8E68"/>
<path d="M345.525 103.394H331.152C330.63 104.92 329.397 106.849 326.54 108.087C321.02 109.919 309.528 114.906 299.371 126.786H377.359C367.095 114.782 355.468 109.815 350.019 108.031C347.25 106.791 346.039 104.898 345.525 103.394Z" fill="#85D3E7"/>
<path d="M322.045 73.4887L322.149 73.3215C322.637 72.5423 322.401 71.5147 321.622 71.0265L318.202 68.8835C317.422 68.3954 316.395 68.6312 315.906 69.4105L315.802 69.5776C315.314 70.3569 315.55 71.3845 316.329 71.8727L319.75 74.0157C320.529 74.5039 321.556 74.268 322.045 73.4887Z" fill="#85D4E8"/>
<path d="M657.662 167.855C657.662 153.598 646.104 142.04 631.847 142.04H631.847C617.591 142.04 606.033 153.598 606.033 167.855V169.408C610.248 168.32 613.43 163.445 613.43 157.592C613.43 156.986 613.384 156.395 613.319 155.814H650.247C650.181 156.395 650.136 156.986 650.136 157.592C650.136 163.504 653.383 168.412 657.661 169.434L657.662 167.855Z" fill="url(#paint22_linear)"/>
<path d="M606.278 224.822H631.921L628.463 213.408L612.075 208.539L606.278 224.822Z" fill="#85D4E8"/>
<path d="M603.408 215.959C607.688 212.558 608.344 207.293 608.344 207.293L628.463 213.408L624.794 224.987C624.794 224.987 603.403 215.962 603.408 215.959Z" fill="#C6E8ED"/>
<path d="M656.404 224.822H631.921L635.414 213.543L651.767 208.539L656.404 224.822Z" fill="#85D4E8"/>
<path d="M660.469 216.094C656.188 212.694 655.533 207.428 655.533 207.428L635.414 213.543L639.083 225.123C639.083 225.123 660.473 216.098 660.469 216.094Z" fill="#C6E8ED"/>
</g>
<defs>
<radialGradient id="paint0_radial" cx="0" cy="0" r="1" gradientUnits="userSpaceOnUse" gradientTransform="translate(483.757 272.726) rotate(-1.10017) scale(10.3708 7.82221)">
<stop stop-color="#9A643D"/>
<stop offset="1" stop-color="#BE8E68" stop-opacity="0"/>
</radialGradient>
<radialGradient id="paint1_radial" cx="0" cy="0" r="1" gradientUnits="userSpaceOnUse" gradientTransform="translate(483.771 305.741) rotate(180) scale(16.5878 16.4037)">
<stop stop-color="#E86E59"/>
<stop offset="1" stop-color="#ED9583"/>
</radialGradient>
<radialGradient id="paint2_radial" cx="0" cy="0" r="1" gradientUnits="userSpaceOnUse" gradientTransform="translate(483.771 305.741) rotate(180) scale(16.5878 16.4037)">
<stop stop-color="#E86E59"/>
<stop offset="1" stop-color="#ED9583"/>
</radialGradient>
<radialGradient id="paint3_radial" cx="0" cy="0" r="1" gradientUnits="userSpaceOnUse" gradientTransform="translate(631.626 92.7691) scale(14.1085)">
<stop stop-color="#6E4539"/>
<stop offset="0.1544" stop-color="#754A3A"/>
<stop offset="1" stop-color="#9A643D"/>
</radialGradient>
<radialGradient id="paint4_radial" cx="0" cy="0" r="1" gradientUnits="userSpaceOnUse" gradientTransform="translate(631.999 80.9373) rotate(7.52729) scale(5.96157 6.2851)">
<stop stop-color="#6E4539"/>
<stop offset="0.0623" stop-color="#724739"/>
<stop offset="0.6617" stop-color="#8F5C3C"/>
<stop offset="1" stop-color="#9A643D"/>
</radialGradient>
<radialGradient id="paint5_radial" cx="0" cy="0" r="1" gradientUnits="userSpaceOnUse" gradientTransform="translate(339.035 187.233) rotate(180) scale(22.014 24.5484)">
<stop stop-color="#9A643D"/>
<stop offset="1" stop-color="#BE8E68"/>
</radialGradient>
<radialGradient id="paint6_radial" cx="0" cy="0" r="1" gradientUnits="userSpaceOnUse" gradientTransform="translate(338.588 178.59) rotate(180) scale(8.84293)">
<stop stop-color="#9A643D"/>
<stop offset="1" stop-color="#BE8E68"/>
</radialGradient>
<radialGradient id="paint7_radial" cx="0" cy="0" r="1" gradientUnits="userSpaceOnUse" gradientTransform="translate(483.857 176.688) scale(29.0563)">
<stop stop-color="#9A5331" stop-opacity="0.85"/>
<stop offset="0.0219" stop-color="#9D5735" stop-opacity="0.8533"/>
<stop offset="0.3579" stop-color="#C48F70" stop-opacity="0.9037"/>
<stop offset="0.6446" stop-color="#E0B99A" stop-opacity="0.9467"/>
<stop offset="0.8677" stop-color="#F2D2B4" stop-opacity="0.9802"/>
<stop offset="1" stop-color="#F8DCBE"/>
</radialGradient>
<radialGradient id="paint8_radial" cx="0" cy="0" r="1" gradientUnits="userSpaceOnUse" gradientTransform="translate(482.278 181.799) rotate(180) scale(8.72105 7.42161)">
<stop stop-color="#9A5331"/>
<stop offset="0.1102" stop-color="#AC6D4C"/>
<stop offset="0.3053" stop-color="#C79475"/>
<stop offset="0.4963" stop-color="#DCB394"/>
<stop offset="0.6793" stop-color="#ECCAAB"/>
<stop offset="0.8511" stop-color="#F5D7B9"/>
<stop offset="1" stop-color="#F8DCBE"/>
</radialGradient>
<radialGradient id="paint9_radial" cx="0" cy="0" r="1" gradientUnits="userSpaceOnUse" gradientTransform="translate(473.813 162.618) rotate(180) scale(19.4536)">
<stop stop-color="#5C2C07" stop-opacity="0.8471"/>
<stop offset="1" stop-color="#BD8F6B" stop-opacity="0"/>
</radialGradient>
<radialGradient id="paint10_radial" cx="0" cy="0" r="1" gradientUnits="userSpaceOnUse" gradientTransform="translate(631.459 186.62) scale(21.5036 29.2486)">
<stop stop-color="#2A1510"/>
<stop offset="0.9996" stop-color="#594539"/>
</radialGradient>
<radialGradient id="paint11_radial" cx="0" cy="0" r="1" gradientUnits="userSpaceOnUse" gradientTransform="translate(631.587 175.721) scale(11.5763)">
<stop stop-color="#2A1510"/>
<stop offset="0.0414" stop-color="#2D1813"/>
<stop offset="0.4002" stop-color="#453128"/>
<stop offset="0.7295" stop-color="#544035"/>
<stop offset="0.9996" stop-color="#594539"/>
</radialGradient>
<radialGradient id="paint12_radial" cx="0" cy="0" r="1" gradientUnits="userSpaceOnUse" gradientTransform="translate(337.073 292.247) rotate(180) scale(13.3269)">
<stop stop-color="#9A643D"/>
<stop offset="1" stop-color="#BE8E68"/>
</radialGradient>
<radialGradient id="paint13_radial" cx="0" cy="0" r="1" gradientUnits="userSpaceOnUse" gradientTransform="translate(337.697 279.275) rotate(4.31829) scale(10.2485 10.8044)">
<stop offset="0.0003" stop-color="#9A643D"/>
<stop offset="0.8822" stop-color="#B98963" stop-opacity="0.1178"/>
<stop offset="1" stop-color="#BE8E68" stop-opacity="0"/>
</radialGradient>
<linearGradient id="paint14_linear" x1="482.808" y1="71.2121" x2="482.808" y2="78.6538" gradientUnits="userSpaceOnUse">
<stop offset="0.173" stop-color="#594539"/>
<stop offset="0.7031" stop-color="#9A643D"/>
</linearGradient>
<radialGradient id="paint15_radial" cx="0" cy="0" r="1" gradientUnits="userSpaceOnUse" gradientTransform="translate(482.76 104.65) scale(16.8302)">
<stop stop-color="#724937"/>
<stop offset="0.4657" stop-color="#8E5C3B"/>
<stop offset="0.7448" stop-color="#9A643D"/>
</radialGradient>
<radialGradient id="paint16_radial" cx="0" cy="0" r="1" gradientUnits="userSpaceOnUse" gradientTransform="translate(482.273 87.7815) rotate(178.827) scale(13.2533 13.9896)">
<stop stop-color="#724937"/>
<stop offset="0.7696" stop-color="#9A643D"/>
</radialGradient>
<linearGradient id="paint17_linear" x1="482.666" y1="71.2122" x2="482.666" y2="78.6539" gradientUnits="userSpaceOnUse">
<stop offset="0.173" stop-color="#594539"/>
<stop offset="0.7031" stop-color="#9A643D"/>
</linearGradient>
<radialGradient id="paint18_radial" cx="0" cy="0" r="1" gradientUnits="userSpaceOnUse" gradientTransform="translate(629.176 292.178) scale(18.0394)">
<stop offset="0.0013" stop-color="#BE8E68"/>
<stop offset="1" stop-color="#DFBA94"/>
</radialGradient>
<radialGradient id="paint19_radial" cx="0" cy="0" r="1" gradientUnits="userSpaceOnUse" gradientTransform="translate(629.211 281.641) rotate(180) scale(7.40054)">
<stop offset="0.0013" stop-color="#BE8E68"/>
<stop offset="0.1074" stop-color="#C2946E"/>
<stop offset="0.6733" stop-color="#D7B089"/>
<stop offset="1" stop-color="#DFBA94"/>
</radialGradient>
<radialGradient id="paint20_radial" cx="0" cy="0" r="1" gradientUnits="userSpaceOnUse" gradientTransform="translate(338.779 93.3398) rotate(180) scale(13.2106)">
<stop offset="0.0668" stop-color="#9A643D"/>
<stop offset="0.2364" stop-color="#AB7953"/>
<stop offset="0.5635" stop-color="#C79C77"/>
<stop offset="0.8298" stop-color="#D9B28C"/>
<stop offset="1" stop-color="#DFBA94"/>
</radialGradient>
<radialGradient id="paint21_radial" cx="0" cy="0" r="1" gradientUnits="userSpaceOnUse" gradientTransform="translate(338.293 86.7644) rotate(176.721) scale(8.02365 7.66845)">
<stop stop-color="#9A643D"/>
<stop offset="0.0415" stop-color="#9F6A43"/>
<stop offset="0.3772" stop-color="#C1956F"/>
<stop offset="0.6377" stop-color="#D7B08A"/>
<stop offset="0.7896" stop-color="#DFBA94"/>
</radialGradient>
<linearGradient id="paint22_linear" x1="631.847" y1="155.87" x2="631.847" y2="164.175" gradientUnits="userSpaceOnUse">
<stop/>
<stop offset="0.6312" stop-color="#3B2E26"/>
<stop offset="0.9996" stop-color="#594539"/>
</linearGradient>
<clipPath id="clip0">
<rect width="760" height="428" fill="white"/>
</clipPath>
</defs>
</svg>
