<svg width="100" height="100" viewBox="0 0 100 100" fill="none" xmlns="http://www.w3.org/2000/svg">
<g clip-path="url(#clip0)">
<rect width="100" height="100" fill="#F1F1F1"/>
<path d="M37.4417 96.51C63.1451 96.51 83.9817 75.852 83.9817 50.3691C83.9817 24.8862 63.1451 4.22827 37.4417 4.22827C11.7384 4.22827 -9.09827 24.8862 -9.09827 50.3691C-9.09827 75.852 11.7384 96.51 37.4417 96.51Z" fill="#FBC9B6"/>
<path d="M39.1725 46.8938C50.5939 46.668 59.6476 36.2817 59.3946 23.6952C59.1415 11.1088 49.6774 1.08842 38.256 1.31416C26.8346 1.5399 17.7809 11.9262 18.0339 24.5127C18.287 37.0992 27.7511 47.1195 39.1725 46.8938Z" fill="#3A312E"/>
<path d="M59.3991 23L18.1098 21.8169C18.1098 21.8169 15.1662 39.169 13.416 50.5268C12.3022 57.5465 8.16532 72.8479 5.14221 83.5746C13.4955 91.6197 24.9515 96.5887 37.5213 96.5887C52.1595 96.5887 65.1271 89.8845 73.7191 79.4732C69.9004 69.2197 64.252 53.5239 62.4222 45.5577C59.24 31.5972 59.3991 23 59.3991 23Z" fill="#3A312E"/>
<path d="M59.3195 71.1917C59.7173 69.2198 59.8764 67.0902 59.7173 64.9607L59.7969 64.1719H59.7173C58.9218 57.6255 55.1031 52.0255 49.8524 48.7128C49.2955 48.3184 48.6591 48.0029 48.1022 47.6874C47.5453 47.3719 46.9089 47.1353 46.352 46.8987C43.2493 45.6367 39.8284 45.0846 36.2484 45.479C33.3049 45.7945 30.5204 46.5832 28.0542 47.9241C26.9404 48.4762 25.9858 49.186 25.0311 49.8959C24.4742 50.2902 23.9969 50.7635 23.5195 51.2367C18.9849 55.4959 16.3595 61.648 16.8369 68.1945V68.2733C16.8369 68.4311 16.8369 68.6677 16.9164 68.8255C17.1551 71.4283 17.8711 73.8733 18.9053 76.0818C18.9053 76.0818 22.0875 83.8902 22.4058 93.986C27.1791 95.6424 32.3502 96.5888 37.76 96.5888C45.8747 96.5888 53.4324 94.5381 60.0356 90.9888C59.24 85.9409 59.0013 80.8142 59.3195 75.6874V71.1917Z" fill="url(#paint0_radial)"/>
<path d="M54.1629 33.5683C55.6119 33.5182 56.7444 32.2777 56.6924 30.7975C56.6403 29.3173 55.4234 28.158 53.9743 28.2081C52.5253 28.2582 51.3928 29.4987 51.4448 30.9789C51.4969 32.4591 52.7138 33.6184 54.1629 33.5683Z" stroke="#E86E59" stroke-width="1.3254" stroke-miterlimit="10"/>
<path d="M44.1245 48.0816L32.9867 48.2393L31.5547 29.5464L42.1356 33.8055L44.1245 48.0816Z" fill="#A57653"/>
<path opacity="0.15" d="M42.4538 33.8844L44.4427 48.1604L33.3049 48.3971L31.7933 29.7041L42.4538 33.8844Z" fill="url(#paint1_radial)"/>
<path d="M27.0996 22.5267C28.2929 31.9126 35.4529 38.6169 43.0902 38.2225C52.2391 37.8281 55.8987 29.3887 54.6258 20.0028C53.4325 10.6957 46.2725 3.59714 38.6351 4.307C30.9978 5.01685 25.8267 13.1408 27.0996 22.5267Z" fill="#A57653"/>
<path d="M43.5676 15.2705L43.0107 15.586C43.1698 18.5043 44.0449 21.3437 45.4769 23.8677L46.5112 25.7606L42.9312 27.3381L43.0107 29.3099L63.9338 28.8367L62.1836 23.5522L43.5676 15.2705Z" fill="url(#paint2_radial)"/>
<path d="M48.5795 7.6196C48.5795 7.6196 44.1244 4.14918 41.9764 10.459C39.9875 16.059 37.9191 18.3464 28.0542 20.3971C23.2809 21.4224 22.008 23.552 22.008 23.552C22.008 23.552 19.6213 12.1943 26.7018 6.51538C38.1578 -2.55505 48.5795 7.6196 48.5795 7.6196Z" fill="#3A312E"/>
<path d="M33.6231 28.2057L28.5316 28.2845C26.4632 28.3634 24.7129 26.7071 24.7129 24.6564V24.262C24.6334 22.2113 26.304 20.4761 28.3725 20.4761L33.464 20.3972L33.6231 28.2057Z" fill="#A57653"/>
<path d="M46.1929 30.8083C45.5565 32.6224 43.7267 33.8055 41.8174 33.5689C39.908 33.2534 38.476 31.5971 38.3965 29.7041C38.3965 29.7041 38.3965 29.7041 38.3965 29.6252C39.2716 29.9407 40.5445 30.2562 42.2151 30.4928C43.8063 30.7295 45.1587 30.8083 46.1929 30.8083Z" fill="#5A4539"/>
<path d="M39.1125 28.9943H39.3511L45.636 29.9408H45.7156C46.0338 30.0197 46.1929 30.4141 46.1133 30.8084C45.0791 30.8084 43.7267 30.7296 42.1356 30.4929C40.4649 30.2563 39.192 29.862 38.3169 29.6253C38.3965 29.231 38.7942 28.9155 39.1125 28.9943Z" fill="#C8C6C4"/>
<path d="M50.0912 20.7916C49.6138 20.4762 49.2956 20.4762 48.8978 20.4762C48.5 20.555 48.1818 20.7128 47.784 21.1071L47.7045 21.186C47.5454 21.3438 47.2272 21.3438 47.068 21.186C46.9885 21.1071 46.9089 20.9494 46.9089 20.8705C46.9089 20.4762 47.068 20.0029 47.3863 19.6874C47.7045 19.3719 48.1818 19.1353 48.5796 19.0564C49.0569 18.9776 49.5343 19.0564 49.9321 19.2931C50.3298 19.5297 50.6481 19.924 50.8072 20.3184C50.8867 20.555 50.7276 20.8705 50.4889 20.9494C50.3298 21.0283 50.1707 20.9494 50.0912 20.8705V20.7916Z" fill="#33312D"/>
<path d="M38.6351 21.6591C38.1578 21.3436 37.8395 21.3436 37.4418 21.3436C37.044 21.4225 36.7258 21.5802 36.328 21.9746L36.2484 22.0534C36.0893 22.2112 35.7711 22.2112 35.612 22.0534C35.5324 21.9746 35.4529 21.8168 35.4529 21.7379C35.4529 21.3436 35.612 20.8703 35.9302 20.5548C36.2484 20.2394 36.7258 20.0027 37.1235 19.9239C37.6009 19.845 38.0782 19.9239 38.476 20.1605C38.8738 20.3971 39.192 20.7915 39.3511 21.1858C39.4307 21.4225 39.2715 21.7379 39.0329 21.8168C38.8738 21.8957 38.7147 21.8168 38.6351 21.7379V21.6591Z" fill="#33312D"/>
<path d="M27.4319 33.568C28.881 33.518 30.0135 32.2774 29.9614 30.7973C29.9093 29.3171 28.6924 28.1578 27.2434 28.2079C25.7943 28.258 24.6618 29.4985 24.7139 30.9787C24.7659 32.4588 25.9828 33.6181 27.4319 33.568Z" stroke="#E86E59" stroke-width="1.3254" stroke-miterlimit="10"/>
<path d="M45.2382 98.8759L15.8026 100.296L16.2799 89.3323L45.3177 95.1689L45.2382 98.8759Z" fill="#A57653"/>
<path d="M26.3835 99.9804L10.552 100.69C4.108 100.69 -0.26756 94.0649 2.43733 88.2283C5.46044 75.8452 12.6204 57.8621 25.9858 49.186L40.4649 64.0931L16.3596 89.3325L26.5427 91.3832L26.3835 99.9804Z" fill="#C6E8ED"/>
<path d="M43.5675 98.6394C43.5675 98.6394 46.0337 99.507 47.8635 99.7437C50.1706 100.059 53.3528 99.1127 53.3528 99.1127C53.3528 99.1127 55.6599 99.0338 57.5693 99.1127C59.6377 99.1915 61.8653 100.217 63.2177 100.296C65.2066 100.454 65.2066 98.7972 63.5359 98.5606C61.6266 98.2451 58.4444 95.4845 55.6599 95.2479C52.7164 95.0113 43.6471 94.8535 43.6471 94.8535L43.5675 98.6394Z" fill="#A57653"/>
<path d="M59.24 49.738C70.2187 55.8113 79.3675 55.4169 84.8569 50.6056C88.6755 47.2929 108.326 35.8563 105.621 21.8169L109.44 32.0704C109.44 32.0704 104.587 51.7887 93.2102 64.6451C87.9595 70.5606 69.3435 75.6084 59.4787 72.3746L41.9764 45.6366C41.9764 45.6366 48.2613 43.6648 59.24 49.738Z" fill="#C6E8ED"/>
<path d="M48.1818 45.6367C49.0569 49.5804 47.2271 54.3128 42.772 54.3128C38.7147 54.3128 34.3391 51.8677 30.9182 46.6621C33.3844 45.3212 41.1013 43.9804 48.1818 45.6367Z" fill="#A57653"/>
<path d="M89.3121 94.7746C89.3121 94.7746 89.9485 92.8817 93.4489 91.6197L92.1761 88.7803C92.1761 88.7803 89.3121 89.2535 87.1641 92.0141L89.3121 94.7746Z" fill="#C6E8ED"/>
<path d="M79.7654 8.09302C79.7654 8.09302 81.1974 7.69865 83.4249 9.35499L84.6978 7.38316C84.6978 7.38316 83.2658 5.8057 80.5609 5.64795L79.7654 8.09302Z" fill="#C6E8ED"/>
<path d="M80.1631 74.7408L89.9484 69.2985L98.8586 76.0027L101.564 38.0647L82.9475 36.7239L80.1631 74.7408Z" fill="#31C0CF"/>
<path d="M125.669 59.2027L114.69 60.9379L111.826 71.6647L86.1298 43.3492L100.052 30.8872L125.669 59.2027Z" fill="#31C0CF"/>
<path d="M92.2556 54.8647C84.1409 54.8647 76.9809 49.7379 74.3556 42.1661C70.9347 32.3858 76.2649 21.6591 86.1298 18.3464C88.1187 17.6365 90.1872 17.321 92.2556 17.321C100.37 17.321 107.53 22.4478 110.156 30.0196C113.576 39.7999 108.246 50.5267 98.3814 53.8394C96.3925 54.5492 94.324 54.8647 92.2556 54.8647Z" fill="#C6E8ED"/>
<path d="M92.2556 19.7661C99.0973 19.7661 105.462 24.0253 107.848 30.8084C110.792 39.3267 106.178 48.6337 97.5858 51.552C95.8356 52.183 94.0058 52.4196 92.2556 52.4196C85.4138 52.4196 79.0493 48.1605 76.6627 41.3774C73.7191 32.8591 78.3333 23.552 86.9253 20.6337C88.6756 20.0816 90.5053 19.7661 92.2556 19.7661ZM92.2556 14.9548C89.8689 14.9548 87.5618 15.3492 85.3342 16.1379C79.9245 17.952 75.5489 21.8168 73.0827 26.8647C70.5369 31.9126 70.2187 37.6703 72.0484 43.0337C74.992 51.6309 83.1067 57.3886 92.2556 57.3886C94.6422 57.3886 96.9493 56.9943 99.1769 56.2055C104.587 54.3915 108.962 50.5267 111.428 45.4788C113.974 40.4309 114.292 34.6731 112.463 29.3098C109.519 20.7126 101.404 14.9548 92.2556 14.9548Z" fill="#85D3E7"/>
<path d="M97.5062 29.6252L91.9374 40.983L85.6525 38.0647" stroke="#31C0CF" stroke-width="4.8088" stroke-miterlimit="10" stroke-linecap="round"/>
</g>
<defs>
<radialGradient id="paint0_radial" cx="0" cy="0" r="1" gradientUnits="userSpaceOnUse" gradientTransform="translate(13.1022 91.4796) scale(33.7046 33.4155)">
<stop stop-color="#31C0CF"/>
<stop offset="0.00412217" stop-color="#85D3E7"/>
<stop offset="1" stop-color="#C6E8ED"/>
</radialGradient>
<radialGradient id="paint1_radial" cx="0" cy="0" r="1" gradientUnits="userSpaceOnUse" gradientTransform="translate(45.4128 35.805) rotate(-1.13228) scale(12.0784 11.9749)">
<stop stop-color="#906B60"/>
<stop offset="0.9997" stop-color="#906B60" stop-opacity="0"/>
</radialGradient>
<radialGradient id="paint2_radial" cx="0" cy="0" r="1" gradientUnits="userSpaceOnUse" gradientTransform="translate(41.9572 25.1889) rotate(18.0211) scale(8.25014 6.1735)">
<stop stop-color="#5A4539"/>
<stop offset="1" stop-color="#9B643D" stop-opacity="0"/>
</radialGradient>
<clipPath id="clip0">
<rect width="100" height="100" fill="white"/>
</clipPath>
</defs>
</svg>
