<svg width="100" height="100" viewBox="0 0 100 100" fill="none" xmlns="http://www.w3.org/2000/svg">
<rect width="100" height="100" fill="white"/>
<g clip-path="url(#clip0)">
<path d="M86.2988 35.2344C87.6172 35.9668 88.8184 36.8604 89.9023 37.915C90.9863 38.9697 91.8945 40.1416 92.627 41.4307C93.3594 42.7197 93.9453 44.082 94.3848 45.5176C94.8242 46.9531 95.0293 48.4473 95 50H89.375C89.375 48.4766 89.082 47.0264 88.4961 45.6494C87.9102 44.2725 87.1045 43.0859 86.0791 42.0898C85.0537 41.0938 83.8525 40.2881 82.4756 39.6729C81.0986 39.0576 79.6484 38.75 78.125 38.75C76.5723 38.75 75.1221 39.043 73.7744 39.6289C72.4268 40.2148 71.2402 41.0205 70.2148 42.0459C69.1895 43.0713 68.3838 44.2725 67.7979 45.6494C67.2119 47.0264 66.9043 48.4766 66.875 50C66.875 52.666 66.2744 55.2002 65.0732 57.6025C63.8721 60.0049 62.1875 61.9971 60.0195 63.5791C61.9238 64.5459 63.6377 65.7324 65.1611 67.1387C66.6846 68.5449 68.0029 70.127 69.1162 71.8848C70.2295 73.6426 71.0645 75.5176 71.6211 77.5098C72.1777 79.502 72.4707 81.582 72.5 83.75H66.875C66.875 81.4355 66.4355 79.2529 65.5566 77.2021C64.6777 75.1514 63.4619 73.3643 61.9092 71.8408C60.3564 70.3174 58.5693 69.1162 56.5479 68.2373C54.5264 67.3584 52.3438 66.9043 50 66.875C47.6855 66.875 45.5029 67.3145 43.4521 68.1934C41.4014 69.0723 39.6143 70.2881 38.0908 71.8408C36.5674 73.3936 35.3662 75.1807 34.4873 77.2021C33.6084 79.2236 33.1543 81.4062 33.125 83.75H27.5C27.5 81.6113 27.793 79.5459 28.3789 77.5537C28.9648 75.5615 29.7998 73.6865 30.8838 71.9287C31.9678 70.1709 33.2715 68.5889 34.7949 67.1826C36.3184 65.7764 38.0469 64.5752 39.9805 63.5791C37.8418 61.9971 36.1719 60.0049 34.9707 57.6025C33.7695 55.2002 33.1543 52.666 33.125 50C33.125 48.4766 32.832 47.0264 32.2461 45.6494C31.6602 44.2725 30.8545 43.0859 29.8291 42.0898C28.8037 41.0938 27.6025 40.2881 26.2256 39.6729C24.8486 39.0576 23.3984 38.75 21.875 38.75C20.3223 38.75 18.8721 39.043 17.5244 39.6289C16.1768 40.2148 14.9902 41.0205 13.9648 42.0459C12.9395 43.0713 12.1338 44.2725 11.5479 45.6494C10.9619 47.0264 10.6543 48.4766 10.625 50H5C5 48.4766 5.20508 46.9971 5.61523 45.5615C6.02539 44.126 6.59668 42.7637 7.3291 41.4746C8.06152 40.1855 8.98438 39.0137 10.0977 37.959C11.2109 36.9043 12.4121 35.9961 13.7012 35.2344C12.7344 34.209 11.9873 33.0225 11.46 31.6748C10.9326 30.3271 10.6543 28.9355 10.625 27.5C10.625 25.9766 10.918 24.5264 11.5039 23.1494C12.0898 21.7725 12.8955 20.5859 13.9209 19.5898C14.9463 18.5938 16.1328 17.7881 17.4805 17.1729C18.8281 16.5576 20.293 16.25 21.875 16.25C23.3984 16.25 24.8486 16.543 26.2256 17.1289C27.6025 17.7148 28.7891 18.5205 29.7852 19.5459C30.7812 20.5713 31.5869 21.7725 32.2021 23.1494C32.8174 24.5264 33.125 25.9766 33.125 27.5C33.125 28.9355 32.8613 30.3271 32.334 31.6748C31.8066 33.0225 31.0449 34.209 30.0488 35.2344C32.4512 36.5527 34.4141 38.3691 35.9375 40.6836C37.5195 38.3398 39.541 36.4941 42.002 35.1465C44.4629 33.7988 47.1289 33.125 50 33.125C52.8418 33.125 55.4932 33.7988 57.9541 35.1465C60.415 36.4941 62.4512 38.3398 64.0625 40.6836C65.5859 38.3691 67.5488 36.5527 69.9512 35.2344C68.9844 34.209 68.2373 33.0225 67.71 31.6748C67.1826 30.3271 66.9043 28.9355 66.875 27.5C66.875 25.9766 67.168 24.5264 67.7539 23.1494C68.3398 21.7725 69.1455 20.5859 70.1709 19.5898C71.1963 18.5938 72.3828 17.7881 73.7305 17.1729C75.0781 16.5576 76.543 16.25 78.125 16.25C79.6484 16.25 81.0986 16.543 82.4756 17.1289C83.8525 17.7148 85.0391 18.5205 86.0352 19.5459C87.0312 20.5713 87.8369 21.7725 88.4521 23.1494C89.0674 24.5264 89.375 25.9766 89.375 27.5C89.375 28.9355 89.1113 30.3271 88.584 31.6748C88.0566 33.0225 87.2949 34.209 86.2988 35.2344ZM16.25 27.5C16.25 28.291 16.3965 29.0234 16.6895 29.6973C16.9824 30.3711 17.3779 30.957 17.876 31.4551C18.374 31.9531 18.9746 32.3633 19.6777 32.6855C20.3809 33.0078 21.1133 33.1543 21.875 33.125C22.666 33.125 23.3984 32.9785 24.0723 32.6855C24.7461 32.3926 25.332 31.9971 25.8301 31.499C26.3281 31.001 26.7383 30.4004 27.0605 29.6973C27.3828 28.9941 27.5293 28.2617 27.5 27.5C27.5 26.709 27.3535 25.9766 27.0605 25.3027C26.7676 24.6289 26.3721 24.043 25.874 23.5449C25.376 23.0469 24.7754 22.6367 24.0723 22.3145C23.3691 21.9922 22.6367 21.8457 21.875 21.875C21.084 21.875 20.3516 22.0215 19.6777 22.3145C19.0039 22.6074 18.418 23.0029 17.9199 23.501C17.4219 23.999 17.0117 24.5996 16.6895 25.3027C16.3672 26.0059 16.2207 26.7383 16.25 27.5ZM50 61.25C51.5234 61.25 52.9736 60.957 54.3506 60.3711C55.7275 59.7852 56.9141 58.9795 57.9102 57.9541C58.9062 56.9287 59.7119 55.7422 60.3271 54.3945C60.9424 53.0469 61.25 51.582 61.25 50C61.25 48.4766 60.957 47.0264 60.3711 45.6494C59.7852 44.2725 58.9795 43.0859 57.9541 42.0898C56.9287 41.0938 55.7275 40.2881 54.3506 39.6729C52.9736 39.0576 51.5234 38.75 50 38.75C48.4473 38.75 46.9971 39.043 45.6494 39.6289C44.3018 40.2148 43.1152 41.0205 42.0898 42.0459C41.0645 43.0713 40.2588 44.2725 39.6729 45.6494C39.0869 47.0264 38.7793 48.4766 38.75 50C38.75 51.5527 39.043 53.0029 39.6289 54.3506C40.2148 55.6982 41.0205 56.8848 42.0459 57.9102C43.0713 58.9355 44.2578 59.7412 45.6055 60.3271C46.9531 60.9131 48.418 61.2207 50 61.25ZM72.5 27.5C72.5 28.291 72.6465 29.0234 72.9395 29.6973C73.2324 30.3711 73.6279 30.957 74.126 31.4551C74.624 31.9531 75.2246 32.3633 75.9277 32.6855C76.6309 33.0078 77.3633 33.1543 78.125 33.125C78.916 33.125 79.6484 32.9785 80.3223 32.6855C80.9961 32.3926 81.582 31.9971 82.0801 31.499C82.5781 31.001 82.9883 30.4004 83.3105 29.6973C83.6328 28.9941 83.7793 28.2617 83.75 27.5C83.75 26.709 83.6035 25.9766 83.3105 25.3027C83.0176 24.6289 82.6221 24.043 82.124 23.5449C81.626 23.0469 81.0254 22.6367 80.3223 22.3145C79.6191 21.9922 78.8867 21.8457 78.125 21.875C77.334 21.875 76.6016 22.0215 75.9277 22.3145C75.2539 22.6074 74.668 23.0029 74.1699 23.501C73.6719 23.999 73.2617 24.5996 72.9395 25.3027C72.6172 26.0059 72.4707 26.7383 72.5 27.5Z" fill="#31C0CF"/>
</g>
<defs>
<clipPath id="clip0">
<rect width="90" height="90" fill="white" transform="translate(5 5)"/>
</clipPath>
</defs>
</svg>
