<svg width="100" height="100" viewBox="0 0 100 100" fill="none" xmlns="http://www.w3.org/2000/svg">
<rect width="100" height="100" fill="white"/>
<path d="M95 83.75C95 85.3027 94.707 86.7529 94.1211 88.1006C93.5352 89.4482 92.7295 90.6494 91.7041 91.7041C90.6787 92.7588 89.4922 93.5645 88.1445 94.1211C86.7969 94.6777 85.332 94.9707 83.75 95V89.375C84.541 89.375 85.2734 89.2285 85.9473 88.9355C86.6211 88.6426 87.207 88.2471 87.7051 87.749C88.2031 87.251 88.6133 86.6504 88.9355 85.9473C89.2578 85.2441 89.4043 84.5117 89.375 83.75C89.375 82.959 89.2285 82.2266 88.9355 81.5527C88.6426 80.8789 88.2471 80.293 87.749 79.7949C87.251 79.2969 86.6504 78.8867 85.9473 78.5645C85.2441 78.2422 84.5117 78.0957 83.75 78.125H70.874L77.9932 85.2881L74.0381 89.2432L60.1074 75.3125L74.0381 61.3818L77.9932 65.3369L70.874 72.5H83.75C85.2441 72.5 86.6797 72.7783 88.0566 73.335C89.4336 73.8916 90.6494 74.7119 91.7041 75.7959C92.7588 76.8506 93.5645 78.0664 94.1211 79.4434C94.6777 80.8203 94.9707 82.2559 95 83.75ZM64.2383 61.25L58.6133 66.875H38.75V61.25H64.2383ZM38.75 83.75V78.125H52.9883L58.6133 83.75H38.75ZM72.5 44.375V50H38.75V44.375H72.5ZM33.125 44.375V50H27.5V44.375H33.125ZM33.125 61.25V66.875H27.5V61.25H33.125ZM27.5 83.75V78.125H33.125V83.75H27.5ZM21.875 89.375H64.2383L69.8633 95H16.25V16.25H38.75C38.75 14.6973 39.043 13.2471 39.6289 11.8994C40.2148 10.5518 41.0205 9.35059 42.0459 8.2959C43.0713 7.24121 44.2578 6.43555 45.6055 5.87891C46.9531 5.32227 48.418 5.0293 50 5C51.5527 5 53.0029 5.29297 54.3506 5.87891C55.6982 6.46484 56.8994 7.27051 57.9541 8.2959C59.0088 9.32129 59.8145 10.5078 60.3711 11.8555C60.9277 13.2031 61.2207 14.668 61.25 16.25H83.75V61.1621L78.125 55.5371V21.875H72.5V33.125H27.5V21.875H21.875V89.375ZM33.125 21.875V27.5H66.875V21.875H55.625V16.25C55.625 15.0781 55.3174 14.0527 54.7021 13.1738C54.0869 12.2949 53.252 11.5918 52.1973 11.0645C51.5234 10.7715 50.791 10.625 50 10.625C49.209 10.625 48.4766 10.7715 47.8027 11.0645C46.748 11.5625 45.9131 12.251 45.2979 13.1299C44.6826 14.0088 44.375 15.0488 44.375 16.25V21.875H33.125Z" fill="#31C0CF"/>
</svg>
