<svg width="100" height="100" viewBox="0 0 100 100" fill="none" xmlns="http://www.w3.org/2000/svg">
<g clip-path="url(#clip0)">
<rect width="100" height="100" fill="#F1F1F1"/>
<g clip-path="url(#clip1)">
<path d="M91.4244 86.2323C112.653 86.2323 129.863 68.9385 129.863 47.6055C129.863 26.2726 112.653 8.97876 91.4244 8.97876C70.1956 8.97876 52.9862 26.2726 52.9862 47.6055C52.9862 68.9385 70.1956 86.2323 91.4244 86.2323Z" fill="#C6E8ED"/>
<path d="M85.0123 36.7253H84.1713C83.3654 36.7253 82.6997 37.007 82.104 37.6056C81.5434 38.2042 81.2631 38.8732 81.2631 39.6831C81.2631 40.4929 81.5434 41.1972 82.139 41.7958C82.6997 42.3591 83.4005 42.6408 84.2064 42.6408H85.0123V36.7253Z" fill="#BE906B"/>
<path d="M64.7244 95.2113C64.7244 95.2113 63.8835 100.423 64.1988 102.711C64.5842 105.599 64.8646 107.007 66.2311 107.042C66.2661 107.113 66.4764 107.5 66.6866 107.782C67.002 108.169 67.7378 108.662 67.7378 107.394C67.7378 105.775 67.7378 102.641 67.7378 102.641C67.7378 102.641 68.5437 103.732 68.9291 104.331C69.2795 104.93 70.576 105.599 69.8402 103.31C68.8591 100.247 67.037 94.9648 67.037 94.9648L64.7244 95.2113Z" fill="#BE906B"/>
<path d="M65.9157 75.6691C67.6677 68.5212 75.061 50.5986 89.0417 50.5986C93.842 62.3592 83.6456 72.1831 79.4759 76.7958C75.3062 81.4085 72.1527 91.1972 69.8051 98.169L64.2689 97.8169C64.3039 97.8169 63.1476 86.8662 65.9157 75.6691Z" fill="url(#paint0_radial)"/>
<path d="M114.025 75.5986C111.607 55.6338 100.535 50.3522 97.0307 50.4578H89.2169C85.748 50.3169 74.6755 55.6338 72.2228 75.5986C70.0153 93.6972 73.0287 108.592 73.0287 108.592L93.1063 108.556L113.184 108.592C113.219 108.592 116.232 93.6972 114.025 75.5986Z" fill="url(#paint1_radial)"/>
<path d="M120.402 75.6691C118.65 68.5212 111.257 50.5986 97.276 50.5986C92.4756 62.3592 102.672 72.1831 106.842 76.7958C111.011 81.4085 114.165 91.1972 116.513 98.169L122.049 97.8169C122.014 97.8169 123.17 86.8662 120.402 75.6691Z" fill="#ED9583"/>
<path d="M96.435 47.9225H90.5834C84.9071 47.9225 80.3169 43.3098 80.3169 37.6056V34.8943C80.3169 28.5915 85.3976 23.4858 91.6697 23.4858H95.3138C101.586 23.4858 106.667 28.5915 106.667 34.8943V37.6056C106.702 43.3098 102.111 47.9225 96.435 47.9225Z" fill="#9A643D"/>
<path d="M98.5374 49.0494V43.5564H87.9555V47.9578C87.9205 49.3663 86.8693 50.7747 85.4677 50.986H85.5027C85.1173 51.0916 84.6968 51.1972 84.3114 51.3029C84.5917 52.2184 86.7642 55.1409 93.1063 55.1409C99.4484 55.1409 101.866 52.2536 102.041 51.3381C101.691 51.2325 98.8878 52.0423 98.5374 49.0494Z" fill="url(#paint2_radial)"/>
<path d="M100.5 42.2184C101.13 41.7255 101.831 41.5494 102.567 41.6903C103.303 41.8663 103.863 42.2888 104.249 43.0283C104.634 43.7677 104.774 44.5424 104.599 45.4227C104.424 46.3029 104.039 46.972 103.408 47.5001C102.777 47.9931 102.076 48.1691 101.341 48.0283C100.605 47.8874 100.044 47.4297 99.6236 46.6903C99.2381 45.9508 99.098 45.1762 99.2732 44.2959C99.4834 43.4156 99.8689 42.7114 100.5 42.2184Z" fill="#9A643D"/>
<path d="M97.8016 48.2043C98.0819 47.5352 98.5024 47.0423 99.1331 46.7254C99.7638 46.4085 100.395 46.3733 101.025 46.6198C101.656 46.831 102.076 47.2888 102.322 47.9226C102.567 48.5564 102.532 49.1902 102.252 49.8592C101.971 50.5282 101.516 51.0212 100.885 51.3381C100.254 51.655 99.6587 51.6902 99.028 51.4437C98.3973 51.1972 97.9768 50.7747 97.7316 50.1409C97.5213 49.5071 97.5564 48.8733 97.8016 48.2043Z" fill="#9A643D"/>
<path d="M96.7854 52.5352C96.8905 51.7958 97.2059 51.162 97.6964 50.7043C98.187 50.2113 98.7126 50 99.3082 50.0353C99.9039 50.0705 100.359 50.3169 100.71 50.8451C101.06 51.3733 101.165 52.0071 101.06 52.7465C100.92 53.4507 100.64 54.0493 100.114 54.5423C99.6236 55.0352 99.063 55.2817 98.4673 55.2465C97.8716 55.2113 97.4161 54.9296 97.0657 54.4014C96.7504 53.9085 96.6452 53.2747 96.7854 52.5352Z" fill="#9A643D"/>
<path d="M97.4511 54.0846C97.9767 53.9437 98.4323 54.0141 98.8878 54.331C99.3082 54.6479 99.5885 55.1409 99.7287 55.7747C99.8338 56.4085 99.7637 57.0071 99.4834 57.5705C99.2031 58.1339 98.8177 58.486 98.2921 58.662C97.7665 58.8029 97.311 58.7324 96.8555 58.4508C96.4 58.0986 96.1197 57.6057 96.0145 57.0071C95.9094 56.3733 95.9795 55.7747 96.2598 55.2113C96.5401 54.6479 96.9606 54.2606 97.4511 54.0846Z" fill="#9A643D"/>
<path d="M97.8717 58.1337C99.028 58.2041 99.6937 58.8732 99.904 60.176C100.114 61.4788 99.7988 62.5351 98.9229 63.4154C98.5024 63.8379 98.3272 64.2957 98.3622 64.7886C98.3973 65.0351 98.4673 65.2464 98.5725 65.4224L97.8717 65.0703C97.4162 64.7534 97.2059 64.2957 97.2059 63.7323C97.2059 63.3098 97.0658 62.9577 96.7504 62.7112C96.3299 62.3591 96.0496 62.0422 95.9094 61.7253C95.5941 61.0563 95.559 60.3168 95.8394 59.507C96.1898 58.5563 96.8555 58.0985 97.8717 58.1337Z" fill="#9A643D"/>
<path d="M84.5567 36.655H83.7158C82.9099 36.655 82.2441 36.9367 81.6484 37.5353C81.0878 38.1339 80.8075 38.8381 80.8075 39.648C80.8075 40.4931 81.0878 41.1973 81.6835 41.7959C82.2441 42.3593 82.9449 42.6409 83.7508 42.6409H84.5567V36.655Z" fill="url(#paint3_radial)"/>
<path d="M93.9823 48.0282H89.7075C85.8531 48.0282 82.6996 44.8944 82.6996 40.986V35.9155C82.6996 32.0423 85.8181 28.8733 89.7075 28.8733H93.9823C97.8366 28.8733 100.99 32.0071 100.99 35.9155V40.986C100.99 44.8944 97.8366 48.0282 93.9823 48.0282Z" fill="#F9DDBF"/>
<path d="M103.653 33.9788L103.022 30.9506C102.392 27.9929 99.3783 25.9858 95.9445 26.2675L92.6157 26.5492C92.6157 26.5492 92.861 29.507 93.8771 31.3732C94.613 32.7112 96.1547 33.3802 97.5913 33.7323C97.5913 33.7323 97.5913 33.7675 97.5913 33.8027C98.0468 35.7394 99.6236 36.2323 100.64 36.4788C101.831 36.7605 103.513 36.7605 103.513 36.7605L103.443 34.0492C103.548 33.9788 103.653 33.9788 103.653 33.9788Z" fill="#9A643D"/>
<path d="M84.3114 36.655V43.7677H90.1279V36.655H84.3114Z" fill="url(#paint4_radial)"/>
<path d="M86.7992 39.3311C87.2249 39.3311 87.5701 38.732 87.5701 37.9931C87.5701 37.2541 87.2249 36.655 86.7992 36.655C86.3735 36.655 86.0283 37.2541 86.0283 37.9931C86.0283 38.732 86.3735 39.3311 86.7992 39.3311Z" fill="#33312D"/>
<path d="M94.0874 39.3311C94.5131 39.3311 94.8583 38.732 94.8583 37.9931C94.8583 37.2541 94.5131 36.655 94.0874 36.655C93.6617 36.655 93.3165 37.2541 93.3165 37.9931C93.3165 38.732 93.6617 39.3311 94.0874 39.3311Z" fill="#33312D"/>
<path opacity="0.5" d="M89.2169 43.8028C89.5322 43.7676 89.8476 43.7676 90.1279 43.7324C90.4082 43.6972 90.6885 43.6972 90.9338 43.6268C91.1791 43.5916 91.4244 43.5211 91.6696 43.4507C91.9149 43.3803 92.1602 43.2394 92.4756 43.1338H92.5106C92.6157 43.0986 92.7208 43.1338 92.7909 43.2394C92.8259 43.2747 92.8259 43.3451 92.7909 43.3803C92.6858 43.7324 92.4755 44.0493 92.1602 44.2958C91.8448 44.5423 91.4944 44.6831 91.109 44.7535C90.7236 44.8239 90.3732 44.7887 90.0228 44.6831C89.6724 44.5775 89.357 44.4366 89.0767 44.1901C89.0066 44.1197 88.9716 43.9789 89.0767 43.9085C89.1118 43.838 89.1468 43.838 89.2169 43.8028Z" fill="#9A6541"/>
<path d="M91.5295 39.8943C91.5295 40.7041 90.8288 42.9929 90.128 43.1689C90.128 43.1689 90.0929 42.9225 90.0579 42.6056C89.9878 42.0774 89.6725 41.6196 89.1819 41.3379C88.7614 41.1267 88.2008 40.7041 88.2008 39.8943C88.2008 39.0844 88.8315 38.6619 89.252 38.4154C89.6725 38.2041 89.9528 37.7816 90.0229 37.2887C90.0929 36.7957 90.128 36.3027 90.128 36.3027C90.6185 36.6196 91.5295 39.2605 91.5295 39.8943Z" fill="#F9DDBF"/>
<path d="M79.476 25.4577C76.1472 27.1478 76.7429 34.8239 75.7267 34.9999C74.7106 35.176 73.9748 34.507 73.9748 34.507C73.9748 34.507 74.15 36.6197 76.813 37.2535C76.813 37.2535 74.22 36.9718 73.6945 36.3028C73.6945 36.3028 73.6945 39.3309 77.4086 39.3309C84.7669 39.3309 83.2953 35.2112 84.7669 32.3239C86.2386 29.4366 90.3031 28.8732 90.3031 28.8732C90.3031 28.8732 85.1173 22.5704 79.476 25.4577Z" fill="#9A643D"/>
<path d="M86.0985 41.2675C85.1875 41.2675 84.3115 40.9154 83.6808 40.2816C83.0151 39.6126 82.6296 38.7675 82.6296 37.8168C82.6296 36.8661 82.98 35.9858 83.6107 35.3168C84.2765 34.6478 85.1174 34.2605 86.0635 34.2605H86.0985C87.9907 34.2605 89.5674 35.8098 89.5674 37.7112C89.6025 39.6478 88.0607 41.2323 86.1336 41.2675C86.1336 41.2675 86.1336 41.2675 86.0985 41.2675ZM86.0985 35.1408C85.3627 35.1408 84.697 35.4225 84.2064 35.9506C83.7159 36.4436 83.4355 37.1126 83.4706 37.852C83.4706 38.5563 83.7509 39.2253 84.2765 39.7182C84.767 40.2112 85.4328 40.4929 86.1686 40.4577C87.6403 40.4225 88.7966 39.2253 88.7615 37.7816C88.7615 37.0774 88.4812 36.4084 87.9556 35.9154C87.4651 35.3873 86.7993 35.1408 86.0985 35.1408Z" fill="#E86E59"/>
<path d="M93.7019 41.2675C92.7909 41.2675 91.9149 40.9154 91.2842 40.2816C90.6184 39.6126 90.233 38.7675 90.233 37.8168C90.198 35.8802 91.7397 34.2957 93.6669 34.2605H93.7019C94.6129 34.2605 95.4889 34.6126 96.1196 35.2464C96.7854 35.9154 97.1708 36.7605 97.1708 37.7112C97.1708 38.6619 96.8204 39.5422 96.1897 40.2112C95.5239 40.8802 94.683 41.2675 93.7369 41.2675H93.7019ZM93.7019 35.1408C93.6669 35.1408 93.6669 35.1408 93.7019 35.1408C92.9661 35.1408 92.3003 35.4225 91.8098 35.9506C91.3192 36.4436 91.0389 37.1126 91.074 37.852C91.074 38.5563 91.3543 39.2253 91.8799 39.7182C92.3704 40.2112 93.0712 40.4929 93.772 40.4577C94.4728 40.4577 95.1385 40.176 95.6291 39.6478C96.1196 39.1549 96.3999 38.4858 96.3649 37.7464C96.3649 37.0422 96.0846 36.3732 95.559 35.8802C95.0334 35.3873 94.4027 35.1408 93.7019 35.1408Z" fill="#E86E59"/>
<path d="M89.1819 37.3944C88.9367 37.3944 88.7615 37.2184 88.7615 36.9719C88.7615 36.7254 88.9367 36.5494 89.1819 36.5494L90.6186 36.5142C90.8638 36.5142 91.039 36.6902 91.039 36.9367C91.039 37.1832 90.8638 37.3592 90.6186 37.3592L89.1819 37.3944Z" fill="#E86E59"/>
<path d="M96.7853 37.3944C96.5401 37.3944 96.3649 37.2183 96.3649 36.9719C96.3649 36.7254 96.5401 36.5493 96.7853 36.5493H101.13C101.13 36.5493 102.462 36.831 102.917 37.3944H96.7853Z" fill="#E86E59"/>
<path d="M49.272 73.6619C48.7815 78.345 50.0429 82.5352 52.9862 86.1971C55.9295 89.8591 59.7838 91.9366 64.4441 92.4295C69.1394 92.9225 73.309 91.6549 76.9531 88.6619C80.5972 85.669 82.6646 81.8309 83.1551 77.1479C83.4705 73.9788 83.015 71.0211 81.7886 68.345C81.3681 67.4295 81.4031 66.338 81.8586 65.4225L84.4165 60.5281L79.0555 62.0774C78.1445 62.3591 77.1283 62.1831 76.3575 61.5845C73.9748 59.7535 71.1716 58.6971 67.948 58.345C63.2527 57.8521 59.1181 59.0845 55.439 62.0774C51.8299 65.1056 49.7626 68.9436 49.272 73.6619Z" fill="white"/>
<path d="M59.1882 77.5001C60.1558 77.5001 60.9402 76.7119 60.9402 75.7396C60.9402 74.7672 60.1558 73.979 59.1882 73.979C58.2207 73.979 57.4363 74.7672 57.4363 75.7396C57.4363 76.7119 58.2207 77.5001 59.1882 77.5001Z" fill="#C7C5C3"/>
<path d="M65.9157 77.5001C66.8833 77.5001 67.6676 76.7119 67.6676 75.7396C67.6676 74.7672 66.8833 73.979 65.9157 73.979C64.9481 73.979 64.1637 74.7672 64.1637 75.7396C64.1637 76.7119 64.9481 77.5001 65.9157 77.5001Z" fill="#C7C5C3"/>
<path d="M72.6784 77.5001C73.6459 77.5001 74.4303 76.7119 74.4303 75.7396C74.4303 74.7672 73.6459 73.979 72.6784 73.979C71.7108 73.979 70.9264 74.7672 70.9264 75.7396C70.9264 76.7119 71.7108 77.5001 72.6784 77.5001Z" fill="#C7C5C3"/>
<path d="M53.6036 1.54936C41.9705 -0.774581 30.4075 5.45781 27.7796 15.4578C26.2028 21.3733 28.5154 26.9015 32.3698 31.6198C35.243 35.1409 31.7741 41.162 31.7741 41.162C31.7741 41.162 37.7308 38.2043 39.0623 37.6409C40.1485 37.1832 41.3048 37.0775 42.391 37.3944C42.9516 37.5353 43.5123 37.6761 44.0729 37.7818C55.706 40.1057 67.269 33.8733 69.8969 23.8733C72.5249 13.8733 65.2367 3.87331 53.6036 1.54936Z" fill="#FBC9B6"/>
<path d="M41.2697 21.3027C42.4308 21.3027 43.3721 20.3569 43.3721 19.1901C43.3721 18.0233 42.4308 17.0774 41.2697 17.0774C40.1086 17.0774 39.1674 18.0233 39.1674 19.1901C39.1674 20.3569 40.1086 21.3027 41.2697 21.3027Z" fill="#ED9583"/>
<path d="M49.2936 21.3027C50.4547 21.3027 51.396 20.3569 51.396 19.1901C51.396 18.0233 50.4547 17.0774 49.2936 17.0774C48.1325 17.0774 47.1913 18.0233 47.1913 19.1901C47.1913 20.3569 48.1325 21.3027 49.2936 21.3027Z" fill="#ED9583"/>
<path d="M57.3527 21.3027C58.5138 21.3027 59.4551 20.3569 59.4551 19.1901C59.4551 18.0233 58.5138 17.0774 57.3527 17.0774C56.1916 17.0774 55.2504 18.0233 55.2504 19.1901C55.2504 20.3569 56.1916 21.3027 57.3527 21.3027Z" fill="#ED9583"/>
<path d="M19.4618 39.9296C18.6209 40 17.6047 40.0704 16.5185 40.1056C16.5185 40.1056 16.5185 40.1056 16.4835 40.1056H16.4484C16.4134 40.1056 16.4134 40.1056 16.3783 40.1056C16.3433 40.1056 16.3083 40.1056 16.3083 40.0704C16.2382 40.0704 16.1681 40.0352 16.098 40C16.063 40 16.028 39.9648 15.9929 39.9648C15.9579 39.9648 15.9228 39.9296 15.8878 39.8944C15.8528 39.8591 15.8177 39.8591 15.7827 39.8239C15.7827 39.8239 15.7827 39.8239 15.7476 39.8239C15.7126 39.7887 15.6776 39.7887 15.6425 39.7535C15.6425 39.7535 15.6075 39.7535 15.6075 39.7183C15.5724 39.6831 15.5374 39.6479 15.5024 39.6479C15.5024 39.6479 15.4673 39.6479 15.4673 39.6127C15.4323 39.5775 15.3972 39.5422 15.3622 39.507L15.3272 39.4718C15.2921 39.4366 15.2571 39.4014 15.2571 39.3662L15.2221 39.331C15.187 39.2958 15.152 39.2253 15.152 39.1901C15.152 39.1901 15.152 39.1549 15.1169 39.1549C15.0819 39.0845 15.0469 39.0141 15.0118 38.9437C14.9417 38.7676 14.9067 38.6268 14.8366 38.4155C14.0307 35.669 14.0658 30.2465 15.3272 24.1197C15.7827 21.9014 14.4161 21.1268 12.3138 21.0916C11.6831 21.0916 10.9823 21.1268 10.2465 21.2324C9.26536 21.3732 8.21418 21.6197 7.19803 21.8662C6.8126 21.9718 6.42717 22.0775 6.04173 22.1831C5.90158 22.2183 5.79646 22.2535 5.6563 22.2887C2.3626 23.2746 -0.51063 24.5423 -0.51063 24.5423C-0.51063 24.5423 -0.475588 26.9014 -0.475588 29.6127C-0.475588 30.4577 -0.475588 31.338 -0.475588 32.2183C-0.475588 34.1197 -0.510629 35.8803 -0.580708 36.8662C-0.650786 37.8873 -0.966141 38.6972 -1.2815 39.2958C-1.70197 40.0704 -2.12244 40.4577 -2.12244 40.4577L-2.92834 41.6197C-2.92834 41.6197 -2.33268 42.3591 -1.45669 43.3098L0.155119 50.1408L4.14961 47.7113C6.9878 48.5211 19.1114 46.3732 20.2327 44.9648C21.3539 43.5563 19.4618 39.9296 19.4618 39.9296Z" fill="url(#paint5_radial)"/>
<path d="M53.7303 53.7324L50.2964 51.3732C50.2964 51.3732 46.6523 55.0352 38.8736 63.0985C36.9114 58.2042 34.809 52.7464 33.4075 48.345C33.4425 48.3098 18.1303 44.8239 20.7232 55.1056L29.2027 77.3591C31.0949 82.3239 35.65 85.1408 39.4342 83.6971L39.9949 83.4859C40.8358 83.169 41.4665 82.6056 41.9921 81.9014C48.4744 75.7746 53.7303 53.7324 53.7303 53.7324Z" fill="url(#paint6_radial)"/>
<path d="M34.7039 55.4929C34.7039 39.7535 19.4618 39.8943 19.4618 39.8943C17.0791 42.4647 13.1898 44.1901 8.77481 44.2957C4.32481 44.4013 0.365366 42.8873 -2.12243 40.4225L-9.86613 39.5774C-17.3996 39.7887 -21.9197 47.676 -21.7445 55.9858C-21.7445 55.9858 -12.8094 80.5281 -11.548 87.6408C-9.97125 96.4788 -10.0764 100.317 -10.0764 100.317C-10.0764 100.317 32.5665 100.141 32.7067 100.211C28.3268 81.0563 34.7039 63.8732 34.7039 55.4929Z" fill="url(#paint7_radial)"/>
<path d="M11.1224 24.5421L-2.01733 24.6126L-2.05237 16.9365C-2.05237 14.7534 -0.300401 12.9576 1.87204 12.9224L11.0524 12.8872C14.0307 12.8872 16.4835 15.2816 16.4835 18.3097V19.0844C16.5185 22.0773 14.1008 24.5069 11.1224 24.5421Z" fill="#594539"/>
<path d="M0.750862 27.6408C2.58928 27.6408 4.07961 26.1432 4.07961 24.2958C4.07961 22.4483 2.58928 20.9507 0.750862 20.9507C-1.08755 20.9507 -2.57788 22.4483 -2.57788 24.2958C-2.57788 26.1432 -1.08755 27.6408 0.750862 27.6408Z" fill="#BE8E68"/>
<path d="M12.4539 37.5703H11.1574C5.37594 37.6056 0.680669 32.9225 0.64563 27.1478V20.352C0.64563 17.9929 2.53776 16.0563 4.8854 16.0563L20.2677 15.9858L20.3378 29.6478C20.3378 33.9788 16.7988 37.5703 12.4539 37.5703Z" fill="#BE8E68"/>
<path d="M15.9579 28.8731L9.23037 28.9083C5.97171 28.9436 3.34375 26.3027 3.34375 23.0281L3.30872 16.69C3.30872 15.845 3.97446 15.1407 4.81541 15.1407L16.6938 15.0703C18.4808 15.0703 19.9524 16.514 19.9524 18.3097L19.9874 24.7534C20.0225 27.0069 18.2004 28.8379 15.9579 28.8731Z" fill="#BE8E68"/>
<path d="M16.3433 16.6196C13.5752 15.9154 11.3327 15.6337 8.49447 15.5281C4.07951 15.352 0.470459 16.0915 0.470459 16.0915L0.505498 14.7534C0.610616 11.7605 2.43266 8.97879 6.07676 9.50696C11.648 10.3168 10.4567 8.6971 12.8394 8.55626C15.1169 8.41541 15.6075 10.6689 16.5535 10.7041C18.8661 10.7746 18.4457 7.71119 21.9146 8.55626C24.8579 9.29569 26.5047 19.1548 16.3433 16.6196Z" fill="#594539"/>
<path d="M9.02792 25.2821C9.41496 25.28 9.72549 24.6949 9.72152 23.9754C9.71755 23.2559 9.40057 22.6744 9.01353 22.6765C8.6265 22.6787 8.31597 23.2637 8.31994 23.9832C8.32391 24.7028 8.64089 25.2843 9.02792 25.2821Z" fill="#594539"/>
<path d="M13.505 36.8661H12.3838V29.8943C12.3838 29.5422 12.559 29.1901 12.8743 28.9788L14.4511 27.9577C14.8015 27.7464 14.8716 27.2887 14.6613 26.9366L13.2948 24.8239C12.9795 24.3309 12.9094 16.4436 12.9094 16.4436L20.0574 17.6408L20.2326 30.0352C20.2326 33.7675 17.2192 36.8309 13.505 36.8661Z" fill="url(#paint8_radial)"/>
<path d="M-0.0201158 14.7184C-0.0201158 14.7184 5.79642 13.6269 5.37594 17.817C5.13067 20.1762 4.46492 20.5987 2.92319 20.7043C1.80193 20.7747 -0.195312 21.1269 -0.195312 21.1269L-0.0201158 14.7184Z" fill="#594539"/>
<path d="M16.1411 25.2468C16.5281 25.2446 16.8386 24.6596 16.8347 23.94C16.8307 23.2205 16.5137 22.639 16.1267 22.6411C15.7397 22.6433 15.4291 23.2283 15.4331 23.9478C15.4371 24.6674 15.754 25.2489 16.1411 25.2468Z" fill="#594539"/>
<path d="M-36.0055 56.7957L-16.3835 42.007C-12.0386 38.7323 -6.04689 39.3661 -3.0335 43.4506C0.0149231 47.4999 -1.0713 53.4506 -5.41618 56.7605L-25.0382 71.5492C-29.278 74.7535 -35.1296 74.1197 -38.0729 70.1408C-38.0729 70.1056 -43.574 64.1901 -36.0055 56.7957Z" fill="#85D3E7"/>
<path d="M53.7302 53.7324C53.7302 53.7324 54.8515 51.4789 56.7086 51.0564C58.0401 50.7395 60.5279 50.3874 61.8594 50.1761C62.4551 50.1057 63.1208 49.7536 63.6114 49.3662C63.6114 49.3662 66.9051 46.831 67.0452 46.6902C67.1854 46.5493 69.8484 42.4648 69.7432 42.4296C69.3578 42.2888 68.3767 42.817 67.8862 43.3099L66.3444 44.9296C65.7137 45.5986 63.8216 46.4789 62.5602 47.1127C61.509 47.6409 59.7921 47.3944 59.7921 47.3944C59.7921 47.3944 65.1881 44.6127 64.7676 43.8381C64.3472 43.0634 61.2287 44.7536 56.5684 45.5634C53.6952 46.0564 51.5228 47.9226 50.2964 51.3733L53.7302 53.7324Z" fill="#BE8E68"/>
<path d="M14.4862 31.1267C14.4161 30.9858 14.311 30.9154 14.1358 30.8802L13.9957 30.845L9.30037 29.8943H9.19525C9.0551 29.8943 8.94998 29.9295 8.8799 29.9999C8.77478 30.1056 8.73975 30.2112 8.73975 30.3872C8.73975 31.0915 8.98502 31.7253 9.44053 32.2534C9.89605 32.8168 10.4567 33.1689 11.1925 33.3098C11.8933 33.4506 12.559 33.345 13.1897 33.0281C13.8205 32.676 14.276 32.183 14.5563 31.5492C14.5563 31.4084 14.5563 31.2675 14.4862 31.1267Z" fill="#594539"/>
<path d="M14.4862 31.514C14.5563 31.4084 14.5563 31.2675 14.4862 31.1267C14.4161 30.9858 14.311 30.9154 14.1358 30.8802L13.9956 30.845L9.30037 29.8943H9.19525C9.0551 29.8943 8.94998 29.9295 8.8799 29.9999C8.77478 30.1056 8.73975 30.2112 8.73975 30.3872C9.58069 30.6689 10.5618 30.9154 11.613 31.1267C12.6992 31.4084 13.6803 31.514 14.4862 31.514Z" fill="#F8F8F8"/>
</g>
</g>
<defs>
<radialGradient id="paint0_radial" cx="0" cy="0" r="1" gradientUnits="userSpaceOnUse" gradientTransform="translate(78.7927 85.9842) scale(19.1358 19.2297)">
<stop stop-color="#E86E59"/>
<stop offset="1" stop-color="#ED9583"/>
</radialGradient>
<radialGradient id="paint1_radial" cx="0" cy="0" r="1" gradientUnits="userSpaceOnUse" gradientTransform="translate(118.626 90.7074) scale(28.6531 28.7937)">
<stop stop-color="#E86E59"/>
<stop offset="1" stop-color="#ED9583"/>
</radialGradient>
<radialGradient id="paint2_radial" cx="0" cy="0" r="1" gradientUnits="userSpaceOnUse" gradientTransform="translate(89.2583 45.5865) scale(8.57144 8.61348)">
<stop stop-color="#D1AA84"/>
<stop offset="1" stop-color="#F9DDBF"/>
</radialGradient>
<radialGradient id="paint3_radial" cx="0" cy="0" r="1" gradientUnits="userSpaceOnUse" gradientTransform="translate(84.8017 41.0805) scale(3.13417 3.14954)">
<stop stop-color="#D1AA84"/>
<stop offset="1" stop-color="#F9DDBF"/>
</radialGradient>
<radialGradient id="paint4_radial" cx="0" cy="0" r="1" gradientUnits="userSpaceOnUse" gradientTransform="translate(89.8043 40.1047) scale(3.59396 3.61159)">
<stop stop-color="#D1AA84"/>
<stop offset="1" stop-color="#F9DDBF"/>
</radialGradient>
<radialGradient id="paint5_radial" cx="0" cy="0" r="1" gradientUnits="userSpaceOnUse" gradientTransform="translate(12.3106 32.1481) scale(10.9216 10.9752)">
<stop stop-color="#A37755"/>
<stop offset="1" stop-color="#BE8E68"/>
</radialGradient>
<radialGradient id="paint6_radial" cx="0" cy="0" r="1" gradientUnits="userSpaceOnUse" gradientTransform="translate(24.4069 81.9791) rotate(12.3798) scale(19.3544 19.4407)">
<stop stop-color="#6DBDC9"/>
<stop offset="1" stop-color="#85D3E7"/>
</radialGradient>
<radialGradient id="paint7_radial" cx="0" cy="0" r="1" gradientUnits="userSpaceOnUse" gradientTransform="translate(-18.9021 78.4367) scale(29.3288 29.4726)">
<stop stop-color="#6DBDC9"/>
<stop offset="1" stop-color="#85D3E7"/>
</radialGradient>
<radialGradient id="paint8_radial" cx="0" cy="0" r="1" gradientUnits="userSpaceOnUse" gradientTransform="translate(12.4438 27.7284) scale(7.71476 7.75261)">
<stop stop-color="#A37755"/>
<stop offset="1" stop-color="#BE8E68"/>
</radialGradient>
<clipPath id="clip0">
<rect width="100" height="100" fill="white"/>
</clipPath>
<clipPath id="clip1">
<rect width="178" height="100" fill="white" transform="translate(-46)"/>
</clipPath>
</defs>
</svg>
