<svg width="100" height="100" viewBox="0 0 100 100" fill="none" xmlns="http://www.w3.org/2000/svg">
<g clip-path="url(#clip0)">
<rect width="100" height="100" fill="white"/>
<path d="M45.3409 87.6611C45.0479 88.7744 44.8282 89.9023 44.6817 91.0449C44.5353 92.1875 44.4327 93.3594 44.3741 94.5605C40.6242 94.1211 37.0501 93.2422 33.6517 91.9238C30.2533 90.6055 27.104 88.9209 24.2037 86.8701C21.3033 84.8193 18.6667 82.4463 16.2937 79.751C13.9207 77.0557 11.8993 74.126 10.2294 70.9619C8.55949 67.7979 7.27046 64.458 6.36227 60.9424C5.45409 57.4268 5 53.7793 5 50C5 45.8691 5.52733 41.8848 6.582 38.0469C7.63666 34.209 9.14542 30.6201 11.1083 27.2803C13.0711 23.9404 15.4148 20.9082 18.1394 18.1836C20.8639 15.459 23.9107 13.1152 27.2798 11.1523C30.6488 9.18945 34.223 7.68066 38.0022 6.62598C41.7814 5.57129 45.7803 5.0293 49.999 5C54.1298 5 58.0994 5.52734 61.9079 6.58203C65.7164 7.63672 69.3052 9.16016 72.6743 11.1523C76.0433 13.1445 79.0755 15.4883 81.7708 18.1836C84.466 20.8789 86.8244 23.9258 88.8458 27.3242C90.8672 30.7227 92.376 34.2969 93.3721 38.0469C94.3681 41.7969 94.9101 45.7812 94.998 50H91.878C91.4678 49.3262 91.043 48.667 90.6036 48.0225C90.1641 47.3779 89.6514 46.7627 89.0655 46.1768C88.8897 43.6279 88.4356 41.1523 87.7032 38.75H33.8714C33.6371 40.625 33.4613 42.4854 33.3441 44.3311C33.2269 46.1768 33.1537 48.0664 33.1244 50C33.1244 51.9043 33.183 53.7793 33.3002 55.625C33.4173 57.4707 33.6078 59.3457 33.8714 61.25H49.999C49.999 62.1875 50.0722 63.125 50.2187 64.0625C50.3652 65 50.5556 65.9375 50.79 66.875H34.8382C35.1898 68.5449 35.6585 70.376 36.2444 72.3682C36.8303 74.3604 37.5628 76.3086 38.4416 78.2129C39.3205 80.1172 40.3312 81.9043 41.4738 83.5742C42.6164 85.2441 43.9054 86.6064 45.3409 87.6611ZM85.55 33.125C84.4074 30.752 83.0598 28.5254 81.5071 26.4453C79.9544 24.3652 78.1966 22.4609 76.2338 20.7324C74.2709 19.0039 72.1909 17.4658 69.9937 16.1182C67.7965 14.7705 65.4235 13.6719 62.8747 12.8223C63.9294 14.2871 64.8668 15.8398 65.6871 17.4805C66.5074 19.1211 67.2545 20.8057 67.9283 22.5342C68.6021 24.2627 69.1734 26.0205 69.6421 27.8076C70.1109 29.5947 70.521 31.3672 70.8726 33.125H85.55ZM49.999 10.625C48.5342 10.625 47.1866 11.0205 45.9561 11.8115C44.7257 12.6025 43.5831 13.6426 42.5285 14.9316C41.4738 16.2207 40.5363 17.6709 39.716 19.2822C38.8957 20.8936 38.1487 22.5488 37.4749 24.248C36.8011 25.9473 36.2591 27.5586 35.8489 29.082C35.4388 30.6055 35.1019 31.9531 34.8382 33.125H65.1598C64.9254 31.9824 64.5885 30.6348 64.1491 29.082C63.7096 27.5293 63.1677 25.918 62.5231 24.248C61.8786 22.5781 61.1462 20.9375 60.3259 19.3262C59.5056 17.7148 58.5681 16.25 57.5135 14.9316C56.4588 13.6133 55.3016 12.5732 54.0419 11.8115C52.7821 11.0498 51.4345 10.6543 49.999 10.625ZM37.1673 12.7783C34.6771 13.6279 32.3041 14.7119 30.0483 16.0303C27.7925 17.3486 25.6978 18.8867 23.7642 20.6445C21.8307 22.4023 20.0729 24.3213 18.4909 26.4014C16.9089 28.4814 15.5613 30.7227 14.448 33.125H29.1254C29.4477 31.5137 29.8432 29.7998 30.3119 27.9834C30.7807 26.167 31.3666 24.3506 32.0697 22.5342C32.7728 20.7178 33.5345 18.9746 34.3548 17.3047C35.1751 15.6348 36.1126 14.126 37.1673 12.7783ZM10.6249 50C10.6249 53.8965 11.1669 57.6465 12.2508 61.25H28.2026C27.9682 59.375 27.7925 57.5146 27.6753 55.6689C27.5581 53.8232 27.4995 51.9336 27.4995 50C27.4995 48.0957 27.5581 46.2207 27.6753 44.375C27.7925 42.5293 27.9682 40.6543 28.2026 38.75H12.2508C11.1669 42.3535 10.6249 46.1035 10.6249 50ZM14.3601 66.875C15.5027 69.248 16.8503 71.4746 18.403 73.5547C19.9557 75.6348 21.7135 77.5537 23.6763 79.3115C25.6392 81.0693 27.7485 82.5928 30.0043 83.8818C32.2601 85.1709 34.6331 86.2695 37.1233 87.1777C36.0686 85.7129 35.1312 84.1602 34.3109 82.5195C33.4906 80.8789 32.7435 79.1943 32.0697 77.4658C31.3959 75.7373 30.8246 73.9795 30.3559 72.1924C29.8871 70.4053 29.4623 68.6328 29.0815 66.875H14.3601ZM82.4299 74.8291C84.3342 75.7959 86.0627 76.9824 87.6153 78.3887C89.1681 79.7949 90.4864 81.377 91.5703 83.1348C92.6543 84.8926 93.5039 86.7676 94.1191 88.7598C94.7343 90.752 95.0273 92.832 94.998 95H89.3731C89.3731 92.6855 88.9337 90.5029 88.0548 88.4521C87.1759 86.4014 85.9748 84.6143 84.4514 83.0908C82.928 81.5674 81.1262 80.3516 79.0462 79.4434C76.9662 78.5352 74.7836 78.0957 72.4985 78.125C70.1548 78.125 67.9722 78.5645 65.9508 79.4434C63.9294 80.3223 62.1423 81.5234 60.5896 83.0469C59.0369 84.5703 57.8211 86.3721 56.9422 88.4521C56.0633 90.5322 55.6239 92.7148 55.6239 95H49.999C49.999 92.8613 50.292 90.7959 50.8779 88.8037C51.4638 86.8115 52.2988 84.9219 53.3827 83.1348C54.4667 81.3477 55.785 79.7656 57.3377 78.3887C58.8904 77.0117 60.6189 75.8252 62.5231 74.8291C60.3259 73.2471 58.6267 71.2695 57.4256 68.8965C56.2244 66.5234 55.6239 63.9746 55.6239 61.25C55.6239 58.9355 56.0633 56.7529 56.9422 54.7021C57.8211 52.6514 59.0222 50.8643 60.5456 49.3408C62.069 47.8174 63.8561 46.6016 65.9068 45.6934C67.9576 44.7852 70.1548 44.3457 72.4985 44.375C74.8129 44.375 76.9955 44.8145 79.0462 45.6934C81.0969 46.5723 82.884 47.7734 84.4074 49.2969C85.9308 50.8203 87.1466 52.6221 88.0548 54.7021C88.963 56.7822 89.4024 58.9648 89.3731 61.25C89.3731 63.9453 88.7726 66.4795 87.5714 68.8525C86.3703 71.2256 84.6564 73.2178 82.4299 74.8291ZM72.4985 72.5C74.0512 72.5 75.5014 72.207 76.849 71.6211C78.1966 71.0352 79.3978 70.2295 80.4524 69.2041C81.5071 68.1787 82.3127 66.9922 82.8694 65.6445C83.426 64.2969 83.719 62.832 83.7483 61.25C83.7483 59.6973 83.4553 58.2471 82.8694 56.8994C82.2834 55.5518 81.4778 54.3506 80.4524 53.2959C79.4271 52.2412 78.2406 51.4355 76.8929 50.8789C75.5453 50.3223 74.0805 50.0293 72.4985 50C70.9458 50 69.4956 50.293 68.148 50.8789C66.8004 51.4648 65.5992 52.2705 64.5446 53.2959C63.4899 54.3213 62.6843 55.5078 62.1276 56.8555C61.571 58.2031 61.278 59.668 61.2487 61.25C61.2487 62.8027 61.5417 64.2529 62.1276 65.6006C62.7136 66.9482 63.5192 68.1494 64.5446 69.2041C65.5699 70.2588 66.7564 71.0645 68.1041 71.6211C69.4517 72.1777 70.9165 72.4707 72.4985 72.5Z" fill="#31C0CF"/>
</g>
<defs>
<clipPath id="clip0">
<rect width="100" height="100" fill="white"/>
</clipPath>
</defs>
</svg>
