<svg width="100" height="100" viewBox="0 0 100 100" fill="none" xmlns="http://www.w3.org/2000/svg">
<rect width="100" height="100" fill="white"/>
<path d="M95 78.0811C95 78.8721 94.8535 79.6045 94.5605 80.2783C94.2676 80.9521 93.8721 81.5527 93.374 82.0801C92.876 82.6074 92.2754 83.0176 91.5723 83.3105C90.8691 83.6035 90.1367 83.75 89.375 83.75H44.375C43.584 83.75 42.8516 83.6035 42.1777 83.3105C41.5039 83.0176 40.918 82.6221 40.4199 82.124C39.9219 81.626 39.5117 81.0254 39.1895 80.3223C38.8672 79.6191 38.7207 78.8867 38.75 78.125V72.5H10.3613C9.62891 72.5 8.94043 72.3682 8.2959 72.1045C7.65137 71.8408 7.08008 71.46 6.58203 70.9619C6.08398 70.4639 5.70312 69.8926 5.43945 69.248C5.17578 68.6035 5.0293 67.9004 5 67.1387C5 66.1133 5.16113 65.0879 5.4834 64.0625C5.80566 63.0371 6.33301 62.1436 7.06543 61.3818L16.25 51.7139V16.25H78.125V38.75H89.375C90.1367 38.75 90.8545 38.8965 91.5283 39.1895C92.2021 39.4824 92.7881 39.8779 93.2861 40.376C93.7842 40.874 94.1943 41.46 94.5166 42.1338C94.8389 42.8076 95 43.5254 95 44.2871V78.0811ZM38.75 66.875V55.625H20.293L11.2402 65.1611C11.0645 65.3662 10.9326 65.6299 10.8447 65.9521C10.7568 66.2744 10.6836 66.582 10.625 66.875H38.75ZM38.75 44.375C38.75 43.584 38.8965 42.8516 39.1895 42.1777C39.4824 41.5039 39.8779 40.918 40.376 40.4199C40.874 39.9219 41.4746 39.5117 42.1777 39.1895C42.8809 38.8672 43.6133 38.7207 44.375 38.75H72.5V21.875H21.875V50H38.75V44.375ZM89.375 78.125V44.375H44.375V78.125H89.375ZM61.25 66.875H72.5V72.5H61.25V66.875Z" fill="#31C0CF"/>
</svg>
