<svg width="100" height="100" viewBox="0 0 100 100" fill="none" xmlns="http://www.w3.org/2000/svg">
<rect width="100" height="100" fill="white"/>
<path d="M50 5C54.1309 5 58.1152 5.52734 61.9531 6.58203C65.791 7.63672 69.3652 9.16016 72.6758 11.1523C75.9863 13.1445 79.0186 15.4883 81.7725 18.1836C84.5264 20.8789 86.8848 23.9111 88.8477 27.2803C90.8105 30.6494 92.3193 34.2383 93.374 38.0469C94.4287 41.8555 94.9707 45.8398 95 50C95 54.1309 94.4727 58.1152 93.418 61.9531C92.3633 65.791 90.8398 69.3652 88.8477 72.6758C86.8555 75.9863 84.5117 79.0186 81.8164 81.7725C79.1211 84.5264 76.0889 86.8848 72.7197 88.8477C69.3506 90.8105 65.7617 92.3193 61.9531 93.374C58.1445 94.4287 54.1602 94.9707 50 95C45.8691 95 41.8848 94.4727 38.0469 93.418C34.209 92.3633 30.6348 90.8398 27.3242 88.8477C24.0137 86.8555 20.9814 84.5117 18.2275 81.8164C15.4736 79.1211 13.1152 76.0889 11.1523 72.7197C9.18945 69.3506 7.68066 65.7617 6.62598 61.9531C5.57129 58.1445 5.0293 54.1602 5 50C5 45.8691 5.52734 41.8848 6.58203 38.0469C7.63672 34.209 9.16016 30.6348 11.1523 27.3242C13.1445 24.0137 15.4883 20.9814 18.1836 18.2275C20.8789 15.4736 23.9111 13.1152 27.2803 11.1523C30.6494 9.18945 34.2383 7.68066 38.0469 6.62598C41.8555 5.57129 45.8398 5.0293 50 5ZM72.5 49.8682L38.75 27.5V72.5L72.5 49.8682Z" fill="#31C0CF"/>
</svg>
