<svg width="100" height="100" viewBox="0 0 100 100" fill="none" xmlns="http://www.w3.org/2000/svg">
<g clip-path="url(#clip0)">
<rect width="100" height="100" fill="#F1F1F1"/>
<path d="M43.5994 108C72.6492 108 96.1988 84.4505 96.1988 55.4007C96.1988 26.3508 72.6492 2.80127 43.5994 2.80127C14.5495 2.80127 -9 26.3508 -9 55.4007C-9 84.4505 14.5495 108 43.5994 108Z" fill="#C6E8ED"/>
<path d="M62.1202 26.4153C62.0276 37.4353 53.6932 46.2327 43.4141 46.1401C33.2276 46.0475 24.9858 36.9722 25.171 25.9523C25.2636 14.9324 29.616 6.32014 43.8771 6.22754C58.1382 6.22754 62.2128 15.3954 62.1202 26.4153Z" fill="#5A4539"/>
<path d="M36.0984 40.3978H30.5422C28.227 40.3978 26.2823 38.5457 26.2823 36.138C26.2823 33.8229 28.1344 31.8782 30.5422 31.8782H36.0984V40.3978Z" fill="#DFBA95"/>
<path d="M51.193 40.306H56.7493C59.0644 40.306 61.0091 38.3613 61.0091 36.0462C61.0091 33.7311 59.0644 31.7864 56.7493 31.7864H51.193V40.306Z" fill="#DFBA95"/>
<path d="M43.5068 62.7163C48.2632 62.7163 52.119 60.8921 52.119 58.6417C52.119 56.3914 48.2632 54.5671 43.5068 54.5671C38.7504 54.5671 34.8945 56.3914 34.8945 58.6417C34.8945 60.8921 38.7504 62.7163 43.5068 62.7163Z" fill="#ED9583"/>
<path d="M62.398 65.4944C58.9717 62.4385 55.1749 60.4938 51.7485 61.9755C46.8405 64.198 45.4514 72.2546 48.5074 76.5144C48.5074 76.5144 56.3788 89.8494 63.3241 104.111C68.6026 101.981 73.5106 98.9247 77.7704 95.3131C74.2514 84.3858 68.7878 71.2359 62.398 65.4944Z" fill="#ED9583"/>
<path d="M35.6353 61.9754C32.209 60.4938 28.4122 62.3459 24.9858 65.4944C18.5961 71.2359 13.1325 84.4783 9.52087 95.4057C13.7807 99.1099 18.6887 102.073 23.9672 104.203C31.0051 89.8494 38.8765 76.5143 38.8765 76.5143C41.9325 72.2545 40.5434 64.1979 35.6353 61.9754Z" fill="#ED9583"/>
<path d="M43.5994 104.851C56.7434 104.851 67.3988 94.1961 67.3988 81.052C67.3988 67.908 56.7434 57.2527 43.5994 57.2527C30.4554 57.2527 19.8 67.908 19.8 81.052C19.8 94.1961 30.4554 104.851 43.5994 104.851Z" fill="url(#paint0_radial)"/>
<path d="M21.8373 94.2945C22.3929 97.3505 22.5781 100.499 22.6707 103.555C29.0605 106.333 36.191 107.907 43.5994 107.907C51.1003 107.907 58.2309 106.333 64.7132 103.462C64.7132 100.406 64.991 97.2578 65.5466 94.2019L67.0283 85.4971H20.4482L21.8373 94.2945Z" fill="#ED9583"/>
<path d="M44.4329 108C47.3962 108 50.3596 107.63 53.1377 107.167V74.5698H44.4329V108Z" fill="url(#paint1_linear)"/>
<path d="M49.4335 54.7524V41.8804H37.7654V54.5672C37.7654 57.8084 36.7467 58.2714 36.7467 58.2714C36.7467 58.2714 37.7654 60.4013 40.9139 60.7717C41.2843 60.7717 41.4695 61.1421 41.6547 61.5125L43.692 67.4392L45.3589 61.6051C45.4515 61.2347 45.7293 60.8643 46.0998 60.7717C48.6927 60.4013 50.4522 58.2714 50.4522 58.2714C50.4522 58.2714 49.4335 57.7158 49.4335 54.7524Z" fill="url(#paint2_radial)"/>
<path d="M40.9138 60.8642C40.4508 60.7716 39.71 61.0494 39.1543 61.6977C38.5987 62.2533 35.2649 67.6244 35.2649 67.6244C35.2649 67.6244 33.5054 64.198 32.209 60.216C33.3202 59.1973 34.8019 57.4379 36.0058 56.697C36.654 57.6231 38.5987 60.3086 40.9138 60.8642Z" fill="#ED9583"/>
<path d="M46.0997 60.7717C46.5628 60.6791 47.3036 60.9569 47.8592 61.6051C48.4148 62.1608 51.7486 67.5318 51.7486 67.5318C51.7486 67.5318 53.5081 64.1055 54.8046 60.1235C53.6933 59.1048 52.2116 57.3453 51.0078 56.6045C50.4521 57.6231 48.4148 60.3087 46.0997 60.7717Z" fill="#ED9583"/>
<path d="M58.0457 31.6938C58.0457 42.5285 51.656 51.3259 43.692 51.3259C35.728 51.3259 29.2457 42.6211 29.2457 31.7864C29.2457 20.9516 35.6354 13.1729 43.5994 13.1729C51.5634 13.1729 58.0457 20.859 58.0457 31.6938Z" fill="#DFBA95"/>
<path d="M44.155 22.8037L43.7846 28.6378C43.692 31.6937 42.1177 34.2867 41.0991 35.7683C40.5434 36.5092 40.7287 37.5278 41.3769 38.0835C42.4881 39.1021 43.7846 40.5838 43.8772 42.0655L43.692 45.4918L34.9872 46.2327L34.2463 22.8963L44.155 22.8037Z" fill="url(#paint3_radial)"/>
<path d="M41.7472 43.3621C42.3955 43.3621 42.8585 43.3621 43.3215 43.3621C43.7846 43.3621 44.155 43.2695 44.618 43.1769C44.9884 43.0843 45.4514 42.9917 45.8219 42.8065C46.2849 42.6213 46.7479 42.4361 47.3035 42.1583C47.5813 42.0657 47.8592 42.1583 47.9518 42.4361C47.9518 42.5287 48.0444 42.6213 47.9518 42.7139C47.8592 43.4547 47.4887 44.0104 47.0257 44.566C46.5627 45.029 45.8219 45.3994 45.1736 45.5846C43.6919 45.9551 42.1177 45.3994 41.3768 44.1956C41.1916 44.0104 41.2842 43.6399 41.4694 43.5473C41.562 43.3621 41.6546 43.3621 41.7472 43.3621Z" fill="#BF8F68"/>
<path d="M49.7505 34.4702C50.4152 34.4582 50.9354 33.4122 50.9124 32.1339C50.8894 30.8555 50.3319 29.8289 49.6671 29.8409C49.0024 29.8528 48.4822 30.8989 48.5052 32.1772C48.5282 33.4555 49.0857 34.4821 49.7505 34.4702Z" fill="#3A312E"/>
<path d="M37.6195 34.4702C38.2842 34.4582 38.8044 33.4122 38.7814 32.1339C38.7584 30.8555 38.2009 29.8289 37.5361 29.8409C36.8714 29.8528 36.3512 30.8989 36.3742 32.1772C36.3972 33.4555 36.9547 34.4821 37.6195 34.4702Z" fill="#3A312E"/>
<path d="M59.2495 16.3215C59.2495 16.3215 51.6559 11.8765 43.5067 11.8765C35.3575 11.8765 27.764 16.4141 27.764 16.4141L25.9119 31.7864L29.0604 32.1569L31.6533 20.8591C31.9312 19.9331 32.7646 19.2848 33.7833 19.2848L53.2302 19.1922C54.2489 19.1922 55.0823 19.8405 55.3601 20.7665L58.0456 32.0643L61.1942 31.6938L59.2495 16.3215Z" fill="#5A4539"/>
<path d="M55.4528 10.4874C53.5081 -0.347308 43.7846 -3.49586 33.0425 0.949156C26.0972 3.8199 22.393 10.7652 20.1705 5.76459C20.1705 5.76459 14.7994 11.4135 16.3737 17.7106C17.8554 24.1003 23.6895 26.2302 28.7827 24.0077C32.2091 22.526 35.3576 16.7845 41.9325 13.0804C47.4888 10.0244 55.4528 10.4874 55.4528 10.4874Z" fill="#5A4539"/>
<path d="M72.6772 78.7371H14.6141C13.7807 78.7371 13.1324 79.3853 13.1324 80.2187V98.184C21.7447 104.389 32.3016 108 43.6919 108C55.0823 108 65.6392 104.389 74.2514 98.184V80.2187C74.1588 79.3853 73.5106 78.7371 72.6772 78.7371Z" fill="#605D5A"/>
<path d="M88.9578 57.2338C100.424 57.2338 109.72 47.9384 109.72 36.4719C109.72 25.0054 100.424 15.71 88.9578 15.71C77.4913 15.71 68.1958 25.0054 68.1958 36.4719C68.1958 47.9384 77.4913 57.2338 88.9578 57.2338Z" fill="white"/>
<path d="M88.9578 52.7102C97.926 52.7102 105.196 45.44 105.196 36.4718C105.196 27.5036 97.926 20.2334 88.9578 20.2334C79.9895 20.2334 72.7194 27.5036 72.7194 36.4718C72.7194 45.44 79.9895 52.7102 88.9578 52.7102Z" fill="#E1DFDD"/>
<path d="M88.9577 36.936C92.0966 36.936 94.6412 34.3914 94.6412 31.2525C94.6412 28.1137 92.0966 25.5691 88.9577 25.5691C85.8189 25.5691 83.2743 28.1137 83.2743 31.2525C83.2743 34.3914 85.8189 36.936 88.9577 36.936Z" fill="#B3AFAB"/>
<path d="M88.9577 36.9358C83.9702 36.9358 79.9106 40.9954 79.9106 45.9829V49.9265C82.4624 51.6663 85.5941 52.7102 88.9577 52.7102C92.3214 52.7102 95.3371 51.6663 98.0048 49.9265V45.9829C98.0048 43.4311 96.9609 41.2274 95.3371 39.6035C93.7133 37.9797 91.5095 36.9358 88.9577 36.9358Z" fill="#B3AFAB"/>
</g>
<defs>
<radialGradient id="paint0_radial" cx="0" cy="0" r="1" gradientUnits="userSpaceOnUse" gradientTransform="translate(43.8015 57.7795) scale(33.2092)">
<stop stop-color="#E86E59"/>
<stop offset="0.0881523" stop-color="#E97763"/>
<stop offset="0.3321" stop-color="#EC8C7A"/>
<stop offset="0.4858" stop-color="#ED9482"/>
<stop offset="1" stop-color="#ED9583"/>
</radialGradient>
<linearGradient id="paint1_linear" x1="33.0349" y1="92.0252" x2="47.3372" y2="91.1313" gradientUnits="userSpaceOnUse">
<stop offset="0.00219849" stop-color="#E86E59"/>
<stop offset="1" stop-color="#ED9583"/>
</linearGradient>
<radialGradient id="paint2_radial" cx="0" cy="0" r="1" gradientUnits="userSpaceOnUse" gradientTransform="translate(43.3674 45.4407) rotate(-0.176329) scale(11.1039)">
<stop stop-color="#9B643D"/>
<stop offset="0.2815" stop-color="#B78761"/>
<stop offset="0.5643" stop-color="#CDA37D"/>
<stop offset="0.8103" stop-color="#DBB48F"/>
<stop offset="0.9902" stop-color="#DFBA95"/>
</radialGradient>
<radialGradient id="paint3_radial" cx="0" cy="0" r="1" gradientUnits="userSpaceOnUse" gradientTransform="translate(42.704 36.789) scale(6.17728)">
<stop stop-color="#9B643D"/>
<stop offset="0.4544" stop-color="#B88963" stop-opacity="0.5456"/>
<stop offset="1" stop-color="#DFBA95" stop-opacity="0"/>
</radialGradient>
<clipPath id="clip0">
<rect width="100" height="100" fill="white"/>
</clipPath>
</defs>
</svg>
