<svg width="760" height="428" viewBox="0 0 760 428" fill="none" xmlns="http://www.w3.org/2000/svg">
<g clip-path="url(#clip0)">
<rect width="760" height="428" fill="#ECF0F1"/>
<rect x="33.1339" y="397.597" width="292.21" height="30.5" rx="15.25" fill="#C4C4C4"/>
<path d="M335.637 149.387C335.184 129.904 329.974 110.194 329.974 110.194L320.685 86.4072C320.685 86.4072 317.287 87.0869 316.608 90.485C315.928 93.8832 322.045 107.249 322.498 112.007C322.951 116.991 321.365 131.716 321.365 131.716C321.365 131.716 313.889 111.78 312.303 108.835C310.717 105.89 307.093 106.343 307.772 111.327C308.452 116.311 310.944 134.661 312.53 141.684C313.889 148.707 315.701 151.425 322.951 159.354L331.106 170.908L338.356 159.354C338.356 159.128 335.864 152.558 335.637 149.387Z" fill="#E0BB95"/>
<path d="M290.728 152.133C290.728 152.133 286.9 229.099 265.639 248.66C255.433 258.015 249.055 217.406 249.055 217.406C273.718 179.135 277.758 154.472 277.758 154.472L290.728 152.133Z" fill="#9B643D"/>
<path d="M277.971 147.03C274.782 132.147 274.782 116.626 274.782 116.626L277.546 97.916C277.546 97.916 280.31 98.3412 281.373 100.893C282.436 103.444 280.31 113.862 280.948 117.689C281.586 121.516 285.625 132.785 285.625 132.785C285.625 132.785 287.751 117.264 288.389 114.925C289.027 112.586 291.791 112.799 292.216 116.626C292.642 120.453 294.13 134.698 294.342 140.226C294.555 145.754 293.705 147.881 289.665 154.259L285.625 163.401L277.971 154.684C277.758 154.684 278.609 149.369 277.971 147.03Z" fill="#9B643D"/>
<path d="M280.522 260.141C266.702 286.506 236.724 326.902 176.766 327.115C145.512 327.328 125.739 302.452 125.739 302.452L124.25 251.212C124.25 251.212 193.35 266.095 249.055 217.193C249.055 217.193 280.948 259.291 280.522 260.141Z" fill="#BEE3E8"/>
<path d="M183.358 315.634V397.065C157.631 405.782 73.8609 405.357 47.7092 374.953C47.7092 285.23 92.7836 260.354 92.7836 260.354C101.288 255.889 111.068 253.338 121.274 253.338C155.718 253.55 183.358 281.403 183.358 315.634Z" fill="url(#paint0_radial)"/>
<path d="M155.93 398.553H297.744L325.597 317.76C326.66 314.571 324.321 311.381 321.132 311.381H190.374C187.61 311.381 185.271 313.082 184.42 315.634L155.93 398.553Z" fill="#E9E9E9"/>
<path fill-rule="evenodd" clip-rule="evenodd" d="M238.857 371.744L243.277 360.131H229.864L225.443 371.744H238.857ZM241.857 371.744H255.271L259.691 360.131H246.277L241.857 371.744ZM260.758 357.327L265.882 343.868H252.468L247.345 357.327H260.758ZM249.468 343.868H236.054L230.931 357.327H244.345L249.468 343.868Z" fill="#C8C6C4"/>
<path d="M15.8167 167.016C15.8167 167.016 15.8167 166.803 15.8167 167.016C15.8167 166.803 15.8167 166.803 15.8167 167.016C11.9896 160.638 13.0527 152.983 17.9429 148.093C11.3518 145.755 7.0995 139.163 8.16257 131.935C9.22565 124.918 14.9663 119.603 21.9825 119.178C18.3681 113.224 19.4312 105.358 24.7465 100.68C30.0619 95.79 37.9287 95.5774 43.4567 99.617C44.5197 92.8134 50.473 87.498 57.7019 87.2854C64.9308 87.0727 71.0966 91.9629 72.7975 98.554C78.1129 94.0891 85.9797 93.6638 91.5076 98.1287C97.2483 102.594 98.7366 110.248 95.7599 116.414C102.564 116.414 108.942 121.091 110.43 128.107C111.919 135.124 108.304 142.14 101.926 144.904C107.241 149.369 108.942 157.023 105.753 163.402C102.351 169.78 95.1221 172.757 88.3184 170.843C89.3815 176.796 86.8301 182.962 81.7274 186.151C81.0895 186.577 80.2391 187.002 79.3886 187.427C72.7975 190.191 65.1434 187.64 61.3163 182.112C57.9145 188.065 50.6856 191.042 43.8819 188.915C37.0782 186.789 32.8259 179.986 33.4638 173.182C27.2979 175.308 19.6438 172.969 15.8167 167.016Z" fill="#E0BB95"/>
<path d="M15.8167 167.016C15.8167 167.016 15.8167 166.803 15.8167 167.016C15.8167 166.803 15.8167 166.803 15.8167 167.016C11.9896 160.638 13.0527 152.983 17.9429 148.093C11.3518 145.755 7.0995 139.163 8.16257 131.935C9.22565 124.918 14.9663 119.603 21.9825 119.178C18.3681 113.224 19.4312 105.358 24.7465 100.68C30.0619 95.79 37.9287 95.5774 43.4567 99.617C44.5197 92.8134 50.473 87.498 57.7019 87.2854C64.9308 87.0727 71.0966 91.9629 72.7975 98.554C78.1129 94.0891 85.9797 93.6638 91.5076 98.1287C97.2483 102.594 98.7366 110.248 95.7599 116.414C102.564 116.414 108.942 121.091 110.43 128.107C111.919 135.124 108.304 142.14 101.926 144.904C107.241 149.369 108.942 157.023 105.753 163.402C102.351 169.78 95.1221 172.757 88.3184 170.843C89.3815 176.796 86.8301 182.962 81.7274 186.151C81.0895 186.577 80.2391 187.002 79.3886 187.427C72.7975 190.191 65.1434 187.64 61.3163 182.112C57.9145 188.065 50.6856 191.042 43.8819 188.915C37.0782 186.789 32.8259 179.986 33.4638 173.182C27.2979 175.308 19.6438 172.969 15.8167 167.016Z" fill="url(#paint1_radial)"/>
<path d="M135.731 223.784L131.904 224.847C103.627 233.352 73.8605 217.193 65.3559 188.915L64.2928 185.088C56.0008 157.448 71.7344 128.532 99.3743 120.24L104.477 118.752C132.117 110.46 161.033 126.194 169.325 153.834L170.813 158.936C178.892 186.364 163.371 215.492 135.731 223.784Z" fill="#E0BB95"/>
<path d="M92.7834 260.566C92.7834 260.566 98.5241 260.566 109.367 264.393C114.683 266.307 119.573 270.772 127.652 271.197C139.984 271.197 149.764 259.078 149.764 253.125C143.173 252.062 138.283 253.125 137.22 242.919C135.944 231.863 135.519 217.406 135.519 217.406L97.0357 212.515C97.0357 212.515 103.202 235.903 101.713 248.447C101.288 255.464 92.7834 260.566 92.7834 260.566Z" fill="url(#paint2_radial)"/>
<path d="M150.827 233.139L147.638 233.99C123.825 241.218 98.5239 227.611 91.5076 203.586L87.2553 189.34C80.239 166.165 93.4212 141.502 116.809 134.698L120.848 133.423C142.323 127.044 164.86 139.163 171.238 160.637L177.829 182.962C184.208 204.223 172.089 226.761 150.827 233.139Z" fill="#9B643D"/>
<path d="M161.246 159.362L138.071 169.567L149.764 208.688L174.002 203.16L161.246 159.362Z" fill="url(#paint3_radial)"/>
<path d="M87.255 187.852C79.3883 189.766 74.4981 197.845 76.4117 205.924C78.3252 213.791 86.4046 218.681 94.4839 216.768L99.3741 215.492L87.255 187.852Z" fill="#9B643D"/>
<g opacity="0.7">
<path opacity="0.7" d="M117.659 190.191C117.234 187.002 119.147 183.387 122.762 181.686C124.463 181.048 126.376 180.836 128.29 181.474C130.203 182.111 131.479 183.387 132.117 185.301C132.33 185.939 132.117 186.576 131.479 186.789C131.267 186.789 130.841 186.789 130.629 186.789L130.203 186.576C127.865 185.726 126.376 185.726 124.675 186.576C123.187 187.002 121.699 188.703 119.998 190.616L119.785 190.829C119.36 191.467 118.51 191.467 117.872 191.041C117.659 190.829 117.659 190.616 117.659 190.191Z" fill="#231F20"/>
</g>
<g opacity="0.7">
<path opacity="0.7" d="M152.103 179.773C151.678 176.584 153.591 172.969 157.206 171.268C158.907 170.631 160.82 170.418 162.734 171.056C164.647 171.694 165.923 172.969 166.561 174.883C166.773 175.521 166.561 176.159 165.923 176.371C165.71 176.371 165.285 176.371 165.073 176.371L164.647 176.159C162.309 175.308 160.82 175.308 159.119 176.159C157.631 176.584 156.143 178.285 154.442 180.198L154.229 180.411C153.804 181.049 152.953 181.049 152.316 180.623C152.316 180.411 152.103 180.198 152.103 179.773Z" fill="#231F20"/>
</g>
<path d="M134.881 192.955C136.582 196.357 147.851 202.31 147.851 202.31C147.851 202.31 147.213 199.333 149.977 197.207C154.654 194.018 155.717 187.427 152.316 182.749C149.764 179.347 147.425 178.922 143.598 178.072C140.197 177.221 138.921 172.969 138.921 172.969C138.921 172.969 130.204 184.025 134.881 192.955Z" fill="#9B643D"/>
<path d="M151.465 206.988C152.74 206.988 153.803 208.051 153.591 209.326C152.74 214.004 148.701 217.618 143.598 218.044C138.708 218.256 134.243 215.067 132.967 210.39C132.542 209.114 133.605 207.838 134.881 207.838L151.465 206.988Z" fill="#6D3713"/>
<path d="M94.4844 166.803C102.117 166.803 108.304 160.616 108.304 152.983C108.304 145.351 102.117 139.163 94.4844 139.163C86.8518 139.163 80.6644 145.351 80.6644 152.983C80.6644 160.616 86.8518 166.803 94.4844 166.803Z" fill="#E0BB95"/>
<path d="M85.3417 188.277C92.0349 188.277 97.4608 182.851 97.4608 176.158C97.4608 169.465 92.0349 164.039 85.3417 164.039C78.6485 164.039 73.2227 169.465 73.2227 176.158C73.2227 182.851 78.6485 188.277 85.3417 188.277Z" fill="#E0BB95"/>
<path d="M152.741 207.2C150.828 209.326 146.575 210.815 141.685 210.602C138.496 210.602 135.519 209.752 133.393 208.476C133.606 208.051 134.244 207.626 134.882 207.626L151.465 206.988C151.891 206.988 152.316 206.988 152.741 207.2Z" fill="white"/>
<path d="M147.213 405.57L64.718 409.397L65.9937 378.568L147.425 395.152L147.213 405.57Z" fill="#9B643D"/>
<path d="M94.4843 408.547L50.0478 410.673C31.9755 410.673 19.8565 391.963 27.298 375.379L64.0804 295.01L101.075 314.358L65.9939 378.355L94.4843 384.096V408.547Z" fill="#C6E9EE"/>
<path d="M142.535 404.932C142.535 404.932 149.552 407.271 154.442 407.909C160.82 408.759 169.75 406.208 169.75 406.208C169.75 406.208 176.129 405.995 181.657 406.208C187.61 406.421 193.776 409.397 197.603 409.61C203.131 410.035 203.131 405.357 198.453 404.72C193.138 403.869 184.208 396.002 176.341 395.365C168.262 394.727 142.535 394.302 142.535 394.302V404.932Z" fill="#9B643D"/>
<path d="M402.568 217.576C354.767 217.576 338.003 159.128 338.003 159.128L315.575 173.174C317.614 185.634 305.607 287.352 358.618 326.544C422.504 373.665 482.765 337.418 482.765 337.418L517.426 159.808C517.652 160.034 441.08 217.576 402.568 217.576Z" fill="url(#paint4_radial)"/>
<path d="M695.27 187.556L457.625 217.686L429.76 317.139L734.009 318.725C733.33 278.853 734.462 213.609 695.27 187.556Z" fill="#E3646A"/>
<path d="M416.848 427.24C416.621 404.585 404.841 141.794 582.225 142.927C653.813 143.38 711.582 180.306 711.582 226.295C711.582 231.279 710.902 236.036 709.543 240.567C725.401 264.128 734.916 299.469 736.275 352.027C736.501 364.713 735.369 376.947 732.65 388.5C732.424 399.375 733.103 414.553 732.65 427.24H416.848Z" fill="url(#paint5_radial)"/>
<path d="M620.285 168.526L571.804 180.533L535.557 159.691L544.166 78.1349L628.893 86.9701L620.285 168.526Z" fill="#E0BB95"/>
<path d="M627.307 94.2195C619.831 93.9929 613.941 87.8762 614.167 80.1737V78.8145C614.394 71.3385 620.511 65.4484 628.213 65.6749C635.689 65.9014 641.579 72.0181 641.353 79.7206V81.0799C641.126 88.5559 634.783 94.446 627.307 94.2195Z" fill="#E0BB95"/>
<path d="M531.026 91.7276C523.55 91.5011 517.66 85.3844 517.887 77.6819V76.3226C518.113 68.8467 524.23 62.9565 531.932 63.1831C539.408 63.4096 545.298 69.5263 545.072 77.2288V78.5881C544.845 86.064 538.502 91.9542 531.026 91.7276Z" fill="#E0BB95"/>
<path d="M604.653 115.741L549.602 114.382C537.143 114.155 527.401 103.734 527.854 91.5008L528.76 52.0821C529.213 33.2789 544.845 18.327 563.875 18.7801L595.591 19.6862C614.394 20.1393 629.346 35.7709 628.893 54.8006L627.987 94.2193C627.307 106.226 617.113 115.968 604.653 115.741Z" fill="#BF8F68"/>
<path d="M591.061 139.075L551.868 138.169C532.386 137.716 516.754 121.405 517.207 101.922C517.66 82.4392 533.971 66.8076 553.454 67.2607L627.987 69.0731L627.081 104.414C626.855 124.123 610.77 139.528 591.061 139.075Z" fill="#BF8F68"/>
<path d="M560.703 100.789C562.289 101.016 563.648 101.016 565.008 100.789C566.367 100.563 567.5 100.336 568.632 99.8832C569.765 99.4301 571.124 98.977 572.257 98.2974C573.39 97.6177 574.523 96.9381 575.655 95.5788C576.108 95.1257 576.561 95.1257 577.015 95.5788C577.241 95.8054 577.241 96.0319 577.241 96.2585C577.468 98.2974 576.788 100.336 575.429 101.922C574.07 103.508 572.484 104.641 570.445 105.32C568.632 106 566.367 106.226 564.328 105.773C562.289 105.32 560.25 104.188 559.344 102.375C559.118 101.922 559.344 101.242 559.797 101.016C560.25 100.789 560.477 100.789 560.703 100.789Z" fill="#9B643D"/>
<path d="M593.099 90.8214L541.447 89.4621C535.103 89.2356 530.12 84.0251 530.346 77.9084L530.799 55.9336C531.252 40.9817 543.712 29.2014 558.664 29.4279L586.302 30.1075C601.254 30.5606 613.035 43.0205 612.808 57.9725L612.355 72.2448C612.355 82.8923 603.52 91.0479 593.099 90.8214Z" fill="#E0BB95"/>
<path d="M620.964 54.1212V56.8397C607.824 55.9335 597.63 45.0594 597.856 31.6933C597.856 28.0686 598.763 24.897 600.122 21.7253C612.582 27.1624 621.191 39.6223 620.964 54.1212Z" fill="#BF8F68"/>
<path d="M538.049 47.3249C535.104 47.0983 532.612 49.5903 532.385 52.5354L531.026 89.4621L559.118 89.6886L560.477 48.231L538.049 47.3249Z" fill="url(#paint6_radial)"/>
<path fill-rule="evenodd" clip-rule="evenodd" d="M540.994 58.9833C533.42 58.9833 527.279 65.1235 527.279 72.698C527.279 80.2725 533.42 86.4128 540.994 86.4128C548.568 86.4128 554.709 80.2725 554.709 72.698C554.709 65.1236 548.568 58.9833 540.994 58.9833ZM522.086 72.698C522.086 62.2556 530.552 53.7904 540.994 53.7904C551.436 53.7904 559.902 62.2556 559.902 72.698C559.902 83.1404 551.436 91.6056 540.994 91.6056C530.552 91.6056 522.086 83.1404 522.086 72.698Z" fill="#E36D58"/>
<path fill-rule="evenodd" clip-rule="evenodd" d="M565.461 72.1228H556.852V66.9299H565.461V72.1228Z" fill="#E36D58"/>
<path d="M569.765 81.9861C569.765 81.9861 568.406 70.6589 560.477 72.0181C557.532 72.4712 551.189 74.5101 550.509 80.4003C549.603 86.2904 554.134 89.9151 559.344 90.1417C564.328 90.3682 569.539 86.97 569.765 81.9861Z" fill="#E0BB95"/>
<path d="M578.333 77.4113C578.405 74.2843 577.043 71.717 575.292 71.6769C573.541 71.6369 572.064 74.1393 571.992 77.2663C571.921 80.3933 573.282 82.9607 575.033 83.0007C576.784 83.0408 578.262 80.5383 578.333 77.4113Z" fill="#33312D"/>
<path d="M538.67 76.663C538.742 73.536 537.38 70.9687 535.629 70.9286C533.878 70.8886 532.4 73.391 532.329 76.518C532.257 79.645 533.619 82.2124 535.37 82.2524C537.121 82.2925 538.599 79.79 538.67 76.663Z" fill="#33312D"/>
<path fill-rule="evenodd" clip-rule="evenodd" d="M580.186 59.889C572.612 59.889 566.472 66.0293 566.472 73.6038C566.472 81.1782 572.612 87.3185 580.186 87.3185C587.761 87.3185 593.901 81.1782 593.901 73.6038C593.901 66.0293 587.761 59.889 580.186 59.889ZM561.279 73.6038C561.279 63.1614 569.744 54.6962 580.186 54.6962C590.629 54.6962 599.094 63.1614 599.094 73.6038C599.094 84.0462 590.629 92.5114 580.186 92.5114C569.744 92.5114 561.279 84.0462 561.279 73.6038Z" fill="#E36D58"/>
<path d="M534.651 7C534.651 7 536.01 15.6087 540.314 16.7414C544.618 17.8741 588.568 19.0069 588.568 19.0069L610.316 38.9427L537.822 37.1304C537.822 37.1304 524.003 36.9038 523.323 25.5766C522.644 14.2494 534.651 7 534.651 7Z" fill="#BF8F68"/>
<path fill-rule="evenodd" clip-rule="evenodd" d="M628.159 76.8793L595.763 76.1996L595.872 71.0079L628.268 71.6876L628.159 76.8793Z" fill="#E36D58"/>
<path d="M624.588 139.528L579.279 147.684L571.803 180.533H637.048L624.588 139.528Z" fill="#EE9683"/>
<path d="M587.208 172.151L579.279 147.684L632.744 135.451C632.744 135.451 634.103 145.872 643.391 152.668C643.391 152.895 587.208 172.151 587.208 172.151Z" fill="#EA8774"/>
<path d="M539.407 139.528L564.327 147.684L571.803 180.533H526.947L539.407 139.528Z" fill="#EE9683"/>
<path d="M556.399 172.151L564.328 147.684L531.252 135.451C531.252 135.451 529.893 145.872 520.605 152.668C520.831 152.895 556.399 172.151 556.399 172.151Z" fill="#EA8774"/>
<path d="M655.398 164.901C655.398 164.901 643.165 219.952 653.586 244.192C664.007 268.206 678.732 296.297 701.16 341.153C711.808 362.675 717.653 395.75 721.731 425.88C721.958 425.88 751.264 434.226 769.614 433.999C776.184 433.999 785.888 425.88 785.888 425.88C789.739 402.546 789.286 372.189 785.888 342.286C772.975 231.506 655.398 164.901 655.398 164.901Z" fill="#EE9683"/>
<path d="M719.511 402.999C715.433 379.892 708.41 357.691 700.028 341.153C677.6 296.297 662.874 268.206 652.453 244.192C642.032 220.178 632.971 147.684 644.071 152.442C683.716 169.432 775.467 224.709 785.888 342.512C787.927 366.299 788.38 388.048 786.114 407.757L719.511 402.999Z" fill="#EE9683"/>
<path d="M329.849 72.4022C329.423 73.0401 328.998 73.4653 328.148 73.8906L316.667 78.5681C315.178 79.2059 313.265 78.3555 312.627 76.8672C311.989 75.1662 312.839 73.4653 314.328 72.8275L325.809 68.1499C327.297 67.5121 329.211 68.3626 329.849 69.8509C330.274 70.7013 330.061 71.5518 329.849 72.4022Z" fill="#03DAC6"/>
<path d="M308.375 67.9375C307.737 69.2132 306.249 69.851 304.761 69.4258C303.06 69.0006 302.209 67.2996 302.634 65.5987L307.737 47.9517C308.162 46.2508 309.863 45.4003 311.564 45.8255C313.265 46.2508 314.116 47.9517 313.69 49.6526L308.588 67.2996C308.588 67.7249 308.375 67.9375 308.375 67.9375Z" fill="#03DAC6"/>
<path d="M295.193 70.2763C294.98 70.7015 294.555 71.1267 294.343 71.3393C292.854 72.4024 290.941 71.9772 290.09 70.7015L279.459 55.8184C278.396 54.3301 278.822 52.4166 280.097 51.5661C281.586 50.5031 283.499 50.9283 284.35 52.204L294.98 67.087C295.618 67.9375 295.618 69.2132 295.193 70.2763Z" fill="#03DAC6"/>
<path d="M288.814 82.1824C288.176 83.2455 287.113 83.8833 285.838 83.8833L273.506 83.4581C271.805 83.4581 270.529 81.9698 270.529 80.2689C270.529 78.5679 272.018 77.2922 273.719 77.2922L286.05 77.7175C287.751 77.7175 289.027 79.2058 289.027 80.9067C289.24 81.3319 289.027 81.7572 288.814 82.1824Z" fill="#03DAC6"/>
</g>
<defs>
<radialGradient id="paint0_radial" cx="0" cy="0" r="1" gradientUnits="userSpaceOnUse" gradientTransform="translate(38.9387 456.998) scale(129.333)">
<stop stop-color="#31C0CF"/>
<stop offset="1" stop-color="#C6E8ED"/>
</radialGradient>
<radialGradient id="paint1_radial" cx="0" cy="0" r="1" gradientUnits="userSpaceOnUse" gradientTransform="translate(103.791 165.549) rotate(-7.29629) scale(58.2944)">
<stop stop-color="#B0845C"/>
<stop offset="0.6784" stop-color="#D0A882"/>
<stop offset="1" stop-color="#E0BB95"/>
</radialGradient>
<radialGradient id="paint2_radial" cx="0" cy="0" r="1" gradientUnits="userSpaceOnUse" gradientTransform="translate(138.315 220.261) scale(30.2347)">
<stop stop-color="#591C17"/>
<stop offset="0.5453" stop-color="#7B422B"/>
<stop offset="0.9994" stop-color="#9B643D"/>
</radialGradient>
<radialGradient id="paint3_radial" cx="0" cy="0" r="1" gradientUnits="userSpaceOnUse" gradientTransform="translate(142.65 190.83) scale(23.6362)">
<stop stop-color="#704323"/>
<stop offset="1" stop-color="#9B643D"/>
</radialGradient>
<radialGradient id="paint4_radial" cx="0" cy="0" r="1" gradientUnits="userSpaceOnUse" gradientTransform="translate(543.831 357.424) scale(192.111)">
<stop offset="0.1073" stop-color="#E36D58"/>
<stop offset="1" stop-color="#ED9583"/>
</radialGradient>
<radialGradient id="paint5_radial" cx="0" cy="0" r="1" gradientUnits="userSpaceOnUse" gradientTransform="translate(789.284 361.958) scale(153.857)">
<stop offset="0.1073" stop-color="#E36D58"/>
<stop offset="1" stop-color="#ED9583"/>
</radialGradient>
<radialGradient id="paint6_radial" cx="0" cy="0" r="1" gradientUnits="userSpaceOnUse" gradientTransform="translate(560.046 82.345) scale(16.7491)">
<stop stop-color="#9B643D"/>
<stop offset="0.5286" stop-color="#BE906A"/>
<stop offset="1" stop-color="#E0BB95"/>
</radialGradient>
<clipPath id="clip0">
<rect width="760" height="428" fill="white"/>
</clipPath>
</defs>
</svg>
