<svg width="760" height="428" viewBox="0 0 760 428" fill="none" xmlns="http://www.w3.org/2000/svg">
<g clip-path="url(#clip0)">
<rect width="760" height="428" fill="#ECF0F1"/>
<path d="M281.38 429H59.6482C50.5008 429 43 421.499 43 412.352V152.201C43 143.053 50.5008 135.552 59.6482 135.552H281.38C290.528 135.552 298.029 143.053 298.029 152.201V412.352C298.029 421.499 290.528 429 281.38 429Z" fill="#31C0CF"/>
<path d="M332.606 429H119.472C110.508 429 103.007 421.682 103.007 412.535V152.018C103.007 143.053 110.325 135.552 119.472 135.552H332.606C341.571 135.552 349.071 142.87 349.071 152.018V412.718C349.071 421.682 341.754 429 332.606 429Z" fill="#C6E8ED"/>
<path d="M502.015 116.16L342.119 69.6912C338.643 68.5936 334.801 70.606 333.886 74.2649L286.32 237.82C285.222 241.296 287.235 245.138 290.894 246.053L450.79 292.521C454.266 293.619 458.108 291.606 459.022 287.947L506.589 124.393C507.686 120.917 505.674 117.258 502.015 116.16Z" fill="url(#paint0_linear)"/>
<path d="M399.016 124.209L352.181 110.305C348.705 109.208 345.047 111.22 343.949 114.696L309.555 230.685C308.457 234.161 310.469 237.82 313.945 238.917L360.78 252.821C364.256 253.919 367.915 251.907 369.013 248.431L403.407 132.442C404.504 128.966 402.675 125.124 399.016 124.209Z" fill="#E1DFDD"/>
<path d="M470.731 145.431L423.897 131.527C420.421 130.43 416.762 132.442 415.664 135.918L381.27 251.907C380.172 255.383 382.185 259.042 385.661 260.14L432.495 274.044C435.971 275.141 439.63 273.129 440.728 269.653L475.122 153.664C476.22 150.188 474.207 146.529 470.731 145.431Z" fill="#E1DFDD"/>
<path d="M352.166 86.6635L348.154 100.358L480.362 139.082L484.373 125.388L352.166 86.6635Z" fill="#E1DFDD"/>
<path d="M354.925 401.375H153.683C147.829 401.375 143.072 396.618 143.072 390.764V174.52C143.072 168.666 147.829 163.909 153.683 163.909H354.925C360.78 163.909 365.536 168.666 365.536 174.52V390.764C365.719 396.618 360.78 401.375 354.925 401.375Z" fill="#85D3E7"/>
<path d="M146.184 244.589H136.487C133.011 244.589 130.084 241.845 130.084 238.186V195.925C130.084 192.449 132.828 189.522 136.487 189.522H146.184C149.66 189.522 152.587 192.266 152.587 195.925V238.186C152.404 241.845 149.66 244.589 146.184 244.589Z" fill="#31C0CF"/>
<path d="M146.182 375.213H136.486C133.01 375.213 130.083 372.469 130.083 368.81V326.549C130.083 323.073 132.827 320.146 136.486 320.146H146.182C149.658 320.146 152.586 322.89 152.586 326.549V368.81C152.403 372.286 149.658 375.213 146.182 375.213Z" fill="#31C0CF"/>
<path d="M254.304 206.902C212.592 206.902 178.747 240.747 178.747 282.459C178.747 324.171 212.592 358.017 254.304 358.017C296.016 358.017 329.862 324.171 329.862 282.459C329.862 240.747 296.016 206.902 254.304 206.902ZM306.627 282.642C306.627 287.948 305.896 293.07 304.432 297.827L287.418 288.131C287.784 286.301 287.967 284.655 287.967 282.825C287.967 268.006 278.271 255.383 264.915 250.992V231.6C288.699 236.174 306.627 257.213 306.627 282.642ZM242.413 231.6V251.175C229.789 255.932 220.642 268.189 220.642 282.642C220.642 284.472 220.825 286.301 221.191 287.948L204.177 297.644C202.713 292.887 201.981 287.765 201.981 282.459C201.981 257.761 219.361 236.905 242.413 231.6ZM254.304 334.965C238.754 334.965 224.667 328.196 215.154 317.402L231.985 307.706C238.022 313.011 245.706 316.305 254.304 316.305C262.903 316.305 270.77 313.011 276.624 307.706L293.455 317.402C283.942 328.013 269.855 334.965 254.304 334.965Z" fill="#31C0CF"/>
<path d="M557.814 210.927C535.86 216.415 446.948 238.369 416.213 244.955C414.017 245.504 412.554 247.699 413.103 249.894C418.408 272.397 444.387 381.8 460.669 401.924C461.767 403.204 463.413 403.753 465.06 403.204L608.125 361.858C610.503 361.126 611.784 358.565 610.686 356.37C601.904 336.612 565.315 252.822 562.937 214.769C562.571 212.207 560.192 210.378 557.814 210.927Z" fill="white"/>
<path d="M508.602 315.573L500.003 318.317L497.259 309.718L483.538 265.445C460.852 275.507 448.778 301.303 456.462 325.635C464.694 351.979 492.502 366.615 518.847 358.382C543.179 350.882 557.449 326.367 553.058 302.035L508.602 315.573Z" fill="#E86E59"/>
<path d="M479.878 254.651L499.82 318.683L563.851 298.741C551.045 265.079 515.004 246.053 479.878 254.651Z" fill="#EE9683"/>
<path d="M685.694 182.172L564.217 157.84C561.473 157.291 559.826 154.73 560.375 151.985L585.256 27.9471C585.805 25.2028 588.366 23.5563 591.11 24.1052L712.587 48.4372C715.332 48.986 716.978 51.5473 716.429 54.2915L691.548 178.33C691 180.891 688.438 182.721 685.694 182.172Z" fill="white"/>
<path d="M695.94 45.5099H581.597V159.852H695.94V45.5099Z" fill="#FFE5B9"/>
<path d="M593.619 34.9071L570.999 147.367L683.817 170.059L706.438 57.5997L593.619 34.9071Z" fill="#FFD590"/>
<path d="M654.044 83.9289C660.915 83.9289 666.485 78.3592 666.485 71.4885C666.485 64.6179 660.915 59.0481 654.044 59.0481C647.174 59.0481 641.604 64.6179 641.604 71.4885C641.604 78.3592 647.174 83.9289 654.044 83.9289Z" fill="#FFE5B9"/>
<path d="M620.016 157.108L674.534 78.4404L689.536 139.728L683.499 170.097L620.016 157.108Z" fill="url(#paint1_linear)"/>
<path d="M571.535 147.595L581.414 98.1987L618.736 44.7781L647.824 162.596L571.535 147.595Z" fill="#E36D58"/>
</g>
<defs>
<linearGradient id="paint0_linear" x1="421.339" y1="209.746" x2="566.055" y2="376.549" gradientUnits="userSpaceOnUse">
<stop stop-color="white"/>
<stop offset="1" stop-color="#E1DFDD"/>
</linearGradient>
<linearGradient id="paint1_linear" x1="608.253" y1="135.557" x2="678.753" y2="124.335" gradientUnits="userSpaceOnUse">
<stop stop-color="#E36D58"/>
<stop offset="0.9136" stop-color="#ED9583"/>
</linearGradient>
<clipPath id="clip0">
<rect width="760" height="428" fill="white"/>
</clipPath>
</defs>
</svg>
